<?xml version="1.0" encoding="utf-8"?>
<COLLADA xmlns="http://www.collada.org/2005/11/COLLADASchema" version="1.4.1" xmlns:xsi="http://www.w3.org/2001/XMLSchema-instance">
  <asset>
    <contributor>
      <author>Blender User</author>
      <authoring_tool>Blender 3.0.1 commit date:2022-01-25, commit time:17:19, hash:dc2d18018171</authoring_tool>
    </contributor>
    <created>2024-03-28T23:47:42</created>
    <modified>2024-03-28T23:47:42</modified>
    <unit name="meter" meter="1"/>
    <up_axis>Z_UP</up_axis>
  </asset>
  <library_effects>
    <effect id="cspain_hostatir-effect">
      <profile_COMMON>
        <technique sid="common">
          <lambert>
            <emission>
              <color sid="emission">0 0 0 1</color>
            </emission>
            <diffuse>
              <color sid="diffuse">0.8 0.8 0.8 1</color>
            </diffuse>
            <reflectivity>
              <float sid="specular">0.5</float>
            </reflectivity>
          </lambert>
        </technique>
      </profile_COMMON>
    </effect>
  </library_effects>
  <library_images/>
  <library_materials>
    <material id="cspain_hostatir-material" name="cspain_hostatir">
      <instance_effect url="#cspain_hostatir-effect"/>
    </material>
  </library_materials>
  <library_geometries>
    <geometry id="forearms-mesh" name="forearms">
      <mesh>
        <source id="forearms-mesh-positions">
          <float_array id="forearms-mesh-positions-array" count="921">-0.1846693 0.05650091 3.412825 0.1893657 0.05650103 3.412827 0.002353429 0.1853684 3.435464 -0.1911373 -0.09667634 3.662559 -0.2143144 0.03462958 3.6394 0.2190104 0.03462964 3.639402 0.1958159 -0.09667623 3.662565 0.159713 -0.2734912 3.693755 0.159713 -0.2734912 3.693755 -0.1133424 -0.2734914 3.69375 -0.1196928 0.09995722 3.627876 0.002348065 0.1884688 3.612265 0.1243954 0.09996229 3.627879 -0.1232106 -0.2763749 3.762241 0.1327525 -0.2666314 3.758374 -0.1617993 -0.00349617 3.967428 -0.2253894 -0.3384999 3.629899 -0.005575895 -0.1955636 4.007517 -0.005575895 -0.1955636 4.007517 0.1770133 -0.009671986 3.971139 0.2250198 -0.3085014 3.628286 -0.2308215 0.137784 3.581891 0.2271122 0.1377841 3.58307 0.02306705 -0.3980607 3.66398 0.02306705 -0.3980607 3.66398 0.01691287 -0.3012118 3.779936 0.01691287 -0.3012118 3.779936 0.2257032 -0.1717104 3.743113 0.2391294 -0.01998966 3.725526 0.1173384 0.1316604 3.708493 0.00412786 0.207049 3.664802 0.00412786 0.207049 3.664802 -0.1072658 0.1329212 3.708899 -0.2391493 -0.01973295 3.726268 -0.2276244 -0.1729553 3.746839 0.09883302 -0.3392715 3.344537 0.09883302 -0.3392715 3.344537 -0.09415185 -0.3392716 3.344534 -0.09415185 -0.3392716 3.344534 -0.1550342 -0.2734914 3.69375 -0.1550342 -0.2734914 3.69375 0.004187583 0.1496703 3.964475 0.004187583 0.1496703 3.964475 0.0168935 -0.301153 3.78001 0.0168935 -0.301153 3.78001 -0.001853585 0.25745 3.581189 -0.001853585 0.25745 3.581189 0.04941892 -0.01275509 4.12887 0.005945861 0.03278172 4.131777 0.005945861 0.03278172 4.131777 0.003916144 -0.05627542 4.144915 0.003916144 -0.05627542 4.144915 -0.04138791 -0.002249777 4.127947 0.004463851 0.007944464 4.274712 0.004463851 0.007944464 4.274712 2.065455 1.172696 3.231978 1.464557 0.4675624 3.546077 1.432488 1.394179 3.299844 2.204608 0.4666053 3.217058 0.8022456 1.164969 3.367417 0.6842718 0.462951 3.380065 1.470162 -0.4590536 3.545475 2.197517 -0.4544419 3.217818 0.6898766 -0.4636647 3.379464 2.079543 -1.15646 3.230467 1.449301 -1.385669 3.29804 0.8163333 -1.164188 3.365906 2.072125 1.172696 3.294179 1.439157 1.394179 3.362045 1.465629 0.4675624 3.556078 2.198581 0.4721744 3.280621 0.8089151 1.164969 3.429618 0.6909409 0.462951 3.442267 1.471234 -0.4590536 3.555477 2.204186 -0.4544419 3.28002 0.6965454 -0.4636648 3.441666 2.086211 -1.15646 3.292668 1.455969 -1.385669 3.360242 0.8230023 -1.164187 3.428107 1.449301 -1.385669 3.29804 2.079543 -1.15646 3.230467 2.086211 -1.15646 3.292668 1.455969 -1.385669 3.360242 1.432488 1.394179 3.299844 0.8022456 1.164969 3.367417 0.8089151 1.164969 3.429618 1.439157 1.394179 3.362045 0.6842718 0.462951 3.380065 0.6898766 -0.4636647 3.379464 0.6965454 -0.4636648 3.441666 0.6909409 0.462951 3.442267 2.197517 -0.4544419 3.217818 2.204608 0.4666053 3.217058 2.198581 0.4721744 3.280621 2.204186 -0.4544419 3.28002 0.8163333 -1.164188 3.365906 0.8230023 -1.164187 3.428107 2.065455 1.172696 3.231978 2.072125 1.172696 3.294179 -0.4065696 -0.1895678 2.896702 -0.4065696 -0.1895678 2.896702 -0.4065696 -0.1895678 2.896702 -0.3949369 0.302518 2.905423 -0.3949369 0.302518 2.905423 -0.3949369 0.302518 2.905423 -0.3949369 0.302518 2.905423 0.3653438 0.2998411 2.913104 0.3653438 0.2998411 2.913104 0.3653438 0.2998411 2.913104 0.3653438 0.2998411 2.913104 0.5049148 0.1230346 3.310166 0.954119 0.02869606 3.056115 0.954119 0.02869606 3.056115 0.9932108 -0.1401687 3.149223 1.023467 0.01714622 3.311012 0.4984012 -0.04742103 3.285477 -1.039158 -0.1396837 3.118691 -1.000205 0.02859675 3.025865 -1.000205 0.02859675 3.025865 -1.069166 0.01708716 3.279953 0.3457458 -0.3160675 2.288879 0.3457458 -0.3160675 2.288879 -0.3513659 -0.3160716 2.289584 -0.3513659 -0.3160716 2.289584 0.3701718 0.3267805 2.327928 0.3701718 0.3267805 2.327928 -0.3757987 0.3267757 2.328675 -0.3757987 0.3267757 2.328675 -0.008786559 -0.3982031 1.933456 0.001017034 0.1281811 3.399352 0.001017034 0.1281811 3.399352 -0.02243888 -0.3679627 2.895315 9.19615e-4 -0.1549525 3.37659 -0.5150049 0.1183338 3.184295 -0.5150049 0.1183338 3.184295 -0.424343 0.02788597 3.317877 -0.424343 0.02788597 3.317877 -0.424343 0.02788597 3.317877 0.3779656 -0.1960439 2.893871 0.3779656 -0.1960439 2.893871 0.3779656 -0.1960439 2.893871 -0.2170963 0.1631294 3.219925 0.206888 0.1640561 3.21764 0.4871316 0.122612 3.180209 0.4871316 0.122612 3.180209 0.3992865 0.02788615 3.317877 0.3992865 0.02788615 3.317877 0.3992865 0.02788615 3.317877 1.060197 0.1978641 3.135154 1.788226 -0.1246852 2.97166 1.789189 0.09826642 2.97081 1.789189 0.09826642 2.97081 1.574188 0.09794998 3.009413 1.574188 0.09794998 3.009413 1.574188 0.09794998 3.009413 1.574188 0.09794998 3.009413 1.5894 -0.1209571 3.042553 1.5894 -0.1209571 3.042553 1.826192 0.1168664 3.104564 1.826192 0.1168664 3.104564 1.625907 0.01647067 3.179013 1.625907 0.01647067 3.179013 1.625907 0.01647067 3.179013 1.829643 -0.1231874 3.161462 1.829643 -0.1231874 3.161462 -0.5350525 -0.04727518 3.269844 -1.106159 0.1971797 3.104687 -0.5415306 0.1226562 3.294463 -1.618197 -0.1209691 3.012535 -1.618197 -0.1209691 3.012535 -1.854914 0.1168783 3.074839 -1.854914 0.1168783 3.074839 -1.817108 -0.1246975 2.941875 -1.603024 0.09796029 2.979374 -1.603024 0.09796029 2.979374 -1.603024 0.09796029 2.979374 -1.603024 0.09796029 2.979374 -1.65454 0.01647275 3.149054 -1.65454 0.01647275 3.149054 -1.65454 0.01647275 3.149054 -1.858297 -0.1231993 3.131747 -1.858297 -0.1231993 3.131747 -1.818072 0.09827679 2.941027 -1.818072 0.09827679 2.941027 -1.634503 -2.856574 3.079588 -1.594041 -2.85602 2.926491 -1.594041 -2.85602 2.926491 -1.606031 -2.447961 3.091264 -1.565454 -2.447407 2.938197 -1.565454 -2.447407 2.938197 -1.647737 -2.318166 3.084938 -1.772966 -2.318725 2.964119 -1.772966 -2.318725 2.964119 -1.6539 1.794581 3.087498 -1.77913 1.794023 2.966679 -1.77913 1.794023 2.966679 -1.689931 -3.179126 2.977344 -1.689931 -3.179126 2.977344 -1.691233 -3.179135 2.977598 -1.691233 -3.179135 2.977598 -1.759735 -2.857133 2.958769 -1.759735 -2.857133 2.958769 -1.798515 -2.448521 2.952787 -1.798515 -2.448521 2.952787 -1.607274 -2.317612 2.93184 -1.607274 -2.317612 2.93184 -1.613438 1.795135 2.934401 -1.613438 1.795135 2.934401 -1.690249 -3.17913 2.978547 -1.690249 -3.17913 2.978547 0.2180587 -0.3779233 2.008046 0.3085208 -0.4036439 1.762207 0.4476837 0.02253603 1.261086 0.4476837 0.02253603 1.261086 0.4476837 0.02253603 1.261086 0.04524976 0.02221733 1.265278 0.04524976 0.02221733 1.265278 0.04524976 0.02221733 1.265278 -0.0145027 0.1614313 1.817914 -0.0145027 0.1614313 1.817914 0.2327533 -0.2397072 1.811298 0.2327533 -0.2397072 1.811298 0.4432731 -0.09279376 2.043724 0.4432731 -0.09279376 2.043724 0.5226778 -0.1100568 1.779302 0.5226778 -0.1100568 1.779302 0.236785 -0.2128046 1.47589 0.236785 -0.2128046 1.47589 0.3943449 0.161774 1.832954 0.3943449 0.161774 1.832954 0.3743781 0.299548 0.002051591 0.3743781 0.299548 0.002051591 0.1368584 0.2979284 0.002054512 0.2525087 -0.01224297 0.2271173 0.2525087 -0.01224297 0.2271173 0.2525087 -0.01224297 0.2271173 -0.03652518 0.1767887 1.825883 -0.03652518 0.1767887 1.825883 0.2397299 -0.1586631 1.032267 0.2397299 -0.1586631 1.032267 0.248162 0.1839493 1.267543 0.248162 0.1839493 1.267543 0.248162 0.1839493 1.267543 0.1406267 -0.348581 0.006905555 0.1406267 -0.348581 0.006905555 0.4412871 -0.3168617 0.006905794 0.4412871 -0.3168617 0.006905794 0.4412871 -0.3168617 0.006905794 0.1858796 0.4819248 1.932217 0.2849636 0.4224691 1.667392 0.5128399 0.3238217 2.015338 0.5128399 0.3238217 2.015338 0.6107221 0.3024464 1.692708 0.6107221 0.3024464 1.692708 -0.4419672 -0.09279829 2.043674 -0.4419672 -0.09279829 2.043674 -0.01327872 -0.381413 1.71313 -0.2206481 -0.3779242 2.008025 -0.2966655 -0.4041578 1.762146 -0.4256047 0.02405607 1.261975 -0.4256047 0.02405607 1.261975 -0.4256047 0.02405607 1.261975 -0.04064673 0.02372139 1.266161 -0.04064673 0.02372139 1.266161 -0.04064673 0.02372139 1.266161 -0.3943767 0.1711317 1.83284 -0.3943767 0.1711317 1.83284 -0.2121686 -0.2247317 1.471689 -0.2121686 -0.2247317 1.471689 -0.5077647 -0.1100617 1.779252 -0.5077647 -0.1100617 1.779252 -0.2307813 -0.2510272 1.811187 -0.2307813 -0.2510272 1.811187 -0.1339394 0.3089269 1.09315e-5 -0.2510623 -0.01371753 0.2250734 -0.2510623 -0.01371753 0.2250734 -0.2510623 -0.01371753 0.2250734 -0.3744874 0.3106602 7.87974e-6 -0.3744874 0.3106602 7.87974e-6 -0.2360191 0.1953638 1.267719 -0.2360191 0.1953638 1.267719 -0.2360191 0.1953638 1.267719 -0.2274532 -0.1685854 1.027151 -0.2274532 -0.1685854 1.027151 -0.1282126 -0.3711563 0.004417061 -0.1282126 -0.3711563 0.004417061 -0.4327066 -0.3374646 0.004416882 -0.4327066 -0.3374646 0.004416882 -0.4327066 -0.3374646 0.004416882 -0.2520781 0.4224623 1.666908 -0.1378217 0.4819175 1.930349 -0.5006772 0.3238149 2.014854 -0.5006772 0.3238149 2.014854 -0.5805332 0.302437 1.692225 -0.5805332 0.302437 1.692225 -0.1970275 0.0922001 3.370748 -0.1407932 -0.1518931 3.340954 0.128959 -0.1519411 3.340981 0.2377666 -0.2415412 1.263053 0.2377666 -0.2415412 1.263053 0.2377666 -0.2415412 1.263053 0.2377666 -0.2415412 1.263053 -0.2169919 -0.2534532 1.262937 -0.2169919 -0.2534532 1.262937 -0.2169919 -0.2534532 1.262937 -0.2169919 -0.2534532 1.262937 0.01851975 -0.3160694 2.241842</float_array>
          <technique_common>
            <accessor source="#forearms-mesh-positions-array" count="307" stride="3">
              <param name="X" type="float"/>
              <param name="Y" type="float"/>
              <param name="Z" type="float"/>
            </accessor>
          </technique_common>
        </source>
        <source id="forearms-mesh-normals">
          <float_array id="forearms-mesh-normals-array" count="867">-0.9695219 -0.1968583 -0.1458559 -0.969594 -0.1966137 -0.1457077 0.9695721 -0.196625 -0.1458375 0.9695686 -0.1969277 -0.1454522 -2.33718e-6 -0.9827181 0.1851088 7.79487e-7 -0.9827173 0.1851128 -0.5677068 0.8232137 0.005327641 -0.5678099 0.8231436 0.005165934 0.5881915 0.8085979 -0.0141617 -0.9671894 -0.2199239 -0.1271937 0.9671909 -0.2199212 -0.1271871 -2.4571e-6 -0.982718 0.1851092 -0.5882361 0.8085647 -0.01419675 0.5678302 0.8231296 0.005162715 0.5677652 0.8231738 0.005261719 -0.5720832 -0.478362 0.6662512 0.6474909 -0.5490898 0.5284467 0.6578614 -0.5443132 0.5205206 -0.9967252 -0.01928347 -0.07853102 -0.995204 -0.06504708 0.07306152 -0.6024125 0.6614457 0.4467536 -0.5455878 0.6842873 0.4838233 0.9673311 -0.05696749 0.2470334 -0.7319779 0.6540852 0.1907381 -0.6561595 0.7156947 0.2392404 -0.5011221 0.8499187 0.1628342 -0.331025 0.7974948 0.5044051 0.7597341 0.62876 0.1657254 0.5026973 0.8490578 0.1624692 -0.2125579 -0.8111268 0.5448784 -0.2269449 -0.7931839 0.5651155 -0.2628628 -0.7473343 0.6102416 0.3304317 -0.8432345 0.4239934 0.3260854 -0.7002186 0.6351082 0.5934085 0.6627284 0.4567903 0.6328836 0.5707927 0.5231198 -0.7108705 -0.468768 0.5243279 -0.7195245 -0.4328056 0.5431058 0.657586 -0.5438849 0.5213155 0.6855 -0.5344389 0.4944339 0.3318527 -0.8036242 0.4940263 0.411015 -0.6888303 0.5971428 0.6171557 -0.5076968 0.6011347 0.9948419 -0.01483136 -0.1003485 0.6123377 0.5550096 0.5630338 0.3608811 0.8099122 0.4623929 0.4203584 0.8107087 0.4074928 0.9931809 -0.07782733 0.08680284 -0.4159674 0.7984632 0.4352329 -0.5793914 0.5671551 0.5853553 -0.2083266 -0.8948615 0.3947442 -0.6109696 -0.5291556 0.5888213 -0.7189472 -0.4798092 0.5028898 -0.9511867 -0.03031128 0.3071242 -0.776927 -0.5629889 0.2818297 0.7215619 0.6808276 0.125787 0.7120109 -0.6305388 0.3089684 -0.5965822 0.7917238 0.1313899 0.6533474 0.7185956 0.2382385 -0.1918813 -0.258246 -0.9468319 -0.4055665 -0.06065499 -0.9120509 -0.01009029 -0.2571339 -0.9663231 0.2081088 -0.05257046 -0.9766919 -0.4062511 -0.001864194 -0.9137595 -0.4107375 0.002409696 -0.9117504 0.2080882 0.001893043 -0.9781084 0.2080888 0.001893281 -0.9781081 -0.4104355 0.05257159 -0.910373 -0.1949975 0.2571346 -0.9464977 0.2074514 0.05635082 -0.976621 -0.0132091 0.2582468 -0.9659888 0.1754869 0.2065738 0.9625651 0.3511849 0.04529416 0.9352099 0.0300706 0.2056842 0.9781563 -0.1454676 0.04225581 0.9884603 0.3517864 0.001520276 0.9360792 0.3517851 0.001520395 0.9360796 -0.1453421 -0.001520574 0.9893804 -0.1453428 -0.00152111 0.9893803 0.3517137 -0.04225683 0.9351534 0.1779798 -0.2056849 0.9622978 -0.1449379 -0.04529482 0.9884035 0.03256475 -0.2065743 0.977889 0.3381254 -0.9404027 -0.03625172 0.3381243 -0.9404031 -0.03624969 -0.338126 0.9404023 0.03625452 -0.3381228 0.9404036 0.03625267 -0.9942834 -0.00608319 0.1065998 -0.994283 -0.006082952 0.106604 0.9954434 -0.0075863 0.09505248 0.9942827 0.006083428 -0.1066061 -0.3267229 -0.9444709 0.03502678 -0.3267225 -0.9444708 0.03503435 0.9803966 -0.1666513 -0.1051188 0.9803977 -0.1666498 -0.1051109 -0.9803972 0.1666501 0.1051152 -0.9803966 0.1666488 0.1051222 0.9753268 0.1944246 -0.1045795 0.9813842 0.1756522 0.077663 -0.9783091 -0.1786316 0.1048913 -0.9783095 -0.1786321 0.1048867 0.326726 0.9444696 -0.03503257 0.3267243 0.9444704 -0.03503137 -0.07396787 -0.7219011 0.6880317 0.05789035 -0.9260027 0.373052 -0.3317316 -0.3956249 -0.8564083 -0.2951166 0.2461749 -0.9232032 0.001460909 -0.1433278 0.9896742 -0.01890665 0.9102211 0.4136909 -0.1544736 0.6725882 0.7237147 0.05506849 -0.7209898 0.6907541 -0.07073813 -0.9251793 0.3728798 0.3841291 -0.3760185 -0.8432407 0.2548722 0.04395377 -0.9659752 0.3263614 0.2243686 -0.9182304 -0.03063786 -0.1421297 0.9893739 0.004596292 0.9141154 0.4054283 0.13694 0.6763997 0.7236926 -0.002132892 0.9306625 0.3658726 3.57573e-4 0.9317449 0.3631135 0.7781556 -0.5865333 -0.2246167 -0.001851618 -0.9662727 0.2575147 -0.7816942 -0.5772425 -0.2361046 -0.0329473 -0.97281 0.229249 0.9574388 -0.1427826 0.250847 0.9078913 -0.05970138 0.4149327 -0.9274019 -0.05772221 0.3695862 -0.9617991 -0.1184661 0.2467964 -0.3684535 0.9193549 0.1379445 0.3933523 0.9033498 0.1709774 0.7705652 -0.5777589 0.2691173 0.7205854 -0.6103346 0.3290115 -0.7672331 -0.5680351 0.2978082 -0.7551226 -0.6146482 0.22803 -0.08003717 -0.9940006 0.0745449 0.1141248 -0.9904152 -0.07780271 0.06649667 -0.9947984 -0.07716512 -0.05199432 -0.9911885 0.1218276 1.86007e-4 0.9754487 -0.2202265 0.001239717 0.9758105 -0.2186146 0.9449567 -0.139567 0.2959359 0.9460664 -0.1380045 0.2931097 -0.9618527 -0.1175642 0.2470185 -0.962001 -0.1185526 0.245966 -0.3416231 0.9395725 0.02229964 -0.4052168 0.9137128 -0.03046739 0.3500243 0.933437 -0.0786035 0.4203576 0.9048382 0.0675832 -0.186455 0.8548089 0.4842895 -0.4077455 -0.8182389 0.4052516 -0.1695554 -0.07891732 0.982356 0.1224046 0.4824573 -0.8673248 -0.1625115 0.6708205 0.7235952 -0.26753 0.8977649 0.349923 0.05841714 -0.1534611 -0.9864265 0.1401116 -0.5029119 -0.8529059 -0.1481473 -0.7163868 0.6817936 -0.150106 -0.722712 0.6746522 -0.236045 0.2272774 0.9447898 0.2448961 0.842882 0.4791406 0.3347729 -0.002137899 -0.9422965 -0.9642954 -0.005174577 -0.2647786 0.1730836 -0.1592156 -0.971953 0.3572763 -0.6089547 0.7081863 0.01479792 -0.999829 0.01109957 0.02480828 0.9910796 -0.1309413 -0.3074212 -0.1479077 0.9400083 0.3664622 -0.8203496 0.4390127 0.6104069 0.7835139 0.1162309 0.9379143 -0.2543837 0.2358091 -0.9959497 -0.03276145 -0.08373254 -0.9991907 0.02418994 -0.03213876 0.9983145 -0.03512638 -0.0461983 0.9996414 0.0250793 0.009402036 1.98709e-4 0.9132873 0.4073159 -8.79518e-4 0.9140473 0.4056069 0.00309205 0.9991076 0.0421245 3.95902e-5 0.9989421 0.04598802 -0.3869034 -0.8361257 0.388844 -0.416056 -0.8970351 0.1490823 0.01128321 -0.9968539 -0.07845437 -0.9766821 -0.03639274 -0.2115839 -0.2047625 0.02218365 -0.9785603 -0.1191146 0.4806152 -0.8688043 0.1592798 0.6716838 0.7235129 0.2608909 0.898809 0.3522477 -0.05717718 -0.1533197 -0.9865211 -0.1365732 -0.5023786 -0.8537936 0.1451993 -0.7162928 0.6825261 0.147143 -0.7227585 0.6752549 0.2371649 0.2272779 0.9445092 -0.2442946 0.8428875 0.4794381 -0.3358834 -0.00213772 -0.9419012 0.9639706 -0.00517863 -0.2659585 -0.1742432 -0.1592175 -0.9717454 -0.3563906 -0.6089625 0.7086258 -0.01478368 -0.9998289 0.0111159 -0.02496397 0.9910794 -0.1309141 0.2039232 -0.1479598 0.9677414 -0.4505106 -0.7798852 0.4345334 -0.6631044 0.7432981 0.08832108 -0.8950682 -0.4283794 0.1238719 0.9764226 -0.0363962 -0.2127777 0.4300506 -0.807062 0.4046081 0.1806931 -0.07887834 0.9803715 0.1907851 0.8557958 0.4808477 0.3899891 -0.90696 0.1591612 0.3690083 -0.8563989 0.3611288 -0.1827433 0.8993059 0.3973084 -0.2897326 0.6896818 0.663622 -0.001107573 0.9813002 0.1924808 0.1953644 0.7452918 0.6374739 0.3065613 0.8059437 0.5064334 0.02936327 -0.9733456 0.2274558 0.001816511 -0.9663535 0.2572113 -0.01029384 -0.9967579 -0.07979911 0.6210432 0.7728774 -0.1302542 -0.6008132 0.7573738 -0.2557511 -0.6599389 0.7354946 -0.1533894 0.6449244 0.7359566 -0.2060112 -0.7538665 -0.6442157 -0.1291184 -0.8807883 -0.445277 -0.1610606 0.7525597 -0.6325865 -0.182998 0.9148613 -0.3995603 -0.05814176 -0.7900193 -0.5748357 -0.2131515 0.7642085 -0.6090555 -0.2122186 -0.8502908 -0.5247714 0.04025894 -0.7456673 -0.6634114 -0.06217455 0.9098108 -0.3757 0.1763345 0.7223708 -0.6899303 -0.04665517 0.7908198 -0.5961974 -0.1383936 0.8853566 -0.4352945 -0.1632868 -0.7822427 -0.599913 -0.1679312 -0.9223527 -0.3834921 -0.04689657 0.8421813 -0.5364485 0.05434912 -0.7954468 -0.597615 0.1006023 0.9039604 -0.4141182 0.1065925 0.8234014 -0.5674581 0.001190423 -0.9201888 -0.3639841 0.1441123 -0.7156668 -0.6922423 -0.09285271 0.007175147 0.9959344 0.08979493 -0.006789922 0.9958921 0.09029448 0.6259868 0.7684722 0.1326315 -0.619304 0.7752507 0.1242944 -0.666211 0.7326192 0.1393989 0.6558116 0.7453935 0.1195814 -0.8904335 -0.001775085 0.45511 0.0591318 -0.5605044 0.8260376 0.8158739 0.09305405 0.5706934 -0.05965358 -0.539125 0.8401106 0.8807888 0.01048392 0.4733936 -0.8226717 0.07772946 0.563178 -0.01504355 0.9991406 0.03862696 -0.002301037 0.9992057 0.03978341 -7.1705e-4 -0.006484687 -0.9999787 -3.63088e-5 -0.00679934 -0.9999769 4.12198e-5 -0.007870197 -0.9999691 7.91882e-4 -0.007498502 -0.9999716 0.964166 -0.07474511 0.2545531 0.9639964 -0.07446593 0.2552758 -0.1908981 -0.03247845 -0.9810725 -0.06260544 0.03295522 -0.9974942 -0.6941145 0.02781224 0.7193272 -0.5833587 -0.04349356 0.8110493 0.9192897 0.3081795 0.2448099 0.919708 0.307424 0.2441879 -0.06264334 0.09903264 -0.9931105 -0.1893803 -0.1088075 -0.9758566 -0.577422 -0.1463866 0.8032153 -0.692601 0.07368987 0.7175471 0.9668014 0.001289963 0.2555261 0.9668021 0.001289725 0.2555234 -0.1912134 3.24364e-4 -0.9815484 -0.1912163 3.24406e-4 -0.9815479 -0.6943151 -0.001488447 0.7196696 -0.694315 -0.001488506 0.7196697 0.006878912 -0.9999754 -0.00141102 -0.00633341 0.9999781 0.001949489 0.9388308 -0.2397078 0.2472586 0.9387654 -0.2397714 0.2474455 -0.690238 -0.1049742 0.7159274 -0.6899816 -0.1050586 0.7161621 -0.1896653 -0.09748005 -0.9769979 -0.1900054 -0.09746444 -0.9769333 1.18615e-4 0.1211887 -0.9926295 -0.8051034 -0.5882822 0.07571452 0.7801413 -0.6194908 0.08723908 0.8234233 -0.5212744 -0.2241588 -0.7862617 -0.5916756 -0.1780802</float_array>
          <technique_common>
            <accessor source="#forearms-mesh-normals-array" count="289" stride="3">
              <param name="X" type="float"/>
              <param name="Y" type="float"/>
              <param name="Z" type="float"/>
            </accessor>
          </technique_common>
        </source>
        <source id="forearms-mesh-map-0">
          <float_array id="forearms-mesh-map-0-array" count="1734">0.102461 0.379038 0.124684 0.491264 0.09904396 0.467055 0.102461 0.379038 0.175444 0.378521 0.124684 0.491264 0.175444 0.378521 0.102461 0.379038 0.09904396 0.467055 0.09904396 0.467055 0.124684 0.491264 0.175444 0.378521 0.147049 0.554808 0.175182 0.377452 0.30231 0.380152 0.30231 0.380152 0.174513 0.555392 0.147049 0.554808 0.09904396 0.467055 0.04601895 0.457434 0.006918966 0.390645 0.006918966 0.390645 0.102461 0.379038 0.09904396 0.467055 0.006918966 0.390645 0.006875991 0.447353 0.04601895 0.457434 0.124684 0.491264 0.175444 0.378521 0.1519899 0.4941 0.1519899 0.4941 0.175444 0.378521 0.124684 0.491264 0.174513 0.555392 0.30231 0.380152 0.320636 0.559437 0.006875991 0.447353 0.006918966 0.390645 0.04601895 0.457434 0.09904396 0.467055 0.102461 0.379038 0.006918966 0.390645 0.006918966 0.390645 0.04601895 0.457434 0.09904396 0.467055 0.482189 0.463389 0.447037 0.412612 0.458415 0.464405 0.461828 0.4633 0.482803 0.462459 0.538208 0.529177 0.538208 0.529177 0.490647 0.527813 0.461828 0.4633 0.543533 0.459471 0.6088 0.413363 0.447037 0.412612 0.447037 0.412612 0.482189 0.463389 0.543533 0.459471 0.578722 0.525343 0.549207 0.526844 0.549207 0.526844 0.578722 0.525343 0.549207 0.526844 0.578722 0.525343 0.482803 0.462459 0.543742 0.46 0.538208 0.529177 0.596764 0.457955 0.543533 0.459471 0.549207 0.526844 0.549207 0.526844 0.578722 0.525343 0.596764 0.457955 0.596764 0.457955 0.578722 0.525343 0.611259 0.456195 0.611259 0.456195 0.625234 0.412819 0.596764 0.457955 0.59665 0.458808 0.538208 0.529177 0.543742 0.46 0.59665 0.458808 0.611569 0.457262 0.578652 0.5263 0.450302 0.463266 0.458415 0.464405 0.447037 0.412612 0.450283 0.463236 0.450302 0.463266 0.447037 0.412612 0.450283 0.463236 0.447037 0.412612 0.429224 0.412433 0.461828 0.4633 0.490647 0.527813 0.450575 0.463791 0.450575 0.463791 0.450555 0.46376 0.461828 0.4633 0.538208 0.529177 0.578652 0.5263 0.578652 0.5263 0.538208 0.529177 0.578652 0.5263 0.538208 0.529177 0.549207 0.526844 0.490726 0.527153 0.490726 0.527153 0.549207 0.526844 0.490726 0.527153 0.549207 0.526844 0.490647 0.527813 0.538208 0.529177 0.538208 0.529177 0.490647 0.527813 0.538208 0.529177 0.490647 0.527813 0.456547 0.412629 0.461828 0.4633 0.450555 0.46376 0.450555 0.46376 0.429776 0.412886 0.456547 0.412629 0.482803 0.462459 0.461828 0.4633 0.456547 0.412629 0.543742 0.46 0.456547 0.412629 0.60935 0.414704 0.543742 0.46 0.60935 0.414704 0.59665 0.458808 0.625783 0.413934 0.611569 0.457262 0.59665 0.458808 0.59665 0.458808 0.60935 0.414704 0.625783 0.413934 0.482803 0.462459 0.456547 0.412629 0.543742 0.46 0.596764 0.457955 0.625234 0.412819 0.6088 0.413363 0.6088 0.413363 0.543533 0.459471 0.596764 0.457955 0.450302 0.463266 0.490726 0.527153 0.458415 0.464405 0.549207 0.526844 0.482189 0.463389 0.458415 0.464405 0.458415 0.464405 0.490726 0.527153 0.549207 0.526844 0.543533 0.459471 0.482189 0.463389 0.549207 0.526844 0.539084 0.561595 0.549207 0.526844 0.490726 0.527153 0.538208 0.529177 0.578652 0.5263 0.538817 0.562419 0.538208 0.529177 0.538817 0.562419 0.490647 0.527813 0.539084 0.561595 0.578722 0.525343 0.549207 0.526844 0.578652 0.5263 0.538208 0.529177 0.59665 0.458808 0.703078 0.05612796 0.639511 0.140012 0.6389 0.01874297 0.639511 0.140012 0.703078 0.05612796 0.72428 0.136707 0.639511 0.140012 0.707436 0.05740195 0.6389 0.01874297 0.707436 0.05740195 0.639511 0.140012 0.724084 0.139514 0.72428 0.136707 0.640121 0.261283 0.639511 0.140012 0.640121 0.261283 0.72428 0.136707 0.724889 0.257978 0.639511 0.140012 0.724693 0.260784 0.724084 0.139514 0.724693 0.260784 0.639511 0.140012 0.640121 0.261283 0.706919 0.342873 0.640121 0.261283 0.724889 0.257978 0.640121 0.261283 0.706919 0.342873 0.640731 0.382553 0.640121 0.261283 0.708874 0.342971 0.724693 0.260784 0.708874 0.342971 0.640121 0.261283 0.640731 0.382553 0.942522 0.509447 0.859259 0.481158 0.86184 0.644492 0.86184 0.644492 0.998987 0.648803 0.942522 0.509447 0.86184 0.644492 0.859259 0.481158 0.942605 0.509343 0.942605 0.509343 0.999583 0.648971 0.86184 0.644492 0.998987 0.648803 0.86184 0.644492 0.861237 0.823438 0.861237 0.823438 0.998562 0.826248 0.998987 0.648803 0.86184 0.644492 0.999583 0.648971 0.997544 0.825962 0.997544 0.825962 0.861237 0.823438 0.86184 0.644492 0.950907 0.965686 0.998562 0.826248 0.861237 0.823438 0.861237 0.823438 0.860226 0.989509 0.950907 0.965686 0.861237 0.823438 0.997544 0.825962 0.948845 0.964843 0.948845 0.964843 0.860226 0.989509 0.861237 0.823438 0.858787 0.990916 0.94697 0.967802 0.94697 0.967802 0.858787 0.990916 0.94697 0.967802 0.858787 0.990916 0.858938 0.483567 0.940635 0.512402 0.940635 0.512402 0.858938 0.483567 0.940635 0.512402 0.858938 0.483567 0.996544 0.651852 0.997499 0.828975 0.997499 0.828975 0.996544 0.651852 0.997499 0.828975 0.996544 0.651852 0.997625 0.827368 0.99647 0.652791 0.99647 0.652791 0.997625 0.827368 0.99647 0.652791 0.997625 0.827368 0.94978 0.967969 0.858787 0.990916 0.858787 0.990916 0.94978 0.967969 0.858787 0.990916 0.94978 0.967969 0.94697 0.967802 0.997625 0.827368 0.997625 0.827368 0.94697 0.967802 0.997625 0.827368 0.94697 0.967802 0.940635 0.512402 0.996544 0.651852 0.996544 0.651852 0.940635 0.512402 0.996544 0.651852 0.940635 0.512402 0.99647 0.652791 0.940885 0.512478 0.940885 0.512478 0.99647 0.652791 0.940885 0.512478 0.99647 0.652791 0.997499 0.828975 0.94978 0.967969 0.94978 0.967969 0.997499 0.828975 0.94978 0.967969 0.997499 0.828975 0.940885 0.512478 0.858938 0.483567 0.858938 0.483567 0.940885 0.512478 0.858938 0.483567 0.940885 0.512478 0.512132 0.223079 0.48732 0.224542 0.507451 0.278821 0.479634 0.272697 0.507451 0.278821 0.48732 0.224542 0.479634 0.272697 0.48732 0.224542 0.465835 0.225202 0.559915 0.219391 0.538617 0.224025 0.553066 0.273261 0.522312 0.27795 0.512132 0.223079 0.507451 0.278821 0.522312 0.27795 0.553066 0.273261 0.538617 0.224025 0.538617 0.224025 0.512132 0.223079 0.522312 0.27795 0.512297 0.22477 0.50738 0.279711 0.487472 0.226396 0.50738 0.279711 0.478651 0.273904 0.487472 0.226396 0.478651 0.273904 0.465872 0.226813 0.487472 0.226396 0.478651 0.273904 0.531809 0.283174 0.465872 0.226813 0.560081 0.221804 0.553534 0.275328 0.538714 0.226068 0.522432 0.278819 0.50738 0.279711 0.512297 0.22477 0.522432 0.278819 0.538714 0.226068 0.553534 0.275328 0.538714 0.226068 0.522432 0.278819 0.512297 0.22477 0.419085 0.06380796 0.353395 0.06342899 0.456484 0.144111 0.305101 0.144263 0.456484 0.144111 0.353395 0.06342899 0.153957 0.074777 0.210052 0.08373796 0.180862 0.1339499 0.10616 0.05906099 0.111914 0.124039 0.06151998 0.07477295 0.005997955 0.08372199 0.06151998 0.07477295 0.03397697 0.1340979 0.111914 0.124039 0.153957 0.074777 0.180862 0.1339499 0.210108 0.08333998 0.268656 0.07079297 0.179112 0.1344 0.179112 0.1344 0.268656 0.07079297 0.304711 0.142749 0.30471 0.142875 0.268655 0.07067197 0.179112 0.134519 0.179112 0.134519 0.268655 0.07067197 0.210108 0.08332699 0.353395 0.06342899 0.270078 0.07931798 0.305101 0.144263 0.456484 0.144111 0.495085 0.079463 0.419085 0.06380796 0.210052 0.08373796 0.175299 0.008433997 0.208824 0.008285999 0.175299 0.008433997 0.210052 0.08373796 0.153957 0.074777 0.06151998 0.07477295 0.004980981 0.002049982 0.06040799 0.004723966 0.004980981 0.002049982 0.06151998 0.07477295 0.005997955 0.08372199 0.153957 0.074777 0.106044 0.001158952 0.175299 0.008433997 0.106044 0.001158952 0.153957 0.074777 0.10616 0.05906099 0.10616 0.05906099 0.06040799 0.004723966 0.106044 0.001158952 0.06040799 0.004723966 0.10616 0.05906099 0.06151998 0.07477295 0.353395 0.06342899 0.421057 0.007401943 0.332105 0.005303978 0.421057 0.007401943 0.353395 0.06342899 0.419085 0.06380796 0.268656 0.07079297 0.2082729 0.009178996 0.270265 0.008335947 0.2082729 0.009178996 0.268656 0.07079297 0.210108 0.08333998 0.210108 0.08332699 0.270263 0.00821495 0.208272 0.009165942 0.270263 0.00821495 0.210108 0.08332699 0.268655 0.07067197 0.270078 0.07931798 0.332105 0.005303978 0.271881 0.005079984 0.332105 0.005303978 0.270078 0.07931798 0.353395 0.06342899 0.419085 0.06380796 0.499237 0.003270983 0.421057 0.007401943 0.499237 0.003270983 0.419085 0.06380796 0.495085 0.079463 0.276852 0.321803 0.337307 0.329033 0.301218 0.26521 0.02234596 0.265927 0.108205 0.367041 0.018601 0.35467 0.108205 0.367041 0.108226 0.371837 0.018601 0.35467 0.538617 0.224025 0.559915 0.219391 0.532266 0.166106 0.512132 0.223079 0.538617 0.224025 0.511147 0.165719 0.511147 0.165719 0.538617 0.224025 0.532266 0.166106 0.465513 0.1653299 0.465835 0.225202 0.48994 0.166823 0.48732 0.224542 0.48994 0.166823 0.465835 0.225202 0.511147 0.165719 0.48994 0.166823 0.48732 0.224542 0.511147 0.165719 0.48732 0.224542 0.512132 0.223079 0.08632797 0.641643 0.01226598 0.651851 0.01576 0.628005 0.08632797 0.641643 0.089971 0.716971 0.01226598 0.651851 0.09423899 0.703531 0.02078598 0.710079 0.02038395 0.710318 0.02006298 0.651278 0.02038395 0.710318 0.02078598 0.710079 0.02038395 0.710318 0.09635496 0.718844 0.09423899 0.703531 0.02406895 0.627556 0.09423899 0.703531 0.09433096 0.643438 0.02406895 0.627556 0.02078598 0.710079 0.09423899 0.703531 0.089971 0.716971 0.01385498 0.71087 0.01226598 0.651851 0.522312 0.27795 0.507451 0.278821 0.512761 0.30878 0.512761 0.30878 0.507451 0.278821 0.479634 0.272697 0.522312 0.27795 0.512761 0.30878 0.523029 0.292083 0.523029 0.292083 0.553066 0.273261 0.522312 0.27795 0.30471 0.142875 0.179112 0.134519 0.1894299 0.265872 0.303487 0.264792 0.30471 0.142875 0.1894299 0.265872 0.179112 0.1344 0.304711 0.142749 0.188334 0.265393 0.188334 0.265393 0.304711 0.142749 0.303034 0.266092 0.337307 0.329033 0.423348 0.32857 0.455504 0.266769 0.455504 0.266769 0.301218 0.26521 0.337307 0.329033 0.305101 0.144263 0.301218 0.26521 0.455504 0.266769 0.305101 0.144263 0.455504 0.266769 0.456484 0.144111 0.02234596 0.265927 0.103284 0.265634 0.108205 0.367041 0.03397697 0.1340979 0.103284 0.265634 0.02234596 0.265927 0.180862 0.1339499 0.103284 0.265634 0.111914 0.124039 0.02006298 0.651278 0.02078598 0.710079 0.02406895 0.627556 0.479634 0.272697 0.465835 0.225202 0.533071 0.283179 0.538714 0.226068 0.53272 0.166545 0.560081 0.221804 0.512297 0.22477 0.511721 0.165863 0.538714 0.226068 0.511721 0.165863 0.53272 0.166545 0.538714 0.226068 0.466325 0.165178 0.490689 0.166869 0.465872 0.226813 0.487472 0.226396 0.465872 0.226813 0.490689 0.166869 0.511721 0.165863 0.487472 0.226396 0.490689 0.166869 0.511721 0.165863 0.512297 0.22477 0.487472 0.226396 0.08451896 0.644931 0.01425695 0.629049 0.01025199 0.652769 0.08451896 0.644931 0.01025199 0.652769 0.08654499 0.720328 0.08896899 0.703328 0.01529699 0.712467 0.01569396 0.712215 0.01370698 0.653455 0.01569396 0.712215 0.01529699 0.712467 0.01529699 0.712467 0.08896899 0.703328 0.09141296 0.718569 0.017201 0.629612 0.08776795 0.64325 0.08896899 0.703328 0.017201 0.629612 0.08896899 0.703328 0.01569396 0.712215 0.08654499 0.720328 0.01025199 0.652769 0.01057398 0.711801 0.522432 0.278819 0.512828 0.309685 0.50738 0.279711 0.512828 0.309685 0.478651 0.273904 0.50738 0.279711 0.523772 0.292909 0.512828 0.309685 0.522432 0.278819 0.522432 0.278819 0.553534 0.275328 0.523772 0.292909 0.01370698 0.653455 0.017201 0.629612 0.01569396 0.712215 0.18765 0.26533 0.192143 0.35467 0.108205 0.367041 0.108205 0.367041 0.192143 0.35467 0.108226 0.371837 0.480219 0.320974 0.455504 0.266769 0.423348 0.32857 0.180862 0.1339499 0.18765 0.26533 0.103284 0.265634 0.103284 0.265634 0.18765 0.26533 0.108205 0.367041 0.38157 0.365445 0.337307 0.329033 0.276852 0.321803 0.276852 0.321803 0.29525 0.348911 0.38157 0.365445 0.423348 0.32857 0.337307 0.329033 0.38157 0.365445 0.462392 0.348911 0.480219 0.320974 0.423348 0.32857 0.423348 0.32857 0.38157 0.365445 0.462392 0.348911 0.06151998 0.07477295 0.111914 0.124039 0.03397697 0.1340979 0.153957 0.074777 0.111914 0.124039 0.10616 0.05906099 0.111914 0.124039 0.103284 0.265634 0.03397697 0.1340979 0.819564 0.22487 0.775391 0.223413 0.818747 0.353596 0.775391 0.223413 0.734285 0.225044 0.732947 0.353644 0.776143 0.223446 0.818916 0.223287 0.817343 0.354158 0.734125 0.22346 0.776143 0.223446 0.733847 0.354274 0.773571 0.04190397 0.793169 0.166821 0.766609 0.203454 0.737725 0.010957 0.773571 0.04190397 0.766609 0.203454 0.73728 0.009289979 0.763 0.205785 0.792342 0.166619 0.792342 0.166619 0.773246 0.04142898 0.73728 0.009289979 0.793169 0.166821 0.800685 0.215987 0.766609 0.203454 0.763 0.205785 0.799753 0.215838 0.792342 0.166619 0.802775 0.330223 0.745382 0.332141 0.7378 0.225915 0.7378 0.225915 0.820067 0.256682 0.802775 0.330223 0.734192 0.228246 0.739534 0.333233 0.801662 0.330116 0.819083 0.25656 0.734192 0.228246 0.801662 0.330116 0.792755 0.166409 0.773369 0.04109895 0.762827 0.201523 0.773369 0.04109895 0.735622 0.008550941 0.762827 0.201523 0.766306 0.2062309 0.735458 0.01024895 0.793578 0.1666049 0.773687 0.04157096 0.793578 0.1666049 0.735458 0.01024895 0.819583 0.256388 0.818001 0.225022 0.734018 0.223984 0.820564 0.256502 0.737498 0.2286919 0.818932 0.225162 0.737957 0.330636 0.802052 0.330116 0.734018 0.223984 0.819583 0.256388 0.734018 0.223984 0.802052 0.330116 0.743683 0.334807 0.737498 0.2286919 0.803164 0.330216 0.737498 0.2286919 0.820564 0.256502 0.803164 0.330216 0.735622 0.008550941 0.735314 0.008546948 0.739239 0.189335 0.737437 0.01095795 0.737725 0.010957 0.744201 0.191673 0.763 0.205785 0.73728 0.009289979 0.740889 0.190095 0.744201 0.191673 0.737725 0.010957 0.766609 0.203454 0.742538 0.190942 0.735458 0.01024895 0.766306 0.2062309 0.762827 0.201523 0.735622 0.008550941 0.739239 0.189335 0.737725 0.010957 0.821048 0.009662985 0.773571 0.04190397 0.82843 0.495973 0.781496 0.38133 0.727048 0.496023 0.773246 0.04142898 0.818534 0.009537994 0.73728 0.009289979 0.828732 0.497108 0.726002 0.497814 0.781701 0.37549 0.735622 0.008550941 0.773369 0.04109895 0.822704 0.009189963 0.735458 0.01024895 0.820192 0.009285986 0.773687 0.04157096 0.733847 0.354274 0.776143 0.223446 0.817343 0.354158 0.818747 0.353596 0.775391 0.223413 0.732947 0.353644 0.735622 0.008550941 0.822704 0.009189963 0.820118 0.009167969 0.820118 0.009167969 0.735314 0.008546948 0.735622 0.008550941 0.737725 0.010957 0.737437 0.01095795 0.818614 0.009683966 0.818614 0.009683966 0.821048 0.009662985 0.737725 0.010957 0.49973 0.782007 0.499619 0.78205 0.417473 0.7872 0.417473 0.7872 0.417585 0.787137 0.49973 0.782007 0.497712 0.780549 0.500869 0.760842 0.418724 0.754278 0.418724 0.754278 0.415567 0.785699 0.497712 0.780549 0.502776 0.762343 0.49973 0.782007 0.417585 0.787137 0.417585 0.787137 0.420631 0.755779 0.502776 0.762343 0.417585 0.787137 0.417473 0.7872 0.394314 0.785993 0.394314 0.785993 0.394425 0.78595 0.417585 0.787137 0.415567 0.785699 0.418724 0.754278 0.392631 0.758918 0.392631 0.758918 0.392407 0.784492 0.415567 0.785699 0.420631 0.755779 0.417585 0.787137 0.394425 0.78595 0.394425 0.78595 0.394537 0.760419 0.420631 0.755779 0.394425 0.78595 0.394314 0.785993 0.342071 0.785679 0.342071 0.785679 0.342182 0.785636 0.394425 0.78595 0.392407 0.784492 0.392631 0.758918 0.340388 0.758604 0.340388 0.758604 0.340164 0.784178 0.392407 0.784492 0.394537 0.760419 0.394425 0.78595 0.342182 0.785636 0.342182 0.785636 0.342294 0.760105 0.394537 0.760419 0.562669 0.766922 0.562668 0.767123 0.562669 0.767122 0.342182 0.785636 0.342071 0.785679 0.342294 0.760105 0.499619 0.78205 0.49973 0.782007 0.564575 0.768624 0.564575 0.768624 0.564574 0.768624 0.499619 0.78205 0.49973 0.782007 0.502776 0.762343 0.564576 0.768423 0.564576 0.768423 0.564575 0.768624 0.49973 0.782007 0.500869 0.760842 0.497712 0.780549 0.562668 0.767123 0.562668 0.767123 0.562669 0.766922 0.500869 0.760842 0.08088499 0.756233 0.09961998 0.756231 0.103525 0.769216 0.7378 0.225915 0.818263 0.224044 0.820067 0.256682 0.817331 0.223895 0.734192 0.228246 0.819083 0.25656 0.762827 0.201523 0.800423 0.216966 0.792755 0.166409 0.801354 0.217105 0.766306 0.2062309 0.793578 0.1666049</float_array>
          <technique_common>
            <accessor source="#forearms-mesh-map-0-array" count="867" stride="2">
              <param name="S" type="float"/>
              <param name="T" type="float"/>
            </accessor>
          </technique_common>
        </source>
        <vertices id="forearms-mesh-vertices">
          <input semantic="POSITION" source="#forearms-mesh-positions"/>
        </vertices>
        <triangles material="cspain_hostatir-material" count="289">
          <input semantic="VERTEX" source="#forearms-mesh-vertices" offset="0"/>
          <input semantic="NORMAL" source="#forearms-mesh-normals" offset="1"/>
          <input semantic="TEXCOORD" source="#forearms-mesh-map-0" offset="2" set="0"/>
          <p>0 0 0 3 0 1 4 0 2 0 1 3 37 1 4 3 1 5 35 2 6 1 2 7 5 2 8 5 3 9 6 3 10 35 3 11 39 4 12 38 4 13 36 4 14 36 5 15 9 5 16 39 5 17 4 6 18 10 6 19 2 6 20 2 7 21 0 7 22 4 7 23 2 8 24 11 8 25 12 8 26 3 9 27 37 9 28 40 9 29 7 10 30 35 10 31 6 10 32 9 11 33 36 11 34 8 11 35 11 12 36 2 12 37 10 12 38 5 13 39 1 13 40 2 13 41 2 14 42 12 14 43 5 14 44 34 15 45 16 15 46 13 15 47 14 16 48 27 16 49 19 16 50 19 17 51 17 17 52 14 17 53 33 18 54 21 18 55 16 18 56 16 19 57 34 19 58 33 19 59 41 20 60 15 20 61 52 20 62 41 21 63 52 21 64 48 21 65 27 22 66 28 22 67 19 22 68 32 23 69 33 23 70 15 23 71 15 24 72 41 24 73 32 24 74 32 25 75 41 25 76 30 25 77 30 26 78 45 26 79 32 26 80 29 27 81 19 27 82 28 27 83 29 28 84 31 28 85 42 28 86 43 29 87 13 29 88 16 29 89 25 30 90 43 30 91 16 30 92 25 31 93 16 31 94 23 31 95 14 32 96 17 32 97 44 32 98 44 33 99 26 33 100 14 33 101 19 34 102 42 34 103 49 34 104 19 35 105 49 35 106 47 35 107 15 36 108 18 36 109 50 36 110 15 37 111 50 37 112 52 37 113 17 38 114 19 38 115 47 38 116 17 39 117 47 39 118 51 39 119 20 40 120 14 40 121 26 40 122 26 41 123 24 41 124 20 41 125 27 42 126 14 42 127 20 42 128 28 43 129 20 43 130 22 43 131 28 44 132 22 44 133 29 44 134 46 45 135 31 45 136 29 45 137 29 46 138 22 46 139 46 46 140 27 47 141 20 47 142 28 47 143 32 48 144 45 48 145 21 48 146 21 49 147 33 49 148 32 49 149 43 50 150 18 50 151 13 50 152 15 51 153 34 51 154 13 51 155 13 52 156 18 52 157 15 52 158 33 53 159 34 53 160 15 53 161 53 54 162 52 54 163 50 54 164 47 55 165 49 55 166 54 55 167 47 56 168 54 56 169 51 56 170 53 57 171 48 57 172 52 57 173 42 58 174 19 58 175 29 58 176 55 59 177 56 59 178 57 59 179 56 60 180 55 60 181 58 60 182 56 61 183 59 61 184 57 61 185 59 62 186 56 62 187 60 62 188 58 63 189 61 63 190 56 63 191 61 64 192 58 64 193 62 64 194 56 65 195 63 65 196 60 65 197 63 66 198 56 66 199 61 66 200 64 67 201 61 67 202 62 67 203 61 68 204 64 68 205 65 68 206 61 69 207 66 69 208 63 69 209 66 70 210 61 70 211 65 70 212 67 71 213 68 71 214 69 71 215 69 72 216 70 72 217 67 72 218 69 73 219 68 73 220 71 73 221 71 74 222 72 74 223 69 74 224 70 75 225 69 75 226 73 75 227 73 76 228 74 76 229 70 76 230 69 77 231 72 77 232 75 77 233 75 78 234 73 78 235 69 78 236 76 79 237 74 79 238 73 79 239 73 80 240 77 80 241 76 80 242 73 81 243 75 81 244 78 81 245 78 82 246 77 82 247 73 82 248 79 83 249 80 83 250 81 83 251 79 84 252 81 84 253 82 84 254 83 85 255 84 85 256 85 85 257 83 86 258 85 86 259 86 86 260 87 87 261 88 87 262 89 87 263 87 88 264 89 88 265 90 88 266 91 89 267 92 89 268 93 89 269 91 90 270 93 90 271 94 90 272 95 91 273 79 91 274 82 91 275 95 92 276 82 92 277 96 92 278 80 93 279 91 93 280 94 93 281 80 94 282 94 94 283 81 94 284 84 95 285 87 95 286 90 95 287 84 96 288 90 96 289 85 96 290 92 97 291 97 97 292 98 97 293 92 98 294 98 98 295 93 98 296 88 99 297 95 99 298 96 99 299 88 100 300 96 100 301 89 100 302 97 101 303 83 101 304 86 101 305 97 102 306 86 102 307 98 102 308 119 103 309 116 103 310 165 103 311 99 104 312 165 104 313 116 104 314 99 105 315 116 105 316 117 105 317 118 106 318 166 106 319 102 106 320 167 107 321 119 107 322 165 107 323 167 108 324 102 108 325 166 108 326 166 109 327 119 109 328 167 109 329 114 110 330 115 110 331 113 110 332 115 111 333 138 111 334 113 111 335 138 112 336 111 112 337 113 112 338 138 113 339 106 113 340 111 113 341 112 114 342 107 114 343 148 114 344 110 115 345 115 115 346 114 115 347 110 116 348 148 116 349 107 116 350 148 117 351 110 117 352 114 117 353 248 118 354 290 118 355 124 118 356 126 119 357 124 119 358 290 119 359 210 120 360 222 120 361 120 120 362 128 121 363 306 121 364 257 121 365 254 122 366 257 122 367 122 122 368 306 123 369 210 123 370 120 123 371 223 124 372 250 124 373 121 124 374 121 125 375 250 125 376 125 125 377 127 126 378 291 126 379 123 126 380 123 127 381 291 127 382 255 127 383 290 128 384 292 128 385 126 128 386 124 129 387 251 129 388 248 129 389 222 130 390 211 130 391 224 130 392 211 131 393 222 131 394 210 131 395 257 132 396 269 132 397 258 132 398 269 133 399 257 133 400 254 133 401 210 134 402 256 134 403 211 134 404 256 135 405 210 135 406 128 135 407 128 136 408 258 136 409 256 136 410 258 137 411 128 137 412 257 137 413 290 138 414 249 138 415 289 138 416 249 139 417 290 139 418 248 139 419 250 140 420 225 140 421 252 140 422 225 141 423 250 141 424 223 141 425 255 142 426 293 142 427 270 142 428 293 143 429 255 143 430 291 143 431 292 144 432 289 144 433 294 144 434 289 145 435 292 145 436 290 145 437 248 146 438 253 146 439 249 146 440 253 147 441 248 147 442 251 147 443 133 148 444 141 148 445 103 148 446 100 149 447 132 149 448 135 149 449 132 150 450 129 150 451 135 150 452 166 151 453 118 151 454 173 151 455 119 152 456 166 152 457 177 152 458 177 153 459 166 153 460 173 153 461 174 154 462 117 154 463 168 154 464 116 155 465 168 155 466 117 155 467 177 156 468 168 156 469 116 156 470 177 157 471 116 157 472 119 157 473 178 158 474 170 158 475 180 158 476 178 159 477 175 159 478 170 159 479 169 160 480 172 160 481 182 160 482 171 161 483 182 161 484 172 161 485 182 162 486 176 162 487 169 162 488 181 163 489 169 163 490 179 163 491 181 164 492 172 164 493 169 164 494 175 165 495 183 165 496 170 165 497 167 166 498 165 166 499 136 166 500 136 167 501 165 167 502 99 167 503 167 168 504 136 168 505 134 168 506 134 169 507 102 169 508 167 169 509 127 170 510 123 170 511 101 170 512 104 171 513 127 171 514 101 171 515 121 172 516 125 172 517 139 172 518 139 173 519 125 173 520 108 173 521 141 174 522 142 174 523 109 174 524 109 175 525 103 175 526 141 175 527 126 176 528 103 176 529 109 176 530 126 177 531 109 177 532 124 177 533 100 178 534 131 178 535 132 178 536 122 179 537 131 179 538 100 179 539 120 180 540 131 180 541 306 180 542 171 181 543 172 181 544 181 181 545 99 182 546 117 182 547 105 182 548 148 183 549 152 183 550 112 183 551 114 184 552 160 184 553 148 184 554 160 185 555 152 185 556 148 185 557 153 186 558 156 186 559 111 186 560 113 187 561 111 187 562 156 187 563 160 188 564 113 188 565 156 188 566 160 189 567 114 189 568 113 189 569 161 190 570 163 190 571 158 190 572 161 191 573 158 191 574 154 191 575 157 192 576 150 192 577 149 192 578 159 193 579 149 193 580 150 193 581 150 194 582 157 194 583 155 194 584 164 195 585 162 195 586 157 195 587 164 196 588 157 196 589 149 196 590 154 197 591 158 197 592 151 197 593 110 198 594 145 198 595 115 198 596 145 199 597 138 199 598 115 199 599 143 200 600 145 200 601 110 200 602 110 201 603 107 201 604 143 201 605 159 202 606 164 202 607 149 202 608 140 203 609 146 203 610 132 203 611 132 204 612 146 204 613 129 204 614 144 205 615 109 205 616 142 205 617 120 206 618 140 206 619 131 206 620 131 207 621 140 207 622 132 207 623 130 208 624 141 208 625 133 208 626 133 209 627 137 209 628 130 209 629 142 210 630 141 210 631 130 210 632 147 211 633 144 211 634 142 211 635 142 212 636 130 212 637 147 212 638 257 213 639 306 213 640 122 213 641 210 214 642 306 214 643 128 214 644 306 215 645 131 215 646 122 215 647 212 216 648 240 216 649 228 216 650 240 217 651 215 217 652 218 217 653 279 218 654 259 218 655 265 218 656 262 219 657 279 219 658 236 219 659 233 220 660 238 220 661 216 220 662 232 221 663 233 221 664 216 221 665 230 222 666 213 222 667 239 222 668 239 223 669 234 223 670 230 223 671 238 224 672 298 224 673 216 224 674 213 225 675 299 225 676 239 225 677 220 226 678 219 226 679 217 226 680 217 227 681 226 227 682 220 227 683 214 228 684 229 228 685 221 228 686 227 229 687 214 229 688 221 229 689 282 230 690 274 230 691 263 230 692 274 231 693 273 231 694 263 231 695 260 232 696 277 232 697 283 232 698 275 233 699 283 233 700 277 233 701 267 234 702 302 234 703 264 234 704 268 235 705 261 235 706 303 235 707 237 236 708 271 236 709 264 236 710 267 237 711 264 237 712 271 237 713 266 238 714 261 238 715 272 238 716 261 239 717 268 239 718 272 239 719 273 240 720 278 240 721 280 240 722 231 241 723 232 241 724 241 241 725 213 242 726 230 242 727 242 242 728 241 243 729 232 243 730 216 243 731 281 244 732 277 244 733 260 244 734 263 245 735 273 245 736 280 245 737 232 246 738 243 246 739 233 246 740 245 247 741 235 247 742 244 247 743 234 248 744 246 248 745 230 248 746 286 249 747 284 249 748 276 249 749 273 250 750 274 250 751 285 250 752 277 251 753 287 251 754 275 251 755 236 252 756 279 252 757 265 252 758 228 253 759 240 253 760 218 253 761 273 254 762 285 254 763 288 254 764 288 255 765 278 255 766 273 255 767 232 256 768 231 256 769 247 256 770 247 257 771 243 257 772 232 257 773 184 258 774 185 258 775 188 258 776 188 259 777 187 259 778 184 259 779 186 260 780 200 260 781 202 260 782 202 261 783 189 261 784 186 261 785 201 262 786 184 262 787 187 262 788 187 263 789 203 263 790 201 263 791 187 264 792 188 264 793 204 264 794 204 265 795 190 265 796 187 265 797 189 266 798 202 266 799 191 266 800 191 267 801 205 267 802 189 267 803 203 268 804 187 268 805 190 268 806 190 269 807 192 269 808 203 269 809 190 270 810 204 270 811 206 270 812 206 271 813 193 271 814 190 271 815 205 272 816 191 272 817 194 272 818 194 273 819 207 273 820 205 273 821 192 274 822 190 274 823 193 274 824 193 275 825 195 275 826 192 275 827 198 276 828 196 276 829 208 276 830 193 277 831 206 277 832 195 277 833 185 278 834 184 278 835 209 278 836 209 279 837 197 279 838 185 279 839 184 280 840 201 280 841 199 280 842 199 281 843 209 281 844 184 281 845 200 282 846 186 282 847 196 282 848 196 283 849 198 283 850 200 283 851 297 284 852 296 284 853 295 284 854 217 285 855 300 285 856 226 285 857 301 286 858 214 286 859 227 286 860 263 287 861 304 287 862 282 287 863 305 288 864 260 288 865 283 288 866</p>
        </triangles>
      </mesh>
    </geometry>
  </library_geometries>
  <library_controllers>
    <controller id="egypt_agema_Skin_hostatir-skin" name="egypt_agema_Skin">
      <skin source="#forearms-mesh">
        <bind_shape_matrix>1 0 0 0 0 1 0 0 0 0 1 0 0 0 0 1</bind_shape_matrix>
        <source id="egypt_agema_Skin_hostatir-skin-joints">
          <Name_array id="egypt_agema_Skin_hostatir-skin-joints-array" count="17">neck pelvis femurleft butt-l knee-l-top knee-l-bopttom femurright butt-r knee-r-top knee-r-bopttom lumbar rib scapula ulna scapula01 ulna01 smoke_node_1</Name_array>
          <technique_common>
            <accessor source="#egypt_agema_Skin_hostatir-skin-joints-array" count="17" stride="1">
              <param name="JOINT" type="name"/>
            </accessor>
          </technique_common>
        </source>
        <source id="egypt_agema_Skin_hostatir-skin-bind_poses">
          <float_array id="egypt_agema_Skin_hostatir-skin-bind_poses-array" count="272">1 0 0 0.02165722 0 0 1 -3.354292 0 -1 -1.19331e-7 1.59571e-7 0 0 0 1 1 0 0 -2.88205e-4 0 0 1 -1.989969 0 -1 0 0.05965083 0 0 0 1 1 0 0 -0.2295659 0 0 1 -1.980151 0 -1 0 0 0 0 0 1 1 0 0 -0.2300335 0 -5.28991e-7 1 -1.881625 0 -1 -5.44141e-7 0.2278664 0 0 0 1 1 0 0 -0.2579528 0 0 1 -1.492427 0 -1 0 -0.357712 0 0 0 1 1 0 0 -0.2616622 0 -1.93715e-7 1 -1.243225 0 -1 -2.08865e-7 0.03760045 0 0 0 1 1 0 0 0.2313526 0 0 1 -1.980151 0 -1 0 0 0 0 0 1 1 0 0 0.234615 0 -6.78003e-7 1 -1.884256 0 -1 -6.93152e-7 0.2262769 0 0 0 1 1 0 0 0.1784679 0 -6.78002e-7 1 -1.491813 0 -1 -6.93152e-7 -0.3589498 0 0 0 1 1 0 0 0.2454932 0 0 1 -1.243115 0 -1 0 0.03760033 0 0 0 1 1 0 0 -0.004826366 0 0 1 -2.179734 0 -1 0 0.1130515 0 0 0 1 1 0 0 0.007960081 0 0 1 -2.884792 0 -1 0 -1.77028e-7 0 0 0 1 0.2551059 0 0.9669132 -3.130889 -0.9669132 0 0.2551059 -0.4016601 0 -1 0 0 0 0 0 1 0.2551056 0 0.9669132 -3.254626 -0.9669132 0 0.2551056 0.1976975 0 -1 0 0 0 0 0 1 0.2539445 0 -0.9672189 3.141754 0.9672189 0 0.2539446 -0.3583473 0 -1 0 -6.62062e-7 0 0 0 1 0.2539447 0 -0.9672188 3.253756 0.9672188 -1.23058e-7 0.2539448 0.2410089 0 -1 0 -2.7003e-7 0 0 0 1 0.2552484 -9.05397e-6 -0.9668756 3.36669 -0.006483614 -0.9999776 -0.001702249 -0.05484449 -0.9668539 0.006703495 -0.2552428 -0.9496735 0 0 0 1</float_array>
          <technique_common>
            <accessor source="#egypt_agema_Skin_hostatir-skin-bind_poses-array" count="17" stride="16">
              <param name="TRANSFORM" type="float4x4"/>
            </accessor>
          </technique_common>
        </source>
        <source id="egypt_agema_Skin_hostatir-skin-weights">
          <float_array id="egypt_agema_Skin_hostatir-skin-weights-array" count="307">1 1 1 1 1 1 1 1 1 1 1 1 1 1 1 1 1 1 1 1 1 1 1 1 1 1 1 1 1 1 1 1 1 1 1 1 1 1 1 1 1 1 1 1 1 1 1 1 1 1 1 1 1 1 1 1 1 1 1 1 1 1 1 1 1 1 1 1 1 1 1 1 1 1 1 1 1 1 1 1 1 1 1 1 1 1 1 1 1 1 1 1 1 1 1 1 1 1 1 1 1 1 1 1 1 1 1 1 1 1 1 1 1 1 1 1 1 1 1 1 1 1 1 1 1 1 1 1 1 1 1 1 1 1 1 1 1 1 1 1 1 1 1 1 1 1 1 1 1 1 1 1 1 1 1 1 1 1 1 1 1 1 1 1 1 1 1 1 1 1 1 1 1 1 1 1 1 1 1 1 1 1 1 1 1 1 1 1 1 1 1 1 1 1 1 1 1 1 1 1 1 1 1 1 1 1 1 1 1 1 1 1 1 1 1 1 1 1 1 1 1 1 1 1 1 1 1 1 1 1 1 1 1 1 1 1 1 1 1 1 1 1 1 1 1 1 1 1 1 1 1 1 1 1 1 1 1 1 1 1 1 1 1 1 1 1 1 1 1 1 1 1 1 1 1 1 1 1 1 1 1 1 1 1 1 1 1 1 1 1 1 1 1 1 1 1 1 1 1 1 1 1 1 1 1 1 1</float_array>
          <technique_common>
            <accessor source="#egypt_agema_Skin_hostatir-skin-weights-array" count="307" stride="1">
              <param name="WEIGHT" type="float"/>
            </accessor>
          </technique_common>
        </source>
        <joints>
          <input semantic="JOINT" source="#egypt_agema_Skin_hostatir-skin-joints"/>
          <input semantic="INV_BIND_MATRIX" source="#egypt_agema_Skin_hostatir-skin-bind_poses"/>
        </joints>
        <vertex_weights count="307">
          <input semantic="JOINT" source="#egypt_agema_Skin_hostatir-skin-joints" offset="0"/>
          <input semantic="WEIGHT" source="#egypt_agema_Skin_hostatir-skin-weights" offset="1"/>
          <vcount>1 1 1 1 1 1 1 1 1 1 1 1 1 1 1 1 1 1 1 1 1 1 1 1 1 1 1 1 1 1 1 1 1 1 1 1 1 1 1 1 1 1 1 1 1 1 1 1 1 1 1 1 1 1 1 1 1 1 1 1 1 1 1 1 1 1 1 1 1 1 1 1 1 1 1 1 1 1 1 1 1 1 1 1 1 1 1 1 1 1 1 1 1 1 1 1 1 1 1 1 1 1 1 1 1 1 1 1 1 1 1 1 1 1 1 1 1 1 1 1 1 1 1 1 1 1 1 1 1 1 1 1 1 1 1 1 1 1 1 1 1 1 1 1 1 1 1 1 1 1 1 1 1 1 1 1 1 1 1 1 1 1 1 1 1 1 1 1 1 1 1 1 1 1 1 1 1 1 1 1 1 1 1 1 1 1 1 1 1 1 1 1 1 1 1 1 1 1 1 1 1 1 1 1 1 1 1 1 1 1 1 1 1 1 1 1 1 1 1 1 1 1 1 1 1 1 1 1 1 1 1 1 1 1 1 1 1 1 1 1 1 1 1 1 1 1 1 1 1 1 1 1 1 1 1 1 1 1 1 1 1 1 1 1 1 1 1 1 1 1 1 1 1 1 1 1 1 1 1 1 1 1 1 1 1 1 1 1 1 1 1 1 1 1 1 1 1 1 1 1 1 1 1 1 1 1 1 </vcount>
          <v>0 0 0 1 0 2 0 3 0 4 0 5 0 6 0 7 0 8 0 9 0 10 0 11 0 12 0 13 0 14 0 15 0 16 0 17 0 18 0 19 0 20 0 21 0 22 0 23 0 24 0 25 0 26 0 27 0 28 0 29 0 30 0 31 0 32 0 33 0 34 0 35 0 36 0 37 0 38 0 39 0 40 0 41 0 42 0 43 0 44 0 45 0 46 0 47 0 48 0 49 0 50 0 51 0 52 0 53 0 54 13 55 13 56 13 57 13 58 13 59 13 60 13 61 13 62 13 63 13 64 13 65 13 66 13 67 13 68 13 69 13 70 13 71 13 72 13 73 13 74 13 75 13 76 13 77 13 78 13 79 13 80 13 81 13 82 13 83 13 84 13 85 13 86 13 87 13 88 13 89 13 90 13 91 13 92 13 93 13 94 13 95 13 96 13 97 13 98 11 99 11 100 11 101 11 102 11 103 11 104 11 105 11 106 11 107 11 108 11 109 12 110 12 111 12 112 12 113 12 114 12 115 14 116 14 117 14 118 14 119 1 120 1 121 1 122 1 123 1 124 1 125 1 126 1 127 6 128 11 129 11 130 11 131 11 132 11 133 11 134 11 135 11 136 11 137 11 138 11 139 11 140 11 141 11 142 11 143 11 144 11 145 11 146 11 147 12 148 13 149 13 150 13 151 13 152 13 153 13 154 13 155 13 156 13 157 13 158 13 159 13 160 13 161 13 162 13 163 13 164 14 165 14 166 14 167 15 168 15 169 15 170 15 171 15 172 15 173 15 174 15 175 15 176 15 177 15 178 15 179 15 180 15 181 15 182 15 183 16 184 16 185 16 186 16 187 16 188 16 189 16 190 16 191 16 192 16 193 16 194 16 195 16 196 16 197 16 198 16 199 16 200 16 201 16 202 16 203 16 204 16 205 16 206 16 207 16 208 16 209 2 210 2 211 5 212 5 213 5 214 5 215 5 216 5 217 2 218 2 219 2 220 2 221 2 222 2 223 2 224 2 225 2 226 2 227 2 228 2 229 5 230 5 231 5 232 5 233 5 234 5 235 6 236 6 237 5 238 5 239 5 240 5 241 5 242 5 243 5 244 5 245 5 246 5 247 3 248 3 249 3 250 3 251 3 252 3 253 6 254 6 255 6 256 6 257 6 258 9 259 9 260 9 261 9 262 9 263 9 264 6 265 6 266 6 267 6 268 6 269 6 270 6 271 6 272 9 273 9 274 9 275 9 276 9 277 9 278 9 279 9 280 9 281 9 282 9 283 9 284 9 285 9 286 9 287 9 288 7 289 7 290 7 291 7 292 7 293 7 294 0 295 0 296 0 297 2 298 2 299 2 300 2 301 6 302 6 303 6 304 6 305 1 306</v>
        </vertex_weights>
      </skin>
    </controller>
  </library_controllers>
  <library_visual_scenes>
    <visual_scene id="Scene" name="Scene">
      <node id="egypt_agema_Skin" name="egypt_agema_Skin" type="NODE">
        <matrix sid="transform">1 0 0 0 0 1 0 0 0 0 1 0 0 0 0 1</matrix>
        <node id="egypt_agema_Skin_root" name="root" sid="root" type="JOINT">
          <matrix sid="transform">1 1.87196e-15 4.0082e-8 0 4.0082e-8 -1.34359e-7 -1 -1.01207e-7 3.51342e-15 1 -1.19209e-7 2.154822 0 0 0 1</matrix>
          <node id="egypt_agema_Skin_pelvis" name="pelvis" sid="pelvis" type="JOINT">
            <matrix sid="transform">1 0 1.18083e-8 2.88204e-4 -4.39893e-16 1 3.72529e-8 -0.1648533 -1.18083e-8 -3.72529e-8 1 -0.05965078 0 0 0 1</matrix>
            <node id="egypt_agema_Skin_femurleft" name="femurleft" sid="femurleft" type="JOINT">
              <matrix sid="transform">1 0 5.09433e-9 0.2292778 0 1 0 -0.0098176 -5.09433e-9 0 1 0.05965089 0 0 0 1</matrix>
              <node id="egypt_agema_Skin_butt-l" name="butt-l" sid="butt-l" type="JOINT">
                <matrix sid="transform">1 0 4.2319e-9 4.67539e-4 1.89181e-15 1 -4.47035e-7 -0.09852614 -4.2319e-9 4.47035e-7 1 -0.2278656 0 0 0 1</matrix>
                <extra>
                  <technique profile="blender">
                    <layer sid="layer" type="string">0</layer>
                    <roll sid="roll" type="float">0</roll>
                    <tip_x sid="tip_x" type="float">0</tip_x>
                    <tip_y sid="tip_y" type="float">0</tip_y>
                    <tip_z sid="tip_z" type="float">0.1</tip_z>
                  </technique>
                </extra>
              </node>
              <node id="egypt_agema_Skin_knee-l-top" name="knee-l-top" sid="knee-l-top" type="JOINT">
                <matrix sid="transform">1 0 7.79386e-9 0.0283868 0 0.9999999 0 -0.4877244 -7.79386e-9 0 1 0.357712 0 0 0 1</matrix>
                <extra>
                  <technique profile="blender">
                    <layer sid="layer" type="string">0</layer>
                    <roll sid="roll" type="float">0</roll>
                    <tip_x sid="tip_x" type="float">0</tip_x>
                    <tip_y sid="tip_y" type="float">0</tip_y>
                    <tip_z sid="tip_z" type="float">0.1</tip_z>
                  </technique>
                </extra>
              </node>
              <node id="egypt_agema_Skin_knee-l-bopttom" name="knee-l-bopttom" sid="knee-l-bopttom" type="JOINT">
                <matrix sid="transform">1 0 3.25892e-8 0.03209621 3.64212e-15 1 -1.11759e-7 -0.7369262 -3.25892e-8 1.11759e-7 1 -0.03760035 0 0 0 1</matrix>
                <node id="egypt_agema_Skin_ankle_left" name="ankle left" sid="ankle_left" type="JOINT">
                  <matrix sid="transform">1 -3.72529e-8 9.67287e-7 0.008728176 3.22031e-7 -0.9295399 -0.3687219 -1.121673 9.12866e-7 0.3687219 -0.9295423 -0.06275673 0 0 0 1</matrix>
                  <node id="egypt_agema_Skin_foot_left01" name="foot left01" sid="foot_left01" type="JOINT">
                    <matrix sid="transform">1 8.16055e-7 3.86707e-5 3.27826e-7 -3.5943e-5 0.3889571 0.9212559 0.216839 -1.42895e-5 -0.9212559 0.3889571 -0.2809216 0 0 0 1</matrix>
                    <extra>
                      <technique profile="blender">
                        <layer sid="layer" type="string">0</layer>
                        <roll sid="roll" type="float">3.90386e-5</roll>
                        <tip_x sid="tip_x" type="float">0</tip_x>
                        <tip_y sid="tip_y" type="float">-0.09997618</tip_y>
                        <tip_z sid="tip_z" type="float">-0.002186357</tip_z>
                      </technique>
                    </extra>
                  </node>
                  <extra>
                    <technique profile="blender">
                      <layer sid="layer" type="string">0</layer>
                      <roll sid="roll" type="float">8.84022e-7</roll>
                      <tip_x sid="tip_x" type="float">0</tip_x>
                      <tip_y sid="tip_y" type="float">-0.03687214</tip_y>
                      <tip_z sid="tip_z" type="float">-0.09295403</tip_z>
                    </technique>
                  </extra>
                </node>
                <extra>
                  <technique profile="blender">
                    <layer sid="layer" type="string">0</layer>
                    <roll sid="roll" type="float">0</roll>
                    <tip_x sid="tip_x" type="float">0</tip_x>
                    <tip_y sid="tip_y" type="float">0</tip_y>
                    <tip_z sid="tip_z" type="float">0.1</tip_z>
                  </technique>
                </extra>
              </node>
              <extra>
                <technique profile="blender">
                  <layer sid="layer" type="string">0</layer>
                  <roll sid="roll" type="float">0</roll>
                  <tip_x sid="tip_x" type="float">0</tip_x>
                  <tip_y sid="tip_y" type="float">0</tip_y>
                  <tip_z sid="tip_z" type="float">0.1000001</tip_z>
                </technique>
              </extra>
            </node>
            <node id="egypt_agema_Skin_femurright" name="femurright" sid="femurright" type="JOINT">
              <matrix sid="transform">1 0 5.09434e-9 -0.2316408 0 1 0 -0.0098176 -5.09434e-9 0 1 0.05965089 0 0 0 1</matrix>
              <node id="egypt_agema_Skin_butt-r" name="butt-r" sid="butt-r" type="JOINT">
                <matrix sid="transform">1 0 5.58592e-9 -0.003262341 3.32947e-15 1 -5.96046e-7 -0.09589542 -5.58592e-9 5.96046e-7 1 -0.2262758 0 0 0 1</matrix>
                <extra>
                  <technique profile="blender">
                    <layer sid="layer" type="string">0</layer>
                    <roll sid="roll" type="float">0</roll>
                    <tip_x sid="tip_x" type="float">0</tip_x>
                    <tip_y sid="tip_y" type="float">0</tip_y>
                    <tip_z sid="tip_z" type="float">0.1</tip_z>
                  </technique>
                </extra>
              </node>
              <node id="egypt_agema_Skin_knee-r-top" name="knee-r-top" sid="knee-r-top" type="JOINT">
                <matrix sid="transform">1 0 9.03824e-9 0.0528847 5.3872e-15 0.9999999 -5.96046e-7 -0.4883388 -9.03824e-9 5.96046e-7 1 0.3589507 0 0 0 1</matrix>
                <extra>
                  <technique profile="blender">
                    <layer sid="layer" type="string">0</layer>
                    <roll sid="roll" type="float">0</roll>
                    <tip_x sid="tip_x" type="float">0</tip_x>
                    <tip_y sid="tip_y" type="float">0</tip_y>
                    <tip_z sid="tip_z" type="float">0.1</tip_z>
                  </technique>
                </extra>
              </node>
              <node id="egypt_agema_Skin_knee-r-bopttom" name="knee-r-bopttom" sid="knee-r-bopttom" type="JOINT">
                <matrix sid="transform">1 0 2.04881e-8 -0.01414062 0 1 0 -0.7370365 -2.04881e-8 0 1 -0.03760033 0 0 0 1</matrix>
                <node id="egypt_agema_Skin_ankleright" name="ankleright" sid="ankleright" type="JOINT">
                  <matrix sid="transform">1 -2.79396e-8 8.96982e-7 -0.0131759 3.04766e-7 -0.92954 -0.3687211 -1.118303 8.44083e-7 0.3687211 -0.9295394 -0.06275684 0 0 0 1</matrix>
                  <node id="egypt_agema_Skin_foot_right01" name="foot right01" sid="foot_right01" type="JOINT">
                    <matrix sid="transform">1 7.59766e-7 3.29254e-5 2.38419e-7 -3.06284e-5 0.3889474 0.9212598 0.2168394 -1.21063e-5 -0.9212599 0.3889476 -0.2809223 0 0 0 1</matrix>
                    <extra>
                      <technique profile="blender">
                        <layer sid="layer" type="string">0</layer>
                        <roll sid="roll" type="float">3.32468e-5</roll>
                        <tip_x sid="tip_x" type="float">0</tip_x>
                        <tip_y sid="tip_y" type="float">-0.09997612</tip_y>
                        <tip_z sid="tip_z" type="float">-0.002185404</tip_z>
                      </technique>
                    </extra>
                  </node>
                  <extra>
                    <technique profile="blender">
                      <layer sid="layer" type="string">0</layer>
                      <roll sid="roll" type="float">8.24969e-7</roll>
                      <tip_x sid="tip_x" type="float">0</tip_x>
                      <tip_y sid="tip_y" type="float">-0.03687208</tip_y>
                      <tip_z sid="tip_z" type="float">-0.09295403</tip_z>
                    </technique>
                  </extra>
                </node>
                <extra>
                  <technique profile="blender">
                    <layer sid="layer" type="string">0</layer>
                    <roll sid="roll" type="float">0</roll>
                    <tip_x sid="tip_x" type="float">0</tip_x>
                    <tip_y sid="tip_y" type="float">0</tip_y>
                    <tip_z sid="tip_z" type="float">0.1</tip_z>
                  </technique>
                </extra>
              </node>
              <extra>
                <technique profile="blender">
                  <layer sid="layer" type="string">0</layer>
                  <roll sid="roll" type="float">0</roll>
                  <tip_x sid="tip_x" type="float">0</tip_x>
                  <tip_y sid="tip_y" type="float">0</tip_y>
                  <tip_z sid="tip_z" type="float">0.1000001</tip_z>
                </technique>
              </extra>
            </node>
            <node id="egypt_agema_Skin_lumbar" name="lumbar" sid="lumbar" type="JOINT">
              <matrix sid="transform">1 0 4.81516e-9 0.004538175 0 1 3.72529e-8 0.189765 -4.81516e-9 -3.72529e-8 1 -0.05340068 0 0 0 1</matrix>
              <node id="egypt_agema_Skin_rib" name="rib" sid="rib" type="JOINT">
                <matrix sid="transform">1 0 4.31043e-9 -0.01278648 0 1 0 0.7050579 -4.31043e-9 0 1 0.1130517 0 0 0 1</matrix>
                <node id="egypt_agema_Skin_scapula" name="scapula" sid="scapula" type="JOINT">
                  <matrix sid="transform">0.2551059 -0.9669131 -8.34982e-8 0.4182978 0.9669131 0.2551058 -5.44977e-8 0.2449713 7.39955e-8 -6.68328e-8 1 -4.32792e-8 0 0 0 1</matrix>
                  <node id="egypt_agema_Skin_ulna" name="ulna" sid="ulna" type="JOINT">
                    <matrix sid="transform">1 -2.23517e-7 1.52055e-8 0.1237379 2.23517e-7 1 -1.77636e-15 -0.5993569 -1.52055e-8 5.32907e-15 1 -4.55498e-9 0 0 0 1</matrix>
                    <node id="egypt_agema_Skin_carpal" name="carpal" sid="carpal" type="JOINT">
                      <matrix sid="transform">1 1.47521e-6 3.64188e-8 0.1033103 -1.47521e-6 1 -1.49011e-7 -0.5754045 -3.6419e-8 1.49011e-7 1 0.07377818 0 0 0 1</matrix>
                      <node id="egypt_agema_Skin_ammo_node_1" name="ammo node 1" sid="ammo_node_1" type="JOINT">
                        <matrix sid="transform">1 8.9407e-7 -3.0905e-5 0.1766816 -3.09199e-5 0.001922547 -0.9999982 0.2353452 -8.34626e-7 0.9999982 0.001922488 -0.07377826 0 0 0 1</matrix>
                        <extra>
                          <technique profile="blender">
                            <layer sid="layer" type="string">0</layer>
                            <roll sid="roll" type="float">-1.312054</roll>
                            <tip_x sid="tip_x" type="float">-1.85847e-4</tip_x>
                            <tip_y sid="tip_y" type="float">-0.09999984</tip_y>
                            <tip_z sid="tip_z" type="float">4.91142e-5</tip_z>
                          </technique>
                        </extra>
                      </node>
                      <extra>
                        <technique profile="blender">
                          <layer sid="layer" type="string">0</layer>
                          <roll sid="roll" type="float">-1.312838</roll>
                          <tip_x sid="tip_x" type="float">-0.09669148</tip_x>
                          <tip_y sid="tip_y" type="float">0</tip_y>
                          <tip_z sid="tip_z" type="float">0.02551078</tip_z>
                        </technique>
                      </extra>
                    </node>
                    <extra>
                      <technique profile="blender">
                        <layer sid="layer" type="string">0</layer>
                        <roll sid="roll" type="float">-1.312839</roll>
                        <tip_x sid="tip_x" type="float">-0.09669125</tip_x>
                        <tip_y sid="tip_y" type="float">0</tip_y>
                        <tip_z sid="tip_z" type="float">0.02551054</tip_z>
                      </technique>
                    </extra>
                  </node>
                  <extra>
                    <technique profile="blender">
                      <layer sid="layer" type="string">0</layer>
                      <roll sid="roll" type="float">-1.312839</roll>
                      <tip_x sid="tip_x" type="float">-0.09669119</tip_x>
                      <tip_y sid="tip_y" type="float">0</tip_y>
                      <tip_z sid="tip_z" type="float">0.02551054</tip_z>
                    </technique>
                  </extra>
                </node>
                <node id="egypt_agema_Skin_scapula01" name="scapula01" sid="scapula01" type="JOINT">
                  <matrix sid="transform">0.2539446 0.9672188 -9.40182e-8 -0.4432709 -0.9672188 0.2539445 1.55248e-7 0.2449713 1.74034e-7 5.15118e-8 1 -4.32792e-8 0 0 0 1</matrix>
                  <node id="egypt_agema_Skin_ulna01" name="ulna01" sid="ulna01" type="JOINT">
                    <matrix sid="transform">1 -1.63913e-7 1.31327e-7 -0.1120022 1.63913e-7 1 -1.19209e-7 -0.5993569 -1.31327e-7 1.19209e-7 1 6.54555e-9 0 0 0 1</matrix>
                    <node id="egypt_agema_Skin_carpal_right" name="carpal right" sid="carpal_right" type="JOINT">
                      <matrix sid="transform">1 1.04308e-6 -1.00165e-7 -0.1377452 -1.04308e-6 1 6.6791e-13 -0.5311359 1.00165e-7 -5.64881e-13 1 -1.53137e-7 0 0 0 1</matrix>
                      <node id="egypt_agema_Skin_smoke_node_1" name="smoke node 1" sid="smoke_node_1" type="JOINT">
                        <matrix sid="transform">0.9999991 7.46222e-8 0.001349196 0.02609414 0.001349181 -0.006703432 -0.9999766 -0.1824126 8.96991e-6 0.9999775 -0.006703252 0.04844673 0 0 0 1</matrix>
                        <node id="egypt_agema_Skin_ammo_node_0" name="ammo node 0" sid="ammo_node_0" type="JOINT">
                          <matrix sid="transform">0.9999991 0.001395658 1.05298e-5 0.002556771 -1.17207e-6 -0.006704821 0.9999776 1.569697 0.001395687 -0.9999766 -0.006704853 0.04455256 0 0 0 1</matrix>
                          <extra>
                            <technique profile="blender">
                              <layer sid="layer" type="string">0</layer>
                              <roll sid="roll" type="float">1.314089</roll>
                              <tip_x sid="tip_x" type="float">0.09726631</tip_x>
                              <tip_y sid="tip_y" type="float">1.19209e-7</tip_y>
                              <tip_z sid="tip_z" type="float">0.02553248</tip_z>
                            </technique>
                          </extra>
                        </node>
                        <extra>
                          <technique profile="blender">
                            <layer sid="layer" type="string">0</layer>
                            <roll sid="roll" type="float">1.314138</roll>
                            <tip_x sid="tip_x" type="float">-6.48379e-4</tip_x>
                            <tip_y sid="tip_y" type="float">-0.09999775</tip_y>
                            <tip_z sid="tip_z" type="float">-1.70231e-4</tip_z>
                          </technique>
                        </extra>
                      </node>
                      <extra>
                        <technique profile="blender">
                          <layer sid="layer" type="string">0</layer>
                          <roll sid="roll" type="float">1.31404</roll>
                          <tip_x sid="tip_x" type="float">0.096722</tip_x>
                          <tip_y sid="tip_y" type="float">0</tip_y>
                          <tip_z sid="tip_z" type="float">0.02539443</tip_z>
                        </technique>
                      </extra>
                    </node>
                    <extra>
                      <technique profile="blender">
                        <layer sid="layer" type="string">0</layer>
                        <roll sid="roll" type="float">1.31404</roll>
                        <tip_x sid="tip_x" type="float">0.09672176</tip_x>
                        <tip_y sid="tip_y" type="float">0</tip_y>
                        <tip_z sid="tip_z" type="float">0.02539443</tip_z>
                      </technique>
                    </extra>
                  </node>
                  <extra>
                    <technique profile="blender">
                      <layer sid="layer" type="string">0</layer>
                      <roll sid="roll" type="float">1.31404</roll>
                      <tip_x sid="tip_x" type="float">0.09672176</tip_x>
                      <tip_y sid="tip_y" type="float">0</tip_y>
                      <tip_z sid="tip_z" type="float">0.02539443</tip_z>
                    </technique>
                  </extra>
                </node>
                <node id="egypt_agema_Skin_neck" name="neck" sid="neck" type="JOINT">
                  <matrix sid="transform">1 0 3.8059e-9 -0.01369714 2.26368e-16 1 -5.94782e-8 0.4694998 -3.8059e-9 5.94782e-8 1 -1.37009e-7 0 0 0 1</matrix>
                  <node id="egypt_agema_Skin_skull" name="skull" sid="skull" type="JOINT">
                    <matrix sid="transform">1 0 1.57418e-9 -0.007297663 0 1 4.66258e-10 0.4520023 -1.57418e-9 -4.66258e-10 1 7.10191e-8 0 0 0 1</matrix>
                    <node id="egypt_agema_Skin_cloaktop" name="cloaktop" sid="cloaktop" type="JOINT">
                      <matrix sid="transform">1 0 3.25259e-9 0.03092997 1.45402e-15 1 -4.47034e-7 -0.57021 -3.25259e-9 4.47034e-7 1 -0.1981268 0 0 0 1</matrix>
                      <node id="egypt_agema_Skin_cloak" name="cloak" sid="cloak" type="JOINT">
                        <matrix sid="transform">1 0 1.42791e-10 0.004538157 0 1 4.47035e-7 -0.8590813 -1.42791e-10 -4.47035e-7 1 -0.2356976 0 0 0 1</matrix>
                        <node id="egypt_agema_Skin_cloakbottom" name="cloakbottom" sid="cloakbottom" type="JOINT">
                          <matrix sid="transform">1 0 0 -0.02733968 0 1 1.49011e-7 -0.8312195 0 -1.49011e-7 1 -0.1177092 0 0 0 1</matrix>
                          <extra>
                            <technique profile="blender">
                              <layer sid="layer" type="string">0</layer>
                              <roll sid="roll" type="float">0</roll>
                              <tip_x sid="tip_x" type="float">0</tip_x>
                              <tip_y sid="tip_y" type="float">0</tip_y>
                              <tip_z sid="tip_z" type="float">0.1000001</tip_z>
                            </technique>
                          </extra>
                        </node>
                        <extra>
                          <technique profile="blender">
                            <layer sid="layer" type="string">0</layer>
                            <roll sid="roll" type="float">0</roll>
                            <tip_x sid="tip_x" type="float">0</tip_x>
                            <tip_y sid="tip_y" type="float">0</tip_y>
                            <tip_z sid="tip_z" type="float">0.0999999</tip_z>
                          </technique>
                        </extra>
                      </node>
                      <extra>
                        <technique profile="blender">
                          <layer sid="layer" type="string">0</layer>
                          <roll sid="roll" type="float">0</roll>
                          <tip_x sid="tip_x" type="float">0</tip_x>
                          <tip_y sid="tip_y" type="float">0</tip_y>
                          <tip_z sid="tip_z" type="float">0.1000001</tip_z>
                        </technique>
                      </extra>
                    </node>
                    <node id="egypt_agema_Skin_nogginbottom" name="nogginbottom" sid="nogginbottom" type="JOINT">
                      <matrix sid="transform">1 2.3283e-9 2.44542e-7 0.001799157 -1.25515e-8 0.9991255 0.04181381 0.0898259 -2.44231e-7 -0.04181381 0.9991254 0.2822085 0 0 0 1</matrix>
                      <extra>
                        <technique profile="blender">
                          <layer sid="layer" type="string">0</layer>
                          <roll sid="roll" type="float">3.1088e-7</roll>
                          <tip_x sid="tip_x" type="float">0</tip_x>
                          <tip_y sid="tip_y" type="float">0.004181385</tip_y>
                          <tip_z sid="tip_z" type="float">0.09991264</tip_z>
                        </technique>
                      </extra>
                    </node>
                    <node id="egypt_agema_Skin_plumes" name="plumes" sid="plumes" type="JOINT">
                      <matrix sid="transform">1 2.3283e-9 4.80287e-7 -0.002369056 -1.24625e-8 0.9997773 0.02110134 0.1819344 -4.80131e-7 -0.02110134 0.9997773 0.1862074 0 0 0 1</matrix>
                      <extra>
                        <technique profile="blender">
                          <layer sid="layer" type="string">0</layer>
                          <roll sid="roll" type="float">5.46668e-7</roll>
                          <tip_x sid="tip_x" type="float">0</tip_x>
                          <tip_y sid="tip_y" type="float">0.002110123</tip_y>
                          <tip_z sid="tip_z" type="float">0.09997797</tip_z>
                        </technique>
                      </extra>
                    </node>
                    <node id="egypt_agema_Skin_skulltop" name="skulltop" sid="skulltop" type="JOINT">
                      <matrix sid="transform">1 0 4.68295e-9 -0.004168244 0 1 0 0.3702888 -4.68295e-9 0 1 2.27374e-13 0 0 0 1</matrix>
                      <extra>
                        <technique profile="blender">
                          <layer sid="layer" type="string">0</layer>
                          <roll sid="roll" type="float">0</roll>
                          <tip_x sid="tip_x" type="float">0</tip_x>
                          <tip_y sid="tip_y" type="float">0</tip_y>
                          <tip_z sid="tip_z" type="float">0.1000003</tip_z>
                        </technique>
                      </extra>
                    </node>
                    <extra>
                      <technique profile="blender">
                        <layer sid="layer" type="string">0</layer>
                        <roll sid="roll" type="float">0</roll>
                        <tip_x sid="tip_x" type="float">0</tip_x>
                        <tip_y sid="tip_y" type="float">0</tip_y>
                        <tip_z sid="tip_z" type="float">0.1000001</tip_z>
                      </technique>
                    </extra>
                  </node>
                  <node id="egypt_agema_Skin_smoke_node_0" name="smoke node 0" sid="smoke_node_0" type="JOINT">
                    <matrix sid="transform">1 -2.02302e-4 -1.10464e-6 0.006514963 -1.1046e-6 1.07102e-7 -1 0.09218743 2.02302e-4 1 7.80598e-8 0.2430203 0 0 0 1</matrix>
                    <extra>
                      <technique profile="blender">
                        <layer sid="layer" type="string">0</layer>
                        <roll sid="roll" type="float">3.141592</roll>
                        <tip_x sid="tip_x" type="float">-2.02237e-5</tip_x>
                        <tip_y sid="tip_y" type="float">-0.1</tip_y>
                        <tip_z sid="tip_z" type="float">0</tip_z>
                      </technique>
                    </extra>
                  </node>
                  <extra>
                    <technique profile="blender">
                      <layer sid="layer" type="string">0</layer>
                      <roll sid="roll" type="float">0</roll>
                      <tip_x sid="tip_x" type="float">0</tip_x>
                      <tip_y sid="tip_y" type="float">0</tip_y>
                      <tip_z sid="tip_z" type="float">0.0999999</tip_z>
                    </technique>
                  </extra>
                </node>
                <extra>
                  <technique profile="blender">
                    <layer sid="layer" type="string">0</layer>
                    <roll sid="roll" type="float">0</roll>
                    <tip_x sid="tip_x" type="float">0</tip_x>
                    <tip_y sid="tip_y" type="float">0</tip_y>
                    <tip_z sid="tip_z" type="float">0.1000001</tip_z>
                  </technique>
                </extra>
              </node>
              <extra>
                <technique profile="blender">
                  <layer sid="layer" type="string">0</layer>
                  <roll sid="roll" type="float">0</roll>
                  <tip_x sid="tip_x" type="float">0</tip_x>
                  <tip_y sid="tip_y" type="float">0</tip_y>
                  <tip_z sid="tip_z" type="float">0.0999999</tip_z>
                </technique>
              </extra>
            </node>
            <extra>
              <technique profile="blender">
                <layer sid="layer" type="string">0</layer>
                <roll sid="roll" type="float">0</roll>
                <tip_x sid="tip_x" type="float">0</tip_x>
                <tip_y sid="tip_y" type="float">0</tip_y>
                <tip_z sid="tip_z" type="float">0.0999999</tip_z>
              </technique>
            </extra>
          </node>
          <extra>
            <technique profile="blender">
              <layer sid="layer" type="string">0</layer>
              <roll sid="roll" type="float">0</roll>
              <tip_x sid="tip_x" type="float">0</tip_x>
              <tip_y sid="tip_y" type="float">0</tip_y>
              <tip_z sid="tip_z" type="float">0.0999999</tip_z>
            </technique>
          </extra>
        </node>
        <node id="hostatir" name="hostatir" type="NODE">
          <matrix sid="transform">1 0 0 0 0 1 0 0 0 0 1 0 0 0 0 1</matrix>
          <instance_controller url="#egypt_agema_Skin_hostatir-skin">
            <skeleton>#egypt_agema_Skin_root</skeleton>
            <bind_material>
              <technique_common>
                <instance_material symbol="cspain_hostatir-material" target="#cspain_hostatir-material">
                  <bind_vertex_input semantic="UVMap" input_semantic="TEXCOORD" input_set="0"/>
                </instance_material>
              </technique_common>
            </bind_material>
          </instance_controller>
        </node>
      </node>
    </visual_scene>
  </library_visual_scenes>
  <scene>
    <instance_visual_scene url="#Scene"/>
  </scene>
</COLLADA>