<?xml version="1.0" encoding="utf-8"?>
<COLLADA xmlns="http://www.collada.org/2005/11/COLLADASchema" version="1.4.1" xmlns:xsi="http://www.w3.org/2001/XMLSchema-instance">
  <asset>
    <contributor>
      <author>Blender User</author>
      <authoring_tool>Blender 3.0.1 commit date:2022-01-25, commit time:17:19, hash:dc2d18018171</authoring_tool>
    </contributor>
    <created>2024-03-29T10:20:33</created>
    <modified>2024-03-29T10:20:33</modified>
    <unit name="meter" meter="1"/>
    <up_axis>Z_UP</up_axis>
  </asset>
  <library_effects>
    <effect id="Gunud_002-effect">
      <profile_COMMON>
        <technique sid="common">
          <lambert>
            <emission>
              <color sid="emission">0 0 0 1</color>
            </emission>
            <diffuse>
              <color sid="diffuse">0.8 0.8 0.8 1</color>
            </diffuse>
            <reflectivity>
              <float sid="specular">0.5</float>
            </reflectivity>
          </lambert>
        </technique>
      </profile_COMMON>
    </effect>
  </library_effects>
  <library_images/>
  <library_materials>
    <material id="Gunud_002-material" name="Gunud.002">
      <instance_effect url="#Gunud_002-effect"/>
    </material>
  </library_materials>
  <library_geometries>
    <geometry id="gunud-mesh" name="gunud">
      <mesh>
        <source id="gunud-mesh-positions">
          <float_array id="gunud-mesh-positions-array" count="1158">-0.1874738 -0.3874692 0.06123656 -0.1874738 -0.3874692 0.06123656 -0.1874738 -0.3874692 0.06123656 -0.1800043 -0.3874692 -0.00692594 -0.1800043 -0.3874692 -0.00692594 -0.1800043 -0.3874692 -0.00692594 0.1830325 -0.3874692 -0.002811551 0.1830325 -0.3874692 -0.002811551 0.1830325 -0.3874692 -0.002811551 0.1920691 -0.3874692 0.06821018 0.1920691 -0.3874692 0.06821018 0.1920691 -0.3874692 0.06821018 0.3400045 -0.3520032 0.06821042 0.3400045 -0.3520032 0.06821042 0.3400045 -0.3520032 0.06821042 0.3914905 -0.3262226 -0.002791941 0.3914905 -0.3262226 -0.002791941 0.3914905 -0.3262226 -0.002791941 -0.3915318 -0.3262226 -0.006907999 -0.3915318 -0.3262226 -0.006907999 -0.3915318 -0.3262226 -0.006907999 -0.3414229 -0.3520032 0.06123638 -0.3414229 -0.3520032 0.06123638 -0.3414229 -0.3520032 0.06123638 0.4072238 -0.08793723 1.399081 0.3743782 0.2428812 0.006848454 0.3743782 0.2428812 0.006848454 0.3743782 0.2428812 0.006848454 0.08570975 -0.08825594 1.379261 0.1368585 0.2412616 0.006854176 0.1368585 0.2412616 0.006854176 0.1368585 0.2412616 0.006854176 -0.3871089 -0.08641713 1.394881 -0.07914251 -0.08675187 1.375088 -0.1339394 0.2522601 0.002764523 -0.1339394 0.2522601 0.002764523 -0.1339394 0.2522601 0.002764523 0.2525088 -0.01224303 0.1856067 0.2525088 -0.01224303 0.1856067 0.2525088 -0.01224303 0.1856067 0.2319263 -0.2425355 1.223469 0.2319263 -0.2425355 1.223469 -0.2284536 -0.2506414 1.223469 -0.2284536 -0.2506414 1.223469 -0.3744874 0.2539934 0.002758383 -0.3744874 0.2539934 0.002758383 -0.3744874 0.2539934 0.002758383 -0.2510623 -0.01371765 0.1815163 -0.2510623 -0.01371765 0.1815163 -0.2510623 -0.01371765 0.1815163 0.4387059 -0.04985529 1.232761 0.4387059 -0.04985529 1.232761 -0.07981628 -0.05192619 1.232761 -0.07981628 -0.05192619 1.232761 0.08417916 -0.05421793 1.232769 0.08417916 -0.05421793 1.232769 -0.4195123 -0.04495674 1.232761 -0.4195123 -0.04495674 1.232761 -0.3543573 0.03717052 1.250156 -0.3543573 0.03717052 1.250156 -0.09839487 0.03673756 1.250266 -0.09839487 0.03673756 1.250266 0.1034471 0.02715295 1.252673 0.1034471 0.02715295 1.252673 0.3522943 0.0275222 1.252603 0.3522943 0.0275222 1.252603 0.1477569 -0.2930748 0.005373775 0.1477569 -0.2930748 0.005373775 0.1550478 -0.2930748 0.07639557 0.1550478 -0.2930748 0.07639557 -0.3417108 -0.2576087 0.06942176 -0.3417108 -0.2576087 0.06942176 -0.3417108 -0.2576087 0.06942176 -0.3918197 -0.2318281 0.001277327 -0.3918197 -0.2318281 0.001277327 -0.1511796 -0.2930747 0.06942194 -0.1511796 -0.2930747 0.06942194 -0.145153 -0.2930747 0.001259386 -0.145153 -0.2930747 0.001259386 0.3397167 -0.2576087 0.0763958 0.3397167 -0.2576087 0.0763958 0.3912028 -0.2318281 0.005393385 0.3912028 -0.2318281 0.005393385 -0.322975 0.05422472 1.457039 -0.1292576 0.0540142 1.444588 0.1448737 0.05251431 1.449187 0.3770452 0.0527445 1.4635 -0.5314966 0.2864304 1.710314 -0.5314966 0.2864304 1.710314 0.6530647 -0.1240329 0.8522863 0.6530647 -0.1240329 0.8522863 -0.3251973 -0.3921343 0.8509055 0.001017093 -0.1729071 3.268697 -0.9779482 0.1715239 3.11873 -0.9779482 0.1715239 3.11873 -1.077485 -0.1106141 3.137198 -1.077485 -0.1106141 3.137198 0.9227777 0.1722081 3.103737 0.9227777 0.1722081 3.103737 0.997092 -0.002001047 3.003307 0.997092 -0.002001047 3.003307 1.145174 0.2191771 3.069 1.046814 -0.1106082 3.09965 1.046814 -0.1106082 3.09965 -0.02243888 -0.3679625 2.886958 -0.02243888 -0.3679625 2.886958 -0.469674 0.1183341 3.216026 -0.469674 0.1183341 3.216026 -0.469674 0.1183341 3.216026 0.206888 0.1431903 3.238316 0.206888 0.1431903 3.238316 0.4432091 0.1226122 3.213982 0.4432091 0.1226122 3.213982 -0.1541718 0.3936968 1.661342 -0.2673977 0.3745931 0.8229262 -0.4100582 -0.3160719 2.174331 -0.4100582 -0.3160719 2.174331 -0.4100582 -0.3160719 2.174331 -0.4100582 -0.3160719 2.174331 0.4045215 -0.3160669 2.173471 0.4045215 -0.3160669 2.173471 0.4045215 -0.3160669 2.173471 0.4045215 -0.3160669 2.173471 -0.4142837 0.3267755 2.183236 -0.4142837 0.3267755 2.183236 -0.4142837 0.3267755 2.183236 -0.4142837 0.3267755 2.183236 0.5296666 0.2864363 1.710387 0.5296666 0.2864363 1.710387 0.2180588 -0.3729044 1.603776 0.336865 -0.3915719 0.8509953 -0.2206481 -0.3729053 1.603755 -0.6370642 0.2673246 0.8534737 -0.6370642 0.2673246 0.8534737 0.2842943 0.3745991 0.8229997 0.182002 0.3937028 1.663092 -1.16695 0.2191875 3.124264 -0.4065695 -0.1895675 2.888345 -0.4065695 -0.1895675 2.888345 -0.4065695 -0.1895675 2.888345 -0.4065695 -0.1895675 2.888345 -0.469674 0.02788621 3.216026 -0.469674 0.02788621 3.216026 -0.469674 0.02788621 3.216026 0.3653439 0.2998414 2.904747 0.3653439 0.2998414 2.904747 0.3653439 0.2998414 2.904747 -0.5606024 -0.04727494 3.267988 -1.041592 -0.002001047 3.029745 -1.041592 -0.002001047 3.029745 -1.091452 -0.002001047 3.282578 -1.091452 -0.002001047 3.282578 -1.091452 -0.002001047 3.282578 -0.5655418 0.1226564 3.292962 -0.3949369 0.3025182 2.897066 -0.3949369 0.3025182 2.897066 -0.3949369 0.3025182 2.897066 1.068407 -0.002001047 3.245065 1.068407 -0.002001047 3.245065 0.5364902 -0.04742085 3.272948 0.3779656 -0.1960437 2.885514 0.3779656 -0.1960437 2.885514 0.3779656 -0.1960437 2.885514 0.3779656 -0.1960437 2.885514 0.5437141 0.1230348 3.297438 0.4087404 0.326781 2.182376 0.4087404 0.326781 2.182376 0.4087404 0.326781 2.182376 0.4087404 0.326781 2.182376 -0.2170963 0.1422637 3.240601 -0.2170963 0.1422637 3.240601 -0.2170963 0.1422637 3.240601 0.4432091 0.02788639 3.213982 0.4432091 0.02788639 3.213982 0.4432091 0.02788639 3.213982 0.529666 -0.1051474 1.603807 0.529666 -0.1051474 1.603807 -0.6377653 -0.1240382 0.8522132 -0.6377653 -0.1240382 0.8522132 -0.5314959 -0.1051524 1.603734 -0.5314959 -0.1051524 1.603734 0.6537654 0.267333 0.8535463 0.6537654 0.267333 0.8535463 -1.850654 -0.1246978 3.087387 1.66052 0.09795004 2.962389 1.677457 -0.1209571 2.997699 1.827464 0.05287319 2.998706 1.823781 -0.1231874 3.025729 1.816709 -0.1246849 2.971095 -1.731954 0.01647281 3.193454 -1.710135 -0.120969 3.100944 -1.859412 0.05288517 3.115752 -1.853256 -0.1231992 3.142321 -1.696519 0.09796035 3.064223 -1.84584 0.03428369 3.055481 1.707695 0.01647073 3.087795 1.808401 0.03427326 2.939939 -1.621088 -0.1288121 3.081484 -1.621088 -0.1288121 3.081484 -1.644104 0.008629798 3.180069 -1.644104 0.008629798 3.180069 1.619205 0.008627653 3.083291 1.619205 0.008627653 3.083291 1.586924 -0.1288002 2.986268 1.586924 -0.1288002 2.986268 -1.609973 0.09011727 3.05745 -1.609973 0.09011727 3.05745 1.573572 0.09010696 2.963111 1.573572 0.09010696 2.963111 -1.00623 0.1292759 3.174315 -1.00623 0.1292759 3.174315 0.9786518 0.1292759 3.162281 0.9786518 0.1292759 3.162281 1.798153 -0.02449023 3.162212 1.798153 -0.02449023 3.162212 1.243133 -0.8093779 3.268404 1.243133 -0.8093779 3.268404 1.243133 -0.8093779 3.268404 1.730506 0.7455739 3.175155 1.730506 0.7455739 3.175155 1.213826 0.749285 3.274011 1.213826 0.749285 3.274011 1.250063 -0.03004616 3.384014 1.745087 0.7457144 3.204232 1.225396 0.749285 3.334484 1.813628 -0.02433258 3.191118 1.254703 -0.8093784 3.328876 1.254703 -0.8093784 3.328876 1.261633 -0.03004622 3.444487 0.6588068 -0.03560209 3.380203 0.6588068 -0.03560209 3.380203 0.6588068 -0.03560209 3.380203 0.6973863 0.7402602 3.372822 0.6973863 0.7402602 3.372822 0.6550942 -0.03575998 3.412781 0.6550942 -0.03575998 3.412781 0.6945689 0.7401199 3.405228 1.548395 -0.8389905 3.209998 1.548395 -0.8389905 3.209998 1.548395 -0.8389905 3.209998 1.809719 -0.639651 3.159999 1.809719 -0.639651 3.159999 1.809719 -0.639651 3.159999 1.665645 -0.7745243 3.19471 1.665645 -0.7745243 3.19471 1.825195 -0.6394932 3.188905 1.825195 -0.6394932 3.188905 1.561181 -0.8388975 3.2426 1.561181 -0.8388975 3.2426 1.679312 -0.7749961 3.225734 1.679312 -0.7749961 3.225734 0.6703031 -0.6470366 3.378004 0.6703031 -0.6470366 3.378004 0.6703031 -0.6470366 3.378004 0.9389863 -0.8376265 3.326596 0.9389863 -0.8376265 3.326596 0.9389863 -0.8376265 3.326596 0.8223744 -0.7764796 3.356139 0.8223744 -0.7764796 3.356139 0.9391387 -0.8376767 3.361615 0.9391387 -0.8376767 3.361615 0.9391387 -0.8376767 3.361615 0.6665909 -0.6471946 3.410581 0.6665909 -0.6471946 3.410581 0.6665909 -0.6471946 3.410581 0.8211441 -0.7771946 3.390033 0.8211441 -0.7771946 3.390033 -1.23568 -0.05466055 3.218259 -1.216236 0.1778917 3.12112 1.181218 -0.07015001 3.080253 1.217963 0.003060221 3.2097 -1.243781 0.002426266 3.258483 -1.243781 0.002426266 3.258483 1.147831 -0.06076478 2.966658 1.178468 0.1735405 3.066421 -1.216662 -0.06936937 3.130213 -1.192599 -0.05564451 3.005935 0.01817989 -0.2735878 3.744109 0.01727741 -0.2104828 3.935478 -0.1625739 -0.1654836 3.886661 0.01692485 0.2846079 3.844698 -0.2414506 0.0534954 3.856387 0.01588737 -0.1218078 4.02784 -0.03714489 0.02286535 4.00783 -0.0443741 0.05774086 4.007791 0.01737171 -0.1249489 4.133646 -0.02260994 -0.02314752 4.109793 -0.02831739 0.1192704 4.033045 -0.02627992 0.05931019 4.028801 0.01753038 -0.05216819 4.140566 0.1732143 -0.1733235 3.888146 0.2243677 0.0505321 3.85639 0.06486296 0.021061 4.00783 0.07239121 0.05567634 4.007791 0.0487765 -0.02377003 4.109793 0.05671483 0.1177674 4.033045 0.05431324 0.05788505 4.028801 -0.2544651 -0.215443 3.707477 -0.2360863 0.05219197 3.405931 -0.1802104 -0.2839532 3.6854 0.2539713 0.04827964 3.405933 0.1928502 -0.2862206 3.685402 0.269708 -0.2183589 3.707482 -0.1645486 0.1700646 3.39294 0.02064138 0.2929208 3.41843 0.1846479 0.1678445 3.392943 0.2118341 0.03723138 3.32141 -0.2400349 0.01882803 3.735325 -0.2135403 0.03722888 3.321398 0.1817271 -0.1896793 3.731052 0.1817271 -0.1896793 3.731052 0.07420039 -0.1101815 3.318495 0.07420039 -0.1101815 3.318495 -0.1835893 -0.189681 3.731041 -0.1835893 -0.189681 3.731041 -0.07596349 -0.1101691 3.31849 -0.07596349 -0.1101691 3.31849 0.001158833 -0.2258484 3.731047 0.001158833 -0.2258484 3.731047 -0.002083182 -0.1848634 3.351494 -0.002083182 -0.1848634 3.351494 0.1402943 -0.1682719 3.538469 0.1402943 -0.1682719 3.538469 0.001676738 -0.2572933 3.49422 -0.141129 -0.1677443 3.534853 -0.141129 -0.1677443 3.534853 -0.03119397 -0.2572484 3.493914 -0.03119397 -0.2572484 3.493914 0.04086035 -0.2573463 3.494585 0.04086035 -0.2573463 3.494585 0.001724839 -0.2905794 3.494181 0.001724839 -0.2905794 3.494181 0.1388829 -0.1720002 3.612015 0.1388829 -0.1720002 3.612015 0.01538258 -0.1991963 3.631312 -0.005958795 -0.198961 3.627599 -0.1386483 -0.1709651 3.603166 -0.1386483 -0.1709651 3.603166 0.2383223 0.0188356 3.735339 -8.40704e-4 0.2278591 3.326273 -8.40704e-4 0.2278591 3.326273 -8.41601e-4 0.2699497 3.736325 -8.41601e-4 0.2699497 3.736325 -0.2244964 0.05963021 3.373135 -0.00913006 -0.2035512 3.26403 0.1586167 -0.1638407 3.304752 0.2187247 0.06835293 3.32531 -0.2049462 -0.1607809 3.30754 0.2080569 0.08626246 3.342541 -0.222747 0.0556553 3.61433 -0.2204325 -0.07214915 3.663189 -0.1955751 -0.211216 3.528934 0.1591997 -0.2148721 3.526069 0.1982386 0.05642187 3.693263 0.001076042 -0.2623541 3.484348 -1.88896 -2.335968 3.122323 -1.721549 -2.339202 3.153107 -1.729822 -2.336627 3.018341 -1.835604 -2.470057 3.185635 -1.813439 -2.470162 3.191569 -1.773396 -2.467926 2.945758 -1.803834 -2.994105 3.064776 -1.803783 -2.9939 3.065079 -1.803646 -2.993761 3.064649 -1.786008 2.054437 3.049834 -1.856259 2.049924 3.112059 -1.762465 2.049961 3.135084 -1.766573 2.048965 3.01824 -1.853657 -2.407855 3.121445 -1.76244 -2.407922 3.137511 -1.769576 -2.40784 3.021372 -1.721549 -2.339202 3.153107 -1.88896 -2.335968 3.122323 -1.835604 -2.470057 3.185635 -1.803783 -2.9939 3.065079 -1.803783 -2.9939 3.065079 -1.803834 -2.994105 3.064776 -1.773396 -2.467926 2.945758 -1.729822 -2.336627 3.018341 -1.88896 -2.335968 3.122323 -1.803646 -2.993761 3.064649 -1.762465 2.049961 3.135084 -1.786008 2.054437 3.049834 -1.856259 2.049924 3.112059 -1.76244 -2.407922 3.137511 -1.853657 -2.407855 3.121445</float_array>
          <technique_common>
            <accessor source="#gunud-mesh-positions-array" count="386" stride="3">
              <param name="X" type="float"/>
              <param name="Y" type="float"/>
              <param name="Z" type="float"/>
            </accessor>
          </technique_common>
        </source>
        <source id="gunud-mesh-normals">
          <float_array id="gunud-mesh-normals-array" count="1104">0.01959073 0.07919251 -0.9966669 0.02494353 0.08643919 -0.9959449 -0.8139215 -0.05265343 0.5785839 -0.8139215 -0.05265361 0.578584 0.9278339 -0.3638606 0.08203494 0.9303107 -0.3523197 0.1019465 -0.9297093 -0.3557127 0.09544247 -0.9210495 -0.3713948 0.1171909 0.0154342 -0.08037048 0.9966456 0.0206905 -0.08630937 0.9960535 -0.01608896 -0.08642792 0.9961283 -0.01829153 -0.07939338 0.9966756 -0.2199822 -0.9548873 -0.1994949 -0.2779942 -0.9600996 -0.03046351 0.2790292 -0.9496535 -0.1424816 0.2330317 -0.9720171 -0.02965033 0.8602599 -0.4848358 -0.1577568 0.7949773 -0.5875826 -0.1508568 -0.7829458 -0.6077015 -0.1330219 -0.866689 -0.4830936 -0.1243821 -0.7783825 -0.6018743 -0.1785166 -0.7330181 -0.679661 -0.027305 0.04503262 -0.7002038 0.7125214 0.9526002 0.2765844 0.1267042 0.979507 0.1966601 0.04348319 -0.7288684 -0.6708624 -0.1367284 -0.8551849 -0.4956081 -0.1517612 0.7952948 -0.5879716 -0.1476337 0.6778911 -0.7204349 -0.1464145 0.8386774 -0.5181546 -0.1677387 -0.9661844 0.1847942 0.1798303 -0.9333641 0.3473453 0.09045904 0.00709474 0.9852218 0.1711369 0.001593649 0.9854089 0.1701971 -0.006716489 0.9855589 0.1691997 -0.001413524 0.9853872 0.1703231 0.07366281 -0.3835609 0.9205732 -0.8004941 0.02673327 0.5987442 -0.8040891 0.02587747 0.5939455 6.09452e-4 0.002747416 -0.9999961 4.73513e-5 0.00304687 -0.9999954 -0.07331568 -0.3938629 0.9162407 0.8016322 0.0474987 0.5959276 0.9959003 -0.02072155 0.08805298 0.8054257 0.02265065 0.5922639 0.8077239 0.02682197 0.5889505 -0.9945615 -0.02056807 0.1020999 -0.805073 0.04952394 0.5911048 0.6821447 -0.7302252 -0.03807705 -0.7899471 0.6018392 0.1173596 0.9790064 0.2036997 0.007297396 -0.9737162 0.2273953 0.01296663 0.6780709 0.7221422 0.1368602 0.8167473 -0.04737472 0.5750475 0.8167476 -0.04737472 0.5750472 -6.13323e-4 0.002758026 -0.999996 -4.49796e-5 0.003063559 -0.9999954 -0.02163249 0.08630484 -0.996034 -0.02279657 0.07790923 -0.9966998 0.9519781 0.2701697 -0.144035 0.6750165 0.6810719 0.2837142 -0.7886171 0.6109713 0.06926143 -0.9167069 0.302822 0.2606675 0.001722753 0.9960936 -0.08828628 -0.004156589 0.9966624 -0.08152866 -0.001507043 0.9929441 -0.1185745 0.006996929 0.9915624 -0.1294425 -6.84731e-4 0.9917597 0.1281102 1.2628e-4 0.9918709 0.1272482 0.6456444 -0.7513653 -0.1363587 -0.6462192 -0.7502394 -0.1397917 -2.56383e-6 -0.9950759 0.09911584 1.10834e-4 -0.9950636 0.09923946 0.9792735 -0.05319422 0.1954329 0.9684631 -0.009804785 0.248964 -0.9703921 -0.009721815 0.2413392 -0.9805043 -0.05160653 0.1896002 -0.2750809 0.9613216 -0.01383221 0.2955529 0.9553081 -0.00593537 0.6406222 -0.75774 0.1242311 0.6469466 -0.7529103 0.1207739 -0.646894 -0.7547336 0.109112 -0.6486302 -0.7530186 0.1106435 -7.87625e-6 0.9997406 -0.02277845 1.00407e-4 0.9997419 -0.02272194 0.9896644 -0.002233862 0.1433858 0.9856361 -0.0443542 0.1629547 -0.9901535 0.001322865 0.1399801 -0.9918488 -0.0334649 0.1229476 -0.2776829 0.9605876 0.01279288 -0.2716439 0.9622848 0.01475864 0.2778762 0.9605422 0.01199233 0.2921466 0.956143 0.02099519 -0.1286093 0.8715478 0.4731431 0.08229821 0.4306938 -0.898738 0.08751761 0.5993708 0.795673 0.5573394 -0.1048454 0.8236385 0.7052925 -0.5205323 0.4812574 0.6258953 0 0.7799071 0.4523645 0.7223126 0.5230975 -0.9999595 -0.006657063 0.006065249 -0.999344 0.02312988 0.02787095 0.9992349 -0.007090687 0.03846192 0.9978836 0.02304053 0.06080716 3.13594e-4 0.9050983 0.4252022 -0.001085579 0.9060297 0.4232128 0.00317651 0.9994211 0.033876 3.22618e-5 0.9993053 0.03726935 -0.4152562 -0.8954034 0.1606707 -7.05703e-5 -0.9973623 -0.07258552 -0.05209559 -0.8024196 0.5944823 0.02343809 -0.932969 0.3591927 -0.3388855 -0.6027172 -0.7224186 -0.2110102 0.02230727 -0.9772293 -0.4027908 0.5302972 -0.7460191 0.01482784 -0.1449647 0.9893257 0.2235437 0.6246671 0.7482107 -0.225037 0.4128029 -0.8825827 0.1279219 0.5901262 0.7971118 -0.5836627 -0.0911898 0.8068596 -0.7140699 -0.5042659 0.4856132 -0.6388328 0 0.7693457 -0.4409075 0.726333 0.5272959 0.0993883 -0.8042525 0.5859181 0.005290567 -0.9343693 0.3562667 0.3181236 -0.5434553 -0.7768229 0.1738387 0.04258555 -0.983853 0.3884654 0.5789719 -0.7168585 0.06410652 -0.1445828 0.9874139 0.1244654 0.8740606 0.4696025 0.3894889 -0.9057282 0.1671974 -0.1042333 0.01651304 0.9944159 0.005163729 0.0923379 0.9957144 0.1024292 0 0.9947404 0.1129713 0.02189844 0.993357 -0.096843 0 0.9952997 -0.4934964 0.1128723 0.8623927 -0.07210534 0.8524797 0.5177636 0.09934473 -0.1986794 -0.9750165 -0.9763784 -0.01370441 -0.2156332 0.130469 -0.171894 -0.9764376 0.2455978 -0.5141451 0.8217887 0.02377831 -0.9993143 0.02838671 -0.3505618 0.8697372 -0.3473671 -0.9980591 -0.04184937 -0.04611766 0.570694 0.1129027 0.8133643 0.1194648 0.8524743 0.5089359 -0.1890488 -0.1983798 -0.9617204 0.9520988 -0.01014095 -0.3056227 -0.2198056 -0.1718973 -0.9602795 -0.168926 -0.5141265 0.840915 -0.02099949 -0.999326 0.03010982 0.317103 0.869748 -0.3781324 0.9910627 -0.04024857 -0.1271806 -0.06970071 0.8243263 0.5618078 -0.1011041 0.8052113 0.5843054 0.1364588 -0.1474512 -0.9796108 0.001238822 -0.1051239 -0.9944584 -0.09135967 -0.1592001 -0.9830101 -0.2205451 -0.09536534 -0.9707036 0.00615108 -0.5492031 0.8356664 -0.05461263 -0.5672908 0.8217048 0.1343578 -0.5385503 0.8318122 0.07318514 -0.5731677 0.8161635 0.1576935 0.8152149 0.5572769 0.1183221 0.8115109 0.5722324 -0.1369086 0.8209641 0.5543231 -0.05703657 0.9179908 0.3924791 0.2025949 0.7272258 0.6558185 -0.06510591 0.7740447 0.6297748 -0.1778948 0.6922581 0.6993799 0.1412687 0.857784 0.4942165 0.0750606 0.9215873 0.3808449 -0.2438161 -0.001095354 -0.9698209 -0.417215 0.03277111 -0.9082168 0.09316098 0.9954918 -0.01781564 0.08564329 0.9956598 -0.0364263 0.3749209 0.01735657 0.9268944 0.1869234 0.1458178 0.9714921 0.993393 0.01827031 0.1132996 0.9933943 0.01827132 0.1132875 -0.246707 0.2061458 -0.9469105 -0.2445996 0.1444103 -0.95881 -0.4168763 -0.02163034 -0.9087058 -0.2414328 -0.1466281 -0.959276 -0.006536662 0.009838223 0.9999303 -0.8782109 -0.08505773 0.4706494 -0.8903644 -0.08686256 0.446885 -0.005710303 -0.9999541 0.007692456 -0.006556153 -0.9999778 0.001254141 0.1834563 0.1457514 0.9721628 0.2006107 -0.1347544 0.9703591 0.1722218 -0.1460454 0.9741717 0.3752279 -0.02614444 0.9265639 0.2334383 8.90762e-4 0.9723712 -0.1308702 0.001105666 -0.9913989 0.05175966 0.04220414 -0.9977674 0.0748229 -0.07999098 0.9939834 -0.006411075 -0.003717958 0.9999727 -0.1282666 -0.1444556 -0.9811627 0.05231517 -0.01238179 -0.9985539 -0.120185 0.2203491 -0.9679886 -0.1274837 0.1466516 -0.9809389 -0.0921325 0.9957451 0.001832187 -0.08757853 0.9960167 0.01676237 0.1910191 -0.1456994 0.9707129 0.1957908 -0.09803569 0.9757331 0.01685529 -0.9998528 -0.003224074 0.01688194 -0.9998535 -0.002860128 0.9950801 -0.04865938 0.08630234 0.992383 -0.04939138 0.1128575 -0.6052226 0.7288855 0.3200495 -0.6138771 0.7374435 0.2816596 0.6509655 0.7580727 0.03962117 0.6477738 0.7578819 0.0774877 0.4642474 0.8857054 -7.45766e-4 0.4626154 0.8858489 0.03548109 -0.8814145 -0.01827031 0.4719903 -0.8814135 -0.01827049 0.4719922 -0.4496218 0.8678705 0.2112849 -0.4492588 0.8763571 0.1736805 8.45771e-4 -0.999689 0.02492374 9.59867e-7 -0.999674 0.02553308 -0.04139214 -0.7290908 0.6831642 -0.3617071 0.8390124 -0.4064804 -0.4142351 0.7882289 -0.4550874 -0.3769974 -0.8151921 0.4396988 -0.3919965 -0.7995226 0.455085 -0.2260212 0.4123991 -0.88252 0.1837999 -0.1164783 -0.9760382 -0.1513939 -0.9877765 -0.03711438 0.1542636 -0.9848746 -0.0788986 -0.1044899 0.6231688 0.7750759 -0.4134238 0.4324171 0.8013091 0.746281 0.5210292 0.4142383 0.1693741 0.5771479 0.7988821 -0.06714999 0.3982856 -0.9148002 0.1667578 0.17648 -0.9700757 -0.2608872 -0.7852215 0.5615738 0.25041 -0.9446653 0.2119017 -0.1433976 -0.583548 0.7993178 0.1630423 -0.8019343 0.5747337 0.3166202 -0.8613522 0.397271 -0.1610513 -0.6667138 -0.7277054 0.3398169 -0.9397242 -0.03798562 0.02837336 -0.1034441 -0.9942305 -0.1506468 0.4038891 -0.9023188 0.2964727 0.8390085 0.456255 0.2182205 0.6570188 0.7215997 -0.3571889 -0.9336171 0.02784579 0.08238989 -0.6399738 -0.763967 0.1548021 -0.8781273 0.4526908 0.1004645 -0.5894663 0.8015213 0.00449419 0.3950943 -0.9186297 -0.2808389 0.4015275 -0.8717254 -0.09144634 0.8409152 0.5333848 -0.2580601 0.6203388 0.7406651 0.1204915 -0.9745882 0.188838 -0.1695412 -0.5836091 0.7941387 -0.1636266 -0.5929421 0.7884455 0.1026484 -0.8648053 0.491503 -0.3068124 -0.9043235 0.2967578 -0.6669097 0.7450702 -0.01009798 -0.9984144 0.05498677 -0.0120489 -0.3456687 -0.6794821 0.6471609 -0.5998984 -0.110298 0.7924369 -0.4995889 0.5905781 0.6337416 -0.6023981 -0.1076442 0.7909041 -0.6028309 -0.1240741 0.7881628 -0.9390351 -0.3438087 0.002966582 -0.9272882 -0.3726168 -0.03596252 -0.7531146 -0.07187616 0.6539513 -0.9667676 0.2555348 -0.00790888 -0.9780699 -0.2026805 0.04795801 -0.6732418 0.5026737 0.5422774 -0.63887 -0.0714361 0.765991 0.5790811 0.5386694 0.6119645 -0.9469429 -0.05459439 0.316731 -0.04166972 0.6991856 0.713725 -0.1067569 -0.8527404 0.511309 -0.5538721 0.8325237 0.01140648 -0.8277716 0.524374 0.1995651 0.3062208 -0.9036446 0.299425 0.7464811 0.6638329 0.04573863 -0.8373278 -0.2332526 0.4944447 0.86141 -0.1270782 0.4917561 0.3571208 -0.671097 0.6496874 0.638906 -0.1124337 0.7610243 0.5956347 0.556781 0.5789769 0.6928982 -0.0563603 0.7188293 0.6951764 -0.150405 0.7029283 0.9447216 -0.3270688 -0.02296262 0.9563109 -0.2914678 0.02271938 0.7517892 -0.07656669 0.6549433 0.9703842 0.2414049 0.008835971 0.975373 -0.2120612 0.06064379 0.6862373 0.4882495 0.5391575 0.7300761 -0.06625896 0.6801462 -0.6225112 0.515895 0.5885002 0.9636749 -0.05713868 0.2608943 0.06316989 0.7006509 0.7107025 0.5122841 -0.7282844 0.4551557 0.6083166 0.7934226 0.02077656 0.8420845 0.5079413 0.1813545 -0.5209026 -0.7148954 0.4664601 0.9892688 0.1311695 0.06435787 -0.9022221 0.2374787 0.3599989 -0.888451 0.4589294 0.006215035 -0.9347994 0.151995 0.3210107 -0.7295296 0.6796138 0.0768876 0.7296329 0.6795006 0.07690906 0.9349204 0.1501324 0.3215342 0.879239 0.476287 -0.009472608 0.9049772 0.2377369 0.3528422 -0.7050744 0.6041086 0.3713797 -0.6673029 -0.7447246 0.00960505 0.6672641 -0.7447594 0.009602427 0.5809035 0.7319298 0.3561319 -0.004938006 0.7656703 0.6432142 -0.2080433 0.977059 0.04553842 -0.4978066 0.7608221 -0.4163394 0.6997203 0.6895702 -0.1867741 0.9793477 -0.1688167 -0.1112618 0.4706212 0.7728036 -0.4257824 0.1994205 0.9791406 0.03892397 -0.9655301 0.250489 -0.07076072 -0.588873 0.6984068 -0.4067636 -0.1919721 0.9583554 0.2114277 -0.1747047 0.9571717 0.230869 0.1879686 0.9602012 0.2065953 0.158321 0.9582339 0.2381644 -0.003013432 0.8917094 0.4525986 -0.4811165 0.7153521 0.5067527 0.6653969 0.6468825 0.3725455 -0.7221799 -0.68809 0.07062864 0.7221453 -0.6881257 0.07063549 -0.9998564 -0.01543223 0.006997585 -0.9964052 -0.08151328 -0.02307325 -0.9841795 -0.17717 0.001297771 0.9676531 -0.2452641 -0.05910223 0.9838842 -0.1719038 0.04920452 0.8833208 0.464347 0.06423646 0.2816891 -0.9237228 -0.2595913 0.332081 -0.9189414 -0.2127648 -0.2520824 -0.945789 -0.204787 -0.2940009 -0.9267844 -0.2337394 -0.1612656 0.3681737 0.9156646 -0.2327255 0.4207989 0.8767938 0.9912417 -0.116026 -0.06307083 -0.8909412 -0.1525573 0.4277267 -0.2526118 -0.2315498 0.939453 0.9904039 -0.08226639 -0.1110516 0.9355607 -0.128663 -0.3288954 0.5867877 -0.1798599 0.7895129 -0.9354122 0.1283031 0.3294577 0.2738884 0.1971743 0.9413329 -0.8898462 0.4330055 -0.1438055 -0.5469847 0.002022683 -0.8371403 -0.9570271 0.08789539 -0.2763577 -0.01422393 0.99831 0.05634737 0.2454493 0.9692625 -0.01688528 -0.3975524 0.8312524 -0.3885505 -0.2384135 0.00190562 0.971162 -0.1734653 5.35232e-4 0.9848399 0.9993827 -1.35928e-5 -0.03513365 0.9981173 -7.15783e-4 -0.06132978 -0.722855 -0.001876831 -0.6909973 -0.7656267 6.38991e-5 -0.6432852</float_array>
          <technique_common>
            <accessor source="#gunud-mesh-normals-array" count="368" stride="3">
              <param name="X" type="float"/>
              <param name="Y" type="float"/>
              <param name="Z" type="float"/>
            </accessor>
          </technique_common>
        </source>
        <source id="gunud-mesh-map-0">
          <float_array id="gunud-mesh-map-0-array" count="2208">0.675626 0.968144 0.675966 0.977337 0.675266 0.99155 0.675626 0.968144 0.675266 0.99155 0.674926 0.982357 0.615251 0.919956 0.604879 0.916468 0.604179 0.930681 0.615251 0.919956 0.604179 0.930681 0.614551 0.934169 0.614749 0.939492 0.605219 0.92566 0.615449 0.925279 0.605219 0.92566 0.614749 0.939492 0.604519 0.939873 0.616496 0.92524 0.605837 0.925637 0.605137 0.93985 0.616496 0.92524 0.605137 0.93985 0.615796 0.939453 0.616046 0.919417 0.666933 0.922251 0.663358 0.93335 0.616046 0.919417 0.663358 0.93335 0.614022 0.932638 0.667714 0.921817 0.615964 0.919041 0.613551 0.932798 0.667714 0.921817 0.613551 0.932798 0.663378 0.933361 0.61353 0.932436 0.663485 0.933571 0.658829 0.941491 0.61353 0.932436 0.658829 0.941491 0.615336 0.942086 0.615754 0.942071 0.659334 0.941472 0.663209 0.933581 0.615754 0.942071 0.663209 0.933581 0.614051 0.932416 0.643049 0.88387 0.607846 0.824315 0.794978 0.850317 0.643049 0.88387 0.794978 0.850317 0.790904 0.905863 0.794227 0.850268 0.790094 0.904253 0.845082 0.855719 0.608117 0.824966 0.643655 0.883626 0.790859 0.904646 0.608117 0.824966 0.790859 0.904646 0.794992 0.850661 0.794174 0.848878 0.790139 0.905469 0.847416 0.855355 0.847416 0.855355 0.790139 0.905469 0.844448 0.855516 0.79951 0.827049 0.857212 0.826468 0.844448 0.855516 0.79951 0.827049 0.844448 0.855516 0.794213 0.849924 0.643049 0.88387 0.790904 0.905863 0.794939 0.849271 0.643049 0.88387 0.794939 0.849271 0.607842 0.824211 0.790139 0.905469 0.794213 0.849924 0.844448 0.855516 0.794966 0.850007 0.790859 0.904646 0.643655 0.883626 0.794966 0.850007 0.643655 0.883626 0.608112 0.824869 0.857911 0.826667 0.799925 0.828474 0.794227 0.850268 0.857911 0.826667 0.794227 0.850268 0.845082 0.855719 0.607846 0.824315 0.607842 0.824211 0.797498 0.825243 0.607846 0.824315 0.797498 0.825243 0.797516 0.825308 0.608112 0.824869 0.608117 0.824966 0.797931 0.826733 0.608112 0.824869 0.797931 0.826733 0.797919 0.826678 0.616046 0.919417 0.645202 0.882017 0.666933 0.922251 0.609098 0.824344 0.604879 0.916468 0.615251 0.919956 0.609098 0.824344 0.615251 0.919956 0.646189 0.884204 0.67985 0.876125 0.675966 0.977337 0.675626 0.968144 0.67985 0.876125 0.675626 0.968144 0.679846 0.87602 0.615964 0.926424 0.667714 0.921817 0.645013 0.887576 0.609102 0.824448 0.646189 0.884204 0.615449 0.925279 0.609102 0.824448 0.615449 0.925279 0.605219 0.92566 0.646795 0.88396 0.616297 0.919917 0.605497 0.916445 0.646795 0.88396 0.605497 0.916445 0.609369 0.825002 0.609373 0.825099 0.605837 0.925637 0.616496 0.92524 0.609373 0.825099 0.616496 0.92524 0.646795 0.88396 0.790094 0.904253 0.794201 0.849613 0.848055 0.85556 0.794939 0.849271 0.797498 0.825243 0.607842 0.824211 0.797516 0.825308 0.794978 0.850317 0.607846 0.824315 0.794992 0.850661 0.797931 0.826733 0.608117 0.824966 0.797919 0.826678 0.794966 0.850007 0.608112 0.824869 0.605497 0.916445 0.616297 0.919917 0.615597 0.93413 0.605497 0.916445 0.615597 0.93413 0.604796 0.930658 0.676244 0.968121 0.676584 0.977314 0.68012 0.876776 0.676244 0.968121 0.68012 0.876776 0.680116 0.876678 0.676584 0.977314 0.676244 0.968121 0.675544 0.982334 0.676584 0.977314 0.675544 0.982334 0.675884 0.991527 0.799912 0.828419 0.860057 0.826553 0.848055 0.85556 0.799912 0.828419 0.848055 0.85556 0.794201 0.849613 0.859079 0.826367 0.799491 0.826984 0.794174 0.848878 0.859079 0.826367 0.794174 0.848878 0.847416 0.855355 0.857212 0.826468 0.79951 0.827049 0.799491 0.826984 0.857212 0.826468 0.799491 0.826984 0.859079 0.826367 0.860057 0.826553 0.799912 0.828419 0.799925 0.828474 0.860057 0.826553 0.799925 0.828474 0.857911 0.826667 0.893266 0.374075 0.838308 0.373761 0.955238 0.477168 0.7723 0.475969 0.955238 0.477168 0.838308 0.373761 0.571113 0.388489 0.519002 0.384651 0.521197 0.4809 0.744583 0.384777 0.796816 0.389851 0.715457 0.481903 0.715457 0.481903 0.796816 0.389851 0.571113 0.388489 0.715457 0.481903 0.571113 0.388489 0.521197 0.4809 0.742777 0.386728 0.769506 0.381332 0.713736 0.48117 0.713736 0.48117 0.769506 0.381332 0.77237 0.476078 0.772099 0.476235 0.772292 0.379885 0.714853 0.480521 0.714853 0.480521 0.772292 0.379885 0.745561 0.385296 0.838308 0.373761 0.770758 0.380419 0.7723 0.475969 0.955238 0.477168 0.956919 0.380252 0.893266 0.374075 0.519002 0.384651 0.560527 0.338841 0.513375 0.337971 0.560527 0.338841 0.519002 0.384651 0.571113 0.388489 0.796816 0.389851 0.757226 0.342511 0.685535 0.341976 0.757226 0.342511 0.796816 0.389851 0.744583 0.384777 0.838308 0.373761 0.913183 0.337322 0.824165 0.335461 0.913183 0.337322 0.838308 0.373761 0.893266 0.374075 0.769506 0.381332 0.754288 0.341849 0.764288 0.338991 0.754288 0.341849 0.769506 0.381332 0.742777 0.386728 0.745561 0.385296 0.767069 0.33843 0.75707 0.341246 0.767069 0.33843 0.745561 0.385296 0.772292 0.379885 0.770758 0.380419 0.824165 0.335461 0.767945 0.339283 0.824165 0.335461 0.770758 0.380419 0.838308 0.373761 0.893266 0.374075 0.967417 0.338231 0.913183 0.337322 0.967417 0.338231 0.893266 0.374075 0.956919 0.380252 0.961362 0.649019 0.908199 0.653359 0.945555 0.597403 0.847394 0.787904 0.861968 0.747201 0.871319 0.787638 0.862245 0.745318 0.852993 0.7784 0.871319 0.787638 0.544461 0.419425 0.54578 0.377003 0.517314 0.390066 0.517314 0.390066 0.54578 0.377003 0.589504 0.368572 0.544461 0.419425 0.517314 0.390066 0.516611 0.412645 0.516611 0.412645 0.583497 0.444591 0.544461 0.419425 0.768496 0.476246 0.709769 0.477347 0.704057 0.606303 0.780969 0.602497 0.768496 0.476246 0.704057 0.606303 0.712808 0.479721 0.769107 0.47625 0.706717 0.608762 0.706717 0.608762 0.769107 0.47625 0.782872 0.600514 0.908199 0.653359 0.818003 0.652875 0.783829 0.598779 0.783829 0.598779 0.945555 0.597403 0.908199 0.653359 0.949579 0.475027 0.945555 0.597403 0.783829 0.598779 0.949579 0.475027 0.783829 0.598779 0.769643 0.475746 0.519373 0.479029 0.618642 0.605509 0.515923 0.608869 0.712201 0.480816 0.618642 0.605509 0.519373 0.479029 0.818565 0.399951 0.821718 0.373172 0.54578 0.377003 0.54578 0.377003 0.821718 0.373172 0.589504 0.368572 0.589504 0.368572 0.821718 0.373172 0.818163 0.402691 0.589504 0.368572 0.818163 0.402691 0.583497 0.444591 0.818163 0.402691 0.799447 0.440919 0.583497 0.444591 0.544461 0.419425 0.818565 0.399951 0.54578 0.377003 0.801383 0.430422 0.544436 0.419518 0.818452 0.399957 0.843948 0.787915 0.874539 0.787737 0.859771 0.74715 0.862166 0.74532 0.874539 0.787737 0.848727 0.780681 0.544436 0.419518 0.517824 0.390082 0.545763 0.376966 0.517824 0.390082 0.590261 0.366978 0.545763 0.376966 0.517087 0.413729 0.517824 0.390082 0.544436 0.419518 0.544436 0.419518 0.581601 0.443863 0.517087 0.413729 0.818452 0.399957 0.545763 0.376966 0.823217 0.373221 0.545763 0.376966 0.590261 0.366978 0.823217 0.373221 0.590261 0.366978 0.81497 0.402616 0.823217 0.373221 0.590261 0.366978 0.581601 0.443863 0.81497 0.402616 0.81497 0.402616 0.581601 0.443863 0.794439 0.440934 0.544436 0.419518 0.545763 0.376966 0.818452 0.399957 0.763924 0.646723 0.783829 0.598779 0.818003 0.652875 0.712201 0.480816 0.706209 0.608609 0.618642 0.605509 0.56511 0.695362 0.516806 0.698894 0.6161 0.70193 0.664228 0.694828 0.56511 0.695362 0.6161 0.70193 0.74587 0.691291 0.763924 0.646723 0.818003 0.652875 0.664228 0.694828 0.6161 0.70193 0.719474 0.686209 0.762912 0.649019 0.748912 0.69129 0.816075 0.653359 0.84734 0.937256 0.863328 0.991766 0.794116 0.989521 0.84734 0.937256 0.879188 0.932435 0.863328 0.991766 0.793381 0.937551 0.793626 0.992708 0.85601 0.991343 0.863328 0.991766 0.85601 0.991343 0.793626 0.992708 0.85601 0.991343 0.879188 0.932435 0.793381 0.937551 0.794116 0.989521 0.793381 0.937551 0.84734 0.937256 0.794116 0.989521 0.793626 0.992708 0.793381 0.937551 0.879188 0.932435 0.85601 0.991343 0.863328 0.991766 0.863328 0.991766 0.793626 0.992708 0.794116 0.989521 0.847485 0.941971 0.794267 0.994236 0.863469 0.99648 0.847485 0.941971 0.863469 0.99648 0.87933 0.937149 0.793531 0.942265 0.856152 0.996057 0.793785 0.997658 0.863469 0.99648 0.793785 0.997658 0.856152 0.996057 0.856152 0.996057 0.793531 0.942265 0.87933 0.937149 0.794267 0.994236 0.847485 0.941971 0.793531 0.942265 0.794267 0.994236 0.793531 0.942265 0.793785 0.997658 0.87933 0.937149 0.863469 0.99648 0.856152 0.996057 0.863469 0.99648 0.794267 0.994236 0.793785 0.997658 0.847485 0.941971 0.87933 0.937149 0.879235 0.911524 0.847485 0.941971 0.879235 0.911524 0.846468 0.91204 0.87933 0.937149 0.793531 0.942265 0.792206 0.911718 0.87933 0.937149 0.792206 0.911718 0.879235 0.911524 0.793381 0.937551 0.879188 0.932435 0.879093 0.911424 0.793381 0.937551 0.879093 0.911424 0.793286 0.911926 0.793531 0.942265 0.847485 0.941971 0.846468 0.91204 0.793531 0.942265 0.846468 0.91204 0.792206 0.911718 0.84734 0.937256 0.793381 0.937551 0.793286 0.911926 0.84734 0.937256 0.793286 0.911926 0.847245 0.911631 0.879188 0.932435 0.84734 0.937256 0.847245 0.911631 0.879188 0.932435 0.847245 0.911631 0.879093 0.911424 0.799447 0.440919 0.807255 0.426717 0.544461 0.419425 0.799447 0.440919 0.544461 0.419425 0.583497 0.444591 0.871319 0.787638 0.852993 0.7784 0.847394 0.787904 0.848727 0.780681 0.874539 0.787737 0.843948 0.787915 0.544461 0.419425 0.807255 0.426717 0.818565 0.399951 0.544436 0.419518 0.801383 0.430422 0.794439 0.440934 0.544436 0.419518 0.794439 0.440934 0.581601 0.443863 0.597176 0.104927 0.596158 0.01688498 0.591221 0.01527094 0.597176 0.104927 0.591221 0.01527094 0.515693 0.1053709 0.586177 0.009462952 0.514592 0.009305 0.514592 0.009305 0.586177 0.009462952 0.514592 0.009305 0.587661 0.009464979 0.594245 0.195152 0.516691 0.105628 0.595138 0.105192 0.515794 0.196701 0.516691 0.105628 0.594245 0.195152 0.552017 0.2018049 0.4645 0.199922 0.464547 0.1985729 0.552017 0.2018049 0.464547 0.1985729 0.552064 0.200456 0.591221 0.01527094 0.587661 0.009464979 0.514592 0.009305 0.591221 0.01527094 0.514592 0.009305 0.515693 0.1053709 0.596264 0.19682 0.597176 0.104927 0.515693 0.1053709 0.514777 0.198402 0.596264 0.19682 0.515693 0.1053709 0.438245 0.106064 0.516691 0.105628 0.43735 0.196528 0.594914 0.196819 0.595826 0.104925 0.597176 0.104927 0.594914 0.196819 0.597176 0.104927 0.596264 0.19682 0.514777 0.198402 0.594914 0.196819 0.596264 0.19682 0.514777 0.198402 0.596264 0.19682 0.514777 0.198402 0.43735 0.196528 0.516691 0.105628 0.515794 0.196701 0.585692 0.01173895 0.58933 0.01749294 0.516691 0.105628 0.585692 0.01173895 0.516691 0.105628 0.515614 0.01158398 0.595138 0.105192 0.516691 0.105628 0.58933 0.01749294 0.595138 0.105192 0.58933 0.01749294 0.594142 0.01900297 0.438148 0.01665598 0.433191 0.01828396 0.434211 0.105815 0.438148 0.01665598 0.434211 0.105815 0.515693 0.1053709 0.437247 0.02037495 0.442081 0.01885396 0.516691 0.105628 0.437247 0.02037495 0.516691 0.105628 0.438245 0.106064 0.433297 0.198224 0.514777 0.198402 0.515693 0.1053709 0.434211 0.105815 0.433297 0.198224 0.515693 0.1053709 0.514592 0.009305 0.441515 0.01072394 0.438148 0.01665598 0.514592 0.009305 0.438148 0.01665598 0.515693 0.1053709 0.558339 0.28211 0.559299 0.210509 0.559344 0.209026 0.558339 0.28211 0.559344 0.209026 0.558339 0.28211 0.515614 0.01158398 0.516691 0.105628 0.442081 0.01885396 0.515614 0.01158398 0.442081 0.01885396 0.445527 0.012968 0.434646 0.198225 0.514777 0.198402 0.514777 0.198402 0.434646 0.198225 0.514777 0.198402 0.433297 0.198224 0.43556 0.105817 0.434646 0.198225 0.433297 0.198224 0.43556 0.105817 0.433297 0.198224 0.434211 0.105815 0.489306 0.22215 0.491721 0.2141759 0.531709 0.220612 0.489306 0.22215 0.531709 0.220612 0.529657 0.229048 0.518621 0.215092 0.517149 0.206531 0.557589 0.202848 0.518621 0.215092 0.557589 0.202848 0.559454 0.210968 0.491223 0.214146 0.48989 0.2052479 0.517149 0.206531 0.491223 0.214146 0.517149 0.206531 0.518621 0.215092 0.595826 0.104925 0.594808 0.01688396 0.596158 0.01688498 0.595826 0.104925 0.596158 0.01688498 0.597176 0.104927 0.529657 0.229048 0.531709 0.220612 0.558937 0.2212049 0.529657 0.229048 0.558937 0.2212049 0.557005 0.229993 0.685535 0.341976 0.560527 0.338841 0.571113 0.388489 0.685535 0.341976 0.571113 0.388489 0.796816 0.389851 0.848055 0.85556 0.845082 0.855719 0.790094 0.904253 0.704222 0.609421 0.618917 0.608294 0.6161 0.70193 0.704222 0.609421 0.6161 0.70193 0.719474 0.686209 0.518863 0.607153 0.618917 0.608294 0.6161 0.70193 0.518863 0.607153 0.6161 0.70193 0.516806 0.698894 0.909312 0.787422 0.91726 0.731188 0.992676 0.709347 0.909312 0.787422 0.992676 0.709347 0.990067 0.786963 0.922321 0.729661 0.99474 0.709413 0.921488 0.709259 0.91726 0.731188 0.914365 0.709201 0.992676 0.709347 0.909312 0.787422 0.916868 0.74547 0.862245 0.745318 0.909312 0.787422 0.862245 0.745318 0.871319 0.787638 0.925644 0.745523 0.916117 0.787485 0.874539 0.787737 0.925644 0.745523 0.874539 0.787737 0.862166 0.74532 0.916117 0.787485 0.922321 0.729661 0.859771 0.74715 0.916117 0.787485 0.859771 0.74715 0.874539 0.787737 0.914365 0.709201 0.862721 0.709105 0.862245 0.745316 0.914365 0.709201 0.862245 0.745316 0.916408 0.73038 0.916868 0.745468 0.916408 0.73038 0.862245 0.745316 0.925644 0.745523 0.862166 0.74532 0.863753 0.709138 0.925644 0.745523 0.863753 0.709138 0.921488 0.709259 0.861968 0.747201 0.862721 0.709105 0.914365 0.709201 0.861968 0.747201 0.914365 0.709201 0.91726 0.731188 0.992131 0.787025 0.99474 0.709413 0.922321 0.729661 0.992131 0.787025 0.922321 0.729661 0.916117 0.787485 0.995469 0.745746 0.992131 0.787025 0.916117 0.787485 0.995469 0.745746 0.916117 0.787485 0.925644 0.745523 0.859771 0.74715 0.922321 0.729661 0.921488 0.709259 0.859771 0.74715 0.921488 0.709259 0.863753 0.709138 0.995469 0.745746 0.925644 0.745523 0.921488 0.709259 0.995469 0.745746 0.921488 0.709259 0.99474 0.709413 0.871319 0.787638 0.861968 0.747201 0.91726 0.731188 0.871319 0.787638 0.91726 0.731188 0.909312 0.787422 0.990067 0.786963 0.993404 0.745682 0.916868 0.74547 0.990067 0.786963 0.916868 0.74547 0.909312 0.787422 0.992676 0.709347 0.914365 0.709201 0.916408 0.73038 0.992676 0.709347 0.916408 0.73038 0.916868 0.745468 0.992676 0.709347 0.916868 0.745468 0.993404 0.745682 0.384033 0.775346 0.416581 0.765195 0.415608 0.795196 0.384033 0.775346 0.383415 0.806202 0.345829 0.793299 0.338821 0.706646 0.340919 0.78649 0.383393 0.793948 0.338989 0.766846 0.340919 0.78649 0.338821 0.706646 0.345829 0.793299 0.383415 0.806202 0.383038 0.83093 0.345829 0.793299 0.383038 0.83093 0.355659 0.82521 0.340919 0.78649 0.351911 0.825118 0.383393 0.793948 0.340919 0.78649 0.345829 0.793299 0.355659 0.82521 0.340919 0.78649 0.355659 0.82521 0.351911 0.825118 0.355659 0.82521 0.383038 0.83093 0.382321 0.861088 0.355659 0.82521 0.382321 0.861088 0.372388 0.847515 0.351911 0.825118 0.361174 0.830697 0.365648 0.829857 0.351911 0.825118 0.365648 0.829857 0.383393 0.793948 0.351911 0.825118 0.355659 0.82521 0.372388 0.847515 0.351911 0.825118 0.372388 0.847515 0.361174 0.830697 0.372388 0.847515 0.382321 0.861088 0.382276 0.864962 0.365648 0.829857 0.382276 0.864962 0.383393 0.793948 0.361174 0.830697 0.382276 0.864962 0.365648 0.829857 0.361174 0.830697 0.372388 0.847515 0.382276 0.864962 0.345829 0.793299 0.347574 0.763682 0.384033 0.775346 0.383393 0.793948 0.385948 0.712678 0.35256 0.704461 0.338821 0.706646 0.383393 0.793948 0.35256 0.704461 0.415608 0.795196 0.383415 0.806202 0.384033 0.775346 0.430633 0.711267 0.383393 0.793948 0.424924 0.788333 0.345829 0.793299 0.340919 0.78649 0.338989 0.766846 0.430709 0.769591 0.424924 0.788333 0.415608 0.795196 0.415608 0.795196 0.383038 0.83093 0.383415 0.806202 0.415608 0.795196 0.408539 0.82637 0.383038 0.83093 0.424924 0.788333 0.383393 0.793948 0.412442 0.826445 0.424924 0.788333 0.408539 0.82637 0.415608 0.795196 0.424924 0.788333 0.412442 0.826445 0.408539 0.82637 0.408539 0.82637 0.382321 0.861088 0.383038 0.83093 0.408539 0.82637 0.390645 0.847915 0.382321 0.861088 0.412442 0.826445 0.398616 0.830579 0.402952 0.831613 0.412442 0.826445 0.383393 0.793948 0.398616 0.830579 0.412442 0.826445 0.390645 0.847915 0.408539 0.82637 0.412442 0.826445 0.402952 0.831613 0.390645 0.847915 0.390645 0.847915 0.382276 0.864962 0.382321 0.861088 0.398616 0.830579 0.383393 0.793948 0.382276 0.864962 0.402952 0.831613 0.398616 0.830579 0.382276 0.864962 0.402952 0.831613 0.382276 0.864962 0.390645 0.847915 0.415608 0.795196 0.416581 0.765195 0.430709 0.769591 0.383393 0.793948 0.417427 0.708491 0.385948 0.712678 0.430633 0.711267 0.417427 0.708491 0.383393 0.793948 0.338989 0.766846 0.347574 0.763682 0.345829 0.793299 0.430633 0.711267 0.424924 0.788333 0.430709 0.769591 0.186944 0.798872 0.2261289 0.869779 0.179705 0.864992 0.186944 0.798872 0.250998 0.873892 0.2261289 0.869779 0.186944 0.798872 0.332332 0.906643 0.250998 0.873892 0.332332 0.906643 0.186944 0.798872 0.315233 0.801235 0.185221 0.799391 0.331686 0.90495 0.313532 0.799574 0.185221 0.799391 0.250408 0.873536 0.331686 0.90495 0.185221 0.799391 0.227357 0.869825 0.250408 0.873536 0.185221 0.799391 0.179486 0.865202 0.227357 0.869825 0.332698 0.905595 0.283238 0.91946 0.249648 0.870782 0.186944 0.798872 0.328531 0.720312 0.315233 0.801235 0.185221 0.799391 0.313532 0.799574 0.325333 0.71854 0.33546 0.906811 0.284578 0.930563 0.326225 0.933885 0.33546 0.906811 0.283432 0.920275 0.284578 0.930563 0.249648 0.870782 0.217561 0.914681 0.223717 0.870922 0.217561 0.914681 0.249648 0.870782 0.283238 0.91946 0.283432 0.920275 0.187049 0.923402 0.277843 0.930614 0.283432 0.920275 0.2202129 0.913858 0.187049 0.923402 0.249018 0.873063 0.2202129 0.913858 0.283567 0.919356 0.2202129 0.913858 0.249018 0.873063 0.227043 0.870986 0.217561 0.914681 0.277152 0.930692 0.187345 0.924178 0.277152 0.930692 0.217561 0.914681 0.283238 0.91946 0.223717 0.870922 0.187345 0.924178 0.18024 0.863552 0.187345 0.924178 0.223717 0.870922 0.217561 0.914681 0.187049 0.923402 0.227043 0.870986 0.178867 0.864388 0.227043 0.870986 0.187049 0.923402 0.2202129 0.913858 0.282189 0.941549 0.326225 0.933885 0.284578 0.930563 0.326125 0.933635 0.283238 0.91946 0.332698 0.905595 0.283567 0.919356 0.33546 0.906811 0.249018 0.873063 0.186944 0.798872 0.174808 0.711667 0.328531 0.720312 0.185221 0.799391 0.325333 0.71854 0.17127 0.71203 0.960281 0.159711 0.993862 0.232366 0.960281 0.228277 0.993788 0.306258 0.960281 0.228277 0.993862 0.232366 0.960281 0.228277 0.993788 0.306258 0.93347 0.312332 0.99394 0.162654 0.933657 0.313203 0.993989 0.306995 0.933657 0.313203 0.99394 0.162654 0.960256 0.1595309 0.99394 0.162654 0.997882 0.08312296 0.960256 0.1595309 0.993989 0.306995 0.936607 0.324603 0.997125 0.316646 0.936607 0.324603 0.993989 0.306995 0.933657 0.313203 0.997125 0.316646 0.93347 0.312332 0.993788 0.306258 0.93347 0.312332 0.997125 0.316646 0.936607 0.324603 0.660202 0.789059 0.660131 0.758276 0.636594 0.779615 0.636594 0.779615 0.636607 0.765183 0.660202 0.789059 0.516475 0.776502 0.660584 0.782044 0.660677 0.788231 0.515647 0.774016 0.636959 0.779646 0.660957 0.759223 0.51813 0.773618 0.636607 0.765183 0.636594 0.779615 0.516446 0.77657 0.63526 0.773293 0.516475 0.776502 0.516475 0.776502 0.63526 0.773293 0.660584 0.782044 0.660202 0.789059 0.636607 0.765183 0.51813 0.773618 0.660109 0.782872 0.636915 0.770409 0.51815 0.773587 0.51815 0.773587 0.636915 0.770409 0.518101 0.773686 0.51813 0.773618 0.51815 0.773587 0.518101 0.773686 0.516475 0.776502 0.660605 0.757448 0.660584 0.782044 0.660584 0.782044 0.516495 0.776472 0.516475 0.776502 0.511524 0.811498 0.511552 0.797356 0.511552 0.821341 0.511598 0.810335 0.511627 0.820179 0.511633 0.813556 0.511598 0.810335 0.511633 0.813556 0.511627 0.796193 0.511552 0.821341 0.511552 0.797356 0.99631 0.798639 0.99631 0.798639 0.99631 0.821662 0.511552 0.821341 0.511633 0.813556 0.511627 0.820179 0.996385 0.820499 0.996385 0.820499 0.996384 0.813172 0.511633 0.813556 0.996384 0.797477 0.511627 0.796193 0.511633 0.813556 0.511633 0.813556 0.996384 0.813172 0.996384 0.797477</float_array>
          <technique_common>
            <accessor source="#gunud-mesh-map-0-array" count="1104" stride="2">
              <param name="S" type="float"/>
              <param name="T" type="float"/>
            </accessor>
          </technique_common>
        </source>
        <vertices id="gunud-mesh-vertices">
          <input semantic="POSITION" source="#gunud-mesh-positions"/>
        </vertices>
        <triangles material="Gunud_002-material" count="368">
          <input semantic="VERTEX" source="#gunud-mesh-vertices" offset="0"/>
          <input semantic="NORMAL" source="#gunud-mesh-normals" offset="1"/>
          <input semantic="TEXCOORD" source="#gunud-mesh-map-0" offset="2" set="0"/>
          <p>73 0 0 77 0 1 3 0 2 73 1 3 3 1 4 18 1 5 70 2 6 74 2 7 19 2 8 70 3 9 19 3 10 21 3 11 0 4 12 78 4 13 75 4 14 78 5 15 0 5 16 4 5 17 68 6 18 66 6 19 6 6 20 68 7 21 6 7 22 9 7 23 79 8 24 69 8 25 10 8 26 79 9 27 10 9 28 12 9 29 76 10 30 71 10 31 22 10 32 76 11 33 22 11 34 1 11 35 2 12 36 23 12 37 20 12 38 2 13 39 20 13 40 5 13 41 7 14 42 15 14 43 13 14 44 7 15 45 13 15 46 11 15 47 47 16 48 34 16 49 52 16 50 47 17 51 52 17 52 42 17 53 54 18 54 40 18 55 28 18 56 29 19 57 37 19 58 41 19 59 29 20 60 41 20 61 55 20 62 56 21 63 43 21 64 32 21 65 32 22 66 43 22 67 33 22 68 60 23 69 84 23 70 33 23 71 60 24 72 33 24 73 53 24 74 47 25 75 42 25 76 57 25 77 47 26 78 57 26 79 44 26 80 43 27 81 53 27 82 33 27 83 50 28 84 41 28 85 37 28 86 50 29 87 37 29 88 25 29 89 85 30 90 62 30 91 54 30 92 85 31 93 54 31 94 28 31 95 34 32 96 44 32 97 58 32 98 34 33 99 58 33 100 61 33 101 25 34 102 29 34 103 63 34 104 25 35 105 63 35 106 64 35 107 79 36 108 38 36 109 69 36 110 45 37 111 74 37 112 70 37 113 45 38 114 70 38 115 48 38 116 35 39 117 77 39 118 73 39 119 35 40 120 73 40 121 46 40 122 72 41 123 76 41 124 49 41 125 36 42 126 48 42 127 75 42 128 36 43 129 75 43 130 78 43 131 39 44 132 80 44 133 81 44 134 39 45 135 81 45 136 26 45 137 30 46 138 66 46 139 68 46 140 30 47 141 68 47 142 39 47 143 40 48 144 51 48 145 24 48 146 57 49 147 58 49 148 44 49 149 61 50 150 52 50 151 34 50 152 55 51 153 63 51 154 29 51 155 64 52 156 50 52 157 25 52 158 81 53 159 80 53 160 14 53 161 81 54 162 14 54 163 16 54 164 82 55 165 67 55 166 31 55 167 82 56 168 31 56 169 27 56 170 67 57 171 82 57 172 17 57 173 67 58 174 17 58 175 8 58 176 65 59 177 86 59 178 24 59 179 65 60 180 24 60 181 51 60 182 83 61 183 59 61 184 56 61 185 83 62 186 56 62 187 32 62 188 84 63 189 60 63 190 59 63 191 84 64 192 59 64 193 83 64 194 86 65 195 65 65 196 62 65 197 86 66 198 62 66 199 85 66 200 135 67 201 113 67 202 165 67 203 123 68 204 165 68 205 113 68 206 129 69 207 175 69 208 119 69 209 179 70 210 131 70 211 115 70 212 115 71 213 131 71 214 129 71 215 115 72 216 129 72 217 119 72 218 176 73 219 127 73 220 120 73 221 120 74 222 127 74 223 166 74 224 124 75 225 87 75 226 116 75 227 116 76 228 87 76 229 180 76 230 113 77 231 88 77 232 123 77 233 165 78 234 128 78 235 135 78 236 175 79 237 130 79 238 89 79 239 130 80 240 175 80 241 129 80 242 131 81 243 177 81 244 91 81 245 177 82 246 131 82 247 179 82 248 113 83 249 134 83 250 114 83 251 134 84 252 113 84 253 135 84 254 127 85 255 90 85 256 181 85 257 90 86 258 127 86 259 176 86 260 180 87 261 132 87 262 178 87 263 132 88 264 180 88 265 87 88 266 88 89 267 114 89 268 133 89 269 114 90 270 88 90 271 113 90 272 135 91 273 182 91 274 134 91 275 182 92 276 135 92 277 128 92 278 106 93 279 169 93 280 154 93 281 93 94 282 148 94 283 136 94 284 150 95 285 209 95 286 136 95 287 153 96 288 147 96 289 141 96 290 141 97 291 147 97 292 137 97 293 153 98 294 141 98 295 107 98 296 107 99 297 155 99 298 153 99 299 125 100 300 117 100 301 138 100 302 156 101 303 125 101 304 138 101 305 121 102 306 167 102 307 160 102 308 160 103 309 167 103 310 144 103 311 169 104 312 109 104 313 145 104 314 145 105 315 154 105 316 169 105 317 126 106 318 154 106 319 145 106 320 126 107 321 145 107 322 168 107 323 118 108 324 104 108 325 139 108 326 122 109 327 104 109 328 118 109 329 151 110 330 95 110 331 147 110 332 147 111 333 95 111 334 137 111 335 137 112 336 95 112 337 149 112 338 137 113 339 149 113 340 155 113 341 149 114 342 94 114 343 155 114 344 153 115 345 151 115 346 147 115 347 211 116 348 164 116 349 157 116 350 97 117 351 101 117 352 99 117 353 158 118 354 101 118 355 212 118 356 164 119 357 172 119 358 159 119 359 172 120 360 161 120 361 159 120 362 111 121 363 172 121 364 164 121 365 164 122 366 146 122 367 111 122 368 157 123 369 159 123 370 102 123 371 159 124 372 161 124 373 102 124 374 161 125 375 100 125 376 102 125 377 161 126 378 146 126 379 100 126 380 100 127 381 146 127 382 98 127 383 164 128 384 159 128 385 157 128 386 112 129 387 145 129 388 109 129 389 122 130 390 162 130 391 104 130 392 170 131 393 142 131 394 92 131 395 110 132 396 170 132 397 92 132 398 173 133 399 112 133 400 109 133 401 110 134 402 92 134 403 174 134 404 108 135 405 143 135 406 171 135 407 189 136 408 191 136 409 192 136 410 189 137 411 193 137 412 191 137 413 190 138 414 183 138 415 194 138 416 191 139 417 194 139 418 183 139 419 194 140 420 193 140 421 190 140 422 192 141 423 190 141 424 189 141 425 192 142 426 183 142 427 190 142 428 193 143 429 194 143 430 191 143 431 191 144 432 183 144 433 192 144 434 195 145 435 187 145 436 186 145 437 195 146 438 186 146 439 184 146 440 185 147 441 196 147 442 188 147 443 186 148 444 188 148 445 196 148 446 196 149 447 185 149 448 184 149 449 187 150 450 195 150 451 185 150 452 187 151 453 185 151 454 188 151 455 184 152 456 186 152 457 196 152 458 186 153 459 187 153 460 188 153 461 195 154 462 184 154 463 207 154 464 195 155 465 207 155 466 201 155 467 184 156 468 185 156 469 203 156 470 184 157 471 203 157 472 207 157 473 190 158 474 193 158 475 205 158 476 190 159 477 205 159 478 197 159 479 185 160 480 195 160 481 201 160 482 185 161 483 201 161 484 203 161 485 189 162 486 190 162 487 197 162 488 189 163 489 197 163 490 199 163 491 193 164 492 189 164 493 199 164 494 193 165 495 199 165 496 205 165 497 94 166 498 210 166 499 153 166 500 94 167 501 153 167 502 155 167 503 136 168 504 209 168 505 93 168 506 212 169 507 101 169 508 97 169 509 153 170 510 210 170 511 151 170 512 164 171 513 211 171 514 98 171 515 164 172 516 98 172 517 146 172 518 225 173 519 245 173 520 249 173 521 225 174 522 249 174 523 228 174 524 237 175 525 215 175 526 226 175 527 237 176 528 226 176 529 247 176 530 218 177 531 222 177 532 213 177 533 220 178 534 222 178 535 218 178 536 251 179 537 229 179 538 234 179 539 251 180 540 234 180 541 262 180 542 249 181 543 247 181 544 226 181 545 249 182 546 226 182 547 228 182 548 223 183 549 225 183 550 228 183 551 224 184 552 223 184 553 228 184 554 230 185 555 222 185 556 232 185 557 219 186 558 214 186 559 225 186 560 219 187 561 225 187 562 223 187 563 221 188 564 219 188 565 223 188 566 221 189 567 223 189 568 224 189 569 232 190 570 222 190 571 220 190 572 238 191 573 243 191 574 222 191 575 238 192 576 222 192 577 216 192 578 213 193 579 222 193 580 243 193 581 213 194 582 243 194 583 240 194 584 265 195 585 263 195 586 235 195 587 265 196 588 235 196 589 228 196 590 252 197 591 257 197 592 222 197 593 252 198 594 222 198 595 230 198 596 236 199 597 224 199 598 228 199 599 235 200 600 236 200 601 228 200 602 226 201 603 259 201 604 265 201 605 226 202 606 265 202 607 228 202 608 217 203 609 254 203 610 260 203 611 217 204 612 260 204 613 227 204 614 216 205 615 222 205 616 257 205 617 216 206 618 257 206 619 255 206 620 233 207 621 221 207 622 224 207 623 233 208 624 224 208 625 236 208 626 231 209 627 233 209 628 236 209 629 231 210 630 236 210 631 235 210 632 246 211 633 241 211 634 244 211 635 246 212 636 244 212 637 250 212 638 266 213 639 258 213 640 253 213 641 266 214 642 253 214 643 264 214 644 261 215 645 256 215 646 258 215 647 261 216 648 258 216 649 266 216 650 214 217 651 242 217 652 245 217 653 214 218 654 245 218 655 225 218 656 250 219 657 244 219 658 239 219 659 250 220 660 239 220 661 248 220 662 91 221 663 130 221 664 129 221 665 91 222 666 129 222 667 131 222 668 24 223 669 28 223 670 40 223 671 163 224 672 105 224 673 92 224 674 163 225 675 92 225 676 174 225 677 140 226 678 105 226 679 92 226 680 140 227 681 92 227 682 142 227 683 268 228 684 276 228 685 198 228 686 268 229 687 198 229 688 206 229 689 273 230 690 204 230 691 269 230 692 276 231 693 275 231 694 198 231 695 268 232 696 271 232 697 150 232 698 268 233 699 150 233 700 136 233 701 270 234 702 274 234 703 101 234 704 270 235 705 101 235 706 158 235 707 274 236 708 273 236 709 99 236 710 274 237 711 99 237 712 101 237 713 275 238 714 96 238 715 152 238 716 275 239 717 152 239 718 267 239 719 272 240 720 267 240 721 152 240 722 270 241 723 158 241 724 103 241 725 270 242 726 103 242 727 269 242 728 148 243 729 96 243 730 275 243 731 148 244 732 275 244 733 276 244 734 208 245 735 204 245 736 273 245 737 208 246 738 273 246 739 274 246 740 202 247 741 208 247 742 274 247 743 202 248 744 274 248 745 270 248 746 99 249 747 273 249 748 269 249 749 99 250 750 269 250 751 103 250 752 202 251 753 270 251 754 269 251 755 202 252 756 269 252 757 204 252 758 136 253 759 148 253 760 276 253 761 136 254 762 276 254 763 268 254 764 206 255 765 200 255 766 271 255 767 206 256 768 271 256 769 268 256 770 198 257 771 275 257 772 267 257 773 198 258 774 267 258 775 272 258 776 198 259 777 272 259 778 200 259 779 277 260 780 301 260 781 290 260 782 277 261 783 278 261 784 279 261 785 298 262 786 281 262 787 280 262 788 297 263 789 281 263 790 298 263 791 279 264 792 278 264 793 282 264 794 279 265 795 282 265 796 283 265 797 281 266 798 284 266 799 280 266 800 281 267 801 279 267 802 283 267 803 281 268 804 283 268 805 284 268 806 283 269 807 282 269 808 285 269 809 283 270 810 285 270 811 286 270 812 284 271 813 288 271 814 287 271 815 284 272 816 287 272 817 280 272 818 284 273 819 283 273 820 286 273 821 284 274 822 286 274 823 288 274 824 286 275 825 285 275 826 289 275 827 287 276 828 289 276 829 280 276 830 288 277 831 289 277 832 287 277 833 288 278 834 286 278 835 289 278 836 279 279 837 299 279 838 277 279 839 280 280 840 304 280 841 303 280 842 298 281 843 280 281 844 303 281 845 290 282 846 278 282 847 277 282 848 300 283 849 280 283 850 291 283 851 279 284 852 281 284 853 297 284 854 302 285 855 291 285 856 290 285 857 290 286 858 282 286 859 278 286 860 290 287 861 292 287 862 282 287 863 291 288 864 280 288 865 293 288 866 291 289 867 292 289 868 290 289 869 291 290 870 293 290 871 292 290 872 292 291 873 285 291 874 282 291 875 292 292 876 294 292 877 285 292 878 293 293 879 295 293 880 296 293 881 293 294 882 280 294 883 295 294 884 293 295 885 294 295 886 292 295 887 293 296 888 296 296 889 294 296 890 294 297 891 289 297 892 285 297 893 295 298 894 280 298 895 289 298 896 296 299 897 295 299 898 289 299 899 296 300 900 289 300 901 294 300 902 290 301 903 301 301 904 302 301 905 280 302 906 305 302 907 304 302 908 300 303 909 305 303 910 280 303 911 297 304 912 299 304 913 279 304 914 300 305 915 291 305 916 302 305 917 338 306 918 332 306 919 309 306 920 338 307 921 321 307 922 332 307 923 338 308 924 311 308 925 321 308 926 311 309 927 338 309 928 306 309 929 307 310 930 315 310 931 308 310 932 307 311 933 324 311 934 315 311 935 307 312 936 336 312 937 324 312 938 307 313 939 313 313 940 336 313 941 312 314 942 328 314 943 322 314 944 338 315 945 339 315 946 306 315 947 307 316 948 308 316 949 340 316 950 316 317 951 323 317 952 319 317 953 316 318 954 326 318 955 323 318 956 322 319 957 334 319 958 333 319 959 334 320 960 322 320 961 328 320 962 326 321 963 317 321 964 330 321 965 326 322 966 335 322 967 317 322 968 325 323 969 335 323 970 327 323 971 335 324 972 325 324 973 337 324 974 334 325 975 331 325 976 318 325 977 331 326 978 334 326 979 328 326 980 333 327 981 318 327 982 310 327 983 318 328 984 333 328 985 334 328 986 317 329 987 337 329 988 314 329 989 337 330 990 317 330 991 335 330 992 329 331 993 319 331 994 323 331 995 320 332 996 328 332 997 312 332 998 327 333 999 316 333 1000 325 333 1001 338 334 1002 341 334 1003 339 334 1004 307 335 1005 340 335 1006 342 335 1007 349 336 1008 343 336 1009 350 336 1010 347 337 1011 350 337 1012 343 337 1013 350 338 1014 347 338 1015 351 338 1016 346 339 1017 352 339 1018 345 339 1019 352 340 1020 346 340 1021 353 340 1022 346 341 1023 348 341 1024 353 341 1025 345 342 1026 354 342 1027 344 342 1028 354 343 1029 345 343 1030 352 343 1031 344 344 1032 351 344 1033 347 344 1034 351 345 1035 344 345 1036 354 345 1037 356 346 1038 355 346 1039 358 346 1040 358 347 1041 359 347 1042 356 347 1043 362 348 1044 357 348 1045 371 348 1046 374 349 1047 373 349 1048 372 349 1049 375 350 1050 359 350 1051 358 350 1052 376 351 1053 360 351 1054 362 351 1055 362 352 1056 360 352 1057 357 352 1058 356 353 1059 359 353 1060 375 353 1061 378 354 1062 377 354 1063 363 354 1064 363 355 1065 377 355 1066 361 355 1067 375 356 1068 363 356 1069 361 356 1070 362 357 1071 379 357 1072 357 357 1073 357 358 1074 380 358 1075 362 358 1076 364 359 1077 365 359 1078 366 359 1079 382 360 1080 381 360 1081 367 360 1082 382 361 1083 367 361 1084 383 361 1085 366 362 1086 365 362 1087 368 362 1088 368 363 1089 369 363 1090 366 363 1091 367 364 1092 381 364 1093 384 364 1094 384 365 1095 370 365 1096 367 365 1097 385 366 1098 383 366 1099 367 366 1100 367 367 1101 370 367 1102 385 367 1103</p>
        </triangles>
      </mesh>
    </geometry>
  </library_geometries>
  <library_controllers>
    <controller id="botroas2_Skin_001_gunud_001-skin" name="botroas2_Skin.001">
      <skin source="#gunud-mesh">
        <bind_shape_matrix>1 0 0 0 0 1 0 0 0 0 1 0 0 0 0 1</bind_shape_matrix>
        <source id="botroas2_Skin_001_gunud_001-skin-joints">
          <Name_array id="botroas2_Skin_001_gunud_001-skin-joints-array" count="33">root pelvis femurleft butt-l knee-l-top knee-l-bopttom ankle_left foot_left01 femurright butt-r knee-r-top knee-r-bopttom ankleright foot_right01 lumbar rib scapula ulna carpal scapula01 ulna01 carpal_right smoke_node_1 ammo_node_0 neck skull cloaktop cloak cloakbottom nogginbottom plumes skulltop smoke_node_0</Name_array>
          <technique_common>
            <accessor source="#botroas2_Skin_001_gunud_001-skin-joints-array" count="33" stride="1">
              <param name="JOINT" type="name"/>
            </accessor>
          </technique_common>
        </source>
        <source id="botroas2_Skin_001_gunud_001-skin-bind_poses">
          <float_array id="botroas2_Skin_001_gunud_001-skin-bind_poses-array" count="528">1 0 0 0 0 -1.19209e-7 1 -2.154822 0 -1 -1.34359e-7 1.88312e-7 0 0 0 1 1 0 0 -2.88205e-4 0 -1.19209e-7 1 -1.989969 0 -1 -1.34359e-7 0.05965095 0 0 0 1 1 0 0 -0.2295659 0 0 1 -1.980151 0 -1 0 0 0 0 0 1 1 0 0 -0.2300334 0 -3.96046e-7 1 -1.881625 0 -1 -4.11195e-7 0.2278661 0 0 0 1 1 0 0 -0.2579528 0 2.36724e-7 1 -1.492427 0 -1 2.21574e-7 -0.3577123 0 0 0 1 1 0 0 -0.2616621 0 -1.58757e-7 1 -1.243225 0 -1 -1.73907e-7 0.03760039 0 0 0 1 1 -7.10305e-7 2.57867e-7 -0.2703902 0 -0.3687222 -0.9295397 0.1499913 7.55338e-7 0.9295404 -0.3687222 -0.04846727 0 0 0 1 1 -1.52231e-7 6.95384e-6 -0.2703905 0 -0.9997612 -0.02188599 -0.2401511 6.9555e-6 0.02188634 -0.9997606 0.02883452 0 0 0 1 1 0 0 0.2313526 0 0 1 -1.980151 0 -1 0 0 0 0 0 1 1 0 0 0.2346149 0 -5.54238e-7 1 -1.884255 0 -1 -5.69388e-7 0.2262766 0 0 0 1 1 0 0 0.1784679 0 -3.96045e-7 1 -1.491812 0 -1 -4.11195e-7 -0.3589501 0 0 0 1 1 0 0 0.2454932 0 0 1 -1.243115 0 -1 0 0.03760033 0 0 0 1 1 -7.03688e-7 2.74548e-7 0.2586691 0 -0.3687224 -0.9295396 0.1530216 7.55339e-7 0.929541 -0.3687224 -0.04726481 0 0 0 1 1 -1.52359e-7 6.95982e-6 0.2586688 0 -0.9997618 -0.02188545 -0.2400799 6.96149e-6 0.02188599 -0.9997605 0.03209739 0 0 0 1 1 0 0 -0.004826366 0 0 1 -2.179733 0 -1 0 0.1130514 0 0 0 1 1 0 0 0.007960081 0 -1.98305e-7 1 -2.884791 0 -1 -2.13455e-7 2.73287e-7 0 0 0 1 0.2829344 -1.2277e-7 0.9591394 -3.117977 -0.9591394 0 0.2829345 -0.4919468 0 -1 -1.42446e-7 1.28287e-7 0 0 0 1 0.2829344 -1.2277e-7 0.9591394 -3.241716 -0.9591394 0 0.2829345 0.1074096 0 -1 -1.42446e-7 1.3345e-7 0 0 0 1 0.2829346 0 0.9591393 -3.345027 -0.9591393 0 0.2829347 0.6828132 0 -1 0 -0.07377827 0 0 0 1 0.1934784 0 -0.9811046 3.157927 0.9811046 0 0.1934783 -0.1628365 0 -1 0 -5.02106e-7 0 0 0 1 0.1934779 -1.19635e-7 -0.9811046 3.269929 0.9811046 0 0.1934779 0.4365212 0 -1 0 -7.40277e-7 0 0 0 1 0.1934784 -1.22519e-7 -0.9811046 3.407674 0.9811046 0 0.1934784 0.9676552 0 -1 0 -6.11031e-7 0 0 0 1 0.1940878 -2.55636e-6 -0.9809842 3.382294 -0.006661236 -0.999977 -0.001315295 -0.0562489 -0.9809616 0.006789684 -0.1940833 -1.147612 0 0 0 1 0.1934781 0 -0.9811047 3.378961 0.9811047 -1.31776e-7 0.1934781 1.20496 -2.46855e-7 -1 0 -1.617806 0 0 0 1 1 0 0 0.02165722 0 0 1 -3.354291 0 -1 -1.34358e-7 1.96722e-7 0 0 0 1 1 0 0 0.02895486 0 0 1 -3.806293 0 -1 0 0 0 0 0 1 1 0 0 -0.001975059 0 0 1 -3.236083 0 -1 0 0.1981267 0 0 0 1 1 0 0 -0.006513178 0 0 1 -2.377002 0 -1 0 0.4338243 0 0 0 1 1 0 0 0.02082639 0 0 1 -1.545783 0 -1 0 0.5515336 0 0 0 1 1 2.45143e-7 0 0.02715581 0 0.04181432 0.9991254 -3.880911 2.45403e-7 -0.9991254 0.04181432 -0.4448758 0 0 0 1 1 2.79213e-7 0 0.03132396 0 0.02110129 0.9997774 -3.983411 2.7926e-7 -0.9997774 0.02110129 -0.2703231 0 0 0 1 1 0 0 0.03312313 0 0 1 -4.176582 0 -1 0 0 0 0 0 1 1 -3.16458e-6 -1.10467e-6 0.0151453 -3.16458e-6 -1 0 -0.2430208 -1.10467e-6 0 -1 3.446479 0 0 0 1</float_array>
          <technique_common>
            <accessor source="#botroas2_Skin_001_gunud_001-skin-bind_poses-array" count="33" stride="16">
              <param name="TRANSFORM" type="float4x4"/>
            </accessor>
          </technique_common>
        </source>
        <source id="botroas2_Skin_001_gunud_001-skin-weights">
          <float_array id="botroas2_Skin_001_gunud_001-skin-weights-array" count="388">1 1 1 1 1 1 1 1 1 1 1 1 1 1 1 1 1 1 1 1 1 1 1 1 1 1 1 1 1 1 1 1 1 1 1 1 1 1 1 1 1 1 1 1 1 1 1 1 1 1 1 1 1 1 1 1 1 1 1 1 1 1 1 1 1 1 1 1 1 1 1 1 1 1 1 1 1 1 1 1 1 1 1 1 1 1 1 1 1 1 1 1 1 1 1 1 1 1 1 1 1 1 1 1 1 1 1 1 1 1 1 1 1 1 1 1 1 1 1 1 1 1 1 1 1 1 1 1 1 1 1 1 1 1 1 1 1 1 1 1 1 1 1 1 1 1 1 1 1 1 1 1 1 1 1 1 1 1 1 1 1 1 1 1 1 1 1 1 1 1 1 1 1 1 1 1 1 1 1 1 1 0.5 0.5 0.5 0.5 1 1 1 1 1 1 1 1 1 1 1 1 1 1 1 1 1 1 1 1 1 1 1 1 1 1 1 1 1 1 1 1 1 1 1 1 1 1 1 1 1 1 1 1 1 1 1 1 1 1 1 1 1 1 1 1 1 1 1 1 1 1 1 1 1 1 1 1 1 1 1 1 1 1 1 1 1 1 1 1 1 1 1 1 1 1 1 1 1 1 1 1 1 1 1 1 1 1 1 1 1 1 1 1 1 1 1 1 1 1 1 1 1 1 1 1 1 1 1 1 1 1 1 1 1 1 1 1 1 1 1 1 1 1 1 1 1 1 1 1 1 1 1 1 1 1 1 1 1 1 1 1 1 1 1 1 1 1 1 1 1 1 1 1 1 1 1 1 1 1 1 1 1 1 1 1 1 1 1 1 1 1 1 1 1 1 1 1 1 1 1 1 1 1 1 1 1 1 1 1 1 1 1</float_array>
          <technique_common>
            <accessor source="#botroas2_Skin_001_gunud_001-skin-weights-array" count="388" stride="1">
              <param name="WEIGHT" type="float"/>
            </accessor>
          </technique_common>
        </source>
        <joints>
          <input semantic="JOINT" source="#botroas2_Skin_001_gunud_001-skin-joints"/>
          <input semantic="INV_BIND_MATRIX" source="#botroas2_Skin_001_gunud_001-skin-bind_poses"/>
        </joints>
        <vertex_weights count="386">
          <input semantic="JOINT" source="#botroas2_Skin_001_gunud_001-skin-joints" offset="0"/>
          <input semantic="WEIGHT" source="#botroas2_Skin_001_gunud_001-skin-weights" offset="1"/>
          <vcount>1 1 1 1 1 1 1 1 1 1 1 1 1 1 1 1 1 1 1 1 1 1 1 1 1 1 1 1 1 1 1 1 1 1 1 1 1 1 1 1 1 1 1 1 1 1 1 1 1 1 1 1 1 1 1 1 1 1 1 1 1 1 1 1 1 1 1 1 1 1 1 1 1 1 1 1 1 1 1 1 1 1 1 1 1 1 1 1 1 1 1 1 1 1 1 1 1 1 1 1 1 1 1 1 1 1 1 1 1 1 1 1 1 1 1 1 1 1 1 1 1 1 1 1 1 1 1 1 1 1 1 1 1 1 1 1 1 1 1 1 1 1 1 1 1 1 1 1 1 1 1 1 1 1 1 1 1 1 1 1 1 1 1 1 1 1 1 1 1 1 1 1 1 1 1 1 1 1 1 1 1 2 2 1 1 1 1 1 1 1 1 1 1 1 1 1 1 1 1 1 1 1 1 1 1 1 1 1 1 1 1 1 1 1 1 1 1 1 1 1 1 1 1 1 1 1 1 1 1 1 1 1 1 1 1 1 1 1 1 1 1 1 1 1 1 1 1 1 1 1 1 1 1 1 1 1 1 1 1 1 1 1 1 1 1 1 1 1 1 1 1 1 1 1 1 1 1 1 1 1 1 1 1 1 1 1 1 1 1 1 1 1 1 1 1 1 1 1 1 1 1 1 1 1 1 1 1 1 1 1 1 1 1 1 1 1 1 1 1 1 1 1 1 1 1 1 1 1 1 1 1 1 1 1 1 1 1 1 1 1 1 1 1 1 1 1 1 1 1 1 1 1 1 1 1 1 1 1 1 1 1 1 1 1 1 1 1 1 1 1 1 1 1 1 1 1 1 1 1 1 1 1 1 1 1 1 </vcount>
          <v>13 0 13 1 13 2 13 3 13 4 13 5 7 6 7 7 7 8 7 9 7 10 7 11 7 12 7 13 7 14 7 15 7 16 7 17 13 18 13 19 13 20 13 21 13 22 13 23 5 24 6 25 6 26 6 27 5 28 6 29 6 30 6 31 11 32 11 33 12 34 12 35 12 36 6 37 6 38 6 39 5 40 5 41 11 42 11 43 12 44 12 45 12 46 12 47 12 48 12 49 5 50 5 51 11 52 11 53 5 54 5 55 11 56 11 57 11 58 11 59 11 60 11 61 5 62 5 63 5 64 5 65 7 66 7 67 7 68 7 69 13 70 13 71 13 72 13 73 13 74 13 75 13 76 13 77 13 78 7 79 7 80 7 81 7 82 8 83 8 84 2 85 2 86 9 87 9 88 4 89 4 90 10 91 15 92 19 93 19 94 20 95 20 96 16 97 16 98 17 99 17 100 16 101 17 102 17 103 15 104 15 105 15 106 15 107 15 108 15 109 15 110 15 111 15 112 9 113 9 114 1 115 1 116 1 117 1 118 1 119 1 120 1 121 1 122 1 123 1 124 1 125 1 126 3 127 3 128 2 129 4 130 8 131 9 132 9 133 3 134 3 135 19 136 15 137 15 138 15 139 15 140 15 141 15 142 15 143 15 144 15 145 15 146 19 147 20 148 20 149 20 150 20 151 20 152 19 153 15 154 15 155 15 156 17 157 17 158 16 159 15 160 15 161 15 162 15 163 16 164 1 165 1 166 1 167 1 168 15 169 15 170 15 171 15 172 15 173 15 174 2 175 2 176 10 177 10 178 8 179 8 180 3 181 9 182 3 183 9 184 21 185 18 186 18 187 18 188 18 189 18 190 21 191 21 192 21 193 21 194 21 195 21 196 18 197 18 198 21 199 21 200 21 201 21 202 18 203 18 204 18 205 18 206 21 207 21 208 18 209 18 210 19 211 19 212 16 213 16 214 17 215 17 216 17 217 17 218 17 219 17 220 17 221 17 222 17 223 17 224 17 225 17 226 17 227 17 228 17 229 17 230 17 231 17 232 17 233 17 234 17 235 17 236 17 237 17 238 17 239 17 240 17 241 17 242 17 243 17 244 17 245 17 246 17 247 17 248 17 249 17 250 17 251 17 252 17 253 17 254 17 255 17 256 17 257 17 258 17 259 17 260 17 261 17 262 17 263 17 264 17 265 17 266 17 267 17 268 20 269 20 270 17 271 17 272 20 273 20 274 17 275 17 276 20 277 20 278 25 279 25 280 25 281 25 282 25 283 25 284 25 285 25 286 25 287 25 288 25 289 25 290 25 291 25 292 25 293 25 294 25 295 25 296 25 297 25 298 25 299 25 300 25 301 25 302 25 303 25 304 25 305 25 306 25 307 25 308 25 309 25 310 25 311 25 312 25 313 25 314 25 315 25 316 25 317 25 318 25 319 25 320 25 321 25 322 25 323 25 324 25 325 25 326 25 327 25 328 25 329 25 330 25 331 25 332 25 333 25 334 25 335 25 336 25 337 25 338 25 339 25 340 25 341 25 342 25 343 25 344 25 345 25 346 25 347 25 348 25 349 25 350 25 351 25 352 25 353 25 354 25 355 25 356 22 357 22 358 22 359 22 360 22 361 22 362 22 363 22 364 22 365 22 366 22 367 22 368 22 369 22 370 22 371 22 372 22 373 22 374 22 375 22 376 22 377 22 378 22 379 22 380 22 381 22 382 22 383 22 384 22 385 22 386 22 387</v>
        </vertex_weights>
      </skin>
    </controller>
  </library_controllers>
  <library_visual_scenes>
    <visual_scene id="Scene" name="Scene">
      <node id="botroas2_Skin_001" name="botroas2_Skin.001" type="NODE">
        <matrix sid="transform">1 0 0 0 0 1 0 0 0 0 1 0 0 0 0 1</matrix>
        <node id="botroas2_Skin_001_root" name="root" sid="root" type="JOINT">
          <matrix sid="transform">1 0 1.51496e-8 0 1.51496e-8 -1.34359e-7 -1 -1.01207e-7 2.03548e-15 1 -1.19209e-7 2.154822 0 0 0 1</matrix>
          <node id="botroas2_Skin_001_pelvis" name="pelvis" sid="pelvis" type="JOINT">
            <matrix sid="transform">1 0 6.27516e-9 2.88204e-4 0 1 0 -0.1648533 -6.27516e-9 0 1 -0.05965077 0 0 0 1</matrix>
            <node id="botroas2_Skin_001_femurleft" name="femurleft" sid="femurleft" type="JOINT">
              <matrix sid="transform">1 0 4.81517e-9 0.2292777 0 1 3.95482e-8 -0.0098176 -4.81517e-9 -3.95482e-8 1 0.05965088 0 0 0 1</matrix>
              <node id="botroas2_Skin_001_butt-l" name="butt-l" sid="butt-l" type="JOINT">
                <matrix sid="transform">1 0 4.05936e-9 4.67524e-4 1.28432e-15 1 -3.16384e-7 -0.09852614 -4.05936e-9 3.16384e-7 1 -0.2278655 0 0 0 1</matrix>
                <extra>
                  <technique profile="blender">
                    <layer sid="layer" type="string">0</layer>
                    <roll sid="roll" type="float">0</roll>
                    <tip_x sid="tip_x" type="float">0</tip_x>
                    <tip_y sid="tip_y" type="float">0</tip_y>
                    <tip_z sid="tip_z" type="float">0.09419655</tip_z>
                  </technique>
                </extra>
              </node>
              <node id="botroas2_Skin_001_knee-l-top" name="knee-l-top" sid="knee-l-top" type="JOINT">
                <matrix sid="transform">1 0 7.63573e-9 0.02838682 -2.41583e-15 0.9999999 3.16385e-7 -0.4877243 -7.63573e-9 -3.16385e-7 1 0.3577119 0 0 0 1</matrix>
                <extra>
                  <technique profile="blender">
                    <layer sid="layer" type="string">0</layer>
                    <roll sid="roll" type="float">0</roll>
                    <tip_x sid="tip_x" type="float">0</tip_x>
                    <tip_y sid="tip_y" type="float">0</tip_y>
                    <tip_z sid="tip_z" type="float">0.09419631</tip_z>
                  </technique>
                </extra>
              </node>
              <node id="botroas2_Skin_001_knee-l-bopttom" name="knee-l-bopttom" sid="knee-l-bopttom" type="JOINT">
                <matrix sid="transform">1 0 1.0869e-8 0.03209619 8.59694e-16 1 -7.90962e-8 -0.7369261 -1.0869e-8 7.90962e-8 1 -0.03760035 0 0 0 1</matrix>
                <node id="botroas2_Skin_001_ankle_left" name="ankle left" sid="ankle_left" type="JOINT">
                  <matrix sid="transform">1 -3.589e-8 7.89831e-7 0.008728117 2.57867e-7 -0.9295397 -0.368722 -1.121673 7.47413e-7 0.368722 -0.929539 -0.06275667 0 0 0 1</matrix>
                  <node id="botroas2_Skin_001_foot_left01" name="foot left01" sid="foot_left01" type="JOINT">
                    <matrix sid="transform">1 7.0449e-7 6.68215e-6 3.27826e-7 -6.42994e-6 0.3889778 0.9212471 0.2168393 -1.9502e-6 -0.9212472 0.3889777 -0.2809224 0 0 0 1</matrix>
                    <extra>
                      <technique profile="blender">
                        <layer sid="layer" type="string">0</layer>
                        <roll sid="roll" type="float">6.9563e-6</roll>
                        <tip_x sid="tip_x" type="float">0</tip_x>
                        <tip_y sid="tip_y" type="float">-0.1210583</tip_y>
                        <tip_z sid="tip_z" type="float">-0.002650141</tip_z>
                      </technique>
                    </extra>
                  </node>
                  <extra>
                    <technique profile="blender">
                      <layer sid="layer" type="string">0</layer>
                      <roll sid="roll" type="float">7.55337e-7</roll>
                      <tip_x sid="tip_x" type="float">0</tip_x>
                      <tip_y sid="tip_y" type="float">-0.03827238</tip_y>
                      <tip_z sid="tip_z" type="float">-0.09648382</tip_z>
                    </technique>
                  </extra>
                </node>
                <extra>
                  <technique profile="blender">
                    <layer sid="layer" type="string">0</layer>
                    <roll sid="roll" type="float">0</roll>
                    <tip_x sid="tip_x" type="float">0</tip_x>
                    <tip_y sid="tip_y" type="float">0</tip_y>
                    <tip_z sid="tip_z" type="float">0.09419643</tip_z>
                  </technique>
                </extra>
              </node>
              <extra>
                <technique profile="blender">
                  <layer sid="layer" type="string">0</layer>
                  <roll sid="roll" type="float">0</roll>
                  <tip_x sid="tip_x" type="float">0</tip_x>
                  <tip_y sid="tip_y" type="float">0</tip_y>
                  <tip_z sid="tip_z" type="float">0.09419631</tip_z>
                </technique>
              </extra>
            </node>
            <node id="botroas2_Skin_001_femurright" name="femurright" sid="femurright" type="JOINT">
              <matrix sid="transform">1 0 4.81517e-9 -0.2316408 0 1 3.95482e-8 -0.0098176 -4.81517e-9 -3.95482e-8 1 0.05965089 0 0 0 1</matrix>
              <node id="botroas2_Skin_001_butt-r" name="butt-r" sid="butt-r" type="JOINT">
                <matrix sid="transform">1 0 4.05936e-9 -0.003262356 1.92648e-15 1 -4.74577e-7 -0.09589542 -4.05936e-9 4.74577e-7 1 -0.2262757 0 0 0 1</matrix>
                <extra>
                  <technique profile="blender">
                    <layer sid="layer" type="string">0</layer>
                    <roll sid="roll" type="float">0</roll>
                    <tip_x sid="tip_x" type="float">0</tip_x>
                    <tip_y sid="tip_y" type="float">0</tip_y>
                    <tip_z sid="tip_z" type="float">0.09419643</tip_z>
                  </technique>
                </extra>
              </node>
              <node id="botroas2_Skin_001_knee-r-top" name="knee-r-top" sid="knee-r-top" type="JOINT">
                <matrix sid="transform">1 0 7.63573e-9 0.0528847 2.41582e-15 1 -3.16384e-7 -0.4883387 -7.63573e-9 3.16384e-7 1 0.3589506 0 0 0 1</matrix>
                <extra>
                  <technique profile="blender">
                    <layer sid="layer" type="string">0</layer>
                    <roll sid="roll" type="float">0</roll>
                    <tip_x sid="tip_x" type="float">0</tip_x>
                    <tip_y sid="tip_y" type="float">0</tip_y>
                    <tip_z sid="tip_z" type="float">0.09419655</tip_z>
                  </technique>
                </extra>
              </node>
              <node id="botroas2_Skin_001_knee-r-bopttom" name="knee-r-bopttom" sid="knee-r-bopttom" type="JOINT">
                <matrix sid="transform">1 0 1.0869e-8 -0.01414059 0 1 0 -0.7370362 -1.0869e-8 0 1 -0.03760034 0 0 0 1</matrix>
                <node id="botroas2_Skin_001_ankleright" name="ankleright" sid="ankleright" type="JOINT">
                  <matrix sid="transform">1 -1.7945e-8 7.89831e-7 -0.01317592 2.74548e-7 -0.9295397 -0.368722 -1.118303 7.40797e-7 0.368722 -0.9295382 -0.06275675 0 0 0 1</matrix>
                  <node id="botroas2_Skin_001_foot_right01" name="foot right01" sid="foot_right01" type="JOINT">
                    <matrix sid="transform">1 6.9751e-7 6.67161e-6 2.08616e-7 -6.41752e-6 0.3889775 0.9212473 0.2168393 -1.95253e-6 -0.9212473 0.3889775 -0.2809225 0 0 0 1</matrix>
                    <extra>
                      <technique profile="blender">
                        <layer sid="layer" type="string">0</layer>
                        <roll sid="roll" type="float">6.96274e-6</roll>
                        <tip_x sid="tip_x" type="float">0</tip_x>
                        <tip_y sid="tip_y" type="float">-0.1210583</tip_y>
                        <tip_z sid="tip_z" type="float">-0.002650082</tip_z>
                      </technique>
                    </extra>
                  </node>
                  <extra>
                    <technique profile="blender">
                      <layer sid="layer" type="string">0</layer>
                      <roll sid="roll" type="float">7.55338e-7</roll>
                      <tip_x sid="tip_x" type="float">0</tip_x>
                      <tip_y sid="tip_y" type="float">-0.03827238</tip_y>
                      <tip_z sid="tip_z" type="float">-0.09648382</tip_z>
                    </technique>
                  </extra>
                </node>
                <extra>
                  <technique profile="blender">
                    <layer sid="layer" type="string">0</layer>
                    <roll sid="roll" type="float">0</roll>
                    <tip_x sid="tip_x" type="float">0</tip_x>
                    <tip_y sid="tip_y" type="float">0</tip_y>
                    <tip_z sid="tip_z" type="float">0.09419643</tip_z>
                  </technique>
                </extra>
              </node>
              <extra>
                <technique profile="blender">
                  <layer sid="layer" type="string">0</layer>
                  <roll sid="roll" type="float">0</roll>
                  <tip_x sid="tip_x" type="float">0</tip_x>
                  <tip_y sid="tip_y" type="float">0</tip_y>
                  <tip_z sid="tip_z" type="float">0.09419631</tip_z>
                </technique>
              </extra>
            </node>
            <node id="botroas2_Skin_001_lumbar" name="lumbar" sid="lumbar" type="JOINT">
              <matrix sid="transform">1 0 4.81517e-9 0.004538173 -3.80862e-16 1 7.90963e-8 0.189765 -4.81517e-9 -7.90963e-8 1 -0.05340067 0 0 0 1</matrix>
              <node id="botroas2_Skin_001_rib" name="rib" sid="rib" type="JOINT">
                <matrix sid="transform">1 0 4.05936e-9 -0.01278647 6.42159e-16 1 -1.58192e-7 0.7050576 -4.05936e-9 1.58192e-7 1 0.1130516 0 0 0 1</matrix>
                <node id="botroas2_Skin_001_scapula" name="scapula" sid="scapula" type="JOINT">
                  <matrix sid="transform">0.2829345 -0.9591392 -3.26852e-8 0.4182977 0.9591392 0.2829344 7.10084e-8 0.244971 -5.88592e-8 -5.14404e-8 1 -6.38272e-8 0 0 0 1</matrix>
                  <node id="botroas2_Skin_001_ulna" name="ulna" sid="ulna" type="JOINT">
                    <matrix sid="transform">1 0 2.84217e-14 0.1237387 0 1 -2.84217e-13 -0.5993565 -4.26326e-14 2.77112e-13 1 -5.16337e-9 0 0 0 1</matrix>
                    <node id="botroas2_Skin_001_carpal" name="carpal" sid="carpal" type="JOINT">
                      <matrix sid="transform">1 1.78814e-7 7.40334e-8 0.1033108 -1.78814e-7 1 -8.88178e-15 -0.5754042 -7.40334e-8 -3.55271e-15 1 0.07377815 0 0 0 1</matrix>
                      <node id="botroas2_Skin_001_ammo_node_1" name="ammo node 1" sid="ammo_node_1" type="JOINT">
                        <matrix sid="transform">1 -4.63915e-8 1.96695e-6 0.1766811 1.96695e-6 0.001922975 -0.9999982 0.2353452 4.24993e-8 0.9999982 0.001922965 -0.0737782 0 0 0 1</matrix>
                        <extra>
                          <technique profile="blender">
                            <layer sid="layer" type="string">0</layer>
                            <roll sid="roll" type="float">-1.284108</roll>
                            <tip_x sid="tip_x" type="float">-5.93424e-4</tip_x>
                            <tip_y sid="tip_y" type="float">-0.3217463</tip_y>
                            <tip_z sid="tip_z" type="float">1.74999e-4</tip_z>
                          </technique>
                        </extra>
                      </node>
                      <extra>
                        <technique profile="blender">
                          <layer sid="layer" type="string">0</layer>
                          <roll sid="roll" type="float">-1.283944</roll>
                          <tip_x sid="tip_x" type="float">-0.0903474</tip_x>
                          <tip_y sid="tip_y" type="float">0</tip_y>
                          <tip_z sid="tip_z" type="float">0.02665138</tip_z>
                        </technique>
                      </extra>
                    </node>
                    <extra>
                      <technique profile="blender">
                        <layer sid="layer" type="string">0</layer>
                        <roll sid="roll" type="float">-1.283944</roll>
                        <tip_x sid="tip_x" type="float">-0.0903474</tip_x>
                        <tip_y sid="tip_y" type="float">0</tip_y>
                        <tip_z sid="tip_z" type="float">0.02665138</tip_z>
                      </technique>
                    </extra>
                  </node>
                  <extra>
                    <technique profile="blender">
                      <layer sid="layer" type="string">0</layer>
                      <roll sid="roll" type="float">-1.283944</roll>
                      <tip_x sid="tip_x" type="float">-0.0903474</tip_x>
                      <tip_y sid="tip_y" type="float">0</tip_y>
                      <tip_z sid="tip_z" type="float">0.02665138</tip_z>
                    </technique>
                  </extra>
                </node>
                <node id="botroas2_Skin_001_scapula01" name="scapula01" sid="scapula01" type="JOINT">
                  <matrix sid="transform">0.1934783 0.9811046 2.0931e-8 -0.4432708 -0.9811046 0.1934784 2.7116e-7 0.244971 2.61986e-7 -7.2999e-8 1 -6.38272e-8 0 0 0 1</matrix>
                  <node id="botroas2_Skin_001_ulna01" name="ulna01" sid="ulna01" type="JOINT">
                    <matrix sid="transform">1 3.8743e-7 -5.80697e-8 -0.1120021 -3.8743e-7 1 -1.19209e-7 -0.5993564 5.80697e-8 1.19209e-7 1 -3.74988e-9 0 0 0 1</matrix>
                    <node id="botroas2_Skin_001_carpal_right" name="carpal right" sid="carpal_right" type="JOINT">
                      <matrix sid="transform">0.9999999 -4.76837e-7 -2.88307e-9 -0.1377443 4.76837e-7 0.9999999 -4.52971e-13 -0.5311354 2.88307e-9 4.51195e-13 1 -1.39071e-7 0 0 0 1</matrix>
                      <node id="botroas2_Skin_001_smoke_node_1" name="smoke node 1" sid="smoke_node_1" type="JOINT">
                        <matrix sid="transform">0.9999999 1.7836e-6 6.21155e-4 0.02609399 6.21155e-4 -0.006789674 -0.9999768 -0.1824125 2.43392e-6 0.999977 -0.006789804 0.04844672 0 0 0 1</matrix>
                        <node id="botroas2_Skin_001_ammo_node_0" name="ammo node 0" sid="ammo_node_0" type="JOINT">
                          <matrix sid="transform">0.9999998 6.21542e-4 2.52413e-6 0.002588838 1.69605e-6 -0.006789613 0.9999771 1.569695 6.21557e-4 -0.9999768 -0.006789597 0.04423583 0 0 0 1</matrix>
                          <extra>
                            <technique profile="blender">
                              <layer sid="layer" type="string">0</layer>
                              <roll sid="roll" type="float">1.37609</roll>
                              <tip_x sid="tip_x" type="float">0.09241664</tip_x>
                              <tip_y sid="tip_y" type="float">0</tip_y>
                              <tip_z sid="tip_z" type="float">0.01822495</tip_z>
                            </technique>
                          </extra>
                        </node>
                        <extra>
                          <technique profile="blender">
                            <layer sid="layer" type="string">0</layer>
                            <roll sid="roll" type="float">1.375552</roll>
                            <tip_x sid="tip_x" type="float">-3.19958e-4</tip_x>
                            <tip_y sid="tip_y" type="float">-0.04803603</tip_y>
                            <tip_z sid="tip_z" type="float">-6.31809e-5</tip_z>
                          </technique>
                        </extra>
                      </node>
                      <extra>
                        <technique profile="blender">
                          <layer sid="layer" type="string">0</layer>
                          <roll sid="roll" type="float">1.37609</roll>
                          <tip_x sid="tip_x" type="float">0.09241652</tip_x>
                          <tip_y sid="tip_y" type="float">0</tip_y>
                          <tip_z sid="tip_z" type="float">0.01822495</tip_z>
                        </technique>
                      </extra>
                    </node>
                    <extra>
                      <technique profile="blender">
                        <layer sid="layer" type="string">0</layer>
                        <roll sid="roll" type="float">1.37609</roll>
                        <tip_x sid="tip_x" type="float">0.09241664</tip_x>
                        <tip_y sid="tip_y" type="float">0</tip_y>
                        <tip_z sid="tip_z" type="float">0.01822495</tip_z>
                      </technique>
                    </extra>
                  </node>
                  <extra>
                    <technique profile="blender">
                      <layer sid="layer" type="string">0</layer>
                      <roll sid="roll" type="float">1.37609</roll>
                      <tip_x sid="tip_x" type="float">0.0924164</tip_x>
                      <tip_y sid="tip_y" type="float">0</tip_y>
                      <tip_z sid="tip_z" type="float">0.01822495</tip_z>
                    </technique>
                  </extra>
                </node>
                <node id="botroas2_Skin_001_neck" name="neck" sid="neck" type="JOINT">
                  <matrix sid="transform">1 0 3.57637e-9 -0.01369714 -2.82879e-16 1 7.90965e-8 0.4694996 -3.57637e-9 -7.90965e-8 1 -1.88671e-7 0 0 0 1</matrix>
                  <node id="botroas2_Skin_001_skull" name="skull" sid="skull" type="JOINT">
                    <matrix sid="transform">1 0 -2.19348e-10 -0.007297663 0 1 2.98013e-8 0.4520025 2.19348e-10 -2.98013e-8 1 7.10193e-8 0 0 0 1</matrix>
                    <node id="botroas2_Skin_001_cloaktop" name="cloaktop" sid="cloaktop" type="JOINT">
                      <matrix sid="transform">1 0 3.25259e-9 0.03092997 0 1 0 -0.57021 -3.25259e-9 0 1 -0.1981267 0 0 0 1</matrix>
                      <node id="botroas2_Skin_001_cloak" name="cloak" sid="cloak" type="JOINT">
                        <matrix sid="transform">1 0 0 0.004538156 0 1 1.58192e-7 -0.8590811 0 -1.58192e-7 1 -0.2356979 0 0 0 1</matrix>
                        <node id="botroas2_Skin_001_cloakbottom" name="cloakbottom" sid="cloakbottom" type="JOINT">
                          <matrix sid="transform">1 0 0 -0.02733967 0 1 0 -0.831219 0 0 1 -0.1177093 0 0 0 1</matrix>
                          <extra>
                            <technique profile="blender">
                              <layer sid="layer" type="string">0</layer>
                              <roll sid="roll" type="float">0</roll>
                              <tip_x sid="tip_x" type="float">0</tip_x>
                              <tip_y sid="tip_y" type="float">0</tip_y>
                              <tip_z sid="tip_z" type="float">0.09419643</tip_z>
                            </technique>
                          </extra>
                        </node>
                        <extra>
                          <technique profile="blender">
                            <layer sid="layer" type="string">0</layer>
                            <roll sid="roll" type="float">0</roll>
                            <tip_x sid="tip_x" type="float">0</tip_x>
                            <tip_y sid="tip_y" type="float">0</tip_y>
                            <tip_z sid="tip_z" type="float">0.09419655</tip_z>
                          </technique>
                        </extra>
                      </node>
                      <extra>
                        <technique profile="blender">
                          <layer sid="layer" type="string">0</layer>
                          <roll sid="roll" type="float">0</roll>
                          <tip_x sid="tip_x" type="float">0</tip_x>
                          <tip_y sid="tip_y" type="float">0</tip_y>
                          <tip_z sid="tip_z" type="float">0.09419631</tip_z>
                        </technique>
                      </extra>
                    </node>
                    <node id="botroas2_Skin_001_nogginbottom" name="nogginbottom" sid="nogginbottom" type="JOINT">
                      <matrix sid="transform">1 2.47176e-9 2.11776e-7 0.001799161 -1.13249e-8 0.9991254 0.04181447 0.08982589 -2.11487e-7 -0.04181447 0.9991254 0.2822086 0 0 0 1</matrix>
                      <extra>
                        <technique profile="blender">
                          <layer sid="layer" type="string">0</layer>
                          <roll sid="roll" type="float">2.45403e-7</roll>
                          <tip_x sid="tip_x" type="float">0</tip_x>
                          <tip_y sid="tip_y" type="float">0.003938734</tip_y>
                          <tip_z sid="tip_z" type="float">0.09411382</tip_z>
                        </technique>
                      </extra>
                    </node>
                    <node id="botroas2_Skin_001_plumes" name="plumes" sid="plumes" type="JOINT">
                      <matrix sid="transform">1 0 2.45611e-7 -0.002369054 -5.18274e-9 0.9997773 0.02110142 0.1819341 -2.45556e-7 -0.02110142 0.9997773 0.1862073 0 0 0 1</matrix>
                      <extra>
                        <technique profile="blender">
                          <layer sid="layer" type="string">0</layer>
                          <roll sid="roll" type="float">2.7926e-7</roll>
                          <tip_x sid="tip_x" type="float">0</tip_x>
                          <tip_y sid="tip_y" type="float">0.001987636</tip_y>
                          <tip_z sid="tip_z" type="float">0.09417486</tip_z>
                        </technique>
                      </extra>
                    </node>
                    <node id="botroas2_Skin_001_skulltop" name="skulltop" sid="skulltop" type="JOINT">
                      <matrix sid="transform">1 0 3.05119e-9 -0.004168242 0 1 -5.11591e-13 0.3702886 -3.05119e-9 5.11591e-13 1 -2.84217e-14 0 0 0 1</matrix>
                      <extra>
                        <technique profile="blender">
                          <layer sid="layer" type="string">0</layer>
                          <roll sid="roll" type="float">0</roll>
                          <tip_x sid="tip_x" type="float">0</tip_x>
                          <tip_y sid="tip_y" type="float">0</tip_y>
                          <tip_z sid="tip_z" type="float">0.09419631</tip_z>
                        </technique>
                      </extra>
                    </node>
                    <extra>
                      <technique profile="blender">
                        <layer sid="layer" type="string">0</layer>
                        <roll sid="roll" type="float">0</roll>
                        <tip_x sid="tip_x" type="float">0</tip_x>
                        <tip_y sid="tip_y" type="float">0</tip_y>
                        <tip_z sid="tip_z" type="float">0.09419679</tip_z>
                      </technique>
                    </extra>
                  </node>
                  <node id="botroas2_Skin_001_smoke_node_0" name="smoke node 0" sid="smoke_node_0" type="JOINT">
                    <matrix sid="transform">1 -3.19846e-6 -1.10467e-6 0.00651496 -1.10467e-6 1.21116e-7 -0.9999999 0.09218767 3.19846e-6 0.9999999 2.38405e-7 0.2430202 0 0 0 1</matrix>
                    <extra>
                      <technique profile="blender">
                        <layer sid="layer" type="string">0</layer>
                        <roll sid="roll" type="float">3.141592</roll>
                        <tip_x sid="tip_x" type="float">-2.98023e-7</tip_x>
                        <tip_y sid="tip_y" type="float">-0.09419631</tip_y>
                        <tip_z sid="tip_z" type="float">0</tip_z>
                      </technique>
                    </extra>
                  </node>
                  <extra>
                    <technique profile="blender">
                      <layer sid="layer" type="string">0</layer>
                      <roll sid="roll" type="float">0</roll>
                      <tip_x sid="tip_x" type="float">0</tip_x>
                      <tip_y sid="tip_y" type="float">0</tip_y>
                      <tip_z sid="tip_z" type="float">0.09419679</tip_z>
                    </technique>
                  </extra>
                </node>
                <extra>
                  <technique profile="blender">
                    <layer sid="layer" type="string">0</layer>
                    <roll sid="roll" type="float">0</roll>
                    <tip_x sid="tip_x" type="float">0</tip_x>
                    <tip_y sid="tip_y" type="float">0</tip_y>
                    <tip_z sid="tip_z" type="float">0.09419655</tip_z>
                  </technique>
                </extra>
              </node>
              <extra>
                <technique profile="blender">
                  <layer sid="layer" type="string">0</layer>
                  <roll sid="roll" type="float">0</roll>
                  <tip_x sid="tip_x" type="float">0</tip_x>
                  <tip_y sid="tip_y" type="float">0</tip_y>
                  <tip_z sid="tip_z" type="float">0.09419631</tip_z>
                </technique>
              </extra>
            </node>
            <extra>
              <technique profile="blender">
                <layer sid="layer" type="string">0</layer>
                <roll sid="roll" type="float">0</roll>
                <tip_x sid="tip_x" type="float">0</tip_x>
                <tip_y sid="tip_y" type="float">0</tip_y>
                <tip_z sid="tip_z" type="float">0.09419631</tip_z>
              </technique>
            </extra>
          </node>
          <extra>
            <technique profile="blender">
              <layer sid="layer" type="string">0</layer>
              <roll sid="roll" type="float">0</roll>
              <tip_x sid="tip_x" type="float">0</tip_x>
              <tip_y sid="tip_y" type="float">0</tip_y>
              <tip_z sid="tip_z" type="float">0.09419655</tip_z>
            </technique>
          </extra>
        </node>
        <node id="gunud_001" name="gunud.001" type="NODE">
          <matrix sid="transform">1 0 0 0 0 1 0 0 0 0 1 0 0 0 0 1</matrix>
          <instance_controller url="#botroas2_Skin_001_gunud_001-skin">
            <skeleton>#botroas2_Skin_001_root</skeleton>
            <bind_material>
              <technique_common>
                <instance_material symbol="Gunud_002-material" target="#Gunud_002-material">
                  <bind_vertex_input semantic="UVMap" input_semantic="TEXCOORD" input_set="0"/>
                </instance_material>
              </technique_common>
            </bind_material>
          </instance_controller>
        </node>
      </node>
    </visual_scene>
  </library_visual_scenes>
  <scene>
    <instance_visual_scene url="#Scene"/>
  </scene>
</COLLADA>