<?xml version="1.0" encoding="utf-8"?>
<COLLADA xmlns="http://www.collada.org/2005/11/COLLADASchema" version="1.4.1" xmlns:xsi="http://www.w3.org/2001/XMLSchema-instance">
  <asset>
    <contributor>
      <author>Blender User</author>
      <authoring_tool>Blender 2.79.0 commit date:2017-09-11, commit time:10:43, hash:5bd8ac9</authoring_tool>
    </contributor>
    <created>2019-02-04T07:26:40</created>
    <modified>2019-02-04T07:26:40</modified>
    <unit name="meter" meter="1"/>
    <up_axis>Z_UP</up_axis>
  </asset>
  <library_cameras>
    <camera id="Camera-camera" name="Camera">
      <optics>
        <technique_common>
          <perspective>
            <xfov sid="xfov">49.13434</xfov>
            <aspect_ratio>1.777778</aspect_ratio>
            <znear sid="znear">0.1</znear>
            <zfar sid="zfar">100</zfar>
          </perspective>
        </technique_common>
      </optics>
      <extra>
        <technique profile="blender">
          <shiftx sid="shiftx" type="float">0</shiftx>
          <shifty sid="shifty" type="float">0</shifty>
          <YF_dofdist sid="YF_dofdist" type="float">0</YF_dofdist>
        </technique>
      </extra>
    </camera>
  </library_cameras>
  <library_lights>
    <light id="Lamp-light" name="Lamp">
      <technique_common>
        <point>
          <color sid="color">1 1 1</color>
          <constant_attenuation>1</constant_attenuation>
          <linear_attenuation>0</linear_attenuation>
          <quadratic_attenuation>0.00111109</quadratic_attenuation>
        </point>
      </technique_common>
      <extra>
        <technique profile="blender">
          <type sid="type" type="int">0</type>
          <flag sid="flag" type="int">0</flag>
          <mode sid="mode" type="int">8192</mode>
          <gamma sid="blender_gamma" type="float">1</gamma>
          <red sid="red" type="float">1</red>
          <green sid="green" type="float">1</green>
          <blue sid="blue" type="float">1</blue>
          <shadow_r sid="blender_shadow_r" type="float">0</shadow_r>
          <shadow_g sid="blender_shadow_g" type="float">0</shadow_g>
          <shadow_b sid="blender_shadow_b" type="float">0</shadow_b>
          <energy sid="blender_energy" type="float">1</energy>
          <dist sid="blender_dist" type="float">29.99998</dist>
          <spotsize sid="spotsize" type="float">75</spotsize>
          <spotblend sid="spotblend" type="float">0.15</spotblend>
          <halo_intensity sid="blnder_halo_intensity" type="float">1</halo_intensity>
          <att1 sid="att1" type="float">0</att1>
          <att2 sid="att2" type="float">1</att2>
          <falloff_type sid="falloff_type" type="int">2</falloff_type>
          <clipsta sid="clipsta" type="float">1.000799</clipsta>
          <clipend sid="clipend" type="float">30.002</clipend>
          <bias sid="bias" type="float">1</bias>
          <soft sid="soft" type="float">3</soft>
          <compressthresh sid="compressthresh" type="float">0.04999995</compressthresh>
          <bufsize sid="bufsize" type="int">2880</bufsize>
          <samp sid="samp" type="int">3</samp>
          <buffers sid="buffers" type="int">1</buffers>
          <filtertype sid="filtertype" type="int">0</filtertype>
          <bufflag sid="bufflag" type="int">0</bufflag>
          <buftype sid="buftype" type="int">2</buftype>
          <ray_samp sid="ray_samp" type="int">1</ray_samp>
          <ray_sampy sid="ray_sampy" type="int">1</ray_sampy>
          <ray_sampz sid="ray_sampz" type="int">1</ray_sampz>
          <ray_samp_type sid="ray_samp_type" type="int">0</ray_samp_type>
          <area_shape sid="area_shape" type="int">1</area_shape>
          <area_size sid="area_size" type="float">0.1</area_size>
          <area_sizey sid="area_sizey" type="float">0.1</area_sizey>
          <area_sizez sid="area_sizez" type="float">1</area_sizez>
          <adapt_thresh sid="adapt_thresh" type="float">0.000999987</adapt_thresh>
          <ray_samp_method sid="ray_samp_method" type="int">1</ray_samp_method>
          <shadhalostep sid="shadhalostep" type="int">0</shadhalostep>
          <sun_effect_type sid="sun_effect_type" type="int">0</sun_effect_type>
          <skyblendtype sid="skyblendtype" type="int">1</skyblendtype>
          <horizon_brightness sid="horizon_brightness" type="float">1</horizon_brightness>
          <spread sid="spread" type="float">1</spread>
          <sun_brightness sid="sun_brightness" type="float">1</sun_brightness>
          <sun_size sid="sun_size" type="float">1</sun_size>
          <backscattered_light sid="backscattered_light" type="float">1</backscattered_light>
          <sun_intensity sid="sun_intensity" type="float">1</sun_intensity>
          <atm_turbidity sid="atm_turbidity" type="float">2</atm_turbidity>
          <atm_extinction_factor sid="atm_extinction_factor" type="float">1</atm_extinction_factor>
          <atm_distance_factor sid="atm_distance_factor" type="float">1</atm_distance_factor>
          <skyblendfac sid="skyblendfac" type="float">1</skyblendfac>
          <sky_exposure sid="sky_exposure" type="float">1</sky_exposure>
          <sky_colorspace sid="sky_colorspace" type="int">0</sky_colorspace>
        </technique>
      </extra>
    </light>
  </library_lights>
  <library_images/>
  <library_effects>
    <effect id="__-_Default_000-effect">
      <profile_COMMON>
        <technique sid="common">
          <phong>
            <emission>
              <color sid="emission">0 0 0 1</color>
            </emission>
            <ambient>
              <color sid="ambient">0 0 0 1</color>
            </ambient>
            <diffuse>
              <color sid="diffuse">0.8 0 0 1</color>
            </diffuse>
            <specular>
              <color sid="specular">0.4490196 0.4490196 0.4490196 1</color>
            </specular>
            <shininess>
              <float sid="shininess">50</float>
            </shininess>
            <index_of_refraction>
              <float sid="index_of_refraction">1</float>
            </index_of_refraction>
          </phong>
        </technique>
      </profile_COMMON>
    </effect>
  </library_effects>
  <library_materials>
    <material id="__-_Default_000-material" name="__-_Default_000">
      <instance_effect url="#__-_Default_000-effect"/>
    </material>
  </library_materials>
  <library_geometries>
    <geometry id="nabat_lukhat_001-mesh" name="nabat_lukhat.001">
      <mesh>
        <source id="nabat_lukhat_001-mesh-positions">
          <float_array id="nabat_lukhat_001-mesh-positions-array" count="1110">0.114303 -0.232136 3.258342 0.1651986 -0.1061396 3.317105 -0.1936277 -0.08536428 3.314166 -0.1439186 -0.1945464 3.25167 -0.2208943 -0.01005923 3.400152 -0.1724576 -0.1843787 3.391144 0.1555258 -0.2223615 3.396434 0.1955466 -0.02288442 3.406104 0.2121659 0.05648857 3.62698 0.147061 -0.2066818 3.612822 -0.2211606 0.06860089 3.625261 -0.1750085 -0.1996652 3.606608 0.8916245 0.5683616 3.336722 0.8916245 0.5683616 3.336722 0.8916245 0.5683616 3.336722 0.759563 -0.2028487 3.350054 0.759563 -0.2028487 3.350054 0.759563 0.2028445 3.350054 0.759563 0.2028445 3.350054 0.8916245 -0.5683659 3.336722 0.8916245 -0.5683659 3.336722 0.8916245 -0.5683659 3.336722 1.723075 -0.8213113 3.252783 1.723075 -0.8213113 3.252783 1.961043 -0.5683654 3.228759 1.961043 -0.5683654 3.228759 1.961043 -0.5683654 3.228759 1.426334 -0.9115867 3.28274 1.426334 -0.9115867 3.28274 1.129593 -0.8213113 3.312698 1.129593 -0.8213113 3.312698 1.132574 0.8213072 3.356282 1.436145 -2.00483e-6 3.426201 1.429314 0.9115827 3.326324 0.8946052 0.5683616 3.380306 0.7625434 0.2028445 3.393638 0.7625434 -0.2028487 3.393638 0.8946052 -0.5683659 3.380306 1.132574 -0.8213113 3.356282 1.429315 -0.9115867 3.326324 1.726056 -0.8213113 3.296367 1.436145 -2.00483e-6 3.426201 1.429315 -0.9115867 3.326324 1.964024 -0.5683655 3.272343 2.096086 -0.2028485 3.259011 2.096086 0.2028447 3.259011 1.964024 0.5683619 3.272343 1.726056 0.8213073 3.296367 1.429314 0.9115827 3.326324 2.093105 0.2028447 3.215427 2.093105 0.2028447 3.215427 2.093105 -0.2028485 3.215427 2.093105 -0.2028485 3.215427 1.426334 0.9115827 3.282741 1.426334 0.9115827 3.282741 1.723076 0.8213073 3.252783 1.723076 0.8213073 3.252783 1.129593 0.8213072 3.312698 1.129593 0.8213072 3.312698 1.961043 0.568362 3.228759 1.961043 0.568362 3.228759 1.961043 0.568362 3.228759 1.426334 0.9115827 3.282741 1.426334 -0.9115867 3.28274 1.429215 -7.6073e-6 3.324939 -1.841266 -2.26654 2.980165 -1.717604 -2.267073 3.010594 -1.723708 -2.666097 3.021702 -1.847382 -2.665562 2.99132 -1.805167 -2.267625 3.080606 -1.841266 -2.26654 2.980165 -1.847382 -2.665562 2.99132 -1.804637 -2.666646 3.06461 -1.717604 -2.267073 3.010594 -1.805167 -2.267625 3.080606 -1.804637 -2.666646 3.06461 -1.821978 -2.139791 2.996925 -1.735424 -2.140327 3.018266 -1.802576 -2.140874 3.091201 -1.821978 -2.139791 2.996925 -1.735424 -2.140327 3.018266 -1.802576 -2.140874 3.091201 -1.820287 1.876428 3.000469 -1.733733 1.875892 3.021809 -1.735424 -2.140327 3.018266 -1.821978 -2.139791 2.996925 -1.800885 1.875344 3.094745 -1.802576 -2.140874 3.091201 -1.797237 -2.981091 3.037073 -1.799984 -2.981082 3.04635 -1.796601 -2.981087 3.036737 -1.796601 -2.981087 3.036737 -1.799984 -2.981082 3.04635 -1.847382 -2.665562 2.99132 -1.797237 -2.981091 3.037073 -1.796601 -2.981087 3.036737 -1.723708 -2.666097 3.021702 -1.804637 -2.666646 3.06461 -1.804637 -2.666646 3.06461 -1.799984 -2.981082 3.04635 0.05056905 0.1474938 3.965662 0.05056905 0.1474938 3.965662 0.09118574 -0.03761148 3.963145 -0.1196605 -0.06819844 3.963148 -0.07852709 0.09215193 3.965663 -0.01423734 -0.1807771 3.963621 -0.01423734 -0.1807771 3.963621 -0.01397931 -0.01494276 4.077141 -0.01397931 -0.01494276 4.077141 -0.01528954 -0.2332755 3.878652 -0.01528954 -0.2332755 3.878652 -0.2005716 -0.1322541 3.872875 -0.1159686 0.1937251 3.866342 0.09758609 0.249471 3.867457 0.09758609 0.249471 3.867457 0.1750628 -0.1127461 3.86888 0.2487722 -0.1329758 3.603054 0.147061 0.2880426 3.651907 0.147061 0.2880426 3.651907 -0.2772402 -0.1508094 3.603063 -0.1750085 0.236537 3.651914 -0.014234 -0.2882952 3.621051 -0.014234 -0.2882952 3.621051 -0.3445726 0.2788397 2.128363 -0.3445726 0.2788397 2.128363 0.3159326 0.2788445 2.127629 0.3159326 0.2788445 2.127629 0.3159326 0.2788445 2.127629 -0.3411813 -0.2681381 2.120784 0.3125465 -0.2681332 2.120051 -0.01543772 -0.294102 1.792033 -0.3411813 -0.2681381 2.120784 -0.3411813 -0.2681381 2.120784 -0.3445726 0.2788397 2.128363 -0.3445726 0.2788397 2.128363 -0.3445726 0.2788397 2.128363 0.3159326 0.2788445 2.127629 0.3159326 0.2788445 2.127629 0.3125465 -0.2681332 2.120051 0.3125465 -0.2681332 2.120051 -0.3411813 -0.2681381 2.120784 -0.39705 0.3024834 2.787198 -0.408681 -0.1895464 2.778477 0.363144 0.2998071 2.794879 0.363144 0.2998071 2.794879 0.3757645 -0.1960215 2.775646 -0.408681 -0.1895464 2.778477 -0.39705 0.3024834 2.787198 -0.408681 -0.1895464 2.778477 -0.408681 -0.1895464 2.778477 -0.39705 0.3024834 2.787198 0.3757645 -0.1960215 2.775646 -0.408681 -0.1895464 2.778477 -0.408681 -0.1895464 2.778477 -0.39705 0.3024834 2.787198 -0.39705 0.3024834 2.787198 0.3757645 -0.1960215 2.775646 0.363144 0.2998071 2.794879 0.3757645 -0.1960215 2.775646 0.363144 0.2998071 2.794879 0.3757645 -0.1960215 2.775646 0.363144 0.2998071 2.794879 0.3757645 -0.1960215 2.775646 -0.001131653 0.1282119 3.254423 -0.4033928 0.02788311 3.11597 -0.001229465 -0.15499 3.231661 0.3652959 0.02788311 3.126315 -0.02459567 -0.3679922 2.77709 -0.5547066 0.1181954 3.172232 -0.2192623 0.1631375 3.074996 0.2047436 0.1640643 3.072711 0.5188997 0.1226118 3.181839 -0.4033928 0.02788311 3.11597 -0.5547066 0.1181954 3.172232 0.3652959 0.02788311 3.126315 0.5188997 0.1226118 3.181839 -0.001131653 0.1282119 3.254423 -0.4033928 0.02788311 3.11597 0.3652959 0.02788311 3.126315 1.200236 0.1978639 3.072847 1.169839 0.02869588 2.98282 1.224771 0.01714617 3.217719 1.20359 -0.1401689 3.06883 0.6391626 0.1230344 3.279591 0.6335578 -0.04742133 3.25468 1.200236 0.1978639 3.072847 1.20359 -0.1401689 3.06883 1.20359 -0.1401689 3.06883 1.224771 0.01714617 3.217719 1.20359 -0.1401689 3.06883 1.169839 0.02869588 2.98282 1.169839 0.02869588 2.98282 1.200236 0.1978639 3.072847 1.200236 0.1978639 3.072847 1.653078 0.09794986 3.003512 1.69855 0.01647043 3.174893 1.667066 -0.1209574 3.037187 1.901428 0.1168659 3.10783 1.902792 -0.1231876 3.164816 1.868355 -0.1246854 2.973624 1.869349 0.09826624 2.97281 1.653078 0.09794986 3.003512 1.667066 -0.1209574 3.037187 1.69855 0.01647043 3.174893 1.653078 0.09794986 3.003512 1.667066 -0.1209574 3.037187 1.901428 0.1168659 3.10783 1.653078 0.09794986 3.003512 1.667066 -0.1209574 3.037187 1.868355 -0.1246854 2.973624 -0.6739996 -0.04731887 3.238997 -1.214469 0.02862387 2.941822 -1.246537 0.1973636 3.031033 -1.273768 0.01710349 3.175052 -1.249817 -0.1398134 3.026964 -0.6800685 0.1227709 3.263744 -1.246537 0.1973636 3.031033 -1.249817 -0.1398134 3.026964 -1.249817 -0.1398134 3.026964 -1.273768 0.01710349 3.175052 -1.214469 0.02862387 2.941822 -1.214469 0.02862387 2.941822 -1.249817 -0.1398134 3.026964 -1.246537 0.1973636 3.031033 -1.246537 0.1973636 3.031033 -1.675778 0.09795898 2.967002 -1.724456 0.01647192 3.137516 -1.690395 -0.1209692 3.000411 -1.928473 -0.1231993 3.123609 -1.675778 0.09795898 2.967002 -1.690395 -0.1209692 3.000411 -1.724456 0.01647192 3.137516 -1.675778 0.09795898 2.967002 -1.690395 -0.1209692 3.000411 -1.675778 0.09795898 2.967002 -1.690395 -0.1209692 3.000411 -1.926041 0.1168811 3.066653 -1.891435 0.09827917 2.932244 -1.890456 -0.124698 2.933076 -1.926041 0.1168811 3.066653 -1.890456 -0.124698 2.933076 -0.1493764 -0.2156919 3.499484 -0.1032906 -0.2238011 3.265199 0.1501818 -0.1590105 3.684974 0.1199175 -0.2157815 3.499302 0.01061499 -0.187245 3.684972 -0.0159201 -0.2631104 3.499348 -0.03139406 -0.2238011 3.2652 -0.1760294 -0.187245 3.684969 0.07743632 -0.2238011 3.265202 -0.2232301 0.06867599 3.643342 -0.2172472 0.09945267 3.300576 0.1973873 0.06867605 3.64335 0.1914061 0.09945267 3.300583 -0.1032906 -0.2238012 3.265199 0.1501819 -0.1590105 3.684974 -0.01292127 0.2666128 3.658677 -0.01290839 0.2816935 3.294262 -0.1760295 -0.187245 3.684969 0.07743632 -0.2238012 3.265202 -0.2232301 0.06867599 3.643342 -0.2172472 0.09945267 3.300576 0.1973873 0.06867605 3.64335 -0.01292127 0.2666128 3.658677 -0.01290839 0.2816935 3.294262 0.1914061 0.09945267 3.300583 0.1391535 0.3279779 1.861547 -0.1332393 0.3279729 1.853251 -0.1332393 0.3279729 1.853251 0.4240074 -0.07197463 1.871323 0.4240074 -0.07197463 1.871323 0.1683694 -0.2931842 1.879946 0.1683694 -0.2931842 1.879946 0.4240074 0.2349917 1.871323 0.4240074 0.2349917 1.871323 0.2541106 -0.2965049 1.462116 0.2541106 -0.2965049 1.462116 0.5019823 -0.08677899 1.462869 0.2383338 0.1825063 1.011858 0.3943448 0.1617738 1.543495 0.01378172 0.1614313 1.520963 -0.0218268 0.1707834 1.521701 0.2357205 -0.2148765 1.339154 0.2327533 -0.2226295 1.511052 0.4240074 -0.07197463 1.871323 0.4240074 -0.07197463 1.871323 0.1391535 0.3279779 1.861547 0.1391535 0.3279779 1.861547 0.4240074 0.2349917 1.871323 0.4240074 0.2349917 1.871323 0.5019823 -0.08677899 1.462869 0.2383338 0.1825063 1.011858 0.01378172 0.1614313 1.520963 0.2357205 -0.2148765 1.339154 0.3943448 0.1617738 1.543495 -0.0218268 0.1707834 1.521701 0.2383338 0.1825063 1.011858 0.3943448 0.1617738 1.543495 -0.02159339 -0.2965055 1.46211 0.4812902 0.03661227 1.113475 0.0126971 0.03624147 1.090396 0.0126971 0.03624147 1.090396 0.4812902 0.03661227 1.113475 0.0126971 0.03624147 1.090396 0.4812902 0.03661227 1.113475 0.4812902 0.03661227 1.113475 0.0126971 0.03624147 1.090396 0.2525087 -0.01224321 0.2236564 0.232141 -0.07269555 0.892201 0.2525087 -0.01224321 0.2236564 0.4138398 0.2330511 0.001451551 0.1230962 0.2310684 0.001459002 0.4412869 -0.3168615 -9.22465e-4 0.1406266 -0.3485808 -9.22918e-4 0.1230962 0.2310684 0.001459002 0.4138398 0.2330511 0.001451551 0.4412869 -0.3168615 -9.22465e-4 0.1406266 -0.3485808 -9.22918e-4 0.2339087 0.3699057 1.33156 0.2339087 0.3699057 1.33156 0.5884416 0.2669762 1.35337 0.5884416 0.2669762 1.35337 -0.4452973 -0.07197833 1.87128 -0.4452973 -0.07197833 1.87128 -0.1871036 -0.2931851 1.879934 -0.1871036 -0.2931851 1.879934 -0.4452971 0.2349874 1.87128 -0.5099094 -0.08678281 1.462827 -0.2648853 -0.2969458 1.462064 -0.2648853 -0.2969458 1.462064 -0.2376752 0.1981388 1.004374 -0.3943766 0.1711318 1.543325 -0.2084559 -0.2370921 1.341827 -0.2307814 -0.2339495 1.510886 -0.4452973 -0.07197833 1.87128 -0.4452971 0.2349874 1.87128 -0.4452971 0.2349874 1.87128 -0.4452971 0.2349874 1.87128 -0.4452971 0.2349874 1.87128 -0.4452973 -0.07197833 1.87128 -0.5099094 -0.08678281 1.462827 -0.2376752 0.1981388 1.004374 -0.2084559 -0.2370921 1.341827 -0.3943766 0.1711318 1.543325 -0.2376752 0.1981388 1.004374 -0.3943766 0.1711318 1.543325 -0.02212357 -0.2583748 1.462029 -0.4646945 0.03834652 1.109144 -0.002537071 0.03794509 1.085382 -0.002537071 0.03794509 1.085382 -0.4646945 0.03834652 1.109144 -0.002537071 0.03794509 1.085382 -0.4646945 0.03834652 1.109144 -0.4646945 0.03834652 1.109144 -0.002537071 0.03794509 1.085382 -0.2295093 -0.08080136 0.8879998 -0.4049183 0.2466529 -0.003528833 -0.1104678 0.2445311 -0.003521323 -0.2538364 -0.01679164 0.215286 -0.4327065 -0.3374651 -0.005903244 -0.1282125 -0.3711566 -0.005902826 -0.4049183 0.2466529 -0.003528833 -0.1104678 0.2445311 -0.003521323 -0.2538364 -0.01679164 0.215286 -0.4327065 -0.3374651 -0.005903244 -0.1282125 -0.3711566 -0.005902826 -0.226648 0.3698998 1.331172 -0.226648 0.3698998 1.331172 -0.581368 0.2669705 1.352983 -0.581368 0.2669705 1.352983</float_array>
          <technique_common>
            <accessor source="#nabat_lukhat_001-mesh-positions-array" count="370" stride="3">
              <param name="X" type="float"/>
              <param name="Y" type="float"/>
              <param name="Z" type="float"/>
            </accessor>
          </technique_common>
        </source>
        <source id="nabat_lukhat_001-mesh-normals">
          <float_array id="nabat_lukhat_001-mesh-normals-array" count="852">0.9804866 -0.1965612 -0.00313884 0.9685422 -0.2425892 0.05546671 -0.9580118 -0.2710305 0.09357345 -0.9855207 -0.1679075 -0.02358025 -0.9618177 -0.2634114 -0.07430475 -0.9298676 -0.328139 -0.166346 0.9464819 -0.1768013 -0.2700247 0.915531 -0.3977621 0.05990153 -0.1004391 0 -0.9949432 -0.1004439 2.09867e-7 -0.9949427 -0.1004443 0 -0.9949427 -0.1004465 -5.53443e-7 -0.9949426 -0.100444 0 -0.9949428 0.06691253 0.1091635 0.9917691 0.007485151 0.0875684 0.9961305 -0.0336349 0.04856282 0.9982537 -0.0482859 0 0.9988336 -0.03363353 -0.04856336 0.9982537 0.007484316 -0.08756852 0.9961304 0.06691426 -0.1091639 0.991769 0.1325961 -0.1089323 0.985166 0.1912301 -0.08705168 0.9776775 0.2313653 -0.04815119 0.9716746 0.2455834 0 0.9693754 0.231366 0.04815053 0.9716745 0.1912318 0.08705097 0.9776771 0.1325959 0.1089323 0.985166 -0.7250862 -0.6868705 0.04958927 -0.7250896 -0.6868665 0.04959362 -0.99767 0 0.06822437 -0.9976699 0 0.06822657 0.99767 0 -0.06822514 0.99767 0 -0.06822568 0.2891677 0.9570743 -0.0197727 0.2891674 0.9570743 -0.01977837 -0.7250903 0.6868664 0.04958504 -0.7250902 0.6868664 0.04958778 0.7250913 -0.6868654 -0.04958474 0.7250905 -0.6868661 -0.04958784 -0.289164 -0.9570752 0.01977908 -0.2891683 -0.9570741 0.01977401 0.9378101 0.3411737 -0.06413251 0.9378098 0.3411735 -0.06413644 -0.9378104 -0.3411726 0.06413251 -0.9378106 -0.3411713 0.06413692 -0.9378108 0.3411706 0.06413733 -0.9378109 0.3411715 0.06413167 -0.2891685 0.9570739 0.01977783 -0.2891684 0.957074 0.01977407 0.9378101 -0.3411732 -0.06413471 0.9378119 -0.3411689 -0.06413078 0.2891678 -0.9570742 -0.01977515 0.2891638 -0.9570754 -0.01977401 0.7250925 0.6868638 -0.04958838 0.7250877 0.686869 -0.04958623 -0.1004456 9.68527e-7 -0.9949426 -0.1004441 9.59139e-7 -0.9949428 -0.1004447 -9.38222e-7 -0.9949427 -0.1004473 6.16912e-7 -0.9949424 -0.1004371 2.46901e-7 -0.9949434 -0.1001678 0.07417577 -0.9922019 -0.02191257 2.10265e-7 -0.9997599 -0.1779622 2.60825e-7 -0.9840373 -0.100167 -0.07417392 -0.992202 0.2386968 -0.03067201 -0.9706096 0.2383314 -0.03078848 -0.9706958 -0.9407151 0.02387607 0.3383567 -0.8637606 -0.02132827 0.5034509 0.6243123 -0.03046101 0.7805809 0.4682607 0.01743018 0.8834185 0.2389134 0.09210073 -0.9666633 0.2383022 0.09158331 -0.9668633 -0.971967 0.1212753 0.2014265 -0.9410583 -0.009026467 0.338124 0.734057 -0.07145857 0.6753178 0.6238145 0.04045748 0.7805247 0.2393893 7.55785e-4 -0.9709234 0.2393925 7.55812e-4 -0.9709227 -0.9794727 2.34691e-4 0.2015767 -0.9794723 2.34532e-4 0.2015791 0.7356759 -9.07351e-4 0.6773332 0.735669 -9.07258e-4 0.6773406 -0.009070396 0.9999532 -0.003368079 0.00353831 0.9999359 0.01076269 -0.9250594 -0.1957458 -0.3254977 0.2369396 -0.1009512 -0.9662653 0.4661775 -0.06583571 0.8822382 0.4677546 -0.06617861 0.8813774 0.9588304 -0.002304375 0.2839701 -0.8633324 -0.04197967 0.5028866 0.9473357 0.203602 0.247187 0.9467113 0.1993562 0.2529722 -0.9362258 0.2479729 0.2489792 -0.9315457 0.2082694 0.2980713 -0.1747451 0.6547001 0.7354128 -0.3128135 0.7297238 0.6079894 -0.1563766 0.977855 0.1390901 0.5080896 -0.8366609 0.2045571 0.7591547 -0.5579026 0.3353043 0.532881 -0.8270768 0.1788344 -0.4742739 -0.8587757 0.1938264 -0.4652443 -0.8660451 0.1830674 0.7413106 0.1537819 0.6533068 -0.762333 0.1858303 0.6199319 -0.2635678 0.6148559 0.7432929 0.6110514 -0.4477935 0.6527613 -0.5184091 -0.4824899 0.7060139 -0.4319301 -0.7648667 0.4779282 -0.4830155 -0.4491551 0.7516355 -0.7986239 0.2185121 0.5607606 -0.8285338 0.204355 0.5213165 0.8052483 0.1744648 0.5666898 0.7990345 0.1674785 0.5774901 0.3759008 -0.5321509 0.7586265 -0.2455102 0.9354275 0.2543622 0.004870593 0.9012165 0.4333418 -0.4737961 -0.7369033 0.4821732 -0.3074761 -0.0761289 0.9485056 0.02259039 0.4706199 -0.8820469 -0.06540805 0.6288704 0.7747541 -0.2608354 0.8978886 0.3546282 -0.07571047 -0.1454828 -0.9864597 0.0340535 -0.4565441 -0.8890489 -0.07252222 -0.7133314 0.6970646 -0.05912148 -0.689907 0.7214798 -0.2202545 0.2272741 0.9485961 0.2528628 0.8428781 0.4749915 0.319026 -0.002136647 -0.9477435 -0.9685769 -0.005176723 -0.2486603 -0.005659461 0.9826813 0.1852174 1.8833e-4 0.9843988 0.1759517 0.6192983 -0.7272234 -0.2959997 1.23563e-4 -0.994609 0.1036968 0.1568577 -0.1592169 -0.9747028 0.3690339 -0.6089559 0.7021302 0.01498216 -0.9998289 0.01085376 0.02263903 0.9910796 -0.1313346 0.4372861 -0.1141858 0.892044 0.4315366 -0.7614064 0.4837734 0.5358964 0.4546984 0.7113821 0.4104129 0.7456535 0.5249402 -0.994821 -0.004761099 -0.1015307 -0.9964606 0.02497786 -0.08026635 0.9954221 -0.004839718 -0.09545463 0.9970483 0.02814888 -0.07143074 4.02619e-4 0.8984035 0.439171 -0.001241683 0.8997486 0.4364071 0.00387752 0.9993603 -0.03555536 -4.21549e-5 0.999507 -0.03139805 -0.3834764 -0.8285628 0.4079579 -0.4202607 -0.9050709 0.06502056 -1.61156e-4 -0.9886346 -0.1503387 -0.9800747 -0.03639602 -0.1952668 -0.1496201 -0.690607 0.7075845 0.03671163 -0.9486674 0.3141377 -0.2823445 -0.3849158 -0.8787045 -0.1929147 0.02194774 -0.9809701 -0.2982433 0.4012023 -0.8660761 -0.1204752 -0.1471394 0.9817513 -0.01754307 0.9389286 0.3436648 -0.2231875 0.6288068 0.7448418 -0.03021585 0.4738004 -0.8801138 0.07082366 0.6297453 0.7735664 0.2532225 0.8980258 0.3597612 0.06343901 -0.1477751 -0.9869844 -0.04148709 -0.4600414 -0.8869277 0.07709366 -0.7144727 0.695403 0.06414002 -0.6905146 0.7204691 0.2024068 0.2272793 0.9525626 -0.2616927 0.8428877 0.4701673 -0.3011518 -0.002139031 -0.9535739 0.973065 -0.00518006 -0.2304731 -0.1385288 -0.1592174 -0.9774761 -0.3821073 -0.6089634 0.6950955 -0.01518046 -0.9998291 0.01056712 -0.02015155 0.9910797 -0.1317388 -0.4547036 -0.1141345 0.8832996 -0.4407078 -0.7624878 0.473697 -0.5489138 0.4954981 0.6731829 -0.4187958 0.7499788 0.5119979 0.9835612 -0.03639763 -0.1768689 0.120025 -0.6908957 0.7129216 -0.04955291 -0.9460715 0.3201457 0.3318877 -0.3746242 -0.865741 0.2406023 0.04373633 -0.9696379 0.3324627 0.395819 -0.856035 0.07766723 -0.1466674 0.9861321 7.87765e-4 0.9396173 0.3422264 0.1933374 0.6295242 0.7525423 0.4983162 -0.7239163 0.4771019 0.3103932 -0.07626503 0.947544 -0.02851235 0.9044448 0.425637 -0.6112551 -0.7258046 -0.3155549 0.07028871 -0.9865522 0.1475614 -0.02219939 -0.9981369 0.05683368 0.9125614 0 0.4089398 0.9206962 -0.01110446 0.3901222 -0.9304025 -0.01084464 0.3663793 -0.9228718 3.81508e-7 0.3851072 -0.2878752 0.956344 -0.05034071 0.3111379 0.9498487 -0.03131902 0.3940816 -0.9169236 0.06285572 0.3663325 -0.8496643 0.3793035 -0.05535596 0.9653041 0.2551936 -0.1011404 -0.6425981 0.7594987 -0.001108288 0.9813234 0.1923623 -0.3301771 -0.01778149 0.9437515 0.3985401 0.7021288 0.5900686 0.6506429 -0.7464705 0.1394482 0.6384233 -0.7550773 0.1492444 -0.647629 -0.7508428 0.1296611 -0.6455509 -0.753094 0.1269392 0.001522243 -0.9999725 0.007256388 1.98873e-6 -0.9999684 0.007947564 -6.69195e-4 -0.9999582 0.009123742 0.1559581 -0.9816823 -0.1094396 -0.002407312 0.9969163 0.07843643 -8.01945e-5 0.9967898 0.08006417 0.9822614 -2.33477e-7 0.1875165 0.9460833 -0.1409522 0.2916488 -0.9672228 0 0.2539296 -0.9760664 -0.1475626 0.1597497 -0.2765985 0.9526901 0.1259964 -0.2689756 0.9544001 0.1295096 0.3018433 0.9408495 0.1539251 0.2696391 0.954976 0.1237571 0.5496298 0.8253723 -0.1291036 -0.5839658 0.779891 -0.2252867 -0.612084 0.7784889 -0.1389545 0.598747 0.773207 -0.2089337 -0.508773 -0.8558745 -0.09289151 -0.7875394 -0.587836 -0.1850152 0.5241563 -0.8326245 -0.178876 0.8242146 -0.5656787 -0.02604049 -0.5963025 -0.7663534 -0.23901 0.5685164 -0.7826351 -0.2535181 -0.8578618 -0.4928625 0.1454637 -0.7251972 -0.6871652 -0.04351061 0.8731021 -0.391543 0.2904944 0.7064357 -0.7075026 -0.01971638 0.527739 -0.8435763 -0.09935194 0.7851377 -0.5895618 -0.1896731 -0.5741798 -0.7986167 -0.1803577 -0.8611094 -0.5081285 -0.01720917 0.6248059 -0.7288508 -0.2799894 -0.6053791 -0.7607879 -0.2339189 0.8725719 -0.455224 0.1771705 0.8455474 -0.5199326 0.1213257 -0.8879815 -0.3794274 0.2598532 -0.6959028 -0.7138184 -0.07862985 0.007196426 0.9988744 0.04688525 -0.00680983 0.9987864 0.04878056 0.4716025 0.8728237 0.1255788 -0.5165416 0.8504279 0.0997858 -0.5305284 0.8378918 0.1283622 0.5346381 0.8383985 0.1060676 -0.8770265 -0.02849483 0.4795963 0.05992394 -0.568019 0.820831 0.7889487 0.03672999 0.6133603 -0.06017202 -0.5438052 0.8370515 0.8503826 -0.02654147 0.5254951 -0.8017584 0.03571695 0.5965802 0.003904581 0.9986819 0.05117952 -0.003262996 0.9991975 0.03992378 4.28102e-4 0.003855586 -0.9999925 5.46204e-5 0.004062354 -0.9999918 -5.51701e-5 0.004314303 -0.9999908 -4.30644e-4 0.004096269 -0.9999916 0.3288909 -0.943972 -0.02734446 3.46015e-6 -0.9861989 -0.1655651 0.1915519 -0.9468848 0.2582967 0.3117145 -0.8943273 0.3209563 -0.3331722 -0.9379685 0.09597694 -7.96269e-6 -0.9256717 0.3783279 -0.3346497 -0.9417566 -0.03323155 1.74589e-6 -0.9861989 -0.165565 -0.9676478 -0.2028669 -0.1500096 -0.9436825 -0.3276543 -0.04589134 0.943671 -0.3276876 -0.04588979 0.9654217 -0.224411 -0.1326678 -0.6636235 0.7460125 0.05540037 -0.6862144 0.7267783 0.03005212 0.6862148 0.726776 0.0301007 0.6636661 0.7459748 0.05539947</float_array>
          <technique_common>
            <accessor source="#nabat_lukhat_001-mesh-normals-array" count="284" stride="3">
              <param name="X" type="float"/>
              <param name="Y" type="float"/>
              <param name="Z" type="float"/>
            </accessor>
          </technique_common>
        </source>
        <source id="nabat_lukhat_001-mesh-map-0">
          <float_array id="nabat_lukhat_001-mesh-map-0-array" count="1704">0.359911 0.760244 0.256222 0.764188 0.247639 0.9973 0.247639 0.9973 0.354844 0.995919 0.359911 0.760244 0.246254 0.997237 0.255303 0.761702 0.35219 0.761373 0.35219 0.761373 0.3535 0.996048 0.246254 0.997237 0.35219 0.761373 0.255303 0.761702 0.262731 0.725307 0.262731 0.725307 0.357419 0.6984 0.35219 0.761373 0.256222 0.764188 0.359911 0.760244 0.359875 0.698328 0.359875 0.698328 0.265203 0.725461 0.256222 0.764188 0.683715 0.998735 0.671476 0.921288 0.670968 0.961942 0.683715 0.998735 0.685138 0.884824 0.671476 0.921288 0.769819 0.881432 0.686369 0.905741 0.793296 0.907077 0.686369 0.905741 0.740262 0.872015 0.710479 0.880691 0.686369 0.905741 0.769819 0.881432 0.740262 0.872015 0.883926 0.380244 0.994308 0.668812 0.986425 0.347904 0.802335 0.468868 0.994308 0.668812 0.883926 0.380244 0.757812 0.596223 0.994308 0.668812 0.802335 0.468868 0.763827 0.754137 0.994308 0.668812 0.757812 0.596223 0.810807 0.880606 0.994308 0.668812 0.763827 0.754137 0.894099 0.967634 0.994308 0.668812 0.810807 0.880606 0.997205 0.997984 0.994308 0.668812 0.894099 0.967634 0.890321 0.965829 0.99995 0.668897 0.99282 0.998169 0.80873 0.877205 0.99995 0.668897 0.890321 0.965829 0.764208 0.74985 0.99995 0.668897 0.80873 0.877205 0.760921 0.591936 0.99995 0.668897 0.764208 0.74985 0.807901 0.465467 0.99995 0.668897 0.760921 0.591936 0.891193 0.378439 0.99995 0.668897 0.807901 0.465467 0.994299 0.34809 0.99995 0.668897 0.891193 0.378439 0.896411 0.967612 0.810807 0.880606 0.813119 0.880584 0.896411 0.967612 0.894099 0.967634 0.810807 0.880606 0.766139 0.754115 0.757812 0.596223 0.760125 0.596201 0.766139 0.754115 0.763827 0.754137 0.757812 0.596223 0.758609 0.591914 0.764208 0.74985 0.761895 0.749828 0.758609 0.591914 0.760921 0.591936 0.764208 0.74985 0.991987 0.348067 0.891193 0.378439 0.88888 0.378417 0.991987 0.348067 0.994299 0.34809 0.891193 0.378439 0.804647 0.468846 0.883926 0.380244 0.886238 0.380222 0.804647 0.468846 0.802335 0.468868 0.883926 0.380244 0.806418 0.877183 0.890321 0.965829 0.888009 0.965807 0.806418 0.877183 0.80873 0.877205 0.890321 0.965829 0.999517 0.997961 0.894099 0.967634 0.896411 0.967612 0.999517 0.997961 0.997205 0.997984 0.894099 0.967634 0.805589 0.465444 0.760921 0.591936 0.758609 0.591914 0.805589 0.465444 0.807901 0.465467 0.760921 0.591936 0.813119 0.880584 0.763827 0.754137 0.766139 0.754115 0.813119 0.880584 0.810807 0.880606 0.763827 0.754137 0.760125 0.596201 0.802335 0.468868 0.804647 0.468846 0.760125 0.596201 0.757812 0.596223 0.802335 0.468868 0.886238 0.380222 0.986425 0.347904 0.988737 0.347881 0.886238 0.380222 0.883926 0.380244 0.986425 0.347904 0.761895 0.749828 0.80873 0.877205 0.806418 0.877183 0.761895 0.749828 0.764208 0.74985 0.80873 0.877205 0.888009 0.965807 0.99282 0.998169 0.990508 0.998147 0.888009 0.965807 0.890321 0.965829 0.99282 0.998169 0.88888 0.378417 0.807901 0.465467 0.805589 0.465444 0.88888 0.378417 0.891193 0.378439 0.807901 0.465467 0.736748 0.999962 0.683715 0.9649 0.707192 0.990545 0.683715 0.9649 0.766532 0.991286 0.790642 0.966236 0.683715 0.9649 0.736748 0.999962 0.766532 0.991286 0.792065 0.886161 0.804304 0.963608 0.804812 0.922954 0.792065 0.886161 0.790642 1.000072 0.804304 0.963608 0.792065 0.886161 0.685138 0.884824 0.737243 0.942439 0.685138 0.884824 0.683715 0.998735 0.737243 0.942439 0.737243 0.942439 0.790642 1.000072 0.792065 0.886161 0.683715 0.998735 0.790642 1.000072 0.737243 0.942439 0.492597 0.738053 0.433622 0.73402 0.438139 0.898965 0.438139 0.898965 0.490049 0.897027 0.492597 0.738053 0.436602 0.734969 0.490577 0.735595 0.489374 0.898247 0.489374 0.898247 0.44215 0.896628 0.436602 0.734969 0.431464 0.736738 0.48543 0.736774 0.485331 0.900086 0.485331 0.900086 0.438139 0.898965 0.431464 0.736738 0.488137 0.664948 0.435683 0.666346 0.433622 0.73402 0.433622 0.73402 0.492597 0.738053 0.488137 0.664948 0.439993 0.664569 0.487217 0.666187 0.490577 0.735595 0.490577 0.735595 0.436602 0.734969 0.439993 0.664569 0.436771 0.666882 0.483963 0.668004 0.48543 0.736774 0.48543 0.736774 0.431464 0.736738 0.436771 0.666882 0.701803 0.330307 0.654482 0.329062 0.663056 2.53e-4 0.663056 2.53e-4 0.68735 8.92e-4 0.701803 0.330307 0.70181 0.329951 0.701803 0.330307 0.68735 8.92e-4 0.68735 8.92e-4 0.687355 7.08e-4 0.70181 0.329951 0.654482 0.329062 0.70181 0.329951 0.687355 7.08e-4 0.687355 7.08e-4 0.663056 2.53e-4 0.654482 0.329062 0.464046 0.963219 0.463648 0.96272 0.463972 0.963224 0.654482 0.329062 0.701803 0.330307 0.70181 0.329951 0.463321 0.963326 0.463321 0.963327 0.438032 0.898857 0.490049 0.897027 0.438139 0.898965 0.463321 0.963326 0.463745 0.96297 0.463819 0.962964 0.440724 0.89792 0.440724 0.89792 0.487835 0.897893 0.463745 0.96297 0.463648 0.96272 0.464046 0.963219 0.441191 0.897423 0.44215 0.896628 0.489374 0.898247 0.464042 0.963561 0.359911 0.760244 0.256222 0.764188 0.247639 0.9973 0.247639 0.9973 0.354844 0.995919 0.359911 0.760244 0.246254 0.997237 0.255303 0.761702 0.35219 0.761373 0.35219 0.761373 0.3535 0.996048 0.246254 0.997237 0.35219 0.761373 0.357419 0.6984 0.35833 0.760361 0.357419 0.6984 0.357419 0.6984 0.35833 0.760361 0.35833 0.760361 0.354512 0.996546 0.3535 0.996048 0.154789 0.998263 0.247639 0.9973 0.256222 0.764188 0.265203 0.725461 0.147639 0.712727 0.155893 0.762368 0.256222 0.764188 0.155893 0.762368 0.154789 0.998263 0.154305 0.762143 0.255303 0.761702 0.246254 0.997237 0.246254 0.997237 0.153407 0.99805 0.154305 0.762143 0.265203 0.725461 0.359875 0.698328 0.252076 0.663557 0.357419 0.6984 0.262731 0.725307 0.249808 0.663419 0.357419 0.6984 0.357419 0.6984 0.249808 0.663419 0.147639 0.712727 0.265203 0.725461 0.252076 0.663557 0.262731 0.725307 0.188854 0.75807 0.249808 0.663419 0.255303 0.761702 0.154305 0.762143 0.188854 0.75807 0.188854 0.75807 0.262731 0.725307 0.255303 0.761702 0.35219 0.761373 0.255303 0.761702 0.262731 0.725307 0.262731 0.725307 0.357419 0.6984 0.35219 0.761373 0.256222 0.764188 0.359911 0.760244 0.359875 0.698328 0.359875 0.698328 0.265203 0.725461 0.256222 0.764188 0.265203 0.725461 0.155893 0.762368 0.256222 0.764188 0.35833 0.760361 0.3535 0.996048 0.35219 0.761373 0.640954 0.594365 0.563498 0.603635 0.609736 0.528786 0.001225948 0.509051 0.144936 0.591598 8.23e-4 0.60024 0.144936 0.591598 0.144899 0.595654 8.23e-4 0.60024 0.565926 0.2460899 0.615458 0.25131 0.59576 0.005369961 0.489029 0.250186 0.565926 0.2460899 0.502662 0.001829981 0.502662 0.001829981 0.565926 0.2460899 0.59576 0.005369961 0.59576 0.005369961 0.615458 0.25131 0.576884 0.002083957 0.567593 0.243908 0.576884 0.002083957 0.615458 0.25131 0.502662 0.001829981 0.576884 0.002083957 0.567593 0.243908 0.502662 0.001829981 0.567593 0.243908 0.489029 0.250186 -0.83584 0.951278 -0.908601 1.009274 -0.910914 0.87282 -0.83584 0.951278 -0.831321 0.997546 -0.908601 1.009274 -0.841165 0.871447 -0.915787 0.87131 -0.909675 0.997994 -0.909717 1.008577 -0.909675 0.997994 -0.915787 0.87131 0.09052598 0.07917499 0.184122 0.08011496 0.01973795 0.182322 0.244087 0.179922 0.01973795 0.182322 0.184122 0.08011496 0.197998 0.121587 0.280574 0.121973 0.286789 0.1829439 0.286789 0.1829439 0.002492964 0.184404 0.197998 0.121587 -0.909675 0.997994 -0.832549 0.995763 -0.841165 0.871447 -0.910914 0.87282 -0.839262 0.873187 -0.83584 0.951278 -0.910914 0.87282 -0.913923 0.872006 -0.839262 0.873187 -0.832549 0.995763 -0.909675 0.997994 -0.909717 1.008577 0.595586 0.608965 0.568691 0.608966 0.581197 0.637289 0.581197 0.637289 0.568691 0.608966 0.546202 0.583528 0.595586 0.608965 0.581197 0.637289 0.594862 0.624777 0.594862 0.624777 0.624002 0.584907 0.595586 0.608965 0.453352 0.189958 0.258592 0.190354 0.279124 0.512021 0.411997 0.528157 0.453352 0.189958 0.279124 0.512021 0.258595 0.190015 0.453354 0.189618 0.276932 0.511063 0.276932 0.511063 0.453354 0.189618 0.411091 0.530758 0.563498 0.603635 0.453226 0.60304 0.41203 0.530784 0.41203 0.530784 0.609736 0.528786 0.563498 0.603635 0.602027 0.188135 0.609736 0.528786 0.41203 0.530784 0.602027 0.188135 0.41203 0.530784 0.420296 0.187933 0.001225948 0.509051 0.13784 0.510564 0.144936 0.591598 0.002492964 0.184404 0.13784 0.510564 0.001225948 0.509051 0.286789 0.1829439 0.13784 0.510564 0.002492964 0.184404 -0.908601 1.009274 -0.913923 0.872006 -0.910914 0.87282 0.579493 0.404327 0.543608 0.402438 0.568691 0.608966 0.568691 0.608966 0.543608 0.402438 0.546202 0.583528 0.546202 0.583528 0.543608 0.402438 0.581315 0.404665 0.630484 0.100599 0.664981 0.03185695 0.708284 0.101978 0.581315 0.404665 0.622145 0.401249 0.624002 0.584907 0.595586 0.608965 0.579493 0.404327 0.568691 0.608966 0.595586 0.608965 0.624002 0.584907 0.622145 0.401249 0.622145 0.401249 0.579493 0.404327 0.595586 0.608965 0.533181 0.244011 0.502994 0.00585395 0.48353 0.249209 0.610268 0.248143 0.596083 0.002311944 0.533181 0.244011 0.596083 0.002311944 0.502994 0.00585395 0.533181 0.244011 0.502994 0.00585395 0.521868 0.002567946 0.48353 0.249209 0.531509 0.241829 0.48353 0.249209 0.521868 0.002567946 0.596083 0.002311944 0.531509 0.241829 0.521868 0.002567946 0.596083 0.002311944 0.610268 0.248143 0.531509 0.241829 -0.841576 0.949644 -0.917033 0.872203 -0.913975 1.00868 -0.841576 0.949644 -0.913975 1.00868 -0.836806 0.995868 -0.843521 0.873248 -0.912761 0.998743 -0.918182 0.872067 -0.912862 1.009318 -0.918182 0.872067 -0.912761 0.998743 -0.912761 0.998743 -0.843521 0.873248 -0.835581 0.997592 -0.917033 0.872203 -0.841576 0.949644 -0.845422 0.871568 -0.917033 0.872203 -0.845422 0.871568 -0.920043 0.871431 -0.835581 0.997592 -0.912862 1.009318 -0.912761 0.998743 0.595627 0.608974 0.581197 0.637289 0.568675 0.608974 0.581197 0.637289 0.545179 0.58308 0.568675 0.608974 0.595561 0.624133 0.581197 0.637289 0.595627 0.608974 0.595627 0.608974 0.623579 0.586121 0.595561 0.624133 -0.913975 1.00868 -0.917033 0.872203 -0.920043 0.871431 0.5795 0.406369 0.568675 0.608974 0.543552 0.404469 0.568675 0.608974 0.545179 0.58308 0.543552 0.404469 0.545179 0.58308 0.581326 0.40669 0.543552 0.404469 -0.650601 0.85815 -0.63108 1.018551 -0.715499 0.943014 0.581326 0.40669 0.623579 0.586121 0.622224 0.40328 0.595627 0.608974 0.568675 0.608974 0.5795 0.406369 0.595627 0.608974 0.622224 0.40328 0.623579 0.586121 0.622224 0.40328 0.595627 0.608974 0.5795 0.406369 0.284282 0.510929 0.290819 0.581756 0.144936 0.591598 0.144936 0.591598 0.290819 0.581756 0.144899 0.595654 0.380345 0.593306 0.41203 0.530784 0.453226 0.60304 0.007662951 0.1207 0.09003198 0.121084 0.002492964 0.184404 0.002492964 0.184404 0.09003198 0.121084 0.142513 0.100594 0.142513 0.100594 0.197998 0.121587 0.002492964 0.184404 0.33851 0.121376 0.403452 0.125977 0.285195 0.184456 0.285195 0.184456 0.403452 0.125977 0.404453 0.184547 0.616753 0.1699399 0.638213 0.119124 0.618235 0.16872 0.616609 0.175202 0.632094 0.111203 0.632095 0.111203 0.184122 0.08011496 0.254704 0.107511 0.244087 0.179922 0.01973795 0.182322 0.026277 0.104469 0.09211999 0.101649 0.286789 0.1829439 0.284282 0.510929 0.13784 0.510564 0.13784 0.510564 0.284282 0.510929 0.144936 0.591598 0.506768 0.650299 0.563498 0.603635 0.640954 0.594365 0.640954 0.594365 0.617384 0.629109 0.506768 0.650299 0.453226 0.60304 0.563498 0.603635 0.506768 0.650299 0.403203 0.629109 0.380345 0.593306 0.453226 0.60304 0.453226 0.60304 0.506768 0.650299 0.403203 0.629109 0.308769 0.123094 0.406416 0.119053 0.404536 0.004527986 0.404536 0.004527986 0.308934 0.004211962 0.308769 0.123094 0.406768 0.117244 0.308495 0.121278 0.310414 0.003315985 0.310414 0.003315985 0.406837 0.002709984 0.406768 0.117244 0.197998 0.121587 0.142513 0.100594 0.148524 0.006064951 0.148524 0.006064951 0.235079 0.006466984 0.197998 0.121587 0.142513 0.100594 0.09003198 0.121084 0.07214498 0.005699992 0.07214498 0.005699992 0.148358 0.006044983 0.142513 0.100594 0.184122 0.08011496 0.09052598 0.07917499 0.08698499 -8.85e-4 0.08698499 -8.85e-4 0.210077 0.001315951 0.184122 0.08011496 9.47e-4 0.121192 0.308022 0.123037 0.310344 0.003240942 0.310344 0.003240942 3.4e-4 0.001914978 9.47e-4 0.121192 0.308023 0.123027 9.48e-4 0.121181 3.41e-4 0.001819968 3.41e-4 0.001819968 0.310344 0.003235995 0.308023 0.123027 0.01206499 0.108526 0.08519995 0.08945596 0.08622199 0.00338298 0.08622199 0.00338298 -8.02e-4 0.007889986 0.01206499 0.108526 0.08257496 0.09042 0.008434951 0.108543 0.004434943 0.007869958 0.004434943 0.007869958 0.090532 0.003573 0.08257496 0.09042 0.5556 0.755514 0.647865 0.772252 0.648678 0.663304 0.647865 0.772252 0.555531 0.759759 0.648657 0.664696 0.649862 0.773152 0.555925 0.756414 0.649257 0.663314 0.555854 0.760653 0.649862 0.773152 0.649235 0.66465 0.547244 0.946219 0.512641 0.794243 0.555531 0.759759 0.649161 0.995762 0.547244 0.946219 0.555531 0.759759 0.649586 0.995764 0.5556 0.755514 0.512641 0.794243 0.512641 0.794243 0.547244 0.946219 0.649586 0.995764 0.512641 0.794243 0.508283 0.707167 0.555531 0.759759 0.5556 0.755514 0.508283 0.707167 0.512641 0.794243 0.509729 0.663662 0.648657 0.664696 0.555531 0.759759 0.555531 0.759759 0.508283 0.707167 0.509729 0.663662 0.5556 0.755514 0.648678 0.663304 0.509729 0.663662 0.508283 0.707167 0.5556 0.755514 0.509729 0.663662 0.510905 0.795143 0.511033 0.949965 0.555854 0.760653 0.511033 0.949965 0.652044 0.996829 0.555854 0.760653 0.555925 0.756414 0.652499 0.99683 0.510905 0.795143 0.511033 0.949965 0.510905 0.795143 0.652499 0.99683 0.505729 0.708067 0.510905 0.795143 0.555854 0.760653 0.505729 0.708067 0.555925 0.756414 0.510905 0.795143 0.649235 0.66465 0.508592 0.663679 0.555854 0.760653 0.505729 0.708067 0.555854 0.760653 0.508592 0.663679 0.649257 0.663314 0.555925 0.756414 0.508592 0.663679 0.555925 0.756414 0.505729 0.708067 0.508592 0.663679 0.652044 0.996829 0.652499 0.99683 0.649862 0.773152 0.649586 0.995764 0.649161 0.995762 0.647865 0.772252 0.5556 0.755514 0.649586 0.995764 0.647865 0.772252 0.647865 0.772252 0.649161 0.995762 0.555531 0.759759 0.649862 0.773152 0.652499 0.99683 0.555925 0.756414 0.555854 0.760653 0.652044 0.996829 0.649862 0.773152 0.649161 0.995762 0.513213 0.994319 0.547244 0.946219 0.520007 0.994319 0.547244 0.946219 0.513213 0.994319 0.547244 0.946219 0.520007 0.994319 0.649586 0.995764 0.515594 0.995386 0.508378 0.995386 0.511033 0.949965 0.652044 0.996829 0.511033 0.949965 0.508378 0.995386 0.652499 0.99683 0.515594 0.995386 0.511033 0.949965 0.649235 0.66465 0.649862 0.773152 0.649257 0.663314 0.648678 0.663304 0.647865 0.772252 0.648657 0.664696 0.652044 0.996829 0.508378 0.995386 0.515594 0.995386 0.515594 0.995386 0.652499 0.99683 0.652044 0.996829 0.649161 0.995762 0.649586 0.995764 0.520007 0.994319 0.520007 0.994319 0.513213 0.994319 0.649161 0.995762 0.993723 0.258887 0.862504 0.27926 0.864072 0.204511 0.864072 0.204511 0.994964 0.200163 0.993723 0.258887 0.862504 0.27926 0.730864 0.302141 0.732976 0.202171 0.732976 0.202171 0.864072 0.204511 0.862504 0.27926 0.735086 0.102305 0.865591 0.131071 0.864072 0.204511 0.864072 0.204511 0.732976 0.202171 0.735086 0.102305 0.864072 0.204511 0.865591 0.131071 0.996122 0.145348 0.996122 0.145348 0.994964 0.200163 0.864072 0.204511 0.712709 0.119468 0.72597 0.05533295 0.995261 0.103295 0.986953 0.04008597 0.995261 0.103295 0.72597 0.05533295 0.986952 0.04008597 0.725969 0.05533295 0.99526 0.103295 0.713012 0.112343 0.99526 0.103295 0.725969 0.05533295 0.989374 0.008831977 0.986953 0.04008597 0.72597 0.05533295 0.724232 0.005216956 0.989374 0.008831977 0.72597 0.05533295 0.989374 0.008831977 0.724232 0.005216956 0.725969 0.05533295 0.725969 0.05533295 0.986952 0.04008597 0.989374 0.008831977</float_array>
          <technique_common>
            <accessor source="#nabat_lukhat_001-mesh-map-0-array" count="852" stride="2">
              <param name="S" type="float"/>
              <param name="T" type="float"/>
            </accessor>
          </technique_common>
        </source>
        <vertices id="nabat_lukhat_001-mesh-vertices">
          <input semantic="POSITION" source="#nabat_lukhat_001-mesh-positions"/>
        </vertices>
        <triangles material="__-_Default_000-material" count="284">
          <input semantic="VERTEX" source="#nabat_lukhat_001-mesh-vertices" offset="0"/>
          <input semantic="NORMAL" source="#nabat_lukhat_001-mesh-normals" offset="1"/>
          <input semantic="TEXCOORD" source="#nabat_lukhat_001-mesh-map-0" offset="2" set="0"/>
          <p>6 0 0 7 0 1 8 0 2 8 1 3 9 1 4 6 1 5 10 2 6 4 2 7 5 2 8 5 3 9 11 3 10 10 3 11 5 4 12 4 4 13 2 4 14 2 5 15 3 5 16 5 5 17 7 6 18 6 6 19 0 6 20 0 7 21 1 7 22 7 7 23 12 8 24 15 8 25 17 8 26 12 9 27 19 9 28 15 9 29 22 10 30 20 10 31 24 10 32 20 11 33 27 11 34 29 11 35 20 12 36 22 12 37 27 12 38 31 13 39 32 13 40 33 13 41 34 14 42 32 14 43 31 14 44 35 15 45 32 15 46 34 15 47 36 16 48 32 16 49 35 16 50 37 17 51 32 17 52 36 17 53 38 18 54 32 18 55 37 18 56 39 19 57 32 19 58 38 19 59 40 20 60 41 20 61 42 20 62 43 21 63 41 21 64 40 21 65 44 22 66 41 22 67 43 22 68 45 23 69 41 23 70 44 23 71 46 24 72 41 24 73 45 24 74 47 25 75 41 25 76 46 25 77 48 26 78 41 26 79 47 26 80 30 27 81 37 27 82 21 27 83 30 28 84 38 28 85 37 28 86 16 29 87 35 29 88 18 29 89 16 30 90 36 30 91 35 30 92 49 31 93 44 31 94 51 31 95 49 32 96 45 32 97 44 32 98 53 33 99 47 33 100 55 33 101 53 34 102 48 34 103 47 34 104 13 35 105 31 35 106 57 35 107 13 36 108 34 36 109 31 36 110 25 37 111 40 37 112 23 37 113 25 38 114 43 38 115 40 38 116 28 39 117 38 39 118 30 39 119 28 40 120 39 40 121 38 40 122 59 41 123 45 41 124 49 41 125 59 42 126 46 42 127 45 42 128 21 43 129 36 43 130 16 43 131 21 44 132 37 44 133 36 44 134 18 45 135 34 45 136 13 45 137 18 46 138 35 46 139 34 46 140 57 47 141 33 47 142 62 47 143 57 48 144 31 48 145 33 48 146 51 49 147 43 49 148 25 49 149 51 50 150 44 50 151 43 50 152 23 51 153 42 51 154 63 51 155 23 52 156 40 52 157 42 52 158 55 53 159 46 53 160 59 53 161 55 54 162 47 54 163 46 54 164 54 55 165 14 55 166 58 55 167 14 56 168 56 56 169 60 56 170 14 57 171 54 57 172 56 57 173 26 58 174 50 58 175 52 58 176 26 59 177 61 59 178 50 59 179 26 60 180 19 60 181 64 60 182 19 61 183 12 61 184 64 61 185 64 62 186 61 62 187 26 62 188 12 63 189 61 63 190 64 63 191 65 64 192 66 64 193 67 64 194 67 65 195 68 65 196 65 65 197 69 66 198 70 66 199 71 66 200 71 67 201 72 67 202 69 67 203 73 68 204 74 68 205 75 68 206 75 69 207 67 69 208 73 69 209 76 70 210 77 70 211 66 70 212 66 71 213 65 71 214 76 71 215 78 72 216 79 72 217 70 72 218 70 73 219 69 73 220 78 73 221 80 74 222 81 74 223 74 74 224 74 75 225 73 75 226 80 75 227 82 76 228 83 76 229 84 76 230 84 77 231 85 77 232 82 77 233 86 78 234 82 78 235 85 78 236 85 79 237 87 79 238 86 79 239 83 80 240 86 80 241 87 80 242 87 81 243 84 81 244 83 81 245 88 82 246 89 82 247 90 82 248 83 83 249 82 83 250 86 83 251 91 84 252 92 84 253 93 84 254 68 85 255 67 85 256 91 85 257 94 86 258 95 86 259 96 86 260 96 87 261 97 87 262 94 87 263 89 88 264 88 88 265 98 88 266 72 89 267 71 89 268 99 89 269 113 90 270 115 90 271 116 90 272 116 91 273 117 91 274 113 91 275 119 92 276 111 92 277 112 92 278 112 93 279 120 93 280 119 93 281 112 94 282 104 94 283 114 94 284 104 95 285 100 95 286 114 95 287 114 96 288 118 96 289 120 96 290 121 97 291 116 97 292 115 97 293 102 98 294 105 98 295 109 98 296 115 99 297 109 99 298 121 99 299 110 100 300 111 100 301 119 100 302 119 101 303 122 101 304 110 101 305 102 102 306 101 102 307 107 102 308 104 103 309 103 103 310 108 103 311 100 104 312 104 104 313 108 104 314 105 105 315 102 105 316 107 105 317 103 106 318 106 106 319 108 106 320 111 107 321 110 107 322 106 107 323 106 108 324 103 108 325 111 108 326 112 109 327 111 109 328 103 109 329 103 110 330 104 110 331 112 110 332 115 111 333 113 111 334 101 111 335 101 112 336 102 112 337 115 112 338 102 113 339 109 113 340 115 113 341 114 114 342 120 114 343 112 114 344 168 115 345 169 115 346 141 115 347 142 116 348 165 116 349 164 116 350 165 117 351 163 117 352 164 117 353 212 118 354 211 118 355 225 118 356 213 119 357 216 119 358 226 119 359 226 120 360 216 120 361 229 120 362 225 121 363 211 121 364 227 121 365 214 122 366 227 122 367 211 122 368 226 123 369 230 123 370 217 123 371 226 124 372 217 124 373 213 124 374 231 125 375 236 125 376 228 125 377 231 126 378 232 126 379 236 126 380 233 127 381 238 127 382 237 127 383 239 128 384 237 128 385 238 128 386 266 129 387 267 129 388 125 129 389 123 130 390 125 130 391 267 130 392 271 131 393 269 131 394 129 131 395 129 132 396 128 132 397 271 132 398 237 133 399 234 133 400 233 133 401 228 134 402 235 134 403 231 134 404 228 135 405 240 135 406 235 135 407 234 136 408 237 136 409 239 136 410 215 137 411 210 137 412 172 137 413 172 138 414 210 138 415 146 138 416 215 139 417 172 139 418 173 139 419 173 140 420 147 140 421 215 140 422 133 141 423 131 141 424 148 141 425 150 142 426 135 142 427 149 142 428 138 143 429 136 143 430 145 143 431 151 144 432 126 144 433 143 144 434 169 145 435 170 145 436 144 145 437 144 146 438 141 146 439 169 146 440 124 147 441 141 147 442 144 147 443 124 148 444 144 148 445 127 148 446 142 149 447 167 149 448 165 149 449 128 150 450 167 150 451 142 150 452 129 151 453 167 151 454 128 151 455 236 152 456 240 152 457 228 152 458 219 153 459 218 153 460 210 153 461 210 154 462 218 154 463 146 154 464 152 155 465 222 155 466 220 155 467 153 156 468 221 156 469 154 156 470 220 157 471 223 157 472 155 157 473 215 158 474 219 158 475 210 158 476 215 159 477 147 159 478 224 159 479 224 160 480 219 160 481 215 160 482 179 161 483 194 161 484 180 161 485 181 162 486 195 162 487 185 162 488 195 163 489 201 163 490 185 163 491 194 164 492 196 164 493 180 164 494 182 165 495 180 165 496 196 165 497 195 166 498 186 166 499 202 166 500 195 167 501 181 167 502 186 167 503 203 168 504 198 168 505 197 168 506 203 169 507 197 169 508 204 169 509 205 170 510 200 170 511 199 170 512 206 171 513 199 171 514 200 171 515 200 172 516 205 172 517 207 172 518 198 173 519 203 173 520 208 173 521 198 174 522 208 174 523 209 174 524 207 175 525 206 175 526 200 175 527 183 176 528 166 176 529 184 176 530 166 177 531 156 177 532 184 177 533 171 178 534 166 178 535 183 178 536 183 179 537 157 179 538 171 179 539 197 180 540 198 180 541 209 180 542 188 181 543 184 181 544 187 181 545 184 182 546 156 182 547 187 182 548 158 183 549 190 183 550 189 183 551 160 184 552 159 184 553 191 184 554 190 185 555 161 185 556 192 185 557 183 186 558 184 186 559 188 186 560 183 187 561 193 187 562 157 187 563 193 188 564 183 188 565 188 188 566 162 189 567 174 189 568 165 189 569 165 190 570 174 190 571 163 190 572 175 191 573 144 191 574 170 191 575 322 192 576 324 192 577 128 192 578 128 193 579 324 193 580 130 193 581 130 194 582 271 194 583 128 194 584 284 195 585 273 195 586 139 195 587 139 196 588 273 196 589 137 196 590 134 197 591 326 197 592 132 197 593 140 198 594 335 198 595 334 198 596 267 199 597 336 199 598 123 199 599 125 200 600 288 200 601 286 200 602 129 201 603 162 201 604 167 201 605 167 202 606 162 202 607 165 202 608 176 203 609 169 203 610 168 203 611 168 204 612 177 204 613 176 204 614 170 205 615 169 205 616 176 205 617 178 206 618 175 206 619 170 206 620 170 207 621 176 207 622 178 207 623 270 208 624 272 208 625 275 208 626 275 209 627 277 209 628 270 209 629 325 210 630 323 210 631 327 210 632 327 211 633 328 211 634 325 211 635 271 212 636 130 212 637 298 212 638 298 213 639 276 213 640 271 213 641 130 214 642 324 214 643 329 214 644 329 215 645 346 215 646 130 215 647 267 216 648 266 216 649 318 216 650 318 217 651 366 217 652 267 217 653 274 218 654 285 218 655 290 218 656 290 219 657 320 219 658 274 219 659 339 220 660 338 220 661 368 220 662 368 221 663 340 221 664 339 221 665 337 222 666 268 222 667 367 222 668 367 223 669 369 223 670 337 223 671 287 224 672 289 224 673 321 224 674 321 225 675 319 225 676 287 225 677 299 226 678 278 226 679 279 226 680 291 227 681 300 227 682 280 227 683 330 228 684 347 228 685 331 228 686 348 229 687 341 229 688 281 229 689 307 230 690 308 230 691 301 230 692 311 231 693 307 231 694 301 231 695 310 232 696 302 232 697 308 232 698 308 233 699 307 233 700 310 233 701 308 234 702 282 234 703 301 234 704 302 235 705 282 235 706 308 235 707 283 236 708 292 236 709 303 236 710 303 237 711 293 237 712 283 237 713 304 238 714 294 238 715 283 238 716 293 239 717 304 239 718 283 239 719 355 240 720 358 240 721 349 240 722 358 241 723 357 241 724 349 241 725 350 242 726 356 242 727 355 242 728 358 243 729 355 243 730 356 243 731 332 244 732 355 244 733 349 244 734 332 245 735 350 245 736 355 245 737 295 246 738 333 246 739 351 246 740 342 247 741 351 247 742 333 247 743 343 248 744 352 248 745 333 248 746 352 249 747 342 249 748 333 249 749 362 250 750 361 250 751 344 250 752 315 251 753 314 251 754 296 251 755 305 252 756 315 252 757 296 252 758 296 253 759 314 253 760 306 253 761 344 254 762 361 254 763 353 254 764 354 255 765 362 255 766 344 255 767 311 256 768 313 256 769 307 256 770 312 257 771 307 257 772 313 257 773 309 258 774 316 258 775 315 258 776 359 259 777 360 259 778 358 259 779 357 260 780 358 260 781 360 260 782 361 261 783 364 261 784 363 261 785 281 262 786 341 262 787 345 262 788 297 263 789 291 263 790 280 263 791 362 264 792 365 264 793 364 264 794 364 265 795 361 265 796 362 265 797 314 266 798 315 266 799 316 266 800 316 267 801 317 267 802 314 267 803 249 268 804 244 268 805 246 268 806 246 269 807 247 269 808 249 269 809 244 270 810 243 270 811 245 270 812 245 271 813 246 271 814 244 271 815 248 272 816 241 272 817 246 272 818 246 273 819 245 273 820 248 273 821 246 274 822 241 274 823 242 274 824 242 275 825 247 275 826 246 275 827 258 276 828 250 276 829 254 276 830 251 277 831 254 277 832 250 277 833 253 278 834 252 278 835 259 278 836 255 279 837 259 279 838 252 279 839 257 280 840 261 280 841 260 280 842 256 281 843 257 281 844 260 281 845 264 282 846 263 282 847 262 282 848 262 283 849 265 283 850 264 283 851</p>
        </triangles>
      </mesh>
    </geometry>
  </library_geometries>
  <library_controllers>
    <controller id="spearman_song2_Skin_nabat_lukhat_001-skin" name="spearman_song2_Skin">
      <skin source="#nabat_lukhat_001-mesh">
        <bind_shape_matrix>1 0 0 0 0 1 0 0 0 0 1 0 0 0 0 1</bind_shape_matrix>
        <source id="spearman_song2_Skin_nabat_lukhat_001-skin-joints">
          <Name_array id="spearman_song2_Skin_nabat_lukhat_001-skin-joints-array" count="16">pelvis femurleft butt-l knee-l-top knee-l-bopttom femurright butt-r knee-r-top knee-r-bopttom rib scapula ulna scapula01 ulna01 smoke_node_1 neck</Name_array>
          <technique_common>
            <accessor source="#spearman_song2_Skin_nabat_lukhat_001-skin-joints-array" count="16" stride="1">
              <param name="JOINT" type="name"/>
            </accessor>
          </technique_common>
        </source>
        <source id="spearman_song2_Skin_nabat_lukhat_001-skin-bind_poses">
          <float_array id="spearman_song2_Skin_nabat_lukhat_001-skin-bind_poses-array" count="256">1 0 0 -2.88205e-4 0 0 1 -1.989969 0 -1 0 0.05965083 0 0 0 1 1 0 0 -0.2295659 0 0 1 -1.980151 0 -1 0 0 0 0 0 1 1 0 0 -0.2300334 0 -5.28991e-7 1 -1.881625 0 -1 -5.43892e-7 0.2278663 0 0 0 1 1 0 0 -0.2579528 0 0 1 -1.492427 0 -1 0 -0.3577119 0 0 0 1 1 0 0 -0.2616621 0 -2.30968e-7 1 -1.243225 0 -1 -2.45869e-7 0.03760051 0 0 0 1 1 0 0 0.2313526 0 0 1 -1.980151 0 -1 0 0 0 0 0 1 1 0 0 0.2346149 0 -6.78003e-7 1 -1.884255 0 -1 -6.92904e-7 0.2262768 0 0 0 1 1 0 0 0.1784679 0 -6.78003e-7 1 -1.491813 0 -1 -6.85453e-7 -0.3589497 0 0 0 1 1 0 0 0.2454932 0 0 1 -1.243115 0 -1 0 0.03760027 0 0 0 1 1 0 0 0.007960081 0 0 1 -2.884791 0 -1 0 -1.77057e-7 0 0 0 1 0.2195165 0 0.9756088 -3.143499 -0.9756088 0 0.2195164 -0.2867052 0 -1 0 0 0 0 0 1 0.2195165 -1.95532e-7 0.9756088 -3.267238 -0.9756088 0 0.2195164 0.312651 0 -1 -2.06672e-7 3.8062e-7 0 0 0 1 0.2377816 0 -0.9713187 3.147291 0.9713186 0 0.2377817 -0.3059112 0 -1 0 -6.6532e-7 0 0 0 1 0.2377818 0 -0.9713187 3.259293 0.9713187 0 0.2377818 0.2934447 -1.38375e-7 -1 0 -6.92685e-7 0 0 0 1 0.2388951 -8.33726e-6 -0.9710454 3.372096 -0.006528019 -0.9999774 -0.001597404 -0.05521541 -0.9710234 0.006720483 -0.2388898 -1.002779 0 0 0 1 1 0 0 0.02165722 0 0 1 -3.354291 0 -1 -1.19453e-7 1.59906e-7 0 0 0 1</float_array>
          <technique_common>
            <accessor source="#spearman_song2_Skin_nabat_lukhat_001-skin-bind_poses-array" count="16" stride="16">
              <param name="TRANSFORM" type="float4x4"/>
            </accessor>
          </technique_common>
        </source>
        <source id="spearman_song2_Skin_nabat_lukhat_001-skin-weights">
          <float_array id="spearman_song2_Skin_nabat_lukhat_001-skin-weights-array" count="370">1 1 1 1 1 1 1 1 1 1 1 1 1 1 1 1 1 1 1 1 1 1 1 1 1 1 1 1 1 1 1 1 1 1 1 1 1 1 1 1 1 1 1 1 1 1 1 1 1 1 1 1 1 1 1 1 1 1 1 1 1 1 1 1 1 1 1 1 1 1 1 1 1 1 1 1 1 1 1 1 1 1 1 1 1 1 1 1 1 1 1 1 1 1 1 1 1 1 1 1 1 1 1 1 1 1 1 1 1 1 1 1 1 1 1 1 1 1 1 1 1 1 1 1 1 1 1 1 1 1 1 1 1 1 1 1 1 1 1 1 1 1 1 1 1 1 1 1 1 1 1 1 1 1 1 1 1 1 1 1 1 1 1 1 1 1 1 1 1 1 1 1 1 1 1 1 1 1 1 1 1 1 1 1 1 1 1 1 1 1 1 1 1 1 1 1 1 1 1 1 1 1 1 1 1 1 1 1 1 1 1 1 1 1 1 1 1 1 1 1 1 1 1 1 1 1 1 1 1 1 1 1 1 1 1 1 1 1 1 1 1 1 1 1 1 1 1 1 1 1 1 1 1 1 1 1 1 1 1 1 1 1 1 1 1 1 1 1 1 1 1 1 1 1 1 1 1 1 1 1 1 1 1 1 1 1 1 1 1 1 1 1 1 1 1 1 1 1 1 1 1 1 1 1 1 1 1 1 1 1 1 1 1 1 1 1 1 1 1 1 1 1 1 1 1 1 1 1 1 1 1 1 1 1 1 1 1 1 1 1 1 1 1 1 1 1 1 1 1 1 1 1 1 1 1 1 1 1 1 1 1 1 1 1 1 1 1 1 1 1</float_array>
          <technique_common>
            <accessor source="#spearman_song2_Skin_nabat_lukhat_001-skin-weights-array" count="370" stride="1">
              <param name="WEIGHT" type="float"/>
            </accessor>
          </technique_common>
        </source>
        <joints>
          <input semantic="JOINT" source="#spearman_song2_Skin_nabat_lukhat_001-skin-joints"/>
          <input semantic="INV_BIND_MATRIX" source="#spearman_song2_Skin_nabat_lukhat_001-skin-bind_poses"/>
        </joints>
        <vertex_weights count="370">
          <input semantic="JOINT" source="#spearman_song2_Skin_nabat_lukhat_001-skin-joints" offset="0"/>
          <input semantic="WEIGHT" source="#spearman_song2_Skin_nabat_lukhat_001-skin-weights" offset="1"/>
          <vcount>1 1 1 1 1 1 1 1 1 1 1 1 1 1 1 1 1 1 1 1 1 1 1 1 1 1 1 1 1 1 1 1 1 1 1 1 1 1 1 1 1 1 1 1 1 1 1 1 1 1 1 1 1 1 1 1 1 1 1 1 1 1 1 1 1 1 1 1 1 1 1 1 1 1 1 1 1 1 1 1 1 1 1 1 1 1 1 1 1 1 1 1 1 1 1 1 1 1 1 1 1 1 1 1 1 1 1 1 1 1 1 1 1 1 1 1 1 1 1 1 1 1 1 1 1 1 1 1 1 1 1 1 1 1 1 1 1 1 1 1 1 1 1 1 1 1 1 1 1 1 1 1 1 1 1 1 1 1 1 1 1 1 1 1 1 1 1 1 1 1 1 1 1 1 1 1 1 1 1 1 1 1 1 1 1 1 1 1 1 1 1 1 1 1 1 1 1 1 1 1 1 1 1 1 1 1 1 1 1 1 1 1 1 1 1 1 1 1 1 1 1 1 1 1 1 1 1 1 1 1 1 1 1 1 1 1 1 1 1 1 1 1 1 1 1 1 1 1 1 1 1 1 1 1 1 1 1 1 1 1 1 1 1 1 1 1 1 1 1 1 1 1 1 1 1 1 1 1 1 1 1 1 1 1 1 1 1 1 1 1 1 1 1 1 1 1 1 1 1 1 1 1 1 1 1 1 1 1 1 1 1 1 1 1 1 1 1 1 1 1 1 1 1 1 1 1 1 1 1 1 1 1 1 1 1 1 1 1 1 1 1 1 1 1 1 1 1 1 1 1 1 1 1 1 1 1 1 1 1 1 1 1 1 1 1 1 1 1 1 1 </vcount>
          <v>15 0 15 1 15 2 15 3 15 4 15 5 15 6 15 7 15 8 15 9 15 10 15 11 11 12 11 13 11 14 11 15 11 16 11 17 11 18 11 19 11 20 11 21 11 22 11 23 11 24 11 25 11 26 11 27 11 28 11 29 11 30 11 31 11 32 11 33 11 34 11 35 11 36 11 37 11 38 11 39 11 40 11 41 11 42 11 43 11 44 11 45 11 46 11 47 11 48 11 49 11 50 11 51 11 52 11 53 11 54 11 55 11 56 11 57 11 58 11 59 11 60 11 61 11 62 11 63 11 64 14 65 14 66 14 67 14 68 14 69 14 70 14 71 14 72 14 73 14 74 14 75 14 76 14 77 14 78 14 79 14 80 14 81 14 82 14 83 14 84 14 85 14 86 14 87 14 88 14 89 14 90 14 91 14 92 14 93 14 94 14 95 14 96 14 97 14 98 14 99 15 100 15 101 15 102 15 103 15 104 15 105 15 106 15 107 15 108 15 109 15 110 15 111 15 112 15 113 15 114 15 115 15 116 15 117 15 118 15 119 15 120 15 121 15 122 0 123 0 124 0 125 0 126 0 127 0 128 0 129 5 130 0 131 0 132 0 133 0 134 0 135 0 136 0 137 0 138 0 139 0 140 9 141 9 142 9 143 9 144 9 145 9 146 9 147 9 148 9 149 9 150 9 151 9 152 9 153 9 154 9 155 9 156 9 157 9 158 9 159 9 160 9 161 9 162 9 163 12 164 9 165 10 166 9 167 12 168 9 169 9 170 10 171 12 172 12 173 10 174 10 175 9 176 12 177 10 178 11 179 11 180 11 181 11 182 10 183 10 184 11 185 11 186 11 187 11 188 11 189 11 190 11 191 11 192 11 193 11 194 11 195 11 196 11 197 11 198 11 199 11 200 11 201 11 202 11 203 11 204 11 205 11 206 11 207 11 208 11 209 12 210 13 211 13 212 13 213 13 214 12 215 13 216 13 217 13 218 13 219 13 220 13 221 13 222 13 223 13 224 13 225 13 226 13 227 13 228 13 229 13 230 13 231 13 232 13 233 13 234 13 235 13 236 13 237 13 238 13 239 13 240 15 241 15 242 15 243 15 244 15 245 15 246 15 247 15 248 15 249 15 250 15 251 15 252 15 253 15 254 15 255 15 256 9 257 15 258 15 259 15 260 15 261 15 262 15 263 9 264 15 265 2 266 6 267 6 268 1 269 1 270 1 271 1 272 2 273 2 274 3 275 3 276 3 277 4 278 1 279 1 280 5 281 1 282 1 283 1 284 1 285 2 286 2 287 2 288 2 289 3 290 4 291 1 292 1 293 1 294 5 295 4 296 1 297 5 298 4 299 4 300 4 301 4 302 4 303 4 304 4 305 4 306 4 307 4 308 4 309 4 310 4 311 4 312 4 313 4 314 4 315 4 316 4 317 2 318 2 319 2 320 2 321 5 322 5 323 5 324 5 325 6 326 7 327 7 328 7 329 8 330 5 331 5 332 5 333 5 334 6 335 6 336 6 337 6 338 5 339 7 340 8 341 5 342 5 343 8 344 5 345 7 346 5 347 5 348 5 349 5 350 5 351 5 352 5 353 5 354 8 355 8 356 8 357 8 358 8 359 8 360 8 361 8 362 8 363 8 364 8 365 6 366 6 367 6 368 6 369</v>
        </vertex_weights>
      </skin>
    </controller>
  </library_controllers>
  <library_visual_scenes>
    <visual_scene id="Scene" name="Scene">
      <node id="Camera" name="Camera" type="NODE">
        <matrix sid="transform">0.6859207 -0.3240135 0.6515582 7.481132 0.7276763 0.3054208 -0.6141704 -6.50764 0 0.8953956 0.4452714 5.343665 0 0 0 1</matrix>
        <instance_camera url="#Camera-camera"/>
      </node>
      <node id="Lamp" name="Lamp" type="NODE">
        <matrix sid="transform">-0.2908646 -0.7711008 0.5663932 4.076245 0.9551712 -0.1998834 0.2183912 1.005454 -0.05518906 0.6045247 0.7946723 5.903862 0 0 0 1</matrix>
        <instance_light url="#Lamp-light"/>
      </node>
      <node id="spearman_song2_Skin" name="spearman_song2_Skin" type="NODE">
        <matrix sid="transform">1 0 0 0 0 1 0 0 0 0 1 0 0 0 0 1</matrix>
        <node id="spearman_song2_Skin_root" name="root" sid="root" type="JOINT">
          <matrix sid="transform">1 1.59941e-15 3.71087e-8 0 3.71087e-8 -1.34359e-7 -1 -1.01207e-7 3.38647e-15 1 -1.19209e-7 2.154822 0 0 0 1</matrix>
          <node id="spearman_song2_Skin_pelvis" name="pelvis" sid="pelvis" type="JOINT">
            <matrix sid="transform">1 0 1.12524e-8 2.88204e-4 -4.19184e-16 1 3.72528e-8 -0.1648533 -1.12524e-8 -3.72528e-8 1 -0.05965076 0 0 0 1</matrix>
            <node id="spearman_song2_Skin_femurleft" name="femurleft" sid="femurleft" type="JOINT">
              <matrix sid="transform">1 -4.47914e-15 5.0942e-9 0.2292777 0 1 0 -0.0098176 -5.0942e-9 2.48278e-10 1 0.05965088 0 0 0 1</matrix>
              <node id="spearman_song2_Skin_butt-l" name="butt-l" sid="butt-l" type="JOINT">
                <matrix sid="transform">1 -4.97381e-15 4.23191e-9 4.67554e-4 1.89181e-15 1 -4.47035e-7 -0.098526 -4.2319e-9 4.47035e-7 1 -0.2278655 0 0 0 1</matrix>
                <extra>
                  <technique profile="blender">
                    <layer sid="layer" type="string">0</layer>
                    <roll sid="roll" type="float">0</roll>
                    <tip_x sid="tip_x" type="float">0</tip_x>
                    <tip_y sid="tip_y" type="float">0</tip_y>
                    <tip_z sid="tip_z" type="float">0.1</tip_z>
                  </technique>
                </extra>
              </node>
              <node id="spearman_song2_Skin_knee-l-top" name="knee-l-top" sid="knee-l-top" type="JOINT">
                <matrix sid="transform">1 -4.97382e-15 7.79386e-9 0.0283868 0 0.9999999 0 -0.4877242 -7.79386e-9 0 1 0.3577119 0 0 0 1</matrix>
                <extra>
                  <technique profile="blender">
                    <layer sid="layer" type="string">0</layer>
                    <roll sid="roll" type="float">0</roll>
                    <tip_x sid="tip_x" type="float">0</tip_x>
                    <tip_y sid="tip_y" type="float">0</tip_y>
                    <tip_z sid="tip_z" type="float">0.1</tip_z>
                  </technique>
                </extra>
              </node>
              <node id="spearman_song2_Skin_knee-l-bopttom" name="knee-l-bopttom" sid="knee-l-bopttom" type="JOINT">
                <matrix sid="transform">1 -4.97382e-15 3.00215e-8 0.03209621 4.47355e-15 1 -1.49012e-7 -0.736926 -3.00215e-8 1.49012e-7 1 -0.03760034 0 0 0 1</matrix>
                <extra>
                  <technique profile="blender">
                    <layer sid="layer" type="string">0</layer>
                    <roll sid="roll" type="float">0</roll>
                    <tip_x sid="tip_x" type="float">0</tip_x>
                    <tip_y sid="tip_y" type="float">0</tip_y>
                    <tip_z sid="tip_z" type="float">0.1</tip_z>
                  </technique>
                </extra>
              </node>
              <extra>
                <technique profile="blender">
                  <layer sid="layer" type="string">0</layer>
                  <roll sid="roll" type="float">0</roll>
                  <tip_x sid="tip_x" type="float">0</tip_x>
                  <tip_y sid="tip_y" type="float">0</tip_y>
                  <tip_z sid="tip_z" type="float">0.0999999</tip_z>
                </technique>
              </extra>
            </node>
            <node id="spearman_song2_Skin_femurright" name="femurright" sid="femurright" type="JOINT">
              <matrix sid="transform">1 -4.47914e-15 5.0942e-9 -0.2316408 0 1 0 -0.0098176 -5.0942e-9 2.48278e-10 1 0.05965088 0 0 0 1</matrix>
              <node id="spearman_song2_Skin_butt-r" name="butt-r" sid="butt-r" type="JOINT">
                <matrix sid="transform">1 -4.97382e-15 5.58592e-9 -0.003262356 3.32947e-15 1 -5.96046e-7 -0.09589529 -5.58592e-9 5.96046e-7 1 -0.2262757 0 0 0 1</matrix>
                <extra>
                  <technique profile="blender">
                    <layer sid="layer" type="string">0</layer>
                    <roll sid="roll" type="float">0</roll>
                    <tip_x sid="tip_x" type="float">0</tip_x>
                    <tip_y sid="tip_y" type="float">0</tip_y>
                    <tip_z sid="tip_z" type="float">0.1</tip_z>
                  </technique>
                </extra>
              </node>
              <node id="spearman_song2_Skin_knee-r-top" name="knee-r-top" sid="knee-r-top" type="JOINT">
                <matrix sid="transform">1 -4.97382e-15 9.03824e-9 0.05288468 5.38721e-15 0.9999999 -5.96046e-7 -0.4883386 -9.03824e-9 5.96046e-7 1 0.3589506 0 0 0 1</matrix>
                <extra>
                  <technique profile="blender">
                    <layer sid="layer" type="string">0</layer>
                    <roll sid="roll" type="float">0</roll>
                    <tip_x sid="tip_x" type="float">0</tip_x>
                    <tip_y sid="tip_y" type="float">0</tip_y>
                    <tip_z sid="tip_z" type="float">0.1</tip_z>
                  </technique>
                </extra>
              </node>
              <node id="spearman_song2_Skin_knee-r-bopttom" name="knee-r-bopttom" sid="knee-r-bopttom" type="JOINT">
                <matrix sid="transform">1 -4.97382e-15 1.89711e-8 -0.01414061 0 1 0 -0.7370361 -1.89711e-8 0 1 -0.03760032 0 0 0 1</matrix>
                <extra>
                  <technique profile="blender">
                    <layer sid="layer" type="string">0</layer>
                    <roll sid="roll" type="float">0</roll>
                    <tip_x sid="tip_x" type="float">0</tip_x>
                    <tip_y sid="tip_y" type="float">0</tip_y>
                    <tip_z sid="tip_z" type="float">0.1</tip_z>
                  </technique>
                </extra>
              </node>
              <extra>
                <technique profile="blender">
                  <layer sid="layer" type="string">0</layer>
                  <roll sid="roll" type="float">0</roll>
                  <tip_x sid="tip_x" type="float">0</tip_x>
                  <tip_y sid="tip_y" type="float">0</tip_y>
                  <tip_z sid="tip_z" type="float">0.0999999</tip_z>
                </technique>
              </extra>
            </node>
            <node id="spearman_song2_Skin_lumbar" name="lumbar" sid="lumbar" type="JOINT">
              <matrix sid="transform">1 -4.47914e-15 4.81516e-9 0.004538174 0 1 3.72529e-8 0.189765 -4.81516e-9 -3.70047e-8 1 -0.05340066 0 0 0 1</matrix>
              <node id="spearman_song2_Skin_rib" name="rib" sid="rib" type="JOINT">
                <matrix sid="transform">1 -4.76734e-15 4.31032e-9 -0.01278648 0 1 0 0.7050576 -4.31032e-9 2.48249e-10 1 0.1130516 0 0 0 1</matrix>
                <node id="spearman_song2_Skin_scapula" name="scapula" sid="scapula" type="JOINT">
                  <matrix sid="transform">0.2195165 -0.9756088 -7.7167e-8 0.4182977 0.9756088 0.2195165 -5.85293e-8 0.2449708 7.40411e-8 -6.24367e-8 1 -4.32614e-8 0 0 0 1</matrix>
                  <node id="spearman_song2_Skin_ulna" name="ulna" sid="ulna" type="JOINT">
                    <matrix sid="transform">1 0 -9.04972e-8 0.1237385 -2.98023e-8 1 2.70006e-13 -0.5993563 9.04973e-8 -2.59348e-13 1 -3.89132e-9 0 0 0 1</matrix>
                    <extra>
                      <technique profile="blender">
                        <layer sid="layer" type="string">0</layer>
                        <roll sid="roll" type="float">-1.349478</roll>
                        <tip_x sid="tip_x" type="float">-0.097561</tip_x>
                        <tip_y sid="tip_y" type="float">0</tip_y>
                        <tip_z sid="tip_z" type="float">0.02195167</tip_z>
                      </technique>
                    </extra>
                  </node>
                  <extra>
                    <technique profile="blender">
                      <layer sid="layer" type="string">0</layer>
                      <roll sid="roll" type="float">-1.349478</roll>
                      <tip_x sid="tip_x" type="float">-0.097561</tip_x>
                      <tip_y sid="tip_y" type="float">0</tip_y>
                      <tip_z sid="tip_z" type="float">0.02195167</tip_z>
                    </technique>
                  </extra>
                </node>
                <node id="spearman_song2_Skin_scapula01" name="scapula01" sid="scapula01" type="JOINT">
                  <matrix sid="transform">0.2377817 0.9713186 -8.10573e-8 -0.4432708 -0.9713185 0.2377816 1.58143e-7 0.2449708 1.72881e-7 4.1129e-8 1 -4.32614e-8 0 0 0 1</matrix>
                  <node id="spearman_song2_Skin_ulna01" name="ulna01" sid="ulna01" type="JOINT">
                    <matrix sid="transform">1 -1.3411e-7 4.14496e-9 -0.1120024 1.49012e-7 0.9999999 -1.19209e-7 -0.5993563 -4.14494e-9 1.19209e-7 1 5.89336e-9 0 0 0 1</matrix>
                    <node id="spearman_song2_Skin_smoke_node_1" name="smoke node 1" sid="smoke_node_1" type="JOINT">
                      <matrix sid="transform">0.9999993 -5.21424e-7 0.001146361 -0.1116509 0.001146331 -0.006720422 -0.9999768 -0.7135482 8.22549e-6 0.9999775 -0.006720538 0.04844658 0 0 0 1</matrix>
                      <node id="spearman_song2_Skin_ammo_node_0" name="ammo node 0" sid="ammo_node_0" type="JOINT">
                        <matrix sid="transform">0.9999992 0.001173079 9.09377e-6 0.002566814 -1.20956e-6 -0.006720413 0.9999774 1.569696 0.00117299 -0.9999766 -0.006720372 0.04453588 0 0 0 1</matrix>
                        <extra>
                          <technique profile="blender">
                            <layer sid="layer" type="string">0</layer>
                            <roll sid="roll" type="float">1.330742</roll>
                            <tip_x sid="tip_x" type="float">0.09764087</tip_x>
                            <tip_y sid="tip_y" type="float">1.19209e-7</tip_y>
                            <tip_z sid="tip_z" type="float">0.02390003</tip_z>
                          </technique>
                        </extra>
                      </node>
                      <extra>
                        <technique profile="blender">
                          <layer sid="layer" type="string">0</layer>
                          <roll sid="roll" type="float">1.330981</roll>
                          <tip_x sid="tip_x" type="float">-6.5279e-4</tip_x>
                          <tip_y sid="tip_y" type="float">-0.09999775</tip_y>
                          <tip_z sid="tip_z" type="float">-1.5974e-4</tip_z>
                        </technique>
                      </extra>
                    </node>
                    <extra>
                      <technique profile="blender">
                        <layer sid="layer" type="string">0</layer>
                        <roll sid="roll" type="float">1.330715</roll>
                        <tip_x sid="tip_x" type="float">0.09713202</tip_x>
                        <tip_y sid="tip_y" type="float">0</tip_y>
                        <tip_z sid="tip_z" type="float">0.0237782</tip_z>
                      </technique>
                    </extra>
                  </node>
                  <extra>
                    <technique profile="blender">
                      <layer sid="layer" type="string">0</layer>
                      <roll sid="roll" type="float">1.330715</roll>
                      <tip_x sid="tip_x" type="float">0.09713202</tip_x>
                      <tip_y sid="tip_y" type="float">0</tip_y>
                      <tip_z sid="tip_z" type="float">0.0237782</tip_z>
                    </technique>
                  </extra>
                </node>
                <node id="spearman_song2_Skin_neck" name="neck" sid="neck" type="JOINT">
                  <matrix sid="transform">1 -5.02533e-15 3.80579e-9 -0.01369714 2.26826e-16 0.9999999 -5.96002e-8 0.4694993 -3.80579e-9 5.96002e-8 1 -1.36964e-7 0 0 0 1</matrix>
                  <node id="spearman_song2_Skin_smoke_node_0" name="smoke node 0" sid="smoke_node_0" type="JOINT">
                    <matrix sid="transform">1 -1.01156e-4 -1.10469e-6 0.00651496 -1.10467e-6 1.07102e-7 -0.9999999 0.09218764 1.01156e-4 0.9999999 2.28074e-7 0.2430202 0 0 0 1</matrix>
                    <extra>
                      <technique profile="blender">
                        <layer sid="layer" type="string">0</layer>
                        <roll sid="roll" type="float">3.141592</roll>
                        <tip_x sid="tip_x" type="float">-1.01095e-5</tip_x>
                        <tip_y sid="tip_y" type="float">-0.09999996</tip_y>
                        <tip_z sid="tip_z" type="float">0</tip_z>
                      </technique>
                    </extra>
                  </node>
                  <extra>
                    <technique profile="blender">
                      <layer sid="layer" type="string">0</layer>
                      <roll sid="roll" type="float">0</roll>
                      <tip_x sid="tip_x" type="float">0</tip_x>
                      <tip_y sid="tip_y" type="float">0</tip_y>
                      <tip_z sid="tip_z" type="float">0.1000001</tip_z>
                    </technique>
                  </extra>
                </node>
                <node id="spearman_song2_Skin_cloaktop" name="cloaktop" sid="cloaktop" type="JOINT">
                  <matrix sid="transform">1 -5.02533e-15 6.60962e-9 0.009935169 9.8491e-16 0.9999999 -1.49012e-7 0.3512919 -6.60962e-9 1.49012e-7 1 -0.1981267 0 0 0 1</matrix>
                  <node id="spearman_song2_Skin_cloak" name="cloak" sid="cloak" type="JOINT">
                    <matrix sid="transform">1 -6.40584e-15 1.47715e-10 0.004538157 0 1 1.49011e-7 -0.859081 -1.47715e-10 -1.48763e-7 1 -0.2356979 0 0 0 1</matrix>
                    <node id="spearman_song2_Skin_cloakbottom" name="cloakbottom" sid="cloakbottom" type="JOINT">
                      <matrix sid="transform">1 -6.41469e-15 0 -0.02733967 0 1 0 -0.8312191 0 2.48605e-10 1 -0.1177092 0 0 0 1</matrix>
                      <extra>
                        <technique profile="blender">
                          <layer sid="layer" type="string">0</layer>
                          <roll sid="roll" type="float">0</roll>
                          <tip_x sid="tip_x" type="float">0</tip_x>
                          <tip_y sid="tip_y" type="float">0</tip_y>
                          <tip_z sid="tip_z" type="float">0.1</tip_z>
                        </technique>
                      </extra>
                    </node>
                    <extra>
                      <technique profile="blender">
                        <layer sid="layer" type="string">0</layer>
                        <roll sid="roll" type="float">0</roll>
                        <tip_x sid="tip_x" type="float">0</tip_x>
                        <tip_y sid="tip_y" type="float">0</tip_y>
                        <tip_z sid="tip_z" type="float">0.1000001</tip_z>
                      </technique>
                    </extra>
                  </node>
                  <extra>
                    <technique profile="blender">
                      <layer sid="layer" type="string">0</layer>
                      <roll sid="roll" type="float">0</roll>
                      <tip_x sid="tip_x" type="float">0</tip_x>
                      <tip_y sid="tip_y" type="float">0</tip_y>
                      <tip_z sid="tip_z" type="float">0.0999999</tip_z>
                    </technique>
                  </extra>
                </node>
                <extra>
                  <technique profile="blender">
                    <layer sid="layer" type="string">0</layer>
                    <roll sid="roll" type="float">0</roll>
                    <tip_x sid="tip_x" type="float">0</tip_x>
                    <tip_y sid="tip_y" type="float">0</tip_y>
                    <tip_z sid="tip_z" type="float">0.0999999</tip_z>
                  </technique>
                </extra>
              </node>
              <extra>
                <technique profile="blender">
                  <layer sid="layer" type="string">0</layer>
                  <roll sid="roll" type="float">0</roll>
                  <tip_x sid="tip_x" type="float">0</tip_x>
                  <tip_y sid="tip_y" type="float">0</tip_y>
                  <tip_z sid="tip_z" type="float">0.0999999</tip_z>
                </technique>
              </extra>
            </node>
            <extra>
              <technique profile="blender">
                <layer sid="layer" type="string">0</layer>
                <roll sid="roll" type="float">0</roll>
                <tip_x sid="tip_x" type="float">0</tip_x>
                <tip_y sid="tip_y" type="float">0</tip_y>
                <tip_z sid="tip_z" type="float">0.1000001</tip_z>
              </technique>
            </extra>
          </node>
          <extra>
            <technique profile="blender">
              <layer sid="layer" type="string">0</layer>
              <roll sid="roll" type="float">0</roll>
              <tip_x sid="tip_x" type="float">0</tip_x>
              <tip_y sid="tip_y" type="float">0</tip_y>
              <tip_z sid="tip_z" type="float">0.1000001</tip_z>
            </technique>
          </extra>
        </node>
      </node>
      <node id="nabat_lukhat_001" name="nabat_lukhat_001" type="NODE">
        <translate sid="location">0 0 0</translate>
        <rotate sid="rotationZ">0 0 1 0</rotate>
        <rotate sid="rotationY">0 1 0 0</rotate>
        <rotate sid="rotationX">1 0 0 0</rotate>
        <scale sid="scale">1 1 1</scale>
        <instance_controller url="#spearman_song2_Skin_nabat_lukhat_001-skin">
          <skeleton>#spearman_song2_Skin_root</skeleton>
          <bind_material>
            <technique_common>
              <instance_material symbol="__-_Default_000-material" target="#__-_Default_000-material"/>
            </technique_common>
          </bind_material>
        </instance_controller>
      </node>
    </visual_scene>
  </library_visual_scenes>
  <scene>
    <instance_visual_scene url="#Scene"/>
  </scene>
</COLLADA>