<?xml version="1.0" encoding="utf-8"?>
<COLLADA xmlns="http://www.collada.org/2005/11/COLLADASchema" version="1.4.1" xmlns:xsi="http://www.w3.org/2001/XMLSchema-instance">
  <asset>
    <contributor>
      <author>Blender User</author>
      <authoring_tool>Blender 2.79.0 commit date:2017-09-11, commit time:10:43, hash:5bd8ac9</authoring_tool>
    </contributor>
    <created>2018-11-15T04:59:30</created>
    <modified>2018-11-15T04:59:30</modified>
    <unit name="meter" meter="1"/>
    <up_axis>Z_UP</up_axis>
  </asset>
  <library_cameras>
    <camera id="Camera-camera" name="Camera.002">
      <optics>
        <technique_common>
          <perspective>
            <xfov sid="xfov">49.13434</xfov>
            <aspect_ratio>1.777778</aspect_ratio>
            <znear sid="znear">0.1</znear>
            <zfar sid="zfar">100</zfar>
          </perspective>
        </technique_common>
      </optics>
      <extra>
        <technique profile="blender">
          <shiftx sid="shiftx" type="float">0</shiftx>
          <shifty sid="shifty" type="float">0</shifty>
          <YF_dofdist sid="YF_dofdist" type="float">0</YF_dofdist>
        </technique>
      </extra>
    </camera>
  </library_cameras>
  <library_lights>
    <light id="LAMP_FRONT_PEACH-light" name="Lamp.002">
      <technique_common>
        <ambient>
          <color>1 1 1</color>
        </ambient>
      </technique_common>
      <extra>
        <technique profile="blender">
          <type sid="type" type="int">3</type>
          <flag sid="flag" type="int">0</flag>
          <mode sid="mode" type="int">8192</mode>
          <gamma sid="blender_gamma" type="float">1</gamma>
          <red sid="red" type="float">1</red>
          <green sid="green" type="float">1</green>
          <blue sid="blue" type="float">1</blue>
          <shadow_r sid="blender_shadow_r" type="float">0</shadow_r>
          <shadow_g sid="blender_shadow_g" type="float">0</shadow_g>
          <shadow_b sid="blender_shadow_b" type="float">0</shadow_b>
          <energy sid="blender_energy" type="float">1</energy>
          <dist sid="blender_dist" type="float">29.99998</dist>
          <spotsize sid="spotsize" type="float">75</spotsize>
          <spotblend sid="spotblend" type="float">0.15</spotblend>
          <halo_intensity sid="blnder_halo_intensity" type="float">1</halo_intensity>
          <att1 sid="att1" type="float">0</att1>
          <att2 sid="att2" type="float">1</att2>
          <falloff_type sid="falloff_type" type="int">2</falloff_type>
          <clipsta sid="clipsta" type="float">1.000799</clipsta>
          <clipend sid="clipend" type="float">30.002</clipend>
          <bias sid="bias" type="float">1</bias>
          <soft sid="soft" type="float">3</soft>
          <compressthresh sid="compressthresh" type="float">0.04999995</compressthresh>
          <bufsize sid="bufsize" type="int">2880</bufsize>
          <samp sid="samp" type="int">3</samp>
          <buffers sid="buffers" type="int">1</buffers>
          <filtertype sid="filtertype" type="int">0</filtertype>
          <bufflag sid="bufflag" type="int">0</bufflag>
          <buftype sid="buftype" type="int">2</buftype>
          <ray_samp sid="ray_samp" type="int">1</ray_samp>
          <ray_sampy sid="ray_sampy" type="int">1</ray_sampy>
          <ray_sampz sid="ray_sampz" type="int">1</ray_sampz>
          <ray_samp_type sid="ray_samp_type" type="int">0</ray_samp_type>
          <area_shape sid="area_shape" type="int">0</area_shape>
          <area_size sid="area_size" type="float">10000</area_size>
          <area_sizey sid="area_sizey" type="float">100</area_sizey>
          <area_sizez sid="area_sizez" type="float">1</area_sizez>
          <adapt_thresh sid="adapt_thresh" type="float">9.99987e-4</adapt_thresh>
          <ray_samp_method sid="ray_samp_method" type="int">1</ray_samp_method>
          <shadhalostep sid="shadhalostep" type="int">0</shadhalostep>
          <sun_effect_type sid="sun_effect_type" type="int">0</sun_effect_type>
          <skyblendtype sid="skyblendtype" type="int">1</skyblendtype>
          <horizon_brightness sid="horizon_brightness" type="float">1</horizon_brightness>
          <spread sid="spread" type="float">1</spread>
          <sun_brightness sid="sun_brightness" type="float">1</sun_brightness>
          <sun_size sid="sun_size" type="float">1</sun_size>
          <backscattered_light sid="backscattered_light" type="float">1</backscattered_light>
          <sun_intensity sid="sun_intensity" type="float">1</sun_intensity>
          <atm_turbidity sid="atm_turbidity" type="float">2</atm_turbidity>
          <atm_extinction_factor sid="atm_extinction_factor" type="float">1</atm_extinction_factor>
          <atm_distance_factor sid="atm_distance_factor" type="float">1</atm_distance_factor>
          <skyblendfac sid="skyblendfac" type="float">1</skyblendfac>
          <sky_exposure sid="sky_exposure" type="float">1</sky_exposure>
          <sky_colorspace sid="sky_colorspace" type="int">0</sky_colorspace>
        </technique>
      </extra>
    </light>
    <light id="Lamp_WEST-light" name="Lamp.006">
      <technique_common>
        <directional>
          <color sid="color">1 1 1</color>
        </directional>
      </technique_common>
      <extra>
        <technique profile="blender">
          <type sid="type" type="int">1</type>
          <flag sid="flag" type="int">0</flag>
          <mode sid="mode" type="int">8192</mode>
          <gamma sid="blender_gamma" type="float">1</gamma>
          <red sid="red" type="float">1</red>
          <green sid="green" type="float">1</green>
          <blue sid="blue" type="float">1</blue>
          <shadow_r sid="blender_shadow_r" type="float">0</shadow_r>
          <shadow_g sid="blender_shadow_g" type="float">0</shadow_g>
          <shadow_b sid="blender_shadow_b" type="float">0</shadow_b>
          <energy sid="blender_energy" type="float">1</energy>
          <dist sid="blender_dist" type="float">29.99998</dist>
          <spotsize sid="spotsize" type="float">75</spotsize>
          <spotblend sid="spotblend" type="float">0.15</spotblend>
          <halo_intensity sid="blnder_halo_intensity" type="float">1</halo_intensity>
          <att1 sid="att1" type="float">0</att1>
          <att2 sid="att2" type="float">1</att2>
          <falloff_type sid="falloff_type" type="int">2</falloff_type>
          <clipsta sid="clipsta" type="float">1.000799</clipsta>
          <clipend sid="clipend" type="float">30.002</clipend>
          <bias sid="bias" type="float">1</bias>
          <soft sid="soft" type="float">3</soft>
          <compressthresh sid="compressthresh" type="float">0.04999995</compressthresh>
          <bufsize sid="bufsize" type="int">2880</bufsize>
          <samp sid="samp" type="int">3</samp>
          <buffers sid="buffers" type="int">1</buffers>
          <filtertype sid="filtertype" type="int">0</filtertype>
          <bufflag sid="bufflag" type="int">0</bufflag>
          <buftype sid="buftype" type="int">2</buftype>
          <ray_samp sid="ray_samp" type="int">1</ray_samp>
          <ray_sampy sid="ray_sampy" type="int">1</ray_sampy>
          <ray_sampz sid="ray_sampz" type="int">1</ray_sampz>
          <ray_samp_type sid="ray_samp_type" type="int">0</ray_samp_type>
          <area_shape sid="area_shape" type="int">1</area_shape>
          <area_size sid="area_size" type="float">0.1</area_size>
          <area_sizey sid="area_sizey" type="float">0.1</area_sizey>
          <area_sizez sid="area_sizez" type="float">1</area_sizez>
          <adapt_thresh sid="adapt_thresh" type="float">9.99987e-4</adapt_thresh>
          <ray_samp_method sid="ray_samp_method" type="int">1</ray_samp_method>
          <shadhalostep sid="shadhalostep" type="int">0</shadhalostep>
          <sun_effect_type sid="sun_effect_type" type="int">0</sun_effect_type>
          <skyblendtype sid="skyblendtype" type="int">1</skyblendtype>
          <horizon_brightness sid="horizon_brightness" type="float">1</horizon_brightness>
          <spread sid="spread" type="float">1</spread>
          <sun_brightness sid="sun_brightness" type="float">1</sun_brightness>
          <sun_size sid="sun_size" type="float">1</sun_size>
          <backscattered_light sid="backscattered_light" type="float">1</backscattered_light>
          <sun_intensity sid="sun_intensity" type="float">1</sun_intensity>
          <atm_turbidity sid="atm_turbidity" type="float">2</atm_turbidity>
          <atm_extinction_factor sid="atm_extinction_factor" type="float">1</atm_extinction_factor>
          <atm_distance_factor sid="atm_distance_factor" type="float">1</atm_distance_factor>
          <skyblendfac sid="skyblendfac" type="float">1</skyblendfac>
          <sky_exposure sid="sky_exposure" type="float">1</sky_exposure>
          <sky_colorspace sid="sky_colorspace" type="int">0</sky_colorspace>
        </technique>
      </extra>
    </light>
    <light id="Lamp-light" name="Lamp.007">
      <technique_common>
        <point>
          <color sid="color">1 1 1</color>
          <constant_attenuation>1</constant_attenuation>
          <linear_attenuation>0</linear_attenuation>
          <quadratic_attenuation>0.00111109</quadratic_attenuation>
        </point>
      </technique_common>
      <extra>
        <technique profile="blender">
          <type sid="type" type="int">0</type>
          <flag sid="flag" type="int">0</flag>
          <mode sid="mode" type="int">8192</mode>
          <gamma sid="blender_gamma" type="float">1</gamma>
          <red sid="red" type="float">1</red>
          <green sid="green" type="float">1</green>
          <blue sid="blue" type="float">1</blue>
          <shadow_r sid="blender_shadow_r" type="float">0</shadow_r>
          <shadow_g sid="blender_shadow_g" type="float">0</shadow_g>
          <shadow_b sid="blender_shadow_b" type="float">0</shadow_b>
          <energy sid="blender_energy" type="float">1</energy>
          <dist sid="blender_dist" type="float">29.99998</dist>
          <spotsize sid="spotsize" type="float">75</spotsize>
          <spotblend sid="spotblend" type="float">0.15</spotblend>
          <halo_intensity sid="blnder_halo_intensity" type="float">1</halo_intensity>
          <att1 sid="att1" type="float">0</att1>
          <att2 sid="att2" type="float">1</att2>
          <falloff_type sid="falloff_type" type="int">2</falloff_type>
          <clipsta sid="clipsta" type="float">1.000799</clipsta>
          <clipend sid="clipend" type="float">30.002</clipend>
          <bias sid="bias" type="float">1</bias>
          <soft sid="soft" type="float">3</soft>
          <compressthresh sid="compressthresh" type="float">0.04999995</compressthresh>
          <bufsize sid="bufsize" type="int">2880</bufsize>
          <samp sid="samp" type="int">3</samp>
          <buffers sid="buffers" type="int">1</buffers>
          <filtertype sid="filtertype" type="int">0</filtertype>
          <bufflag sid="bufflag" type="int">0</bufflag>
          <buftype sid="buftype" type="int">2</buftype>
          <ray_samp sid="ray_samp" type="int">1</ray_samp>
          <ray_sampy sid="ray_sampy" type="int">1</ray_sampy>
          <ray_sampz sid="ray_sampz" type="int">1</ray_sampz>
          <ray_samp_type sid="ray_samp_type" type="int">0</ray_samp_type>
          <area_shape sid="area_shape" type="int">1</area_shape>
          <area_size sid="area_size" type="float">0.1</area_size>
          <area_sizey sid="area_sizey" type="float">0.1</area_sizey>
          <area_sizez sid="area_sizez" type="float">1</area_sizez>
          <adapt_thresh sid="adapt_thresh" type="float">9.99987e-4</adapt_thresh>
          <ray_samp_method sid="ray_samp_method" type="int">1</ray_samp_method>
          <shadhalostep sid="shadhalostep" type="int">0</shadhalostep>
          <sun_effect_type sid="sun_effect_type" type="int">0</sun_effect_type>
          <skyblendtype sid="skyblendtype" type="int">1</skyblendtype>
          <horizon_brightness sid="horizon_brightness" type="float">1</horizon_brightness>
          <spread sid="spread" type="float">1</spread>
          <sun_brightness sid="sun_brightness" type="float">1</sun_brightness>
          <sun_size sid="sun_size" type="float">1</sun_size>
          <backscattered_light sid="backscattered_light" type="float">1</backscattered_light>
          <sun_intensity sid="sun_intensity" type="float">1</sun_intensity>
          <atm_turbidity sid="atm_turbidity" type="float">2</atm_turbidity>
          <atm_extinction_factor sid="atm_extinction_factor" type="float">1</atm_extinction_factor>
          <atm_distance_factor sid="atm_distance_factor" type="float">1</atm_distance_factor>
          <skyblendfac sid="skyblendfac" type="float">1</skyblendfac>
          <sky_exposure sid="sky_exposure" type="float">1</sky_exposure>
          <sky_colorspace sid="sky_colorspace" type="int">0</sky_colorspace>
        </technique>
      </extra>
    </light>
  </library_lights>
  <library_images/>
  <library_effects>
    <effect id="spearman-suebi2_Mat-effect">
      <profile_COMMON>
        <technique sid="common">
          <phong>
            <emission>
              <color sid="emission">0 0 0 1</color>
            </emission>
            <ambient>
              <color sid="ambient">0 0 0 1</color>
            </ambient>
            <diffuse>
              <color sid="diffuse">0.64 0.64 0.64 1</color>
            </diffuse>
            <specular>
              <color sid="specular">0.25 0.25 0.25 1</color>
            </specular>
            <shininess>
              <float sid="shininess">50</float>
            </shininess>
            <index_of_refraction>
              <float sid="index_of_refraction">1</float>
            </index_of_refraction>
          </phong>
        </technique>
      </profile_COMMON>
    </effect>
  </library_effects>
  <library_materials>
    <material id="spearman-suebi2_Mat-material" name="spearman-suebi2_Mat">
      <instance_effect url="#spearman-suebi2_Mat-effect"/>
    </material>
  </library_materials>
  <library_geometries>
    <geometry id="spearman-suebi2_Mesh-mesh" name="spearman-suebi2_Mesh">
      <mesh>
        <source id="spearman-suebi2_Mesh-mesh-positions">
          <float_array id="spearman-suebi2_Mesh-mesh-positions-array" count="525">-0.392035 0.3379822 2.387454 0.3197696 0.3379887 2.386641 -0.3883802 -0.1355922 2.379287 0.3161203 -0.1355861 2.378475 -0.06585335 -0.1977287 2.378915 -0.03261899 0.1890946 3.403179 -0.3957241 0.3545188 2.974692 -0.4227235 0.1027067 3.328459 -0.4063898 -0.09668242 2.966694 -0.03270888 -0.1267528 3.382304 0.3013908 0.3520646 2.98173 0.3129641 -0.1026208 2.96409 0.4443539 0.1899694 3.240167 0.3325481 0.1027071 3.328459 -0.05412763 -0.2214741 2.965418 -0.5058405 0.1780785 3.205947 -0.2326613 0.2281149 3.238627 0.1561929 0.2291488 3.236532 0.4131924 0.1829022 3.202204 0.1549645 0.1859052 3.476414 1.07305 0.2585958 3.155409 1.047646 0.1034522 3.057753 1.091479 0.09286016 3.310515 1.076254 -0.05141282 3.151447 0.4406033 0.03364545 3.216927 1.597608 0.1669644 3.036898 1.634555 0.09224003 3.221764 1.60952 -0.0337941 3.073646 1.823307 0.1843122 3.167919 1.822925 -0.03583908 3.228236 1.79671 -0.03721278 3.023366 1.797649 0.1672545 3.02259 1.770089 1.600824 3.268885 1.25486 1.603568 3.306496 0.7396305 1.606314 3.344111 2.005967 0.09143412 3.251667 1.262834 0.09548455 3.542313 0.4853671 0.09953463 3.362666 1.751706 -1.415346 3.270228 1.236478 -1.4126 3.307836 0.7212459 -1.409856 3.345447 1.771494 1.600824 3.27735 1.256265 1.603569 3.314961 0.7410355 1.606314 3.352576 2.007372 0.09143406 3.260132 1.264239 0.09548455 3.550778 0.486772 0.09953463 3.371131 1.753111 -1.415345 3.278692 1.237883 -1.4126 3.316302 0.7226513 -1.409856 3.353912 -0.4917056 0.03367322 3.264657 -1.097493 0.1032419 3.038102 -1.124484 0.2578061 3.134854 -1.14544 0.09269851 3.288956 -1.127625 -0.05090928 3.130888 -0.4959183 0.1895768 3.28763 -1.626349 0.1669715 3.021497 -1.666322 0.09224057 3.205742 -1.638862 -0.03380304 3.058047 -1.854296 0.1842819 3.148833 -1.826218 0.1672209 3.003685 -1.825198 -0.03722083 3.004697 -1.855018 -0.03591942 3.209237 -1.700333 -2.710761 3.134526 -1.67336 -2.710224 2.988188 -1.806971 -2.711302 3.033773 -1.676703 -2.314935 3.142729 -1.649635 -2.314398 2.996407 -1.838769 -2.315477 3.031839 -1.710896 -2.189204 3.140748 -1.683922 -2.188665 2.994408 -1.817533 -2.189744 3.039994 -1.715812 1.79483 3.143709 -1.68884 1.795368 2.997371 -1.82245 1.79429 3.042955 -1.74943 -3.023217 3.044525 -1.749643 -3.023222 3.045674 -1.750481 -3.023226 3.044883 -0.2294252 0.1768794 3.877207 -0.2177675 0.1858568 3.476406 0.2070508 0.1473911 3.875125 -0.2049972 -0.1249519 3.852417 -0.1720523 -0.208579 3.408325 0.1421412 -0.1249517 3.852426 0.1092026 -0.2085789 3.408332 -0.03142887 0.3211028 3.887451 -0.03141534 0.3142933 3.49898 -0.2716612 0.065346 3.870208 -0.2165617 -0.1470572 3.835731 0.1677648 -0.1485958 3.878264 0.2186815 0.1477761 3.884514 0.1549694 0.1187147 3.71269 -0.2800473 0.1946318 3.579615 -0.02227401 0.3410764 3.873636 0.2184674 0.08437782 3.681792 -0.03078901 0.3657162 3.639047 0.04755198 -0.1975899 3.815122 -0.0562517 0.147776 3.966681 -0.2447654 0.1649863 3.83546 -0.2634347 0.1521665 3.825613 -0.2616634 0.1174004 3.835785 -0.2583242 0.09878849 3.871061 -0.2182162 0.1002454 3.882742 -0.2093322 0.1470808 3.913146 -0.2212235 0.1980777 3.880861 -0.2892539 0.1599304 3.800116 -0.373184 -0.01596075 3.838927 -0.3689316 0.07304203 3.930551 -0.3349823 0.1607314 3.974714 -0.3620057 0.2896417 3.95034 -0.3755883 0.2080131 3.78351 -0.5015427 0.100286 3.868464 -0.4611997 0.1334161 3.903086 -0.4313253 0.1789271 3.941934 -0.4633682 0.2274104 3.900805 -0.4836285 0.1907092 3.801318 0.3850949 -0.0711978 1.98159 0.1337142 -0.179305 1.981567 0.385095 0.2364804 1.98159 0.1635361 -0.1755896 1.762207 0.3027892 0.01008558 1.659379 0.03216493 -0.1755902 1.658688 0.3574008 0.2092292 1.646808 0.3761712 0.2093281 1.974973 0.1793416 -0.08632922 0.9214357 0.1816734 -0.1548123 1.161518 0.2279763 -0.1439288 1.973702 0.3770144 0.08614838 1.061738 0.007944464 0.08579289 1.049937 0.3425676 0.2128111 0.3338317 0.2094854 0.3108041 0.333534 0.3384056 0.3081502 -0.00262475 0.05793154 0.212562 0.3335749 0.07176584 0.3063319 -0.002620816 0.201595 -0.06984239 0.1126142 0.2040981 -0.05861783 0.3309566 0.3635774 -0.346691 -0.003875076 0.08784282 -0.3757805 -0.003875434 0.4172044 0.3695437 0.2617909 0.01856595 0.3667968 0.2617921 0.2010843 -0.2576154 0.3020749 0.09392988 0.4359598 1.929204 -0.1914052 0.4359513 1.929204 0.1268965 0.4098713 1.532467 0.1934156 0.3749225 0.8550413 -0.03235417 0.3752619 1.960799 -0.1246601 0.3880333 1.960566 -0.445699 -0.07120305 1.981536 -0.1949498 -0.1793061 1.981554 -0.03623068 -0.1381472 1.969486 -0.3426755 -0.1325471 1.665494 -0.231616 -0.1816365 1.749656 -0.1268138 -0.1494649 1.6649 -0.221158 -0.09537249 0.9222126 -0.2137008 -0.1681186 1.158204 -0.2917605 -0.156558 1.973476 -0.4238744 0.08784407 1.058424 -0.07083094 0.08747094 1.04664 -0.4106832 0.2102324 0.3371243 -0.2703583 0.3090035 0.3369104 -0.4124743 0.3206248 -0.005247831 -0.1250132 0.2099841 0.3368809 -0.1424347 0.3186789 -0.005243778 -0.2651645 -0.06215357 0.3343963 -0.2739171 -0.07149767 0.1099911 -0.4379587 -0.3655861 -0.006498396 -0.1587086 -0.3964841 -0.006498098 -0.4666022 0.38134 0.2615911 -0.05877315 0.3785148 0.2615925 -0.28878 -0.2809355 0.3003059 -0.4988944 0.2894641 1.96934 -0.1930773 0.4098626 1.531826 -0.4664877 0.3669196 1.559538 -0.2598983 0.3876569 0.8544797 -0.494113 0.2689782 1.961029</float_array>
          <technique_common>
            <accessor source="#spearman-suebi2_Mesh-mesh-positions-array" count="175" stride="3">
              <param name="X" type="float"/>
              <param name="Y" type="float"/>
              <param name="Z" type="float"/>
            </accessor>
          </technique_common>
        </source>
        <source id="spearman-suebi2_Mesh-mesh-normals">
          <float_array id="spearman-suebi2_Mesh-mesh-normals-array" count="540">0.7954845 0.4189074 0.4378598 -0.1209151 0.888827 0.4420025 -0.3808226 0.9245585 -0.01287919 -0.5766347 -0.8141981 -0.06763112 0.01211601 -0.6801155 0.7330049 -0.3744362 -0.01977622 0.9270418 0.01138377 0.5587215 0.8292773 -0.1457293 0.9882733 -0.0455957 -0.09265571 0.00552392 -0.9956829 0.0218212 0.7217795 -0.691779 -0.1227768 -0.04788386 0.9912785 0.07788389 0.1790537 0.9807517 0.1667261 -0.9062359 -0.3885089 -0.08288943 -0.9928118 -0.0863381 -0.6080606 0.699404 0.3756279 -0.5391927 -0.5575351 0.6312099 -0.4325499 -0.5844444 -0.6865314 -0.4702054 0.5217825 -0.7117934 0.2617892 0.9649091 0.02041697 -0.1914159 0.9808233 0.03668397 0.7155809 0.6944007 0.07583987 -0.6981868 0.7071289 0.1118221 0.1012935 -0.9946546 -0.02005118 0.8688374 -0.4893066 -0.07550328 0.746809 -0.6635217 0.04489398 -0.01718223 -0.9994408 -0.02868795 -0.743753 -0.6674855 0.03598213 -0.07254433 -0.9966689 -0.03726404 1.52593e-4 -0.9977763 -0.06665265 0.4233693 0.5400766 0.727376 0.06943136 -0.6846089 0.7255963 0.5890538 -0.8069618 -0.04275757 0.3878405 0.9216247 0.01370316 0.1464912 0.8650003 0.4799114 -0.01748734 -0.9925977 0.1201835 0.1160021 0.992839 -0.02853506 -0.0225231 0.7189397 -0.6947075 0.09683668 0.009582936 -0.9952542 0.07254326 -0.0463581 0.9962873 -0.0858187 0.1802742 0.9798655 -0.1645874 -0.9034152 -0.3959193 0.06244111 -0.995671 -0.06885004 0.5283861 -0.5576545 0.6401795 0.6016911 0.6994449 0.3856744 0.4818686 0.5221845 -0.703652 0.4440547 -0.584199 -0.6793579 -0.1351095 0.5566439 0.8196909 0.4522594 0.002105772 0.891884 0.05282896 -0.6720053 0.7386596 -0.3923885 0.7034122 0.5926572 -0.8272158 -0.5607854 -0.03512728 0.9136187 0.4029432 -0.05420184 -0.8973088 0.4399715 0.03552484 0.3007398 -0.948243 -0.1019353 0.8992308 -0.3706791 -0.2323381 -0.7638012 -0.6352243 -0.1144465 -0.1254351 -0.9917611 0.02600258 -0.1075193 -0.9939513 0.02237057 0.261947 -0.9641655 -0.04205554 -2.94877e-5 0.9978449 -0.06561803 1.04312e-4 0.9978519 -0.06551152 0.9280464 0.3668666 -0.06433361 -0.6888751 0.723331 0.04736548 -0.1351674 0.990821 0.001922667 0.3283888 0.943904 -0.03473103 -0.04468083 -0.3898283 0.919803 0.05520951 -0.9981053 -0.02716219 -0.9824669 0.1767048 0.05945092 -0.651799 0.517545 -0.5543512 0.6635228 0.5167244 -0.5410484 0.9925287 0.1200605 0.02172929 -0.01721274 -0.9980056 -0.06073302 0.03616553 -0.3684309 0.9289515 0.9866811 0.1567459 0.04348963 0.6453074 0.5314691 -0.5487432 -0.9938685 0.1036106 0.03860598 -0.66687 0.5297483 -0.5240718 0.002441465 0.9743734 0.2249234 0.02581924 0.9823231 0.1854044 -0.5781235 -0.8058571 -0.1279361 0.6919834 -0.7098064 -0.1316581 -0.6895859 -0.7130859 -0.1264113 0.5735127 -0.8100958 -0.1217707 0.3025385 -0.1611422 0.9394167 0.6484755 -0.1684974 -0.7423531 0.7319439 0.1042233 -0.6733468 0.4388114 0.02929884 0.8981015 -0.9742805 -0.09961318 -0.2021256 -0.9749863 0.02517801 -0.2208345 0.5993253 0.07123053 -0.7973303 0.2613328 0.08874875 0.9611603 -0.9721373 0.04785454 -0.229476 0.5415122 0.5586643 -0.6282188 0.2574931 0.5528915 0.7924697 -0.8146092 0.5525743 -0.1762769 0.007776796 -0.9999668 -0.002471029 0.2015175 -0.6644615 0.71964 0.4678894 -0.6557348 -0.5925296 -0.7616114 -0.6257696 -0.168406 -0.9728859 -0.2294637 -0.02897441 -0.9728861 -0.2294644 -0.02896255 -0.5515785 -0.8295499 0.08722466 -0.9833938 -0.1613556 -0.08307361 -0.9095426 0.4079238 -0.07956433 -0.9038471 0.4207637 -0.07757896 0.9863281 -0.09066927 -0.1376085 0.6857484 -0.7228299 0.08524167 0.5515419 -0.8295713 0.08725422 0.9303035 0.3628681 -0.05349934 -0.6857333 -0.7228445 0.08523976 -0.5787336 0.8155008 -0.005096673 -6.10386e-5 0.9999955 -0.003021359 -0.588225 0.8085728 -0.01419132 0 0.9998466 -0.0175181 0.9038311 0.4208316 -0.0773971 0.663639 -0.6731305 0.3263108 -9.4609e-4 -0.4536961 0.891156 -0.08621549 -0.8502834 0.5192158 -0.43935 -0.3173354 0.8403987 0.8682762 0.2941457 0.3994681 0.3640564 -0.9259952 -0.09997892 -0.4820221 0.4040147 -0.777449 -0.8462449 0.5305207 0.04916691 -0.09344923 0.03491371 0.9950118 0.05359059 -0.0642721 0.9964925 0.9644397 0.1985279 0.1744787 0.0812118 0.8782538 0.4712485 -0.01992887 0.9148067 0.4034 0.001556456 0.9945366 0.1043764 0.1808566 -0.9135 0.3644295 -0.8772087 -0.4784469 0.03991889 -0.3597249 -0.4931531 0.7920847 -0.448629 0.1275998 0.8845622 -0.7321535 0.5919182 0.3370226 -0.6512268 0.1912357 -0.7343927 -0.1187818 -0.5985174 0.7922551 -0.07995921 -0.9671707 -0.2412204 0.08175963 -0.1115154 0.9903938 -0.03009146 0.8723788 0.4879034 -0.01004076 0.4346222 -0.9005569 0.9873414 -0.1408438 -0.07293969 -0.01571732 0.9865307 0.1628195 0.9269282 0.3688852 0.06875967 -0.9903109 -0.1348024 -0.03335726 -0.7177562 0.6826589 0.1371238 -0.01522886 0.9849358 0.1722486 -0.9739933 -0.1990774 -0.1081909 -0.92429 0.3815451 0.01055943 0.9976928 -0.06784343 -0.002563536 0.6771289 0.7244031 0.1293708 0.04529041 -0.9953827 0.08462965 0.08624738 -0.9951106 -0.04812884 -0.7683292 0.6394757 -0.0272234 0.8075017 0.5841028 0.08224862 -0.04956281 -0.9944611 -0.09268611 0.06576842 -0.9884192 0.1367557 -0.02026432 -0.9969812 -0.07495361 -0.1168867 -0.9785528 0.1696231 0.7866926 0.6171586 -0.01516801 -0.7958597 0.5969635 0.101203 0.1290349 -0.9872329 -0.09338849 0.02740585 -0.9860326 0.1642827 -0.1592494 -0.1242133 -0.9793931 -0.3642123 0.001770079 -0.9313143 -0.05783396 0.01968491 -0.9981321 -0.07272773 -0.1544587 -0.9853188 0.1937953 0.03314352 -0.9804821 0.01394718 -0.1252809 -0.9920233 -0.1578746 0.1253108 -0.9794759 -0.02618497 0.1001011 -0.9946327 -0.07280457 3.92082e-7 -0.9973462 0.1592494 0.1242133 0.9793931 0.07272773 0.1544587 0.9853188 0.05783396 -0.01968491 0.9981321 0.3642123 -0.001770079 0.9313143 -0.01394718 0.1252809 0.9920233 -0.1937953 -0.03314352 0.9804821 0.02618497 -0.1001011 0.9946327 0.1578746 -0.1253108 0.9794759 0.07280325 -2.00822e-7 0.9973464</float_array>
          <technique_common>
            <accessor source="#spearman-suebi2_Mesh-mesh-normals-array" count="180" stride="3">
              <param name="X" type="float"/>
              <param name="Y" type="float"/>
              <param name="Z" type="float"/>
            </accessor>
          </technique_common>
        </source>
        <source id="spearman-suebi2_Mesh-mesh-map-0">
          <float_array id="spearman-suebi2_Mesh-mesh-map-0-array" count="1602">0.5597583 0.9856823 0.4793164 0.9953053 0.5273328 0.9175855 0.349862 0.914758 0.4408116 0.9939712 0.3528354 0.9848089 0.4408116 0.9939712 0.4407889 0.997919 0.3528354 0.9848089 0.1989875 0.7144995 0.2023539 0.7419338 0.08237183 0.7159377 0.2018691 0.6275925 0.1989875 0.7144995 0.07923507 0.6538103 0.07923507 0.6538103 0.1989875 0.7144995 0.08237183 0.7159377 0.07701951 0.6487721 0.2052597 0.6301583 0.07638472 0.6520389 0.2006239 0.6706075 0.07638472 0.6520389 0.2052597 0.6301583 0.07597678 0.6931743 0.07638472 0.6520389 0.2006239 0.6706075 0.07597678 0.6931743 0.2006239 0.6706075 0.203934 0.7371338 0.07923507 0.6538103 0.01050788 0.6639522 0.01410794 0.6475597 0.07923507 0.6538103 0.08237183 0.7159377 0.01050788 0.6639522 0.07638472 0.6520389 0.0110799 0.6459832 0.01067924 0.6457561 0.009789049 0.6865168 0.01067924 0.6457561 0.0110799 0.6459832 0.8526882 0.6050003 0.8109205 0.605396 0.8905958 0.5193652 0.7630516 0.5204154 0.8905958 0.5193652 0.8109205 0.605396 0.8409138 0.9127894 0.8869598 0.9113628 0.8742184 0.9896857 0.8057761 0.9904196 0.7479854 0.9910393 0.782023 0.9133446 0.782023 0.9133446 0.8104438 0.9107279 0.8057761 0.9904196 0.01067924 0.6457561 0.07701951 0.6487721 0.07638472 0.6520389 0.0130847 0.702966 0.07638472 0.6520389 0.07597678 0.6931743 0.0130847 0.702966 0.0110799 0.6459832 0.07638472 0.6520389 0.08237183 0.7159377 0.01458972 0.7102978 0.01050788 0.6639522 0.5660616 0.9930778 0.5572413 0.9251297 0.4920273 0.970242 0.5083963 0.9892278 0.5472367 0.9483078 0.5118892 0.9201188 0.516179 0.9904432 0.5660616 0.9930778 0.4920273 0.970242 0.3698564 0.8014326 0.3707723 0.7998941 0.3650952 0.9109498 0.5050687 0.9216295 0.5054681 0.7934387 0.5079759 0.919904 0.5287067 0.8047123 0.5295862 0.8062627 0.5266863 0.9154531 0.5416733 0.9232971 0.5412077 0.7972379 0.5447657 0.9271696 0.4917529 0.9763417 0.3864568 0.9751436 0.3477251 0.9192484 0.3477251 0.9192484 0.5365251 0.9190399 0.4917529 0.9763417 0.7244377 0.7987703 0.7272562 0.9269611 0.5447657 0.9271696 0.7244377 0.7987703 0.5447657 0.9271696 0.5412077 0.7972379 0.349862 0.914758 0.4364399 0.9150983 0.4408116 0.9939712 0.3555392 0.8037024 0.4364399 0.9150983 0.349862 0.914758 0.4348169 0.8041648 0.5287067 0.8047123 0.4364399 0.9150983 0.4364399 0.9150983 0.3555392 0.8037024 0.4348169 0.8041648 0.009789049 0.6865168 0.0110799 0.6459832 0.0130847 0.702966 0.2000012 0.6290237 0.1972358 0.7159762 0.3350644 0.638512 0.3350644 0.638512 0.1972358 0.7159762 0.3331665 0.7330785 0.3331665 0.7330785 0.1972358 0.7159762 0.201044 0.743152 0.349862 0.914758 0.3413522 0.8392953 0.3524666 0.9162881 0.2025164 0.7424302 0.199155 0.7150114 0.3364503 0.7339022 0.3349934 0.631033 0.2000012 0.6290237 0.3350644 0.638512 0.342805 0.6307464 0.3364503 0.7339022 0.199155 0.7150114 0.199155 0.7150114 0.2020595 0.6281745 0.342805 0.6307464 0.1992301 0.7138839 0.07551908 0.7202617 0.2026966 0.7413442 0.201949 0.6268506 0.07680743 0.6551651 0.1992301 0.7138839 0.07680743 0.6551651 0.07551908 0.7202617 0.1992301 0.7138839 0.07454663 0.6499754 0.07397228 0.6532519 0.2043182 0.6361444 0.2001935 0.67682 0.2043182 0.6361444 0.07397228 0.6532519 0.06897515 0.6970795 0.2001935 0.67682 0.07397228 0.6532519 0.06897515 0.6970795 0.2043423 0.7434545 0.2001935 0.67682 0.07680743 0.6551651 0.006174445 0.6529972 0.002846181 0.6694165 0.07680743 0.6551651 0.002846181 0.6694165 0.07551908 0.7202617 0.07397228 0.6532519 0.002855122 0.6508012 0.003214061 0.6509671 0.002716124 0.6914975 0.003214061 0.6509671 0.002855122 0.6508012 0.002855122 0.6508012 0.07397228 0.6532519 0.07454663 0.6499754 0.006348133 0.7078595 0.06897515 0.6970795 0.07397228 0.6532519 0.006348133 0.7078595 0.07397228 0.6532519 0.003214061 0.6509671 0.07551908 0.7202617 0.002846181 0.6694165 0.007686138 0.7156808 0.5628559 0.9924839 0.4908851 0.969731 0.5540056 0.9244534 0.5078308 0.9908815 0.5107025 0.9212751 0.5466987 0.9499662 0.3858245 0.8866165 0.3443601 0.8223292 0.3448549 0.8951197 0.002716124 0.6914975 0.006348133 0.7078595 0.003214061 0.6509671 0.2019647 0.627495 0.3383103 0.6394522 0.1987754 0.7146477 0.3383103 0.6394522 0.333609 0.7335023 0.1987754 0.7146477 0.333609 0.7335023 0.2024263 0.7418961 0.1987754 0.7146477 0.5266863 0.9154531 0.5238038 0.9187698 0.5405753 0.8428529 0.2028591 0.7426038 0.3365653 0.7351959 0.1993976 0.7151828 0.3383797 0.6319649 0.3383103 0.6394522 0.2019647 0.627495 0.339439 0.6322512 0.1993976 0.7151828 0.3365653 0.7351959 0.1993976 0.7151828 0.339439 0.6322512 0.2021394 0.6283275 0.5266863 0.9154531 0.5179625 0.9866101 0.4408116 0.9939712 0.4408116 0.9939712 0.5179625 0.9866101 0.4407889 0.997919 0.5575126 0.9845799 0.5245909 0.9196579 0.481835 0.9946882 0.7370929 0.913767 0.782023 0.9133446 0.7479854 0.9910393 0.8875083 0.910829 0.9443458 0.9105874 0.8762056 0.9873593 0.8762056 0.9873593 0.9443458 0.9105874 0.9613639 0.9897606 0.9627411 0.9893473 0.944368 0.910537 0.8775572 0.9885597 0.8775572 0.9885597 0.944368 0.910537 0.8875317 0.9110106 0.8109205 0.605396 0.7540708 0.599465 0.7630516 0.5204154 0.9581019 0.9903662 0.9447756 0.9108389 0.9960095 0.9047312 0.5287067 0.8047123 0.5266863 0.9154531 0.4364399 0.9150983 0.4364399 0.9150983 0.5266863 0.9154531 0.4408116 0.9939712 0.4189563 0.9552903 0.4815527 0.9275406 0.5093415 0.9491072 0.5093415 0.9491072 0.5098779 0.9702908 0.4189563 0.9552903 0.3971442 0.9251089 0.4815527 0.9275406 0.4189563 0.9552903 0.3586735 0.9651518 0.3627541 0.9494427 0.3971442 0.9251089 0.3971442 0.9251089 0.4189563 0.9552903 0.3586735 0.9651518 0.8869598 0.9113628 0.8409138 0.9127894 0.8459144 0.8700692 0.8459144 0.8700692 0.8707052 0.849831 0.8869598 0.9113628 0.782023 0.9133446 0.7370929 0.913767 0.755059 0.8521161 0.755059 0.8521161 0.7750903 0.8682987 0.782023 0.9133446 0.8409138 0.9127894 0.8104438 0.9107279 0.8222129 0.8501558 0.8222129 0.8501558 0.8459144 0.8700692 0.8409138 0.9127894 0.8104438 0.9107279 0.782023 0.9133446 0.7750903 0.8682987 0.7750903 0.8682987 0.7937366 0.851634 0.8104438 0.9107279 0.8109205 0.605396 0.8526882 0.6050003 0.8580207 0.6680001 0.8580207 0.6680001 0.7993955 0.6685661 0.8109205 0.605396 0.9450337 0.9104996 0.8871863 0.9107363 0.9033705 0.8465688 0.9033705 0.8465688 0.9422321 0.8444462 0.9450337 0.9104996 0.8870584 0.9114276 0.9449121 0.9109333 0.9061574 0.8468785 0.9061574 0.8468785 0.8738952 0.850834 0.8870584 0.9114276 0.7540708 0.599465 0.8109205 0.605396 0.7993955 0.6685661 0.7993955 0.6685661 0.7593382 0.6645414 0.7540708 0.599465 0.9960095 0.9047312 0.9447756 0.9108389 0.9502024 0.846519 0.9502024 0.846519 0.9906771 0.8417313 0.9960095 0.9047312 0.8409138 0.9127894 0.8742184 0.9896857 0.8057761 0.9904196 0.8057761 0.9904196 0.8104438 0.9107279 0.8409138 0.9127894 0.6876428 0.7606398 0.6875376 0.7172316 0.7233434 0.7029173 0.7206428 0.7869629 0.6876428 0.7606398 0.7233434 0.7029173 0.6503598 0.7858662 0.642892 0.7024697 0.6875376 0.7172316 0.6875376 0.7172316 0.6876428 0.7606398 0.6503598 0.7858662 0.6848214 0.7179541 0.6822784 0.7622822 0.7217432 0.7038542 0.6822784 0.7622822 0.7149635 0.7889338 0.7217432 0.7038542 0.6448102 0.7029061 0.644058 0.7871873 0.6848214 0.7179541 0.6822784 0.7622822 0.6848214 0.7179541 0.644058 0.7871873 0.7209712 0.7896822 0.6500892 0.7886013 0.6854246 0.7091824 0.646672 0.7869821 0.716978 0.7887362 0.6850122 0.7086114 0.643016 0.7028334 0.646672 0.7869821 0.6850122 0.7086114 0.6850122 0.7086114 0.716978 0.7887362 0.7234382 0.7037646 0.6854246 0.7091824 0.6500892 0.7886013 0.6470474 0.703613 0.7240116 0.7040984 0.7209712 0.7896822 0.6854246 0.7091824 0.7206428 0.7869629 0.7178232 0.7873464 0.6876428 0.7606398 0.677509 0.7827109 0.6826945 0.7750828 0.6806377 0.7851337 0.6845844 0.7620809 0.6422405 0.7873451 0.646672 0.7869821 0.6863984 0.7786588 0.7077404 0.7879065 0.6646803 0.7859948 0.7149635 0.7889338 0.6822784 0.7622822 0.7121012 0.7892782 0.6500892 0.7886013 0.6456116 0.7890278 0.68768 0.7633667 0.7209712 0.7896822 0.7181172 0.7900665 0.6456116 0.7890278 0.6456116 0.7890278 0.6500892 0.7886013 0.7209712 0.7896822 0.716978 0.7887362 0.646672 0.7869821 0.6422405 0.7873451 0.6422405 0.7873451 0.7141504 0.7890802 0.716978 0.7887362 0.4456641 0.7596992 0.4456169 0.7596632 0.410741 0.755014 0.410741 0.755014 0.4107881 0.7550661 0.4456641 0.7596992 0.4456322 0.7815917 0.4456324 0.760752 0.410718 0.755988 0.410718 0.755988 0.4107612 0.7863721 0.4456322 0.7815917 0.4456384 0.7805028 0.4456641 0.7596992 0.4107881 0.7550661 0.4107881 0.7550661 0.410729 0.7853981 0.4456384 0.7805028 0.4107881 0.7550661 0.410741 0.755014 0.3996379 0.7606342 0.3996379 0.7606342 0.399685 0.7606702 0.4107881 0.7550661 0.4107612 0.7863721 0.410718 0.755988 0.3996525 0.759954 0.3996525 0.759954 0.3996523 0.7807936 0.4107612 0.7863721 0.410729 0.7853981 0.4107881 0.7550661 0.399685 0.7606702 0.399685 0.7606702 0.3996593 0.7814738 0.410729 0.7853981 0.3888966 0.786068 0.3399223 0.7860569 0.3399223 0.7536529 0.3399223 0.7536529 0.3888966 0.753664 0.3888966 0.786068 0.3399223 0.7860569 0.3399223 0.7860791 0.3399223 0.7536749 0.3399223 0.7536749 0.3399223 0.7536529 0.3399223 0.7860569 0.3399223 0.7860791 0.3888966 0.786068 0.3888966 0.753664 0.3888966 0.753664 0.3399223 0.7536749 0.3399223 0.7860791 0.4731714 0.7700262 0.4731714 0.77019 0.4731718 0.7701897 0.3888966 0.753664 0.3399223 0.7536529 0.3399223 0.7536749 0.4456169 0.7596632 0.4456641 0.7596992 0.4731681 0.7709617 0.4731681 0.7709617 0.4731677 0.7709613 0.4456169 0.7596632 0.4456641 0.7596992 0.4456384 0.7805028 0.4731678 0.771125 0.4731678 0.771125 0.4731681 0.7709617 0.4456641 0.7596992 0.4456324 0.760752 0.4456322 0.7815917 0.4731714 0.77019 0.4731714 0.77019 0.4731714 0.7700262 0.4456324 0.760752 0.1542485 0.9919891 0.09088563 0.9916849 0.08459341 0.9634358 0.08459341 0.9634358 0.1654443 0.7547937 0.1542485 0.9919891 0.1654443 0.7547937 0.08459341 0.9634358 0.07726031 0.9564232 0.07726031 0.9564232 0.07764977 0.7546082 0.1654443 0.7547937 0.07764977 0.7546082 0.07712143 0.9916188 0.1654443 0.7547937 0.1542485 0.9919891 0.1654443 0.7547937 0.07712143 0.9916188 0.1595788 0.7549402 0.3066614 0.7549402 0.1427752 0.99023 0.1427752 0.99023 0.3066614 0.7549402 0.3238439 0.9902299 0.07764977 0.7546082 0.07726031 0.9564232 0.07022529 0.960927 0.07022529 0.960927 0.01094526 0.7545003 0.07764977 0.7546082 0.01094526 0.7545003 0.07022529 0.960927 0.06660181 0.9917518 0.06660181 0.9917518 0.0151515 0.9924025 0.01094526 0.7545003 0.01094526 0.7545003 0.0151515 0.9924025 0.07712143 0.9916188 0.07712143 0.9916188 0.07764977 0.7546082 0.01094526 0.7545003 0.01126521 0.9337648 0.1940388 0.93822 0.168461 0.9288495 0.168461 0.9288495 0.01259475 0.9025279 0.01126521 0.9337648 0.1680306 0.9567627 0.3131199 0.9769948 0.1478732 0.981173 0.3009938 0.9888644 0.1998515 0.9630035 0.162818 0.9631713 0.162818 0.9631713 0.07450759 0.9902329 0.3009938 0.9888644 0.2263973 0.995777 0.2283009 0.9607747 0.1940388 0.93822 0.1940388 0.93822 0.01126521 0.9337648 0.2263973 0.995777 0.1458322 0.9808586 0.1529726 0.9874662 0.1799615 0.9579179 0.1572086 0.9903044 0.0520938 0.9865839 0.01427763 0.9634357 0.01427763 0.9634357 0.01419419 0.9241061 0.1572086 0.9903044 0.07450759 0.9902329 0.162818 0.9631713 0.1657034 0.9555428 0.1657034 0.9555428 0.08879333 0.9427313 0.07450759 0.9902329 0.07450759 0.9902329 0.08879333 0.9427313 0.0128594 0.9685685 0.1680306 0.9567627 0.1586225 0.9874699 0.07039839 0.9455247 0.1586225 0.9874699 0.01111829 0.9746391 0.07039839 0.9455247 0.3183577 0.9956282 0.3134224 0.9839314 0.3009938 0.9888644 0.3246322 0.9884746 0.1478732 0.981173 0.3131199 0.9769948 0.2272971 0.9402988 0.2251337 0.9963323 0.009582877 0.9357078 0.01345252 0.9839196 0.1555148 0.9906712 0.0129258 0.9235619 0.1697866 0.9840505 0.1669638 0.9661048 0.1604859 0.9440792 0.1697866 0.9840505 0.1604859 0.9440792 0.1289634 0.9454839 0.1697866 0.9840505 0.1289634 0.9454839 0.1138485 0.9837889 0.179414 0.9595226 0.1900898 0.9363737 0.231842 0.977967 0.231842 0.977967 0.170096 0.9891136 0.179414 0.9595226 0.08600646 0.9366371 0.08836644 0.9545307 0.1501458 0.9460383 0.1501458 0.9460383 0.1539763 0.9106854 0.08600646 0.9366371 0.08836644 0.9545307 0.1012095 0.971709 0.1811641 0.9897863 0.1811641 0.9897863 0.1501458 0.9460383 0.08836644 0.9545307 0.01276707 0.9136605 0.02620738 0.9521505 0.06146764 0.9717181 0.06146764 0.9717181 0.09073543 0.9126442 0.01276707 0.9136605 0.1676416 0.9148558 0.1779442 0.9601407 0.1691076 0.9883669 0.1691076 0.9883669 0.1186089 0.9130749 0.1676416 0.9148558 0.2485255 0.9784527 0.1942067 0.9616852 0.1688075 0.9638963 0.1688075 0.9638963 0.1712093 0.984505 0.2485255 0.9784527 0.1539763 0.9106854 0.1501458 0.9460383 0.1802029 0.9585901 0.1802029 0.9585901 0.1880289 0.9389321 0.1539763 0.9106854 0.1501458 0.9460383 0.1811641 0.9897863 0.2206927 0.9564377 0.2206927 0.9564377 0.1802029 0.9585901 0.1501458 0.9460383 0.09073543 0.9126442 0.06146764 0.9717181 0.1137742 0.983047 0.1137742 0.983047 0.1257652 0.9458605 0.09073543 0.9126442 0.1186089 0.9130749 0.1691076 0.9883669 0.08632957 0.9705919 0.08632957 0.9705919 0.07434648 0.9370298 0.1186089 0.9130749 0.9190115 0.7538906 0.96197 0.7515857 0.9439094 0.9102138 0.8360171 0.6878929 0.7930158 0.6886389 0.8374363 0.8450497 0.9606729 0.7533798 0.9160571 0.7558013 0.9442152 0.9106562 0.7966685 0.6854318 0.8413722 0.6861029 0.8400673 0.8432212 0.8532631 0.6758977 0.8480396 0.8282717 0.814251 0.8531569 0.7538441 0.6669857 0.8532631 0.6758977 0.814251 0.8531569 0.9830316 0.5664973 0.9190115 0.7538906 0.8856111 0.7261034 0.8856111 0.7261034 0.8830354 0.5736612 0.9830316 0.5664973 0.8818539 0.7292563 0.8689059 0.7764171 0.9156426 0.7541415 0.9190115 0.7538906 0.8718459 0.7730304 0.8856111 0.7261034 0.7495732 0.8457439 0.8374363 0.8450497 0.7930158 0.6886389 0.9156426 0.7541415 0.8689059 0.7764171 0.8722 0.9112464 0.9190115 0.7538906 0.9439094 0.9102138 0.8727973 0.9078969 0.8718459 0.7730304 0.9190115 0.7538906 0.8727973 0.9078969 0.8460405 0.8244543 0.8505707 0.6722869 0.8105982 0.8499498 0.8505707 0.6722869 0.7454322 0.6654818 0.8105982 0.8499498 0.9160571 0.7558013 0.9783661 0.567906 0.8800847 0.7286224 0.8729117 0.5765579 0.8800847 0.7286224 0.9783661 0.567906 0.8692563 0.7723582 0.883853 0.7254388 0.9192953 0.7509344 0.866305 0.7757906 0.9160571 0.7558013 0.8800847 0.7286224 0.8400673 0.8432212 0.7477078 0.8423286 0.7966685 0.6854318 0.8692563 0.7723582 0.9192953 0.7509344 0.8703346 0.9078311 0.9442152 0.9106562 0.9160571 0.7558013 0.8697364 0.9112239 0.9160571 0.7558013 0.866305 0.7757906 0.8697364 0.9112239 0.9844613 0.5664663 0.9849115 0.56647 0.963999 0.7516054 0.9764871 0.5679661 0.9760494 0.5679703 0.9586439 0.7533954 0.9190115 0.7538906 0.9830316 0.5664973 0.96197 0.7515857 0.7712497 0.8524109 0.7538441 0.6669857 0.814251 0.8531569 0.9606729 0.7533798 0.9783661 0.567906 0.9160571 0.7558013 0.8105982 0.8499498 0.7454322 0.6654818 0.7658945 0.8506208 0.9620976 0.9104971 0.9606729 0.7533798 0.9442152 0.9106562 0.9439094 0.9102138 0.96197 0.7515857 0.960659 0.9087433 0.3463727 0.8971083 0.3477387 0.821698 0.3871279 0.8872529 0.5143184 0.991225 0.4908851 0.969731 0.5628559 0.9924839 0.6882103 0.03139686 0.7092822 0.205008 0.6439092 0.2050079 0.6439092 0.2050079 0.6439092 0.03139686 0.6882103 0.03139686 0.6439092 0.2050079 0.578536 0.205008 0.5996081 0.0313968 0.5996081 0.0313968 0.6439092 0.03139686 0.6439092 0.2050079 0.6439092 0.2050079 0.7092822 0.205008 0.6882103 0.3786191 0.6882103 0.3786191 0.6439093 0.3786191 0.6439092 0.2050079 0.6439093 0.3786191 0.5996081 0.3786191 0.578536 0.205008 0.578536 0.205008 0.6439092 0.2050079 0.6439093 0.3786191 0.8500558 0.005467236 0.9086037 0.005467236 0.9086037 0.2507125 0.9086037 0.2507125 0.8222073 0.2507125 0.8500558 0.005467236 0.9086037 0.2507125 0.9086037 0.005467236 0.9671517 0.005467236 0.9671517 0.005467236 0.9950003 0.2507125 0.9086037 0.2507125 0.9086037 0.2507125 0.9086037 0.4959579 0.8500557 0.4959579 0.8500557 0.4959579 0.8222073 0.2507125 0.9086037 0.2507125 0.9086037 0.4959579 0.9086037 0.2507125 0.9950003 0.2507125 0.9950003 0.2507125 0.9671518 0.4959579 0.9086037 0.4959579</float_array>
          <technique_common>
            <accessor source="#spearman-suebi2_Mesh-mesh-map-0-array" count="801" stride="2">
              <param name="S" type="float"/>
              <param name="T" type="float"/>
            </accessor>
          </technique_common>
        </source>
        <vertices id="spearman-suebi2_Mesh-mesh-vertices">
          <input semantic="POSITION" source="#spearman-suebi2_Mesh-mesh-positions"/>
        </vertices>
        <triangles material="spearman-suebi2_Mat-material" count="267">
          <input semantic="VERTEX" source="#spearman-suebi2_Mesh-mesh-vertices" offset="0"/>
          <input semantic="NORMAL" source="#spearman-suebi2_Mesh-mesh-normals" offset="1"/>
          <input semantic="TEXCOORD" source="#spearman-suebi2_Mesh-mesh-map-0" offset="2" set="0"/>
          <p>15 0 0 16 1 1 6 2 2 8 3 3 9 4 4 7 5 5 9 4 6 5 6 7 7 5 8 52 7 9 51 8 10 56 9 11 53 10 12 52 7 13 57 11 14 57 11 15 52 7 16 56 9 17 56 9 18 51 8 19 58 12 20 54 13 21 58 12 22 51 8 23 57 11 24 58 12 25 54 13 26 57 11 27 54 13 28 53 10 29 57 11 30 59 14 31 62 15 32 57 11 33 56 9 34 59 14 35 58 12 36 61 16 37 60 17 38 59 14 39 60 17 40 61 16 41 141 18 42 142 19 43 1 20 44 0 21 45 1 20 46 142 19 47 117 22 48 116 23 49 3 24 50 4 25 51 2 26 52 148 27 53 148 27 54 149 28 55 4 25 56 60 17 57 56 9 58 58 12 59 62 15 60 58 12 61 57 11 62 62 15 63 61 16 64 58 12 65 56 9 66 60 17 67 59 14 68 55 29 69 50 30 70 7 5 71 7 5 72 50 30 73 8 3 74 15 0 75 55 29 76 7 5 77 0 21 78 2 26 79 8 3 80 6 2 81 0 21 82 8 3 83 3 24 84 1 20 85 11 31 86 11 31 87 1 20 88 10 32 89 16 1 90 17 33 91 10 32 92 10 32 93 6 2 94 16 1 95 0 21 96 6 2 97 10 32 98 0 21 99 10 32 100 1 20 101 8 3 102 14 34 103 9 4 104 2 26 105 14 34 106 8 3 107 4 25 108 3 24 109 14 34 110 14 34 111 2 26 112 4 25 113 59 14 114 61 16 115 62 15 116 53 10 117 54 13 118 50 30 119 50 30 120 54 13 121 8 3 122 8 3 123 54 13 124 51 8 125 8 3 126 51 8 127 6 2 128 51 8 129 52 7 130 6 2 131 55 29 132 53 10 133 50 30 134 55 29 135 6 2 136 52 7 137 52 7 138 53 10 139 55 29 140 20 35 141 25 36 142 21 37 143 22 38 144 26 39 145 20 35 146 26 39 147 25 36 148 20 35 149 25 36 150 27 40 151 21 37 152 23 41 153 21 37 154 27 40 155 26 39 156 23 41 157 27 40 158 26 39 159 22 38 160 23 41 161 26 39 162 29 42 163 28 43 164 26 39 165 28 43 166 25 36 167 27 40 168 31 44 169 30 45 170 28 43 171 30 45 172 31 44 173 31 44 174 27 40 175 25 36 176 29 42 177 26 39 178 27 40 179 29 42 180 27 40 181 30 45 182 25 36 183 28 43 184 31 44 185 12 46 186 13 47 187 24 48 188 13 47 189 11 31 190 24 48 191 12 46 192 10 32 193 18 49 194 28 43 195 29 42 196 30 45 197 22 38 198 24 48 199 23 41 200 24 48 201 11 31 202 23 41 203 11 31 204 21 37 205 23 41 206 11 31 207 10 32 208 21 37 209 21 37 210 10 32 211 20 35 212 12 46 213 24 48 214 22 38 215 12 46 216 20 35 217 10 32 218 20 35 219 12 46 220 22 38 221 11 31 222 13 47 223 9 4 224 9 4 225 13 47 226 5 6 227 18 49 228 10 32 229 17 33 230 147 50 231 148 27 232 2 26 233 116 23 234 118 51 235 3 24 236 3 24 237 118 51 238 1 20 239 0 21 240 170 52 241 2 26 242 2 26 243 170 52 244 147 50 245 142 19 246 170 52 247 0 21 248 1 20 249 118 51 250 141 18 251 3 24 252 11 31 253 14 34 254 14 34 255 11 31 256 9 4 257 5 6 258 16 1 259 15 0 260 15 0 261 7 5 262 5 6 263 17 33 264 16 1 265 5 6 266 13 47 267 18 49 268 17 33 269 17 33 270 5 6 271 13 47 272 116 23 273 117 22 274 119 53 275 119 53 276 120 54 277 116 23 278 148 27 279 147 50 280 150 55 281 150 55 282 151 56 283 148 27 284 117 22 285 149 28 286 121 57 287 121 57 288 119 53 289 117 22 290 149 28 291 148 27 292 151 56 293 151 56 294 152 58 295 149 28 296 142 59 297 141 59 298 143 59 299 143 60 300 171 60 301 142 60 302 118 51 303 116 23 304 120 54 305 120 54 306 122 61 307 118 51 308 147 50 309 170 52 310 172 62 311 172 62 312 150 55 313 147 50 314 170 52 315 142 19 316 171 63 317 171 63 318 172 62 319 170 52 320 141 18 321 118 51 322 122 61 323 122 61 324 143 64 325 141 18 326 117 22 327 3 24 328 4 25 329 4 25 330 149 28 331 117 22 332 134 65 333 135 66 334 132 67 335 133 68 336 134 65 337 132 67 338 131 69 339 129 70 340 135 66 341 135 66 342 134 65 343 131 69 344 163 71 345 164 72 346 161 73 347 164 72 348 162 74 349 161 73 350 158 75 351 160 76 352 163 71 353 164 72 354 163 71 355 160 76 356 162 74 357 160 76 358 159 77 359 131 69 360 133 68 361 130 78 362 129 70 363 131 69 364 130 78 365 130 78 366 133 68 367 132 67 368 159 77 369 160 76 370 158 75 371 161 73 372 162 74 373 159 77 374 133 68 375 137 79 376 134 65 377 136 80 378 134 65 379 137 79 380 134 65 381 136 80 382 131 69 383 165 81 384 166 82 385 164 72 386 162 74 387 164 72 388 166 82 389 160 76 390 165 81 391 164 72 392 162 74 393 166 82 394 165 81 395 165 81 396 160 76 397 162 74 398 133 68 399 131 69 400 136 80 401 136 80 402 137 79 403 133 68 404 63 83 405 64 84 406 67 85 407 67 85 408 66 86 409 63 83 410 64 84 411 65 87 412 68 88 413 68 88 414 67 85 415 64 84 416 65 87 417 63 83 418 66 86 419 66 86 420 68 88 421 65 87 422 66 86 423 67 85 424 70 89 425 70 89 426 69 90 427 66 86 428 67 85 429 68 88 430 71 91 431 71 91 432 70 89 433 67 85 434 68 88 435 66 86 436 69 90 437 69 90 438 71 91 439 68 88 440 69 90 441 70 89 442 73 92 443 73 92 444 72 93 445 69 90 446 70 89 447 71 91 448 74 94 449 74 94 450 73 92 451 70 89 452 71 91 453 69 90 454 72 93 455 72 93 456 74 94 457 71 91 458 77 95 459 75 95 460 76 95 461 72 93 462 73 92 463 74 94 464 64 84 465 63 83 466 76 96 467 76 96 468 75 97 469 64 84 470 63 83 471 65 87 472 77 98 473 77 98 474 76 96 475 63 83 476 65 87 477 64 84 478 75 97 479 75 97 480 77 98 481 65 87 482 81 99 483 101 99 484 100 99 485 100 100 486 82 100 487 81 100 488 82 101 489 100 102 490 99 103 491 99 103 492 79 104 493 82 101 494 19 105 495 80 105 496 84 105 497 83 106 498 84 107 499 80 108 500 82 101 501 84 107 502 81 109 503 81 109 504 84 107 505 83 106 506 79 104 507 99 103 508 98 110 509 98 110 510 86 111 511 79 104 512 86 111 513 98 110 514 78 112 515 78 112 516 85 113 517 86 111 518 86 111 519 85 113 520 80 108 521 80 108 522 19 114 523 86 111 524 89 115 525 102 116 526 87 117 527 87 117 528 88 118 529 89 115 530 90 119 531 89 115 532 91 120 533 88 118 534 87 117 535 105 121 536 105 121 537 92 122 538 88 118 539 97 123 540 103 124 541 102 116 542 102 116 543 89 115 544 97 123 545 91 120 546 94 125 547 90 119 548 93 126 549 104 127 550 103 124 551 103 124 552 97 123 553 93 126 554 92 122 555 105 121 556 104 127 557 104 127 558 93 126 559 92 122 560 92 122 561 93 126 562 95 128 563 90 119 564 94 125 565 93 126 566 94 125 567 95 128 568 93 126 569 96 129 570 89 115 571 88 118 572 96 129 573 91 120 574 89 115 575 90 119 576 97 123 577 89 115 578 90 119 579 93 126 580 97 123 581 111 130 582 112 131 583 113 132 584 111 130 585 113 132 586 114 133 587 111 130 588 114 133 589 115 134 590 87 117 591 102 116 592 107 135 593 107 135 594 106 136 595 87 117 596 102 116 597 103 124 598 108 137 599 108 137 600 107 135 601 102 116 602 103 124 603 104 127 604 109 138 605 109 138 606 108 137 607 103 124 608 104 127 609 105 121 610 110 139 611 110 139 612 109 138 613 104 127 614 105 121 615 87 117 616 106 136 617 106 136 618 110 139 619 105 121 620 106 136 621 107 135 622 112 131 623 112 131 624 111 130 625 106 136 626 107 135 627 108 137 628 113 132 629 113 132 630 112 131 631 107 135 632 108 137 633 109 138 634 114 133 635 114 133 636 113 132 637 108 137 638 109 138 639 110 139 640 115 134 641 115 134 642 114 133 643 109 138 644 110 139 645 106 136 646 111 130 647 111 130 648 115 134 649 110 139 650 127 140 651 144 141 652 123 142 653 144 141 654 128 143 655 145 144 656 173 145 657 156 146 658 174 147 659 157 148 660 173 145 661 146 149 662 140 150 663 124 151 664 128 143 665 139 152 666 140 150 667 128 143 668 138 153 669 127 140 670 124 151 671 124 151 672 140 150 673 138 153 674 124 151 675 125 154 676 128 143 677 127 140 678 125 154 679 124 151 680 126 155 681 145 144 682 128 143 683 128 143 684 125 154 685 126 155 686 127 140 687 123 142 688 126 155 689 125 154 690 127 140 691 126 155 692 153 156 693 169 157 694 157 148 695 169 157 696 168 158 697 157 148 698 156 146 699 167 159 700 153 156 701 169 157 702 153 156 703 167 159 704 154 160 705 153 156 706 157 148 707 154 160 708 156 146 709 153 156 710 146 149 711 155 161 712 157 148 713 154 160 714 157 148 715 155 161 716 174 147 717 156 146 718 155 161 719 156 146 720 154 160 721 155 161 722 168 158 723 167 159 724 173 145 725 138 153 726 139 152 727 144 141 728 127 140 729 138 153 730 144 141 731 144 141 732 139 152 733 128 143 734 173 145 735 167 159 736 156 146 737 157 148 738 168 158 739 173 145 740 146 149 741 173 145 742 174 147 743 123 142 744 144 141 745 145 144 746 15 0 747 6 2 748 55 29 749 18 49 750 13 47 751 12 46 752 32 162 753 35 163 754 36 164 755 36 164 756 33 165 757 32 162 758 36 164 759 37 166 760 34 167 761 34 167 762 33 165 763 36 164 764 36 164 765 35 163 766 38 168 767 38 168 768 39 169 769 36 164 770 39 170 771 40 170 772 37 170 773 37 166 774 36 164 775 39 169 776 41 171 777 42 172 778 45 173 779 45 173 780 44 174 781 41 171 782 45 173 783 42 172 784 43 175 785 43 175 786 46 176 787 45 173 788 45 173 789 48 177 790 47 178 791 47 178 792 44 174 793 45 173 794 48 177 795 45 173 796 46 176 797 46 179 798 49 179 799 48 179 800</p>
        </triangles>
      </mesh>
    </geometry>
  </library_geometries>
  <library_controllers>
    <controller id="egypt_agema_Skin_spearman-suebi2-skin" name="egypt_agema_Skin">
      <skin source="#spearman-suebi2_Mesh-mesh">
        <bind_shape_matrix>1 0 0 0 0 1 0 0 0 0 1 0 0 0 0 1</bind_shape_matrix>
        <source id="egypt_agema_Skin_spearman-suebi2-skin-joints">
          <Name_array id="egypt_agema_Skin_spearman-suebi2-skin-joints-array" count="16">root pelvis femurleft butt-l knee-l-bopttom femurright butt-r knee-r-bopttom lumbar rib scapula ulna scapula01 ulna01 smoke_node_1 neck</Name_array>
          <technique_common>
            <accessor source="#egypt_agema_Skin_spearman-suebi2-skin-joints-array" count="16" stride="1">
              <param name="JOINT" type="name"/>
            </accessor>
          </technique_common>
        </source>
        <source id="egypt_agema_Skin_spearman-suebi2-skin-bind_poses">
          <float_array id="egypt_agema_Skin_spearman-suebi2-skin-bind_poses-array" count="256">1 0 0 0 0 0 1 -21.54822 0 -1 -1.34359e-7 1.88312e-6 0 0 0 1 1 0 0 -0.002881944 0 0 1 -19.89969 0 -1 -1.35973e-7 0.5965095 0 0 0 1 1 0 0 -2.295659 0 0 1 -19.80151 0 -1 -1.34359e-7 6.81947e-7 0 0 0 1 1 0 0 -2.300335 0 -5.96046e-7 1 -18.81625 0 -1 -6.18398e-7 2.278665 0 0 0 1 1 0 0 -2.616621 0 -2.08616e-7 1 -12.43225 0 -1 -2.23517e-7 0.3760048 0 0 0 1 1 0 0 2.313526 0 0 1 -19.80151 0 -1 -1.34359e-7 7.65786e-7 0 0 0 1 1 0 0 2.346149 0 -8.34465e-7 1 -18.84255 0 -1 -8.56817e-7 2.262772 0 0 0 1 1 0 0 2.454932 0 0 1 -12.43115 0 -1 0 0.3760035 0 0 0 1 1 0 0 -0.04826372 0 0 1 -21.79734 0 -1 -1.37836e-7 1.130516 0 0 0 1 1 0 0 0.07960093 0 0 1 -28.84791 0 -1 -1.34359e-7 4.2376e-7 0 0 0 1 0.1637155 0 0.9865076 -31.54713 -0.9865075 0 0.1637153 -1.075889 0 -1 0 -2.69433e-7 0 0 0 1 0.163715 0 0.9865077 -32.78451 -0.9865077 0 0.163715 4.917685 0 -1 -1.31899e-7 1.27638e-6 0 0 0 1 0.1798839 0 -0.9836881 31.59878 0.9836879 0 0.1798838 -1.191235 0 -1 0 -6.53205e-6 0 0 0 1 0.179884 0 -0.9836878 32.71879 0.9836878 -1.2426e-7 0.1798838 4.80233 -1.2609e-7 -1 0 -4.23273e-6 0 0 0 1 0.1800839 0 -0.9836513 33.83772 -0.006595671 -0.9999775 -0.001207351 -0.5644609 -0.9836289 0.006705105 -0.1800799 -11.92741 0 0 0 1 1 0 0 0.2165723 0 0 1 -33.54291 0 -1 -1.19331e-7 1.56591e-6 0 0 0 1</float_array>
          <technique_common>
            <accessor source="#egypt_agema_Skin_spearman-suebi2-skin-bind_poses-array" count="16" stride="16">
              <param name="TRANSFORM" type="float4x4"/>
            </accessor>
          </technique_common>
        </source>
        <source id="egypt_agema_Skin_spearman-suebi2-skin-weights">
          <float_array id="egypt_agema_Skin_spearman-suebi2-skin-weights-array" count="178">1 1 1 1 1 1 1 1 1 1 1 1 1 1 1 1 1 1 1 1 1 1 1 1 0.001358807 0.9986412 1 1 1 1 1 1 1 1 1 1 1 1 1 1 1 1 1 1 1 1 1 1 1 1 1 1 1 1 1 1 1 1 1 1 1 1 1 1 1 1 1 1 1 1 1 1 1 1 1 1 1 1 1 1 1 1 1 1 1 1 1 1 1 1 1 1 1 1 1 1 1 1 1 1 1 1 1 1 1 1 1 1 1 1 1 1 1 1 1 1 1 1 1 1 1 1 1 1 1 1 1 1 1 1 1 1 1 1 1 1 1 1 1 1 1 1 2.66146e-4 0.9997338 1 1 1 0.9999218 7.81695e-5 1 1 1 1 1 1 1 1 1 1 1 1 1 1 1 1 1 1 1 1 1 1 1 1 1 1 1 1 1</float_array>
          <technique_common>
            <accessor source="#egypt_agema_Skin_spearman-suebi2-skin-weights-array" count="178" stride="1">
              <param name="WEIGHT" type="float"/>
            </accessor>
          </technique_common>
        </source>
        <joints>
          <input semantic="JOINT" source="#egypt_agema_Skin_spearman-suebi2-skin-joints"/>
          <input semantic="INV_BIND_MATRIX" source="#egypt_agema_Skin_spearman-suebi2-skin-bind_poses"/>
        </joints>
        <vertex_weights count="175">
          <input semantic="JOINT" source="#egypt_agema_Skin_spearman-suebi2-skin-joints" offset="0"/>
          <input semantic="WEIGHT" source="#egypt_agema_Skin_spearman-suebi2-skin-weights" offset="1"/>
          <vcount>1 1 1 1 1 1 1 1 1 1 1 1 1 1 1 1 1 1 1 1 1 1 1 1 2 1 1 1 1 1 1 1 1 1 1 1 1 1 1 1 1 1 1 1 1 1 1 1 1 1 1 1 1 1 1 1 1 1 1 1 1 1 1 1 1 1 1 1 1 1 1 1 1 1 1 1 1 1 1 1 1 1 1 1 1 1 1 1 1 1 1 1 1 1 1 1 1 1 1 1 1 1 1 1 1 1 1 1 1 1 1 1 1 1 1 1 1 1 1 1 1 1 1 1 1 1 1 1 1 1 1 1 1 1 1 1 1 1 1 1 1 2 1 1 1 2 1 1 1 1 1 1 1 1 1 1 1 1 1 1 1 1 1 1 1 1 1 1 1 1 1 1 1 1 1 </vcount>
          <v>1 0 1 1 1 2 1 3 1 4 9 5 9 6 9 7 9 8 9 9 9 10 9 11 10 12 9 13 9 14 9 15 9 16 9 17 9 18 15 19 10 20 11 21 11 22 11 23 9 24 10 25 11 26 11 27 11 28 11 29 11 30 11 31 11 32 11 33 11 34 11 35 11 36 11 37 11 38 11 39 11 40 11 41 11 42 11 43 11 44 11 45 11 46 11 47 11 48 11 49 11 50 12 51 13 52 12 53 13 54 13 55 12 56 13 57 13 58 13 59 13 60 13 61 13 62 13 63 14 64 14 65 14 66 14 67 14 68 14 69 14 70 14 71 14 72 14 73 14 74 14 75 14 76 14 77 14 78 15 79 15 80 15 81 15 82 15 83 15 84 15 85 15 86 15 87 15 88 15 89 15 90 15 91 15 92 15 93 15 94 15 95 15 96 15 97 15 98 15 99 15 100 15 101 15 102 15 103 15 104 15 105 15 106 15 107 15 108 15 109 15 110 15 111 15 112 15 113 15 114 15 115 15 116 2 117 2 118 2 119 2 120 2 121 2 122 3 123 2 124 4 125 4 126 2 127 4 128 4 129 4 130 4 131 4 132 4 133 4 134 4 135 4 136 4 137 4 138 4 139 4 140 4 141 2 142 3 143 6 144 3 145 2 146 2 147 3 148 5 149 5 150 5 151 1 152 5 153 5 154 5 155 7 156 7 157 5 158 7 159 7 160 7 161 7 162 7 163 7 164 7 165 7 166 7 167 7 168 7 169 7 170 7 171 7 172 5 173 6 174 6 175 5 176 5 177</v>
        </vertex_weights>
      </skin>
    </controller>
  </library_controllers>
  <library_visual_scenes>
    <visual_scene id="Scene" name="Scene">
      <node id="LAMP_FRONT_PEACH" name="LAMP_FRONT_PEACH" type="NODE">
        <matrix sid="transform">3.595629 0.1442683 -0.009944767 0.07793808 -0.1375951 3.336951 -1.339883 -21.84175 -0.04449517 1.339181 3.339772 55.79722 0 0 0 1</matrix>
        <instance_light url="#LAMP_FRONT_PEACH-light"/>
      </node>
      <node id="Lamp_WEST" name="Lamp_WEST" type="NODE">
        <matrix sid="transform">-0.7364146 2.458481 -2.522504 -28.80603 -3.515288 -0.6763864 0.3670272 3.436447 -0.2233848 2.539259 2.540025 33.30629 0 0 0 1</matrix>
        <instance_light url="#Lamp_WEST-light"/>
      </node>
      <node id="Camera" name="Camera" type="NODE">
        <matrix sid="transform">0.6859207 -0.3240135 0.6515582 7.481132 0.7276763 0.3054209 -0.6141704 -6.50764 -4.01133e-9 0.8953956 0.4452714 5.343665 0 0 0 1</matrix>
        <instance_camera url="#Camera-camera"/>
      </node>
      <node id="Lamp" name="Lamp" type="NODE">
        <matrix sid="transform">-0.2908648 -0.7711007 0.5663933 4.076245 0.9551711 -0.1998834 0.2183913 1.005454 -0.05518903 0.6045247 0.7946723 5.903862 0 0 0 1</matrix>
        <instance_light url="#Lamp-light"/>
      </node>
      <node id="egypt_agema_Skin" name="egypt_agema_Skin" type="NODE">
        <matrix sid="transform">1 0 0 0 0 1 0 0 0 0 1 0 0 0 0 1</matrix>
        <node id="egypt_agema_Skin_root" name="root" sid="root" type="JOINT">
          <matrix sid="transform">1 1.87196e-15 4.0082e-8 0 4.0082e-8 -1.34359e-7 -1 -1.01207e-6 3.51342e-15 1 -1.19209e-7 21.54822 0 0 0 1</matrix>
          <node id="egypt_agema_Skin_pelvis" name="pelvis" sid="pelvis" type="JOINT">
            <matrix sid="transform">1 0 1.18083e-8 0.002882042 0 1 0 -1.648533 -1.18083e-8 0 1 -0.5965076 0 0 0 1</matrix>
            <node id="egypt_agema_Skin_femurleft" name="femurleft" sid="femurleft" type="JOINT">
              <matrix sid="transform">1 -5.09996e-15 5.09433e-9 2.292777 0 0.9999999 0 -0.09817696 -5.09433e-9 2.48406e-10 1 0.5965088 0 0 0 1</matrix>
              <node id="egypt_agema_Skin_butt-l" name="butt-l" sid="butt-l" type="JOINT">
                <matrix sid="transform">1 -5.78443e-15 4.2319e-9 0.004675388 7.53194e-16 0.9999999 -4.76837e-7 -0.9852638 -4.23191e-9 4.76837e-7 1 -2.278655 0 0 0 1</matrix>
                <extra>
                  <technique profile="blender">
                    <layer sid="layer" type="string">0</layer>
                    <tip_x sid="tip_x" type="float">0</tip_x>
                    <tip_y sid="tip_y" type="float">0</tip_y>
                    <tip_z sid="tip_z" type="float">0.1</tip_z>
                  </technique>
                </extra>
              </node>
              <node id="egypt_agema_Skin_knee-l-top" name="knee-l-top" sid="knee-l-top" type="JOINT">
                <matrix sid="transform">1 0 8.88178e-16 0.02838677 0 1 0 -0.4877245 0 0 1 0.3577121 0 0 0 1</matrix>
                <extra>
                  <technique profile="blender">
                    <layer sid="layer" type="string">0</layer>
                    <tip_x sid="tip_x" type="float">0</tip_x>
                    <tip_y sid="tip_y" type="float">0</tip_y>
                    <tip_z sid="tip_z" type="float">0.1</tip_z>
                  </technique>
                </extra>
              </node>
              <node id="egypt_agema_Skin_knee-l-bopttom" name="knee-l-bopttom" sid="knee-l-bopttom" type="JOINT">
                <matrix sid="transform">1 -5.78443e-15 3.25892e-8 0.320962 1.64897e-15 0.9999999 -8.94071e-8 -7.36926 -3.25892e-8 8.94071e-8 1 -0.3760031 0 0 0 1</matrix>
                <node id="egypt_agema_Skin_ankle_left" name="ankle left" sid="ankle_left" type="JOINT">
                  <matrix sid="transform">1 0 8.84024e-7 0.008728117 3.25959e-7 -0.9295396 -0.3687224 -1.121673 8.21734e-7 0.3687224 -0.9295411 -0.06275664 0 0 0 1</matrix>
                  <node id="egypt_agema_Skin_foot_left01" name="foot left01" sid="foot_left01" type="JOINT">
                    <matrix sid="transform">1 8.14411e-7 3.86746e-5 2.38419e-7 -3.5946e-5 0.3889575 0.9212556 0.2168391 -1.42925e-5 -0.9212557 0.3889575 -0.2809218 0 0 0 1</matrix>
                    <extra>
                      <technique profile="blender">
                        <layer sid="layer" type="string">0</layer>
                        <roll sid="roll" type="float">3.899e-5</roll>
                        <tip_x sid="tip_x" type="float">0</tip_x>
                        <tip_y sid="tip_y" type="float">-0.09997612</tip_y>
                        <tip_z sid="tip_z" type="float">-0.002186357</tip_z>
                      </technique>
                    </extra>
                  </node>
                  <extra>
                    <technique profile="blender">
                      <layer sid="layer" type="string">0</layer>
                      <roll sid="roll" type="float">8.84022e-7</roll>
                      <tip_x sid="tip_x" type="float">0</tip_x>
                      <tip_y sid="tip_y" type="float">-0.03687214</tip_y>
                      <tip_z sid="tip_z" type="float">-0.09295397</tip_z>
                    </technique>
                  </extra>
                </node>
                <extra>
                  <technique profile="blender">
                    <layer sid="layer" type="string">0</layer>
                    <tip_x sid="tip_x" type="float">0</tip_x>
                    <tip_y sid="tip_y" type="float">0</tip_y>
                    <tip_z sid="tip_z" type="float">0.0999999</tip_z>
                  </technique>
                </extra>
              </node>
              <extra>
                <technique profile="blender">
                  <layer sid="layer" type="string">0</layer>
                  <tip_x sid="tip_x" type="float">0</tip_x>
                  <tip_y sid="tip_y" type="float">0</tip_y>
                  <tip_z sid="tip_z" type="float">0.1000001</tip_z>
                </technique>
              </extra>
            </node>
            <node id="egypt_agema_Skin_femurright" name="femurright" sid="femurright" type="JOINT">
              <matrix sid="transform">1 -5.09996e-15 5.09434e-9 -2.316408 0 0.9999999 0 -0.09817696 -5.09434e-9 2.48406e-10 1 0.5965087 0 0 0 1</matrix>
              <node id="egypt_agema_Skin_butt-r" name="butt-r" sid="butt-r" type="JOINT">
                <matrix sid="transform">1 -5.78443e-15 5.58592e-9 -0.03262329 2.73063e-15 0.9999999 -7.15256e-7 -0.9589558 -5.58593e-9 7.15256e-7 1 -2.262758 0 0 0 1</matrix>
                <extra>
                  <technique profile="blender">
                    <layer sid="layer" type="string">0</layer>
                    <tip_x sid="tip_x" type="float">0</tip_x>
                    <tip_y sid="tip_y" type="float">0</tip_y>
                    <tip_z sid="tip_z" type="float">0.1</tip_z>
                  </technique>
                </extra>
              </node>
              <node id="egypt_agema_Skin_knee-r-top" name="knee-r-top" sid="knee-r-top" type="JOINT">
                <matrix sid="transform">1 0 0 0.05288473 0 0.9999999 -8.94069e-7 -0.4883391 0 8.94069e-7 1 0.3589506 0 0 0 1</matrix>
                <extra>
                  <technique profile="blender">
                    <layer sid="layer" type="string">0</layer>
                    <tip_x sid="tip_x" type="float">0</tip_x>
                    <tip_y sid="tip_y" type="float">0</tip_y>
                    <tip_z sid="tip_z" type="float">0.1</tip_z>
                  </technique>
                </extra>
              </node>
              <node id="egypt_agema_Skin_knee-r-bopttom" name="knee-r-bopttom" sid="knee-r-bopttom" type="JOINT">
                <matrix sid="transform">1 -5.78443e-15 2.04881e-8 -0.1414061 -1.87533e-15 0.9999999 2.98024e-8 -7.370362 -2.04881e-8 -2.98024e-8 1 -0.3760029 0 0 0 1</matrix>
                <node id="egypt_agema_Skin_ankleright" name="ankleright" sid="ankleright" type="JOINT">
                  <matrix sid="transform">1 2.84217e-14 8.2497e-7 -0.01317589 3.04184e-7 -0.92954 -0.3687213 -1.118303 7.66842e-7 0.3687213 -0.9295409 -0.06275673 0 0 0 1</matrix>
                  <node id="egypt_agema_Skin_foot_right01" name="foot right01" sid="foot_right01" type="JOINT">
                    <matrix sid="transform">1 7.6001e-7 3.2926e-5 1.49012e-7 -3.0629e-5 0.3889476 0.9212599 0.2168393 -1.21063e-5 -0.9212599 0.3889475 -0.280922 0 0 0 1</matrix>
                    <extra>
                      <technique profile="blender">
                        <layer sid="layer" type="string">0</layer>
                        <roll sid="roll" type="float">3.32472e-5</roll>
                        <tip_x sid="tip_x" type="float">0</tip_x>
                        <tip_y sid="tip_y" type="float">-0.09997612</tip_y>
                        <tip_z sid="tip_z" type="float">-0.002185404</tip_z>
                      </technique>
                    </extra>
                  </node>
                  <extra>
                    <technique profile="blender">
                      <layer sid="layer" type="string">0</layer>
                      <roll sid="roll" type="float">8.24969e-7</roll>
                      <tip_x sid="tip_x" type="float">0</tip_x>
                      <tip_y sid="tip_y" type="float">-0.03687208</tip_y>
                      <tip_z sid="tip_z" type="float">-0.09295397</tip_z>
                    </technique>
                  </extra>
                </node>
                <extra>
                  <technique profile="blender">
                    <layer sid="layer" type="string">0</layer>
                    <tip_x sid="tip_x" type="float">0</tip_x>
                    <tip_y sid="tip_y" type="float">0</tip_y>
                    <tip_z sid="tip_z" type="float">0.1</tip_z>
                  </technique>
                </extra>
              </node>
              <extra>
                <technique profile="blender">
                  <layer sid="layer" type="string">0</layer>
                  <tip_x sid="tip_x" type="float">0</tip_x>
                  <tip_y sid="tip_y" type="float">0</tip_y>
                  <tip_z sid="tip_z" type="float">0.1000001</tip_z>
                </technique>
              </extra>
            </node>
            <node id="egypt_agema_Skin_lumbar" name="lumbar" sid="lumbar" type="JOINT">
              <matrix sid="transform">1 -5.09996e-15 4.81516e-9 0.04538174 0 0.9999999 0 1.897648 -4.81516e-9 2.48406e-10 1 -0.5340068 0 0 0 1</matrix>
              <node id="egypt_agema_Skin_rib" name="rib" sid="rib" type="JOINT">
                <matrix sid="transform">1 -5.63593e-15 5.13653e-9 -0.1278647 -7.14308e-14 1 -1.19209e-7 7.050575 -4.31043e-9 -3.47688e-9 1 1.130516 0 0 0 1</matrix>
                <node id="egypt_agema_Skin_scapula" name="scapula" sid="scapula" type="JOINT">
                  <matrix sid="transform">0.1637153 -0.9865077 -6.82213e-8 4.182977 0.9865077 0.1637154 4.83722e-8 2.449709 -3.65506e-8 -7.52201e-8 1 -5.40803e-7 0 0 0 1</matrix>
                  <node id="egypt_agema_Skin_ulna" name="ulna" sid="ulna" type="JOINT">
                    <matrix sid="transform">0.9999999 -3.42727e-7 -4.65399e-8 1.237381 2.38419e-7 0.9999999 -9.23706e-14 -5.993566 4.65399e-8 1.20792e-13 1 -2.00277e-8 0 0 0 1</matrix>
                    <node id="egypt_agema_Skin_carpal" name="carpal" sid="carpal" type="JOINT">
                      <matrix sid="transform">1 2.5332e-7 -6.28688e-11 0.1033099 -1.3411e-7 0.9999999 0 -0.575404 6.28404e-11 4.61853e-14 1 0.0737782 0 0 0 1</matrix>
                      <node id="egypt_agema_Skin_ammo_node_1" name="ammo node 1" sid="ammo_node_1" type="JOINT">
                        <matrix sid="transform">0.9999982 -1.48895e-7 0.001844332 0.176682 0.001844406 0.001921206 -0.9999964 0.2353451 -3.39579e-6 0.9999982 0.001921172 -0.07377819 0 0 0 1</matrix>
                        <extra>
                          <technique profile="blender">
                            <layer sid="layer" type="string">0</layer>
                            <roll sid="roll" type="float">-2.062479</roll>
                            <tip_x sid="tip_x" type="float">-1.89543e-4</tip_x>
                            <tip_y sid="tip_y" type="float">-0.09999984</tip_y>
                            <tip_z sid="tip_z" type="float">3.14713e-5</tip_z>
                          </technique>
                        </extra>
                      </node>
                      <extra>
                        <technique profile="blender">
                          <layer sid="layer" type="string">0</layer>
                          <roll sid="roll" type="float">-1.406341</roll>
                          <tip_x sid="tip_x" type="float">-0.09865081</tip_x>
                          <tip_y sid="tip_y" type="float">0</tip_y>
                          <tip_z sid="tip_z" type="float">0.01637148</tip_z>
                        </technique>
                      </extra>
                    </node>
                    <extra>
                      <technique profile="blender">
                        <layer sid="layer" type="string">0</layer>
                        <roll sid="roll" type="float">-1.406341</roll>
                        <tip_x sid="tip_x" type="float">-0.09865081</tip_x>
                        <tip_y sid="tip_y" type="float">0</tip_y>
                        <tip_z sid="tip_z" type="float">0.01637148</tip_z>
                      </technique>
                    </extra>
                  </node>
                  <extra>
                    <technique profile="blender">
                      <layer sid="layer" type="string">0</layer>
                      <roll sid="roll" type="float">-1.406341</roll>
                      <tip_x sid="tip_x" type="float">-0.09865081</tip_x>
                      <tip_y sid="tip_y" type="float">0</tip_y>
                      <tip_z sid="tip_z" type="float">0.01637148</tip_z>
                    </technique>
                  </extra>
                </node>
                <node id="egypt_agema_Skin_scapula01" name="scapula01" sid="scapula01" type="JOINT">
                  <matrix sid="transform">0.1798839 0.9836879 -8.58876e-8 -4.432708 -0.9836879 0.1798839 2.27144e-7 2.449709 2.38889e-7 4.36271e-8 1 -5.40803e-7 0 0 0 1</matrix>
                  <node id="egypt_agema_Skin_ulna01" name="ulna01" sid="ulna01" type="JOINT">
                    <matrix sid="transform">1 7.45058e-8 8.92042e-8 -1.12002 0 0.9999999 -1.19209e-7 -5.993564 -8.92042e-8 1.19209e-7 1 4.68467e-8 0 0 0 1</matrix>
                    <node id="egypt_agema_Skin_carpal_right" name="carpal right" sid="carpal_right" type="JOINT">
                      <matrix sid="transform">1 2.98023e-8 1.46581e-7 -0.1377447 1.49012e-8 0.9999999 2.84217e-13 -0.5311358 -1.46581e-7 -2.27374e-13 1 -2.2225e-7 0 0 0 1</matrix>
                      <node id="egypt_agema_Skin_smoke_node_1" name="smoke node 1" sid="smoke_node_1" type="JOINT">
                        <matrix sid="transform">1 1.37056e-6 2.03341e-4 0.2609406 2.03416e-4 -0.006705046 -0.9999775 -1.824125 -7.08972e-9 0.9999776 -0.006705165 0.4844671 0 0 0 1</matrix>
                        <node id="egypt_agema_Skin_ammo_node_0" name="ammo node 0" sid="ammo_node_0" type="JOINT">
                          <matrix sid="transform">0.9999995 0.001051739 8.00186e-6 0.002571583 -9.46573e-7 -0.006707208 0.9999776 1.569697 0.001051605 -0.9999771 -0.006707228 0.04454958 0 0 0 1</matrix>
                          <extra>
                            <technique profile="blender">
                              <layer sid="layer" type="string">0</layer>
                              <roll sid="roll" type="float">1.389976</roll>
                              <tip_x sid="tip_x" type="float">0.09892189</tip_x>
                              <tip_y sid="tip_y" type="float">2.38419e-7</tip_y>
                              <tip_z sid="tip_z" type="float">0.01808476</tip_z>
                            </technique>
                          </extra>
                        </node>
                        <extra>
                          <technique profile="blender">
                            <layer sid="layer" type="string">0</layer>
                            <roll sid="roll" type="float">1.390713</roll>
                            <tip_x sid="tip_x" type="float">-6.59585e-4</tip_x>
                            <tip_y sid="tip_y" type="float">-0.09999775</tip_y>
                            <tip_z sid="tip_z" type="float">-1.2064e-4</tip_z>
                          </technique>
                        </extra>
                      </node>
                      <extra>
                        <technique profile="blender">
                          <layer sid="layer" type="string">0</layer>
                          <roll sid="roll" type="float">1.389928</roll>
                          <tip_x sid="tip_x" type="float">0.09836876</tip_x>
                          <tip_y sid="tip_y" type="float">0</tip_y>
                          <tip_z sid="tip_z" type="float">0.01798844</tip_z>
                        </technique>
                      </extra>
                    </node>
                    <extra>
                      <technique profile="blender">
                        <layer sid="layer" type="string">0</layer>
                        <roll sid="roll" type="float">1.389928</roll>
                        <tip_x sid="tip_x" type="float">0.09836882</tip_x>
                        <tip_y sid="tip_y" type="float">0</tip_y>
                        <tip_z sid="tip_z" type="float">0.01798844</tip_z>
                      </technique>
                    </extra>
                  </node>
                  <extra>
                    <technique profile="blender">
                      <layer sid="layer" type="string">0</layer>
                      <roll sid="roll" type="float">1.389928</roll>
                      <tip_x sid="tip_x" type="float">0.09836882</tip_x>
                      <tip_y sid="tip_y" type="float">0</tip_y>
                      <tip_z sid="tip_z" type="float">0.01798844</tip_z>
                    </technique>
                  </extra>
                </node>
                <node id="egypt_agema_Skin_neck" name="neck" sid="neck" type="JOINT">
                  <matrix sid="transform">1 -6.32607e-15 3.8059e-9 -0.1369714 0 1 1.50275e-8 4.694994 -3.8059e-9 -1.50275e-8 1 -1.64539e-6 0 0 0 1</matrix>
                  <node id="egypt_agema_Skin_skull" name="skull" sid="skull" type="JOINT">
                    <matrix sid="transform">1 0 0 -0.007297665 0 1 1.19331e-7 0.4520023 0 -1.19331e-7 1 7.1019e-8 0 0 0 1</matrix>
                    <node id="egypt_agema_Skin_cloaktop" name="cloaktop" sid="cloaktop" type="JOINT">
                      <matrix sid="transform">1 0 0 0.03092998 0 1 -2.98023e-7 -0.5702102 0 2.98023e-7 1 -0.1981268 0 0 0 1</matrix>
                      <node id="egypt_agema_Skin_cloak" name="cloak" sid="cloak" type="JOINT">
                        <matrix sid="transform">1 0 0 0.004538156 0 1 2.98023e-7 -0.859082 0 -2.98023e-7 1 -0.2356978 0 0 0 1</matrix>
                        <node id="egypt_agema_Skin_cloakbottom" name="cloakbottom" sid="cloakbottom" type="JOINT">
                          <matrix sid="transform">1 0 0 -0.02733968 0 1 0 -0.8312196 0 2.84217e-14 1 -0.1177093 0 0 0 1</matrix>
                          <extra>
                            <technique profile="blender">
                              <layer sid="layer" type="string">0</layer>
                              <tip_x sid="tip_x" type="float">0</tip_x>
                              <tip_y sid="tip_y" type="float">0</tip_y>
                              <tip_z sid="tip_z" type="float">0.1000001</tip_z>
                            </technique>
                          </extra>
                        </node>
                        <extra>
                          <technique profile="blender">
                            <layer sid="layer" type="string">0</layer>
                            <tip_x sid="tip_x" type="float">0</tip_x>
                            <tip_y sid="tip_y" type="float">0</tip_y>
                            <tip_z sid="tip_z" type="float">0.1000001</tip_z>
                          </technique>
                        </extra>
                      </node>
                      <extra>
                        <technique profile="blender">
                          <layer sid="layer" type="string">0</layer>
                          <tip_x sid="tip_x" type="float">0</tip_x>
                          <tip_y sid="tip_y" type="float">0</tip_y>
                          <tip_z sid="tip_z" type="float">0.1000001</tip_z>
                        </technique>
                      </extra>
                    </node>
                    <node id="egypt_agema_Skin_nogginbottom" name="nogginbottom" sid="nogginbottom" type="JOINT">
                      <matrix sid="transform">1 8.88178e-16 3.1088e-7 0.001799161 -1.29991e-8 0.9991255 0.04181381 0.08982563 -3.10608e-7 -0.04181381 0.9991254 0.2822087 0 0 0 1</matrix>
                      <extra>
                        <technique profile="blender">
                          <layer sid="layer" type="string">0</layer>
                          <roll sid="roll" type="float">3.1088e-7</roll>
                          <tip_x sid="tip_x" type="float">0</tip_x>
                          <tip_y sid="tip_y" type="float">0.004181385</tip_y>
                          <tip_z sid="tip_z" type="float">0.09991264</tip_z>
                        </technique>
                      </extra>
                    </node>
                    <node id="egypt_agema_Skin_plumes" name="plumes" sid="plumes" type="JOINT">
                      <matrix sid="transform">1 8.88178e-16 5.46668e-7 -0.002369052 -1.15356e-8 0.9997773 0.02110163 0.1819341 -5.46546e-7 -0.02110163 0.9997773 0.1862075 0 0 0 1</matrix>
                      <extra>
                        <technique profile="blender">
                          <layer sid="layer" type="string">0</layer>
                          <roll sid="roll" type="float">5.46668e-7</roll>
                          <tip_x sid="tip_x" type="float">0</tip_x>
                          <tip_y sid="tip_y" type="float">0.002110123</tip_y>
                          <tip_z sid="tip_z" type="float">0.09997797</tip_z>
                        </technique>
                      </extra>
                    </node>
                    <node id="egypt_agema_Skin_skulltop" name="skulltop" sid="skulltop" type="JOINT">
                      <matrix sid="transform">1 0 0 -0.00416824 0 1 3.55271e-14 0.3702886 0 -3.5527e-14 1 4.4021e-8 0 0 0 1</matrix>
                      <extra>
                        <technique profile="blender">
                          <layer sid="layer" type="string">0</layer>
                          <tip_x sid="tip_x" type="float">0</tip_x>
                          <tip_y sid="tip_y" type="float">0</tip_y>
                          <tip_z sid="tip_z" type="float">0.1000003</tip_z>
                        </technique>
                      </extra>
                    </node>
                    <extra>
                      <technique profile="blender">
                        <layer sid="layer" type="string">0</layer>
                        <tip_x sid="tip_x" type="float">0</tip_x>
                        <tip_y sid="tip_y" type="float">0</tip_y>
                        <tip_z sid="tip_z" type="float">0.1000001</tip_z>
                      </technique>
                    </extra>
                  </node>
                  <node id="egypt_agema_Skin_smoke_node_0" name="smoke node 0" sid="smoke_node_0" type="JOINT">
                    <matrix sid="transform">1 -2.02237e-4 -6.27799e-7 0.006514965 -6.27763e-7 1.07102e-7 -1 0.0921874 2.02237e-4 1 7.81827e-8 0.2430202 0 0 0 1</matrix>
                    <extra>
                      <technique profile="blender">
                        <layer sid="layer" type="string">0</layer>
                        <roll sid="roll" type="float">3.141592</roll>
                        <tip_x sid="tip_x" type="float">-2.02237e-5</tip_x>
                        <tip_y sid="tip_y" type="float">-0.1</tip_y>
                        <tip_z sid="tip_z" type="float">0</tip_z>
                      </technique>
                    </extra>
                  </node>
                  <extra>
                    <technique profile="blender">
                      <layer sid="layer" type="string">0</layer>
                      <tip_x sid="tip_x" type="float">0</tip_x>
                      <tip_y sid="tip_y" type="float">0</tip_y>
                      <tip_z sid="tip_z" type="float">0.0999999</tip_z>
                    </technique>
                  </extra>
                </node>
                <extra>
                  <technique profile="blender">
                    <layer sid="layer" type="string">0</layer>
                    <tip_x sid="tip_x" type="float">0</tip_x>
                    <tip_y sid="tip_y" type="float">0</tip_y>
                    <tip_z sid="tip_z" type="float">0.1000001</tip_z>
                  </technique>
                </extra>
              </node>
              <extra>
                <technique profile="blender">
                  <layer sid="layer" type="string">0</layer>
                  <tip_x sid="tip_x" type="float">0</tip_x>
                  <tip_y sid="tip_y" type="float">0</tip_y>
                  <tip_z sid="tip_z" type="float">0.1000001</tip_z>
                </technique>
              </extra>
            </node>
            <extra>
              <technique profile="blender">
                <layer sid="layer" type="string">0</layer>
                <tip_x sid="tip_x" type="float">0</tip_x>
                <tip_y sid="tip_y" type="float">0</tip_y>
                <tip_z sid="tip_z" type="float">0.1</tip_z>
              </technique>
            </extra>
          </node>
          <extra>
            <technique profile="blender">
              <layer sid="layer" type="string">0</layer>
              <tip_x sid="tip_x" type="float">0</tip_x>
              <tip_y sid="tip_y" type="float">0</tip_y>
              <tip_z sid="tip_z" type="float">0.0999999</tip_z>
            </technique>
          </extra>
        </node>
      </node>
      <node id="spearman-suebi2" name="spearman-suebi2" type="NODE">
        <translate sid="location">0 0 0</translate>
        <rotate sid="rotationZ">0 0 1 0</rotate>
        <rotate sid="rotationY">0 1 0 0</rotate>
        <rotate sid="rotationX">1 0 0 0</rotate>
        <scale sid="scale">1 1 1</scale>
        <instance_controller url="#egypt_agema_Skin_spearman-suebi2-skin">
          <skeleton>#egypt_agema_Skin_root</skeleton>
          <bind_material>
            <technique_common>
              <instance_material symbol="spearman-suebi2_Mat-material" target="#spearman-suebi2_Mat-material"/>
            </technique_common>
          </bind_material>
        </instance_controller>
      </node>
    </visual_scene>
  </library_visual_scenes>
  <scene>
    <instance_visual_scene url="#Scene"/>
  </scene>
</COLLADA>