<?xml version="1.0" encoding="utf-8"?>
<COLLADA xmlns="http://www.collada.org/2005/11/COLLADASchema" version="1.4.1" xmlns:xsi="http://www.w3.org/2001/XMLSchema-instance">
  <asset>
    <contributor>
      <author>Blender User</author>
      <authoring_tool>Blender 2.79.0 commit date:2017-09-11, commit time:10:43, hash:5bd8ac9</authoring_tool>
    </contributor>
    <created>2019-02-03T08:58:44</created>
    <modified>2019-02-03T08:58:44</modified>
    <unit name="meter" meter="1"/>
    <up_axis>Z_UP</up_axis>
  </asset>
  <library_cameras>
    <camera id="Camera-camera" name="Camera">
      <optics>
        <technique_common>
          <perspective>
            <xfov sid="xfov">49.13434</xfov>
            <aspect_ratio>1.777778</aspect_ratio>
            <znear sid="znear">0.1</znear>
            <zfar sid="zfar">100</zfar>
          </perspective>
        </technique_common>
      </optics>
      <extra>
        <technique profile="blender">
          <shiftx sid="shiftx" type="float">0</shiftx>
          <shifty sid="shifty" type="float">0</shifty>
          <YF_dofdist sid="YF_dofdist" type="float">0</YF_dofdist>
        </technique>
      </extra>
    </camera>
  </library_cameras>
  <library_lights>
    <light id="LAMP_FRONT_PEACH-light" name="Lamp.002">
      <technique_common>
        <ambient>
          <color>1 1 1</color>
        </ambient>
      </technique_common>
      <extra>
        <technique profile="blender">
          <type sid="type" type="int">3</type>
          <flag sid="flag" type="int">0</flag>
          <mode sid="mode" type="int">8192</mode>
          <gamma sid="blender_gamma" type="float">1</gamma>
          <red sid="red" type="float">1</red>
          <green sid="green" type="float">1</green>
          <blue sid="blue" type="float">1</blue>
          <shadow_r sid="blender_shadow_r" type="float">0</shadow_r>
          <shadow_g sid="blender_shadow_g" type="float">0</shadow_g>
          <shadow_b sid="blender_shadow_b" type="float">0</shadow_b>
          <energy sid="blender_energy" type="float">1</energy>
          <dist sid="blender_dist" type="float">29.99998</dist>
          <spotsize sid="spotsize" type="float">75</spotsize>
          <spotblend sid="spotblend" type="float">0.15</spotblend>
          <halo_intensity sid="blnder_halo_intensity" type="float">1</halo_intensity>
          <att1 sid="att1" type="float">0</att1>
          <att2 sid="att2" type="float">1</att2>
          <falloff_type sid="falloff_type" type="int">2</falloff_type>
          <clipsta sid="clipsta" type="float">1.000799</clipsta>
          <clipend sid="clipend" type="float">30.002</clipend>
          <bias sid="bias" type="float">1</bias>
          <soft sid="soft" type="float">3</soft>
          <compressthresh sid="compressthresh" type="float">0.04999995</compressthresh>
          <bufsize sid="bufsize" type="int">2880</bufsize>
          <samp sid="samp" type="int">3</samp>
          <buffers sid="buffers" type="int">1</buffers>
          <filtertype sid="filtertype" type="int">0</filtertype>
          <bufflag sid="bufflag" type="int">0</bufflag>
          <buftype sid="buftype" type="int">2</buftype>
          <ray_samp sid="ray_samp" type="int">1</ray_samp>
          <ray_sampy sid="ray_sampy" type="int">1</ray_sampy>
          <ray_sampz sid="ray_sampz" type="int">1</ray_sampz>
          <ray_samp_type sid="ray_samp_type" type="int">0</ray_samp_type>
          <area_shape sid="area_shape" type="int">0</area_shape>
          <area_size sid="area_size" type="float">10000</area_size>
          <area_sizey sid="area_sizey" type="float">100</area_sizey>
          <area_sizez sid="area_sizez" type="float">1</area_sizez>
          <adapt_thresh sid="adapt_thresh" type="float">0.000999987</adapt_thresh>
          <ray_samp_method sid="ray_samp_method" type="int">1</ray_samp_method>
          <shadhalostep sid="shadhalostep" type="int">0</shadhalostep>
          <sun_effect_type sid="sun_effect_type" type="int">0</sun_effect_type>
          <skyblendtype sid="skyblendtype" type="int">1</skyblendtype>
          <horizon_brightness sid="horizon_brightness" type="float">1</horizon_brightness>
          <spread sid="spread" type="float">1</spread>
          <sun_brightness sid="sun_brightness" type="float">1</sun_brightness>
          <sun_size sid="sun_size" type="float">1</sun_size>
          <backscattered_light sid="backscattered_light" type="float">1</backscattered_light>
          <sun_intensity sid="sun_intensity" type="float">1</sun_intensity>
          <atm_turbidity sid="atm_turbidity" type="float">2</atm_turbidity>
          <atm_extinction_factor sid="atm_extinction_factor" type="float">1</atm_extinction_factor>
          <atm_distance_factor sid="atm_distance_factor" type="float">1</atm_distance_factor>
          <skyblendfac sid="skyblendfac" type="float">1</skyblendfac>
          <sky_exposure sid="sky_exposure" type="float">1</sky_exposure>
          <sky_colorspace sid="sky_colorspace" type="int">0</sky_colorspace>
        </technique>
      </extra>
    </light>
    <light id="Lamp_WEST-light" name="Lamp.003">
      <technique_common>
        <directional>
          <color sid="color">1 1 1</color>
        </directional>
      </technique_common>
      <extra>
        <technique profile="blender">
          <type sid="type" type="int">1</type>
          <flag sid="flag" type="int">0</flag>
          <mode sid="mode" type="int">8192</mode>
          <gamma sid="blender_gamma" type="float">1</gamma>
          <red sid="red" type="float">1</red>
          <green sid="green" type="float">1</green>
          <blue sid="blue" type="float">1</blue>
          <shadow_r sid="blender_shadow_r" type="float">0</shadow_r>
          <shadow_g sid="blender_shadow_g" type="float">0</shadow_g>
          <shadow_b sid="blender_shadow_b" type="float">0</shadow_b>
          <energy sid="blender_energy" type="float">1</energy>
          <dist sid="blender_dist" type="float">29.99998</dist>
          <spotsize sid="spotsize" type="float">75</spotsize>
          <spotblend sid="spotblend" type="float">0.15</spotblend>
          <halo_intensity sid="blnder_halo_intensity" type="float">1</halo_intensity>
          <att1 sid="att1" type="float">0</att1>
          <att2 sid="att2" type="float">1</att2>
          <falloff_type sid="falloff_type" type="int">2</falloff_type>
          <clipsta sid="clipsta" type="float">1.000799</clipsta>
          <clipend sid="clipend" type="float">30.002</clipend>
          <bias sid="bias" type="float">1</bias>
          <soft sid="soft" type="float">3</soft>
          <compressthresh sid="compressthresh" type="float">0.04999995</compressthresh>
          <bufsize sid="bufsize" type="int">2880</bufsize>
          <samp sid="samp" type="int">3</samp>
          <buffers sid="buffers" type="int">1</buffers>
          <filtertype sid="filtertype" type="int">0</filtertype>
          <bufflag sid="bufflag" type="int">0</bufflag>
          <buftype sid="buftype" type="int">2</buftype>
          <ray_samp sid="ray_samp" type="int">1</ray_samp>
          <ray_sampy sid="ray_sampy" type="int">1</ray_sampy>
          <ray_sampz sid="ray_sampz" type="int">1</ray_sampz>
          <ray_samp_type sid="ray_samp_type" type="int">0</ray_samp_type>
          <area_shape sid="area_shape" type="int">1</area_shape>
          <area_size sid="area_size" type="float">0.1</area_size>
          <area_sizey sid="area_sizey" type="float">0.1</area_sizey>
          <area_sizez sid="area_sizez" type="float">1</area_sizez>
          <adapt_thresh sid="adapt_thresh" type="float">0.000999987</adapt_thresh>
          <ray_samp_method sid="ray_samp_method" type="int">1</ray_samp_method>
          <shadhalostep sid="shadhalostep" type="int">0</shadhalostep>
          <sun_effect_type sid="sun_effect_type" type="int">0</sun_effect_type>
          <skyblendtype sid="skyblendtype" type="int">1</skyblendtype>
          <horizon_brightness sid="horizon_brightness" type="float">1</horizon_brightness>
          <spread sid="spread" type="float">1</spread>
          <sun_brightness sid="sun_brightness" type="float">1</sun_brightness>
          <sun_size sid="sun_size" type="float">1</sun_size>
          <backscattered_light sid="backscattered_light" type="float">1</backscattered_light>
          <sun_intensity sid="sun_intensity" type="float">1</sun_intensity>
          <atm_turbidity sid="atm_turbidity" type="float">2</atm_turbidity>
          <atm_extinction_factor sid="atm_extinction_factor" type="float">1</atm_extinction_factor>
          <atm_distance_factor sid="atm_distance_factor" type="float">1</atm_distance_factor>
          <skyblendfac sid="skyblendfac" type="float">1</skyblendfac>
          <sky_exposure sid="sky_exposure" type="float">1</sky_exposure>
          <sky_colorspace sid="sky_colorspace" type="int">0</sky_colorspace>
        </technique>
      </extra>
    </light>
    <light id="Lamp-light" name="Lamp">
      <technique_common>
        <point>
          <color sid="color">1 1 1</color>
          <constant_attenuation>1</constant_attenuation>
          <linear_attenuation>0</linear_attenuation>
          <quadratic_attenuation>0.00111109</quadratic_attenuation>
        </point>
      </technique_common>
      <extra>
        <technique profile="blender">
          <type sid="type" type="int">0</type>
          <flag sid="flag" type="int">0</flag>
          <mode sid="mode" type="int">8192</mode>
          <gamma sid="blender_gamma" type="float">1</gamma>
          <red sid="red" type="float">1</red>
          <green sid="green" type="float">1</green>
          <blue sid="blue" type="float">1</blue>
          <shadow_r sid="blender_shadow_r" type="float">0</shadow_r>
          <shadow_g sid="blender_shadow_g" type="float">0</shadow_g>
          <shadow_b sid="blender_shadow_b" type="float">0</shadow_b>
          <energy sid="blender_energy" type="float">1</energy>
          <dist sid="blender_dist" type="float">29.99998</dist>
          <spotsize sid="spotsize" type="float">75</spotsize>
          <spotblend sid="spotblend" type="float">0.15</spotblend>
          <halo_intensity sid="blnder_halo_intensity" type="float">1</halo_intensity>
          <att1 sid="att1" type="float">0</att1>
          <att2 sid="att2" type="float">1</att2>
          <falloff_type sid="falloff_type" type="int">2</falloff_type>
          <clipsta sid="clipsta" type="float">1.000799</clipsta>
          <clipend sid="clipend" type="float">30.002</clipend>
          <bias sid="bias" type="float">1</bias>
          <soft sid="soft" type="float">3</soft>
          <compressthresh sid="compressthresh" type="float">0.04999995</compressthresh>
          <bufsize sid="bufsize" type="int">2880</bufsize>
          <samp sid="samp" type="int">3</samp>
          <buffers sid="buffers" type="int">1</buffers>
          <filtertype sid="filtertype" type="int">0</filtertype>
          <bufflag sid="bufflag" type="int">0</bufflag>
          <buftype sid="buftype" type="int">2</buftype>
          <ray_samp sid="ray_samp" type="int">1</ray_samp>
          <ray_sampy sid="ray_sampy" type="int">1</ray_sampy>
          <ray_sampz sid="ray_sampz" type="int">1</ray_sampz>
          <ray_samp_type sid="ray_samp_type" type="int">0</ray_samp_type>
          <area_shape sid="area_shape" type="int">1</area_shape>
          <area_size sid="area_size" type="float">0.1</area_size>
          <area_sizey sid="area_sizey" type="float">0.1</area_sizey>
          <area_sizez sid="area_sizez" type="float">1</area_sizez>
          <adapt_thresh sid="adapt_thresh" type="float">0.000999987</adapt_thresh>
          <ray_samp_method sid="ray_samp_method" type="int">1</ray_samp_method>
          <shadhalostep sid="shadhalostep" type="int">0</shadhalostep>
          <sun_effect_type sid="sun_effect_type" type="int">0</sun_effect_type>
          <skyblendtype sid="skyblendtype" type="int">1</skyblendtype>
          <horizon_brightness sid="horizon_brightness" type="float">1</horizon_brightness>
          <spread sid="spread" type="float">1</spread>
          <sun_brightness sid="sun_brightness" type="float">1</sun_brightness>
          <sun_size sid="sun_size" type="float">1</sun_size>
          <backscattered_light sid="backscattered_light" type="float">1</backscattered_light>
          <sun_intensity sid="sun_intensity" type="float">1</sun_intensity>
          <atm_turbidity sid="atm_turbidity" type="float">2</atm_turbidity>
          <atm_extinction_factor sid="atm_extinction_factor" type="float">1</atm_extinction_factor>
          <atm_distance_factor sid="atm_distance_factor" type="float">1</atm_distance_factor>
          <skyblendfac sid="skyblendfac" type="float">1</skyblendfac>
          <sky_exposure sid="sky_exposure" type="float">1</sky_exposure>
          <sky_colorspace sid="sky_colorspace" type="int">0</sky_colorspace>
        </technique>
      </extra>
    </light>
  </library_lights>
  <library_images/>
  <library_effects>
    <effect id="spearman-suebi2_Mat-effect">
      <profile_COMMON>
        <technique sid="common">
          <phong>
            <emission>
              <color sid="emission">0 0 0 1</color>
            </emission>
            <ambient>
              <color sid="ambient">0 0 0 1</color>
            </ambient>
            <diffuse>
              <color sid="diffuse">0.64 0.64 0.64 1</color>
            </diffuse>
            <specular>
              <color sid="specular">0.5 0.5 0.5 1</color>
            </specular>
            <shininess>
              <float sid="shininess">50</float>
            </shininess>
            <index_of_refraction>
              <float sid="index_of_refraction">1</float>
            </index_of_refraction>
          </phong>
        </technique>
      </profile_COMMON>
    </effect>
  </library_effects>
  <library_materials>
    <material id="spearman-suebi2_Mat-material" name="spearman-suebi2_Mat">
      <instance_effect url="#spearman-suebi2_Mat-effect"/>
    </material>
  </library_materials>
  <library_geometries>
    <geometry id="head_001-mesh" name="head.001">
      <mesh>
        <source id="head_001-mesh-positions">
          <float_array id="head_001-mesh-positions-array" count="1107">-0.2575971 0.0766102 3.913944 -0.200765 0.1185359 3.479197 0.2622638 0.0766102 3.913966 0.205545 0.1185873 3.479208 -0.1868479 -0.22023 3.889199 -0.1509376 -0.3113797 3.404962 0.1915156 -0.22023 3.889216 0.1556168 -0.3113796 3.404975 0.02597004 0.24873 3.926182 0.002349913 0.2585251 3.503814 -0.2661153 0.07702982 3.924181 -0.1994523 -0.2443239 3.871004 0.219444 -0.2460008 3.917389 0.2749411 0.0770294 3.924204 0.2054985 0.04535442 3.736846 -0.2686471 0.1281002 3.591735 -0.01101458 0.2700669 3.913331 0.2747084 0.007930755 3.703156 0.003031313 0.3145738 3.656543 0.08841824 -0.2994019 3.848537 -0.02472347 0.07702976 4.013794 0.002334237 0.2654342 3.898114 -0.02130347 0.2487301 3.926178 0.007732152 0.2616684 3.95843 0.03512704 0.2694144 3.91337 0.0298922 0.2689716 3.898324 0.01125508 0.2907742 3.883226 -0.005761444 0.2774503 3.891716 -0.0681709 0.346292 3.978404 0.006707251 0.3439585 3.993622 0.1083009 0.3833535 3.950623 0.08281421 0.3805755 3.861202 0.02348047 0.3932332 3.787602 -0.05020582 0.3776868 3.90949 -0.1490595 0.4899811 3.880635 0.004204094 0.5487463 3.998623 0.2093852 0.4740735 3.892777 0.1556417 0.4629363 3.782745 0.03945469 0.4965119 3.664662 -0.1133362 0.4784863 3.765093 -0.1868479 -0.22023 3.889199 0.1556168 -0.3113796 3.404975 -0.1509376 -0.3113797 3.404962 0.1915156 -0.22023 3.889216 0.219444 -0.2460008 3.917389 -0.2661153 0.07702982 3.924181 -0.1994523 -0.2443239 3.871004 0.2749411 0.0770294 3.924204 0.2054985 0.04535442 3.736846 -0.02472347 0.07702976 4.013794 0.2747084 0.007930755 3.703156 0.01125508 0.2907742 3.883226 0.003031313 0.3145738 3.656543 0.219444 -0.2460008 3.917389 0.08841824 -0.2994019 3.848537 0.2749411 0.0770294 3.924204 0.007732152 0.2616684 3.95843 -0.02472347 0.07702976 4.013794 0.007732152 0.2616684 3.95843 -0.01101458 0.2700669 3.913331 0.03512704 0.2694144 3.91337 0.007732152 0.2616684 3.95843 0.006707251 0.3439585 3.993622 0.0298922 0.2689716 3.898324 0.01125508 0.2907742 3.883226 -0.005761444 0.2774503 3.891716 0.01125508 0.2907742 3.883226 0.02348047 0.3932332 3.787602 0.004204094 0.5487463 3.998623 -0.1490595 0.4899811 3.880635 -0.1133362 0.4784863 3.765093 0.03945469 0.4965119 3.664662 -0.392035 0.3379823 2.387454 0.3197696 0.3379887 2.386642 -0.3883802 -0.1355922 2.379286 0.3161203 -0.1355862 2.378475 -0.06585335 -0.1977288 2.378915 -0.3883802 -0.1355922 2.379286 -0.392035 0.3379823 2.387454 -0.392035 0.3379823 2.387454 0.3197696 0.3379887 2.386642 0.3161203 -0.1355862 2.378475 0.3197696 0.3379887 2.386642 -0.392035 0.3379823 2.387454 -0.3883802 -0.1355922 2.379286 -0.06585335 -0.1977288 2.378915 0.3161203 -0.1355862 2.378475 0.3197696 0.3379887 2.386642 -0.3883802 -0.1355922 2.379286 -0.392035 0.3379823 2.387454 0.3197696 0.3379887 2.386642 -0.03261899 0.1890946 3.403179 -0.3957241 0.3545188 2.974692 -0.4227235 0.1027066 3.328459 -0.4063898 -0.09668242 2.966694 -0.03270888 -0.1267528 3.382304 0.3013908 0.3520647 2.98173 0.312964 -0.1026208 2.964091 0.4549892 0.1899694 3.236311 0.3325481 0.1027072 3.328459 -0.05412763 -0.2214741 2.965419 -0.3906794 0.1780785 3.201315 -0.2326613 0.2281149 3.238626 0.1561929 0.2291488 3.236532 0.3411172 0.1829022 3.151312 0.4549892 0.1899694 3.236311 -0.4227235 0.1027066 3.328459 -0.4063898 -0.09668242 2.966694 -0.4227235 0.1027066 3.328459 -0.3906794 0.1780785 3.201315 -0.4063898 -0.09668242 2.966694 -0.4063898 -0.09668242 2.966694 -0.3957241 0.3545188 2.974692 0.312964 -0.1026208 2.964091 0.3013908 0.3520647 2.98173 -0.2326613 0.2281149 3.238626 -0.3957241 0.3545188 2.974692 -0.3957241 0.3545188 2.974692 -0.4063898 -0.09668242 2.966694 -0.3957241 0.3545188 2.974692 -0.3957241 0.3545188 2.974692 0.312964 -0.1026208 2.964091 0.3325481 0.1027072 3.328459 0.4549892 0.1899694 3.236311 0.4549892 0.1899694 3.236311 0.3013908 0.3520647 2.98173 0.312964 -0.1026208 2.964091 0.3013908 0.3520647 2.98173 0.3013908 0.3520647 2.98173 0.4549892 0.1899694 3.236311 0.4549892 0.1899694 3.236311 0.3325481 0.1027072 3.328459 0.1561929 0.2291488 3.236532 0.3013908 0.3520647 2.98173 0.3411172 0.1829022 3.151312 -0.3906794 0.1780785 3.201315 -0.2326613 0.2281149 3.238626 -0.03261899 0.1890946 3.403179 -0.4227235 0.1027066 3.328459 0.1561929 0.2291488 3.236532 0.3411172 0.1829022 3.151312 0.3325481 0.1027072 3.328459 -0.3957241 0.3545188 2.974692 -0.3906794 0.1780785 3.201315 0.3411172 0.1829022 3.151312 1.072381 0.2585957 3.09047 1.037549 0.1034522 2.995767 1.105892 0.09286016 3.243031 1.075182 -0.05141282 3.086214 0.448915 0.03364545 3.213696 1.037549 0.1034522 2.995767 1.105892 0.09286016 3.243031 0.448915 0.03364545 3.213696 1.075182 -0.05141282 3.086214 0.448915 0.03364545 3.213696 1.105892 0.09286016 3.243031 1.037549 0.1034522 2.995767 1.037549 0.1034522 2.995767 1.072381 0.2585957 3.09047 1.037549 0.1034522 2.995767 1.105892 0.09286016 3.243031 1.582833 0.1669644 2.921224 1.637684 0.09224009 3.10159 1.598283 -0.03379404 2.956631 1.820265 0.1843122 3.029542 1.825784 -0.03583908 3.089607 1.779658 -0.03721272 2.888283 1.780515 0.1672544 2.887419 1.582833 0.1669644 2.921224 1.637684 0.09224009 3.10159 1.820265 0.1843122 3.029542 1.825784 -0.03583908 3.089607 1.780515 0.1672544 2.887419 1.777177 1.600824 3.135229 1.268096 1.603569 3.223051 0.759016 1.606314 3.310877 2.01024 0.09143412 3.095023 1.299096 0.09548461 3.456958 0.5077868 0.09953457 3.354212 1.759013 -1.415346 3.138363 1.249934 -1.4126 3.226183 0.7408502 -1.409857 3.314005 1.779403 1.600824 3.143516 1.270322 1.603569 3.231338 0.7612419 1.606314 3.319164 2.012466 0.09143412 3.103311 1.301322 0.09548461 3.465245 0.5100126 0.09953457 3.362499 1.761239 -1.415346 3.14665 1.25216 -1.4126 3.23447 0.7430768 -1.409857 3.322292 -0.5004737 0.03367322 3.26171 -1.090082 0.1032419 2.995878 -1.123366 0.2578061 3.09065 -1.154393 0.09269857 3.243043 -1.12624 -0.05090928 3.086486 -0.5061848 0.1895768 3.284356 -1.090082 0.1032419 2.995878 -1.154393 0.09269857 3.243043 -0.5004737 0.03367322 3.26171 -0.5004737 0.03367322 3.26171 -1.12624 -0.05090928 3.086486 -1.154393 0.09269857 3.243043 -1.090082 0.1032419 2.995878 -1.090082 0.1032419 2.995878 -1.123366 0.2578061 3.09065 -1.090082 0.1032419 2.995878 -0.5061848 0.1895768 3.284356 -0.5061848 0.1895768 3.284356 -1.154393 0.09269857 3.243043 -0.5061848 0.1895768 3.284356 -1.616708 0.1669715 2.944594 -1.668689 0.09224063 3.125818 -1.631593 -0.03380304 2.980244 -1.852522 0.184282 3.056692 -1.814977 0.167221 2.913701 -1.814025 -0.03722077 2.914777 -1.857207 -0.03591942 3.116919 -1.616708 0.1669715 2.944594 -1.668689 0.09224063 3.125818 -1.852522 0.184282 3.056692 -1.857207 -0.03591942 3.116919 -1.814977 0.167221 2.913701 -1.697952 -2.71076 3.052523 -1.661431 -2.710224 2.908271 -1.797746 -2.711302 2.944987 -1.674911 -2.314934 3.062259 -1.638297 -2.314398 2.918029 -1.82935 -2.315477 2.940969 -1.7089 -2.189203 3.058038 -1.672379 -2.188666 2.913784 -1.808695 -2.189743 2.950501 -1.714001 1.79483 3.06067 -1.67748 1.795367 2.916417 -1.813795 1.79429 2.953134 -1.741036 -3.023218 2.959493 -1.741324 -3.023222 2.960626 -1.742108 -3.023226 2.959781 -1.661431 -2.710224 2.908271 -1.638297 -2.314398 2.918029 -1.797746 -2.711302 2.944987 -1.82935 -2.315477 2.940969 -1.672379 -2.188666 2.913784 -1.808695 -2.189743 2.950501 -1.672379 -2.188666 2.913784 -1.7089 -2.189203 3.058038 -1.808695 -2.189743 2.950501 -1.741324 -3.023222 2.960626 -1.741036 -3.023218 2.959493 -1.742108 -3.023226 2.959781 0.3850949 -0.0711978 1.98159 0.1337142 -0.179305 1.981567 0.385095 0.2364804 1.98159 0.163536 -0.1755896 1.762207 0.3027892 0.01008558 1.659379 0.03216493 -0.1755902 1.658688 0.3574009 0.2092292 1.646808 0.3761711 0.209328 1.974973 0.1793416 -0.08632922 0.9214356 0.1816734 -0.1548123 1.161517 0.2279763 -0.1439288 1.973702 0.3850949 -0.0711978 1.98159 0.385095 0.2364804 1.98159 0.3027892 0.01008558 1.659379 0.3850949 -0.0711978 1.98159 0.385095 0.2364804 1.98159 0.3574009 0.2092292 1.646808 0.1793416 -0.08632922 0.9214356 0.1793416 -0.08632922 0.9214356 0.1816734 -0.1548123 1.161517 0.2279763 -0.1439288 1.973702 0.2279763 -0.1439288 1.973702 0.3770144 0.08614838 1.061738 0.007944524 0.08579289 1.049936 0.007944524 0.08579289 1.049936 0.007944524 0.08579289 1.049936 0.3425677 0.2128111 0.3338318 0.2094854 0.3108041 0.333534 0.3384056 0.3081502 -0.00262475 0.05793154 0.212562 0.3335748 0.07176584 0.3063319 -0.002620816 0.201595 -0.06984239 0.1126141 0.2040982 -0.05861783 0.3309566 0.3635774 -0.346691 -0.003875076 0.08784282 -0.3757805 -0.003875434 0.4172044 0.3695437 0.2617909 0.01856595 0.3667967 0.2617921 0.2010843 -0.2576154 0.302075 0.07176584 0.3063319 -0.002620816 0.3384056 0.3081502 -0.00262475 0.3425677 0.2128111 0.3338318 0.05793154 0.212562 0.3335748 0.08784282 -0.3757805 -0.003875434 0.201595 -0.06984239 0.1126141 0.3635774 -0.346691 -0.003875076 0.201595 -0.06984239 0.1126141 0.08784282 -0.3757805 -0.003875434 0.2010843 -0.2576154 0.302075 0.01856595 0.3667967 0.2617921 0.4172044 0.3695437 0.2617909 0.09392988 0.4359598 1.929204 -0.1914053 0.4359514 1.929204 0.1268965 0.4098713 1.532466 0.1934157 0.3749225 0.8550412 -0.03235417 0.3752619 1.960799 -0.1246601 0.3880332 1.960566 0.09392988 0.4359598 1.929204 0.1268965 0.4098713 1.532466 0.1934157 0.3749225 0.8550412 0.1934157 0.3749225 0.8550412 0.1934157 0.3749225 0.8550412 -0.1246601 0.3880332 1.960566 -0.03235417 0.3752619 1.960799 -0.445699 -0.07120305 1.981536 -0.1949498 -0.179306 1.981553 -0.03623068 -0.1381472 1.969486 -0.3426755 -0.1325471 1.665494 -0.231616 -0.1816366 1.749656 -0.1268138 -0.1494649 1.6649 -0.221158 -0.09537243 0.9222129 -0.2137008 -0.1681186 1.158204 -0.2917605 -0.156558 1.973476 -0.445699 -0.07120305 1.981536 -0.445699 -0.07120305 1.981536 -0.3426755 -0.1325471 1.665494 -0.221158 -0.09537243 0.9222129 -0.221158 -0.09537243 0.9222129 -0.2137008 -0.1681186 1.158204 -0.2917605 -0.156558 1.973476 -0.2917605 -0.156558 1.973476 -0.4238743 0.08784407 1.058424 -0.07083094 0.08747094 1.046639 -0.07083094 0.08747094 1.046639 -0.07083094 0.08747094 1.046639 -0.4106832 0.2102324 0.3371244 -0.2703584 0.3090034 0.3369104 -0.4124743 0.3206249 -0.005247831 -0.1250131 0.2099841 0.3368809 -0.1424347 0.3186789 -0.005243778 -0.2651644 -0.06215357 0.3343962 -0.2739171 -0.07149767 0.1099912 -0.4379586 -0.3655861 -0.006498396 -0.1587085 -0.3964841 -0.006498098 -0.4666022 0.38134 0.2615911 -0.05877315 0.3785148 0.2615925 -0.2887799 -0.2809355 0.3003059 -0.4124743 0.3206249 -0.005247831 -0.1424347 0.3186789 -0.005243778 -0.4106832 0.2102324 0.3371244 -0.1250131 0.2099841 0.3368809 -0.2739171 -0.07149767 0.1099912 -0.1587085 -0.3964841 -0.006498098 -0.2739171 -0.07149767 0.1099912 -0.4379586 -0.3655861 -0.006498396 -0.1587085 -0.3964841 -0.006498098 -0.2887799 -0.2809355 0.3003059 -0.4666022 0.38134 0.2615911 -0.05877315 0.3785148 0.2615925 -0.4988944 0.2894641 1.96934 -0.1930773 0.4098627 1.531826 -0.4664877 0.3669197 1.559539 -0.2598983 0.387657 0.8544796 -0.494113 0.2689782 1.961029 -0.4988944 0.2894641 1.96934 -0.4988944 0.2894641 1.96934 -0.4664877 0.3669197 1.559539 -0.2598983 0.387657 0.8544796 -0.2598983 0.387657 0.8544796 -0.2598983 0.387657 0.8544796</float_array>
          <technique_common>
            <accessor source="#head_001-mesh-positions-array" count="369" stride="3">
              <param name="X" type="float"/>
              <param name="Y" type="float"/>
              <param name="Z" type="float"/>
            </accessor>
          </technique_common>
        </source>
        <source id="head_001-mesh-normals">
          <float_array id="head_001-mesh-normals-array" count="816">-0.9728862 -0.2294645 -0.02895486 -0.986331 -0.09054452 -0.1376695 0.9863383 -0.09080469 -0.137446 0.9728873 -0.2294631 -0.02893191 -7.49733e-6 -0.9827414 0.1849847 -8.63205e-6 -0.9827415 0.1849839 -0.5679004 0.8230814 0.005136907 -0.5882343 0.8085662 -0.01419073 -0.5882362 0.8085647 -0.01419132 0.5882351 0.8085663 -0.01414448 0.5882384 0.808564 -0.01414495 0.5676299 0.8232659 0.005435049 -0.1089034 -0.184235 0.9768303 0.934699 -0.1538225 -0.3204319 -0.9796468 -0.1993879 -0.02316915 -0.305867 -0.477083 0.8239157 -0.3475296 -0.8948577 0.2800947 -0.8681543 0.2762369 0.4123123 -0.3097068 0.4561741 0.8342584 -0.5951503 0.793604 0.1264471 -0.5951503 0.7936043 0.1264458 -0.579762 0.8078817 0.1058465 -0.5797609 0.8078815 0.1058533 0.6145424 0.7527664 -0.2359668 0.6145471 0.7527653 -0.2359583 0.7445533 0.6661811 0.04293143 0.7445537 0.6661807 0.04293119 -0.08057439 -0.7075224 0.7020825 0.5504031 -0.4205773 -0.721229 0.2857539 -0.06925708 0.9557971 0.5453857 0.7053425 0.4528206 0.278725 0.2305533 0.9322862 0.05530768 0.8632254 -0.5017799 0.04818147 0.9911302 -0.1238533 0.1341171 0.9800466 0.1467014 -0.2212367 0.9613248 -0.1640404 -0.9215012 -0.1623588 0.3528106 -0.1617603 -0.7080866 0.6873479 0.7340435 -0.5844733 0.3457906 0.4754481 -0.3409113 0.8110047 0.8302697 -0.4850317 -0.2745841 0.8514517 -0.4722732 -0.2280087 -0.1804082 -0.659515 -0.7297211 0.6316275 -0.4973351 -0.5947307 -0.4277039 -0.0294497 -0.9034391 -0.7663974 -0.3870322 -0.5126804 -0.8685211 -0.3646919 -0.3356649 -0.8709443 -0.3200587 -0.372852 -0.1998872 -0.02636128 0.9794643 -0.6390209 0.1531636 0.7537859 0.2850967 0.2689557 0.9199907 0.4537329 -0.0162115 0.8909904 0.6561567 -0.7365587 -0.1641336 0.5853936 -0.7839909 -0.2065739 0.4963097 -0.6954029 -0.5197033 0.3144762 -0.7856304 -0.5328129 -0.4456415 -0.8137134 -0.3731947 -0.3325139 -0.7003849 -0.6315819 -0.6071495 -0.6513984 -0.4550271 -0.7212223 -0.6749459 -0.1558417 -0.3672506 0.729934 0.5764749 -0.505277 -0.765209 0.3989365 -0.1738429 -0.0648939 0.982633 0.1460543 0.5397828 -0.8290373 -0.162372 0.6855491 0.7096886 -0.2587817 0.9168943 0.3038698 0.07378703 -0.1796487 -0.9809597 0.1576274 -0.5276169 -0.8347299 -0.1569688 -0.7660711 0.6232944 -0.148378 -0.7419162 0.6538689 -0.222194 0.2616161 0.939248 0.2685841 0.8609231 0.432058 0.33782 -0.003384113 -0.9412047 -0.9673688 -0.00583595 -0.2533055 -2.88013e-5 0.977822 0.2094376 2.29912e-4 0.9778812 0.2091612 0.3938059 -0.9156954 -0.08011788 -0.1891348 -0.981822 0.01592707 0.240364 -0.9628924 -0.1227328 0.1511139 -0.1836675 -0.9713037 0.4031342 -0.6385133 0.6555789 0.01525235 -0.9998367 0.009695172 0.01894199 0.9933519 -0.1135479 -0.5714956 -0.1384272 0.8088454 0.327799 -0.8210644 0.4673342 0.4561088 0.7103565 0.5360582 -0.9995191 -0.007193326 -0.03016823 -0.9996937 0.02375453 -0.006949126 0.9999526 -0.007806122 0.005828738 0.9992468 0.02425926 0.0302872 -5.43503e-5 0.900691 0.4344603 -0.001192688 0.9016142 0.4325395 0.003802895 0.9995972 -0.02812451 -3.59261e-5 0.9997204 -0.02364802 -0.3246058 -0.9186013 0.2253944 -0.333302 -0.9413775 0.05213779 0.1603792 -0.9861128 -0.04313033 -0.1890944 -0.9813008 -0.03594857 -0.9773402 -0.03624701 -0.2085478 -0.08594596 -0.7418505 0.6650348 0.009593367 -0.9135102 0.4067028 -0.1739359 -0.4683682 -0.8662434 -0.03721284 0.01859134 -0.9991344 -0.1999434 0.4805142 -0.8538903 -0.04131728 -0.1451098 0.9885525 -0.04523617 0.8883062 0.4570186 -0.147901 0.6856519 0.712746 -0.1754634 0.5413409 -0.8222912 0.1878889 0.6854912 0.7034201 0.2639127 0.9168423 0.2995837 -0.1124873 -0.1809716 -0.9770343 -0.1872355 -0.5289343 -0.8277509 0.1787537 -0.7660363 0.6174427 0.1716425 -0.7415261 0.6485969 0.2374692 0.2612205 0.9356133 -0.2619366 0.8608339 0.4362961 -0.3526614 -0.002478301 -0.9357478 0.9631913 -0.005177438 -0.2687671 -0.1654367 -0.1836251 -0.968975 -0.3926227 -0.6385432 0.6618989 -0.01498138 -0.9998352 0.01025456 -0.02084791 0.9933319 -0.1133901 0 0 1 0.6547735 -0.1330775 0.7440176 -0.03118091 -0.8700551 0.4919674 -0.5255542 0.5375961 0.659381 0.9741514 -0.03640687 -0.2229434 0.03657007 -0.7389937 0.6727192 -0.01940435 -0.8730736 0.4872023 0.1704182 -0.4657378 -0.8683583 0.03240567 0.03956878 -0.9986913 0.1794276 0.4829042 -0.8570935 -0.03138405 -0.1419116 0.9893818 0.02923744 0.8510658 0.5242445 0.09466117 0.6845096 0.7228318 0.5297989 -0.7507447 0.3945827 0.1852946 -0.06485778 0.9805405 0.4390924 0.6854193 0.58086 -0.3942397 -0.9144688 -0.09122437 0.9852322 -4.80903e-7 0.1712235 0.9867773 -0.0103935 0.1617489 -0.9684629 -0.01176637 0.24888 -0.9828611 -0.1409457 0.1188211 -0.4295501 0.9030292 0.004993915 0.5751724 0.8105527 -0.1103672 0.3077395 -0.9498723 0.05512851 0.3026738 -0.9326481 0.1963576 -0.3664395 0.7010865 0.6117188 -0.2735705 0.8560649 0.4385342 -0.001334905 0.9726511 0.2322674 0.3901409 0.8315685 0.3953277 0.2962805 0.7964694 0.5271191 0.3947793 -0.9179848 0.0381217 0.6535995 -0.6772691 -0.3378083 -0.3954207 -0.9171853 0.04912734 -0.4534351 -0.8876362 0.08061474 -0.2391955 -0.9688544 0.06408315 0.01205688 -0.9998104 -0.01529502 0.2487964 -0.9681031 -0.02960902 0.2619469 -0.9641646 -0.04207628 -2.93563e-5 0.9978448 -0.06561821 1.04312e-4 0.9978519 -0.06551128 0.9688898 -1.45632e-7 -0.2474928 0.9618456 -0.2674183 -0.0577985 -0.9832182 -0.1485952 -0.1058376 -0.9269019 -0.2822444 -0.2473679 -0.4354534 0.8983954 -0.05714917 -0.1356048 0.9754284 0.1736401 0.5753545 0.809987 -0.1135278 0.6552038 0.7554371 0.004767954 0.1605183 -0.9864163 0.03488332 -0.2219945 -0.9624676 -0.1561233 -0.87961 -0.4744447 0.03447467 -0.9223045 -0.3607653 -0.138575 0.8828346 -0.4489148 -0.1381264 0.940928 -0.3385422 0.006616353 0.8889786 -0.4576824 -0.01561611 0.9200659 -0.3574197 -0.1604052 -0.8732547 -0.4650692 -0.1453858 -0.9462236 -0.3195927 0.05021417 0.007202446 0.9994949 0.03095662 -0.006819128 0.9999216 -0.01050919 0.5786613 0.7865235 0.2157129 -0.5321149 0.8209577 0.2070806 -0.5558792 0.7903004 0.2577279 0.5482639 0.8046998 0.2277387 -0.6918106 -0.01763319 0.7218638 0.0388379 -0.3681511 0.9289544 0.6080647 0.02185845 0.7935866 -0.038648 -0.349283 0.9362199 0.6869229 -0.01690548 0.7265338 -0.6035726 0.02096277 0.7970325 1.94588e-4 0.001749455 -0.9999985 2.81821e-5 0.001821279 -0.9999984 -2.77313e-5 0.001908183 -0.9999982 -1.92175e-4 0.00183469 -0.9999983 0.9675696 -0.06258332 0.2447296 0.9674258 -0.06234818 0.2453572 -0.259727 -0.03053295 -0.9651993 -0.1193364 0.03143996 -0.9923561 -0.7328188 0.02593398 0.6799295 -0.6170337 -0.04128909 0.7858529 0.9352789 0.2615697 0.2384007 0.9356044 0.2609098 0.2378457 -0.1192116 0.0945118 -0.9883604 -0.2579609 -0.1023592 -0.9607179 -0.6113386 -0.1391106 0.7790465 -0.7314397 0.06872558 0.6784341 0.9694122 0.001079022 0.2454358 0.9694132 0.001078903 0.2454321 -0.2600846 3.04982e-4 -0.9655858 -0.2600859 3.05038e-4 -0.9655855 -0.7329977 -0.001387774 0.6802298 -0.7329965 -0.001387774 0.680231 0.00774306 -0.9999677 -0.002161264 -0.0074054 0.9999709 0.001849234 0.9495521 -0.2022857 0.2396489 0.9494546 -0.2022342 0.2400782 -0.7292307 -0.09795385 0.6772205 -0.7292805 -0.09796303 0.6771655 -0.258302 -0.09168869 -0.9617034 -0.2585815 -0.09164869 -0.961632 0.8629472 0.5008645 -0.06676113 -0.878576 0.4425796 -0.1795204 -0.9067831 0.3941404 -0.1496596 0.8706891 0.4801381 -0.10662 -0.6220182 -0.7600122 0.1883478 -0.9514936 -0.2855203 -0.1146219 0.7206973 -0.6640602 -0.1990466 0.9409028 -0.316493 0.1205576 -0.7591944 -0.6278061 -0.1717074 0.7201711 -0.6653075 -0.1967728 -0.8902977 -0.443883 0.1016755 -0.8213547 -0.5678146 0.05443453 0.9207805 -0.3864669 0.05297803 0.769123 -0.6381255 -0.03529697 0.7234428 -0.6791601 0.123984 0.936571 -0.3330668 -0.1090942 -0.7279763 -0.6550912 -0.2022528 -0.9531008 -0.2455679 0.1769055 0.8182643 -0.5415481 -0.1927936 -0.7238754 -0.6654248 -0.1822483 0.9461789 -0.2867654 0.1500371 0.8856778 -0.4552441 0.0912562 -0.9031606 -0.4290116 0.01581192 -0.7590093 -0.6479774 -0.06348431 0.006926834 0.9998906 -0.01306843 -0.006890356 0.9999082 -0.0116648 0.7168272 0.6451115 0.2645561 -0.7509514 0.6251418 0.2127671 -0.7620921 0.5932461 0.2593742 0.7433142 0.6234241 0.2425415 -0.3064609 0.9511582 0.03714662 0.3729742 0.9247348 0.07586872 0.4582754 0.7062335 0.5396463 -0.3338104 0.8647047 0.3753086 -0.4533044 -0.04628306 -0.8901534 -0.1687683 -0.1544576 -0.9734784 0.1283509 -0.04988592 -0.9904734 -0.1687773 -0.1544575 -0.9734769 -0.4527906 0.04988873 -0.8902201 -0.1671478 0.1544583 -0.9737578 -0.1699985 4.92492e-7 -0.9854443 0.1281177 0.1459357 -0.9809631 0.1687688 0.1544575 0.9734783 0.453304 0.04628312 0.8901537 0.1687752 0.1544575 0.9734772 -0.1283504 0.04988622 0.9904735 0.1671478 -0.1544585 0.9737578 0.4527906 -0.04988884 0.8902201 -0.1281181 -0.1459358 0.9809631 0.1700004 -5.35526e-7 0.9854441</float_array>
          <technique_common>
            <accessor source="#head_001-mesh-normals-array" count="272" stride="3">
              <param name="X" type="float"/>
              <param name="Y" type="float"/>
              <param name="Z" type="float"/>
            </accessor>
          </technique_common>
        </source>
        <source id="head_001-mesh-map-0">
          <float_array id="head_001-mesh-map-0-array" count="1638">0.145276 0.947745 0.06945997 0.949916 0.156639 0.753519 0.06945997 0.949916 0.07055997 0.764589 0.156639 0.753519 0.07055997 0.764589 0.06945997 0.949916 0.156639 0.753519 0.145276 0.947745 0.156639 0.753519 0.06945997 0.949916 0.155093 0.755177 0.308444 0.755177 0.137132 0.956166 0.137132 0.956166 0.308444 0.755177 0.326405 0.956166 0.06945997 0.949916 0.00515896 0.771034 0.07055997 0.764589 0.06945997 0.949916 0.01408398 0.94574 0.00830996 0.933272 0.06945997 0.949916 0.00830996 0.933272 0.00515896 0.771034 0.00515896 0.771034 0.00830996 0.933272 0.01408398 0.94574 0.01408398 0.94574 0.06945997 0.949916 0.00515896 0.771034 0.06945997 0.949916 0.07055997 0.764589 0.00515896 0.771034 0.004173994 0.994526 0.02154695 0.910779 0.130715 0.910342 0.183908 0.977051 0.02070695 0.963442 0.205685 0.956954 0.287573 0.948255 0.03390097 0.953627 0.170504 0.976342 0.067083 0.994526 0.004173994 0.994526 0.130715 0.910342 0.207982 0.95717 0.199765 0.951967 0.170504 0.976342 0.069413 0.985926 0.247946 0.986772 0.264536 0.986007 0.264536 0.986007 0.170504 0.976342 0.069413 0.985926 0.170504 0.976342 0.264536 0.986007 0.274063 0.984406 0.274063 0.984406 0.287573 0.948255 0.170504 0.976342 0.287573 0.948255 0.274063 0.984406 0.282719 0.984353 0.282719 0.984353 0.327643 0.971447 0.287573 0.948255 0.193436 0.952071 0.286934 0.98213 0.284115 0.983659 0.284115 0.983659 0.183908 0.977051 0.193436 0.952071 0.329393 0.96651 0.301098 0.981485 0.286934 0.98213 0.286934 0.98213 0.193436 0.952071 0.329393 0.96651 0.01422595 0.948491 0.02013999 0.957845 0.03390097 0.953627 0.007432997 0.954387 0.205685 0.956954 0.02070695 0.963442 0.145178 0.994526 0.067083 0.994526 0.130715 0.910342 0.183908 0.977051 0.284115 0.983659 0.277839 0.984507 0.277839 0.984507 0.165775 0.986055 0.183908 0.977051 0.05650198 0.955651 0.01809996 0.996454 0.06624197 0.960029 0.05650198 0.955651 0.06624197 0.960029 0.07482296 0.921612 0.05650198 0.955651 0.07482296 0.921612 0.055637 0.880004 0.05650198 0.955651 0.055637 0.880004 0.06538701 0.915306 0.194167 0.967719 0.198915 0.983557 0.147204 0.995373 0.147204 0.995373 0.145914 0.990032 0.194167 0.967719 0.197736 0.984784 0.193574 0.968948 0.121962 0.981034 0.121962 0.981034 0.145892 0.996414 0.197736 0.984784 0.193574 0.968948 0.194074 0.963685 0.125023 0.94976 0.125023 0.94976 0.121962 0.981034 0.193574 0.968948 0.194074 0.963685 0.180701 0.958219 0.1182219 0.923895 0.1182219 0.923895 0.125023 0.94976 0.194074 0.963685 0.181578 0.957054 0.189797 0.960107 0.127081 0.965717 0.127081 0.965717 0.11871 0.922954 0.181578 0.957054 0.189797 0.960107 0.194167 0.967719 0.145914 0.990032 0.145914 0.990032 0.127081 0.965717 0.189797 0.960107 0.145914 0.990032 0.147204 0.995373 0.01941496 0.995871 0.01941496 0.995871 0.05735194 0.95493 0.145914 0.990032 0.145892 0.996414 0.121962 0.981034 0.06624197 0.960029 0.06624197 0.960029 0.01809996 0.996454 0.145892 0.996414 0.121962 0.981034 0.125023 0.94976 0.07482296 0.921612 0.07482296 0.921612 0.06624197 0.960029 0.121962 0.981034 0.125023 0.94976 0.1182219 0.923895 0.055637 0.880004 0.055637 0.880004 0.07482296 0.921612 0.125023 0.94976 0.11871 0.922954 0.127081 0.965717 0.06577897 0.914555 0.06577897 0.914555 0.055628 0.879288 0.11871 0.922954 0.127081 0.965717 0.145914 0.990032 0.05735194 0.95493 0.05735194 0.95493 0.06577897 0.914555 0.127081 0.965717 0.559758 0.985682 0.479316 0.995305 0.527333 0.917585 0.349862 0.914758 0.440812 0.993971 0.352835 0.984809 0.440812 0.993971 0.440789 0.997919 0.352835 0.984809 0.198987 0.714499 0.202354 0.741934 0.082372 0.715938 0.201869 0.627592 0.198987 0.714499 0.07923495 0.65381 0.07923495 0.65381 0.198987 0.714499 0.082372 0.715938 0.07701998 0.648772 0.20526 0.630158 0.07638496 0.652039 0.200624 0.670607 0.07638496 0.652039 0.20526 0.630158 0.07597696 0.693174 0.07638496 0.652039 0.200624 0.670607 0.07597696 0.693174 0.200624 0.670607 0.203934 0.737134 0.07923495 0.65381 0.010508 0.663952 0.014108 0.64756 0.07923495 0.65381 0.082372 0.715938 0.010508 0.663952 0.07638496 0.652039 0.01107996 0.645983 0.01067894 0.645756 0.00978899 0.686517 0.01067894 0.645756 0.01107996 0.645983 0.852688 0.605 0.81092 0.605396 0.890596 0.519365 0.763052 0.520415 0.890596 0.519365 0.81092 0.605396 0.840914 0.912789 0.88696 0.911363 0.874218 0.989686 0.805776 0.99042 0.747985 0.991039 0.782023 0.913345 0.782023 0.913345 0.810444 0.910728 0.805776 0.99042 0.01067894 0.645756 0.07701998 0.648772 0.07638496 0.652039 0.01308494 0.702966 0.07638496 0.652039 0.07597696 0.693174 0.01308494 0.702966 0.01107996 0.645983 0.07638496 0.652039 0.082372 0.715938 0.01458996 0.710298 0.010508 0.663952 0.566062 0.993078 0.557241 0.92513 0.492027 0.970242 0.508396 0.989228 0.547237 0.948308 0.511889 0.920119 0.516179 0.990443 0.566062 0.993078 0.492027 0.970242 0.369856 0.801433 0.370772 0.799894 0.365095 0.91095 0.505069 0.921629 0.505468 0.793439 0.507976 0.919904 0.528707 0.804712 0.529586 0.806263 0.526686 0.915453 0.541673 0.923297 0.541208 0.797238 0.544766 0.92717 0.491753 0.976342 0.386457 0.975144 0.347725 0.919248 0.347725 0.919248 0.536525 0.91904 0.491753 0.976342 0.724438 0.79877 0.727256 0.926961 0.544766 0.92717 0.724438 0.79877 0.544766 0.92717 0.541208 0.797238 0.349862 0.914758 0.43644 0.915098 0.440812 0.993971 0.355539 0.803702 0.43644 0.915098 0.349862 0.914758 0.434817 0.804165 0.528707 0.804712 0.43644 0.915098 0.43644 0.915098 0.355539 0.803702 0.434817 0.804165 0.00978899 0.686517 0.01107996 0.645983 0.01308494 0.702966 0.1860499 0.632124 0.183284 0.719077 0.435827 0.640062 0.435827 0.640062 0.183284 0.719077 0.433929 0.734629 0.433929 0.734629 0.183284 0.719077 0.187092 0.746252 0.349862 0.914758 0.341352 0.839295 0.352467 0.916288 0.188565 0.745531 0.185203 0.718112 0.437213 0.735452 0.435756 0.632583 0.1860499 0.632124 0.435827 0.640062 0.443568 0.632297 0.437213 0.735452 0.185203 0.718112 0.185203 0.718112 0.188108 0.631275 0.443568 0.632297 0.19923 0.713884 0.07551896 0.720262 0.202697 0.741344 0.201949 0.626851 0.07680696 0.655165 0.19923 0.713884 0.07680696 0.655165 0.07551896 0.720262 0.19923 0.713884 0.07454699 0.649975 0.07397198 0.653252 0.204318 0.636144 0.200194 0.67682 0.204318 0.636144 0.07397198 0.653252 0.06897497 0.697079 0.200194 0.67682 0.07397198 0.653252 0.06897497 0.697079 0.204342 0.743454 0.200194 0.67682 0.07680696 0.655165 0.006173968 0.652997 0.002845942 0.669416 0.07680696 0.655165 0.002845942 0.669416 0.07551896 0.720262 0.07397198 0.653252 0.002854943 0.650801 0.003213942 0.650967 0.002715945 0.691497 0.003213942 0.650967 0.002854943 0.650801 0.002854943 0.650801 0.07397198 0.653252 0.07454699 0.649975 0.006347954 0.707859 0.06897497 0.697079 0.07397198 0.653252 0.006347954 0.707859 0.07397198 0.653252 0.003213942 0.650967 0.07551896 0.720262 0.002845942 0.669416 0.007685959 0.715681 0.554006 0.924453 0.562856 0.992484 0.562856 0.992484 0.562856 0.992484 0.490885 0.969731 0.554006 0.924453 0.507831 0.990881 0.510702 0.921275 0.546699 0.949966 0.344855 0.89512 0.385825 0.886616 0.385825 0.886616 0.385825 0.886616 0.34436 0.822329 0.344855 0.89512 0.002715945 0.691497 0.006347954 0.707859 0.003213942 0.650967 0.188013 0.630595 0.439073 0.641002 0.184824 0.717748 0.439073 0.641002 0.434372 0.735053 0.184824 0.717748 0.434372 0.735053 0.188475 0.744996 0.184824 0.717748 0.526686 0.915453 0.523804 0.91877 0.540575 0.842853 0.188907 0.745704 0.437328 0.736746 0.185446 0.718283 0.439142 0.633515 0.439073 0.641002 0.188013 0.630595 0.440202 0.633801 0.185446 0.718283 0.437328 0.736746 0.185446 0.718283 0.440202 0.633801 0.188188 0.631428 0.526686 0.915453 0.517963 0.98661 0.440812 0.993971 0.440812 0.993971 0.517963 0.98661 0.440789 0.997919 0.557513 0.98458 0.524591 0.919658 0.481835 0.994688 0.737093 0.913767 0.782023 0.913345 0.747985 0.991039 0.887508 0.910829 0.944346 0.910587 0.876206 0.987359 0.876206 0.987359 0.944346 0.910587 0.961364 0.989761 0.962741 0.989347 0.944368 0.910537 0.877557 0.98856 0.877557 0.98856 0.944368 0.910537 0.887532 0.911011 0.763052 0.520415 0.81092 0.605396 0.754071 0.599465 0.958102 0.990366 0.944776 0.910839 0.996009 0.904731 0.528707 0.804712 0.526686 0.915453 0.43644 0.915098 0.43644 0.915098 0.526686 0.915453 0.440812 0.993971 0.418956 0.95529 0.481553 0.927541 0.509342 0.949107 0.509342 0.949107 0.509878 0.970291 0.418956 0.95529 0.397144 0.925109 0.481553 0.927541 0.418956 0.95529 0.358673 0.965152 0.362754 0.949443 0.397144 0.925109 0.397144 0.925109 0.418956 0.95529 0.358673 0.965152 0.88696 0.911363 0.840914 0.912789 0.845914 0.870069 0.845914 0.870069 0.870705 0.849831 0.88696 0.911363 0.782023 0.913345 0.737093 0.913767 0.755059 0.852116 0.755059 0.852116 0.77509 0.868299 0.782023 0.913345 0.840914 0.912789 0.810444 0.910728 0.822213 0.850156 0.822213 0.850156 0.845914 0.870069 0.840914 0.912789 0.810444 0.910728 0.782023 0.913345 0.77509 0.868299 0.77509 0.868299 0.793737 0.851634 0.810444 0.910728 0.81092 0.605396 0.852688 0.605 0.858021 0.668 0.858021 0.668 0.799396 0.668566 0.81092 0.605396 0.945034 0.9105 0.887186 0.910736 0.90337 0.846569 0.90337 0.846569 0.942232 0.844446 0.945034 0.9105 0.887058 0.911428 0.944912 0.910933 0.906157 0.846879 0.906157 0.846879 0.873895 0.850834 0.887058 0.911428 0.754071 0.599465 0.81092 0.605396 0.799396 0.668566 0.799396 0.668566 0.759338 0.664541 0.754071 0.599465 0.996009 0.904731 0.944776 0.910839 0.950202 0.846519 0.950202 0.846519 0.990677 0.841731 0.996009 0.904731 0.840914 0.912789 0.874218 0.989686 0.805776 0.99042 0.805776 0.99042 0.810444 0.910728 0.840914 0.912789 0.687643 0.76064 0.687538 0.717232 0.723343 0.702917 0.720643 0.786963 0.687643 0.76064 0.723343 0.702917 0.65036 0.785866 0.642892 0.70247 0.687538 0.717232 0.687538 0.717232 0.687643 0.76064 0.65036 0.785866 0.684821 0.717954 0.682278 0.762282 0.721743 0.703854 0.682278 0.762282 0.714963 0.788934 0.721743 0.703854 0.64481 0.702906 0.644058 0.787187 0.684821 0.717954 0.682278 0.762282 0.684821 0.717954 0.644058 0.787187 0.720971 0.789682 0.650089 0.788601 0.685425 0.709182 0.646672 0.786982 0.716978 0.788736 0.685012 0.708611 0.643016 0.702833 0.646672 0.786982 0.685012 0.708611 0.685012 0.708611 0.716978 0.788736 0.723438 0.703765 0.685425 0.709182 0.650089 0.788601 0.647047 0.703613 0.724012 0.704098 0.720971 0.789682 0.685425 0.709182 0.720643 0.786963 0.717823 0.787346 0.687643 0.76064 0.677509 0.782711 0.682694 0.775083 0.680638 0.785134 0.684584 0.762081 0.642241 0.787345 0.646672 0.786982 0.686398 0.778659 0.70774 0.787906 0.66468 0.785995 0.714963 0.788934 0.682278 0.762282 0.712101 0.789278 0.650089 0.788601 0.645612 0.789028 0.68768 0.763367 0.720971 0.789682 0.718117 0.790066 0.645612 0.789028 0.645612 0.789028 0.650089 0.788601 0.720971 0.789682 0.716978 0.788736 0.646672 0.786982 0.642241 0.787345 0.642241 0.787345 0.71415 0.78908 0.716978 0.788736 0.445664 0.759699 0.445617 0.759663 0.410741 0.755014 0.410741 0.755014 0.410788 0.755066 0.445664 0.759699 0.445632 0.781592 0.445632 0.760752 0.410718 0.755988 0.410718 0.755988 0.410761 0.786372 0.445632 0.781592 0.445638 0.780503 0.445664 0.759699 0.410788 0.755066 0.410788 0.755066 0.410729 0.785398 0.445638 0.780503 0.410788 0.755066 0.410741 0.755014 0.399638 0.760634 0.399638 0.760634 0.399685 0.76067 0.410788 0.755066 0.410761 0.786372 0.410718 0.755988 0.399653 0.759954 0.399653 0.759954 0.399652 0.780794 0.410761 0.786372 0.410729 0.785398 0.410788 0.755066 0.399685 0.76067 0.399685 0.76067 0.399659 0.781474 0.410729 0.785398 0.388897 0.786068 0.339922 0.786057 0.339922 0.753653 0.339922 0.753653 0.388897 0.753664 0.388897 0.786068 0.339922 0.786057 0.339922 0.786079 0.339922 0.753675 0.339922 0.753675 0.339922 0.753653 0.339922 0.786057 0.339922 0.786079 0.388897 0.786068 0.388897 0.753664 0.388897 0.753664 0.339922 0.753675 0.339922 0.786079 0.473171 0.770026 0.473171 0.77019 0.473172 0.77019 0.388897 0.753664 0.339922 0.753653 0.339922 0.753675 0.445617 0.759663 0.445664 0.759699 0.473168 0.770962 0.473168 0.770962 0.473168 0.770961 0.445617 0.759663 0.445664 0.759699 0.445638 0.780503 0.473168 0.771125 0.473168 0.771125 0.473168 0.770962 0.445664 0.759699 0.445632 0.760752 0.445632 0.781592 0.473171 0.77019 0.473171 0.77019 0.473171 0.770026 0.445632 0.760752 0.919012 0.753891 0.96197 0.751586 0.943909 0.910214 0.836017 0.687893 0.793016 0.688639 0.837436 0.84505 0.960673 0.75338 0.916057 0.755801 0.944215 0.910656 0.796669 0.685432 0.841372 0.686103 0.840067 0.843221 0.853263 0.675898 0.84804 0.828272 0.814251 0.853157 0.753844 0.666986 0.853263 0.675898 0.814251 0.853157 0.983032 0.566497 0.919012 0.753891 0.885611 0.726103 0.885611 0.726103 0.883035 0.573661 0.983032 0.566497 0.881854 0.729256 0.868906 0.776417 0.915643 0.754141 0.919012 0.753891 0.871846 0.77303 0.885611 0.726103 0.749573 0.845744 0.837436 0.84505 0.793016 0.688639 0.915643 0.754141 0.868906 0.776417 0.8722 0.911246 0.919012 0.753891 0.943909 0.910214 0.872797 0.907897 0.871846 0.77303 0.919012 0.753891 0.872797 0.907897 0.84604 0.824454 0.850571 0.672287 0.810598 0.84995 0.850571 0.672287 0.745432 0.665482 0.810598 0.84995 0.916057 0.755801 0.978366 0.567906 0.880085 0.728622 0.872912 0.576558 0.880085 0.728622 0.978366 0.567906 0.869256 0.772358 0.883853 0.725439 0.919295 0.750934 0.866305 0.775791 0.916057 0.755801 0.880085 0.728622 0.840067 0.843221 0.747708 0.842329 0.796669 0.685432 0.869256 0.772358 0.919295 0.750934 0.870335 0.907831 0.944215 0.910656 0.916057 0.755801 0.869736 0.911224 0.916057 0.755801 0.866305 0.775791 0.869736 0.911224 0.984461 0.566466 0.984911 0.56647 0.963999 0.751605 0.976487 0.567966 0.976049 0.56797 0.958644 0.753395 0.919012 0.753891 0.983032 0.566497 0.96197 0.751586 0.77125 0.852411 0.753844 0.666986 0.814251 0.853157 0.960673 0.75338 0.978366 0.567906 0.916057 0.755801 0.810598 0.84995 0.745432 0.665482 0.765895 0.850621 0.962098 0.910497 0.960673 0.75338 0.944215 0.910656 0.943909 0.910214 0.96197 0.751586 0.960659 0.908743 0.346373 0.897108 0.347739 0.821698 0.387128 0.887253 0.514318 0.991225 0.490885 0.969731 0.562856 0.992484 0.68821 0.03139698 0.709282 0.205008 0.643909 0.205008 0.643909 0.205008 0.643909 0.03139698 0.68821 0.03139698 0.643909 0.205008 0.578536 0.205008 0.599608 0.03139698 0.599608 0.03139698 0.643909 0.03139698 0.643909 0.205008 0.643909 0.205008 0.709282 0.205008 0.68821 0.378619 0.68821 0.378619 0.643909 0.378619 0.643909 0.205008 0.643909 0.378619 0.599608 0.378619 0.578536 0.205008 0.578536 0.205008 0.643909 0.205008 0.643909 0.378619 0.850056 0.005466997 0.908604 0.005466997 0.908604 0.250713 0.908604 0.250713 0.822207 0.250713 0.850056 0.005466997 0.908604 0.250713 0.908604 0.005466997 0.967152 0.005466997 0.967152 0.005466997 0.995 0.250713 0.908604 0.250713 0.908604 0.250713 0.908604 0.495958 0.850056 0.495958 0.850056 0.495958 0.822207 0.250713 0.908604 0.250713 0.908604 0.495958 0.908604 0.250713 0.995 0.250713 0.995 0.250713 0.967152 0.495958 0.908604 0.495958</float_array>
          <technique_common>
            <accessor source="#head_001-mesh-map-0-array" count="819" stride="2">
              <param name="S" type="float"/>
              <param name="T" type="float"/>
            </accessor>
          </technique_common>
        </source>
        <vertices id="head_001-mesh-vertices">
          <input semantic="POSITION" source="#head_001-mesh-positions"/>
        </vertices>
        <triangles material="spearman-suebi2_Mat-material" count="273">
          <input semantic="VERTEX" source="#head_001-mesh-vertices" offset="0"/>
          <input semantic="NORMAL" source="#head_001-mesh-normals" offset="1"/>
          <input semantic="TEXCOORD" source="#head_001-mesh-map-0" offset="2" set="0"/>
          <p>4 0 0 0 0 1 5 0 2 0 1 3 1 1 4 5 1 5 3 2 6 2 2 7 7 2 8 6 3 9 7 3 10 2 3 11 42 4 12 41 4 13 40 4 14 40 5 15 41 5 16 43 5 17 0 6 18 9 6 19 1 6 20 0 7 21 22 7 22 21 7 23 0 8 24 21 8 25 9 8 26 9 9 27 21 9 28 8 9 29 8 10 30 2 10 31 9 10 32 2 11 33 3 11 34 9 11 35 10 12 36 11 12 37 12 12 38 13 13 39 44 13 40 14 13 41 15 14 42 46 14 43 45 14 44 20 15 45 10 15 46 12 15 47 48 16 48 17 16 49 47 16 50 49 17 51 23 17 52 16 17 53 16 18 54 45 18 55 49 18 56 45 19 57 16 19 58 27 19 59 27 20 60 15 20 61 45 20 62 15 21 63 27 21 64 26 21 65 26 22 66 18 22 67 15 22 68 50 23 69 25 23 70 24 23 71 24 24 72 13 24 73 50 24 74 52 25 75 51 25 76 25 25 77 25 26 78 50 26 79 52 26 80 19 27 81 53 27 82 46 27 83 54 28 84 14 28 85 44 28 86 55 29 87 20 29 88 12 29 89 13 30 90 24 30 91 56 30 92 56 31 93 57 31 94 13 31 95 34 32 96 35 32 97 36 32 98 34 33 99 36 33 100 37 33 101 34 34 102 37 34 103 38 34 104 34 35 105 38 35 106 39 35 107 59 36 108 58 36 109 29 36 110 29 37 111 28 37 112 59 37 113 61 38 114 60 38 115 30 38 116 30 39 117 62 39 118 61 39 119 60 40 120 63 40 121 31 40 122 31 41 123 30 41 124 60 41 125 63 42 126 64 42 127 32 42 128 32 43 129 31 43 130 63 43 131 66 44 132 65 44 133 33 44 134 33 45 135 67 45 136 66 45 137 65 46 138 59 46 139 28 46 140 28 47 141 33 47 142 65 47 143 28 48 144 29 48 145 68 48 146 68 49 147 69 49 148 28 49 149 62 50 150 30 50 151 36 50 152 36 51 153 35 51 154 62 51 155 30 52 156 31 52 157 37 52 158 37 53 159 36 53 160 30 53 161 31 54 162 32 54 163 38 54 164 38 55 165 37 55 166 31 55 167 67 56 168 33 56 169 70 56 170 70 57 171 71 57 172 67 57 173 33 58 174 28 58 175 69 58 176 69 59 177 70 59 178 33 59 179 101 60 180 102 60 181 92 60 182 94 61 183 95 61 184 93 61 185 95 62 186 91 62 187 93 62 188 193 63 189 192 63 190 211 63 191 194 64 192 193 64 193 212 64 194 212 65 195 193 65 196 211 65 197 218 66 198 197 66 199 213 66 200 195 67 201 213 67 202 197 67 203 219 68 204 213 68 205 195 68 206 219 69 207 195 69 208 198 69 209 212 70 210 214 70 211 217 70 212 212 71 213 211 71 214 214 71 215 213 72 216 216 72 217 215 72 218 220 73 219 215 73 220 216 73 221 300 74 222 301 74 223 73 74 224 72 75 225 73 75 226 301 75 227 251 76 228 250 76 229 75 76 230 76 77 231 74 77 232 314 77 233 314 78 234 315 78 235 76 78 236 215 79 237 218 79 238 213 79 239 221 80 240 213 80 241 219 80 242 221 81 243 216 81 244 213 81 245 211 82 246 222 82 247 214 82 248 196 83 249 191 83 250 106 83 251 108 84 252 199 84 253 107 84 254 109 85 255 196 85 256 106 85 257 78 86 258 77 86 259 110 86 260 112 87 261 79 87 262 111 87 263 81 88 264 80 88 265 97 88 266 113 89 267 82 89 268 96 89 269 115 90 270 103 90 271 114 90 272 114 91 273 116 91 274 115 91 275 83 92 276 117 92 277 96 92 278 83 93 279 96 93 280 82 93 281 94 94 282 100 94 283 95 94 284 84 95 285 100 95 286 94 95 287 85 96 288 81 96 289 100 96 290 100 97 291 84 97 292 85 97 293 220 98 294 216 98 295 221 98 296 202 99 297 201 99 298 200 99 299 200 100 300 201 100 301 118 100 302 118 101 303 201 101 304 203 101 305 94 102 306 204 102 307 119 102 308 206 103 309 205 103 310 120 103 311 207 104 312 202 104 313 200 104 314 208 105 315 120 105 316 205 105 317 205 106 318 209 106 319 208 106 320 145 107 321 161 107 322 146 107 323 147 108 324 162 108 325 145 108 326 162 109 327 161 109 328 145 109 329 168 110 330 163 110 331 150 110 332 148 111 333 150 111 334 163 111 335 169 112 336 148 112 337 163 112 338 169 113 339 151 113 340 148 113 341 162 114 342 165 114 343 164 114 344 162 115 345 164 115 346 161 115 347 163 116 348 167 116 349 166 116 350 170 117 351 166 117 352 167 117 353 167 118 354 163 118 355 168 118 356 171 119 357 169 119 358 163 119 359 171 120 360 163 120 361 166 120 362 161 121 363 164 121 364 172 121 365 149 122 366 98 122 367 105 122 368 105 123 369 99 123 370 149 123 371 122 124 372 121 124 373 152 124 374 104 122 375 124 122 376 123 122 377 123 125 378 125 125 379 104 125 380 170 126 381 171 126 382 166 126 383 155 127 384 154 127 385 153 127 386 154 128 387 126 128 388 153 128 389 126 129 390 156 129 391 153 129 392 97 130 393 127 130 394 157 130 395 159 131 396 128 131 397 158 131 398 129 132 399 154 132 400 155 132 401 130 133 402 158 133 403 128 133 404 158 134 405 130 134 406 160 134 407 97 135 408 131 135 409 95 135 410 95 136 411 131 136 412 91 136 413 134 137 414 133 137 415 132 137 416 313 138 417 314 138 418 74 138 419 261 139 420 252 139 421 86 139 422 86 140 423 252 140 424 87 140 425 89 141 426 358 141 427 88 141 428 88 142 429 358 142 430 322 142 431 72 143 432 301 143 433 363 143 434 90 144 435 262 144 436 306 144 437 81 145 438 97 145 439 100 145 440 100 146 441 97 146 442 95 146 443 137 147 444 136 147 445 135 147 446 135 148 447 138 148 448 137 148 449 139 149 450 136 149 451 137 149 452 141 150 453 140 150 454 139 150 455 139 151 456 137 151 457 141 151 458 250 152 459 251 152 460 253 152 461 253 153 462 254 153 463 250 153 464 314 154 465 313 154 466 316 154 467 316 155 468 317 155 469 314 155 470 251 156 471 315 156 472 255 156 473 255 157 474 253 157 475 251 157 476 315 158 477 314 158 478 317 158 479 317 159 480 318 159 481 315 159 482 301 160 483 300 160 484 302 160 485 302 161 486 359 161 487 301 161 488 265 162 489 264 162 490 263 162 491 263 163 492 256 163 493 265 163 494 323 164 495 364 164 496 360 164 497 360 165 498 324 165 499 323 165 500 363 166 501 301 166 502 359 166 503 359 167 504 365 167 505 363 167 506 306 168 507 262 168 508 266 168 509 266 169 510 307 169 511 306 169 512 251 170 513 75 170 514 76 170 515 76 171 516 315 171 517 251 171 518 281 172 519 282 172 520 279 172 521 280 173 522 281 173 523 279 173 524 278 174 525 276 174 526 282 174 527 282 175 528 281 175 529 278 175 530 339 176 531 340 176 532 337 176 533 340 177 534 338 177 535 337 177 536 334 178 537 336 178 538 339 178 539 340 179 540 339 179 541 336 179 542 347 180 543 346 180 544 335 180 545 289 181 546 288 181 547 277 181 548 290 182 549 289 182 550 277 182 551 277 183 552 288 183 553 291 183 554 335 184 555 346 184 556 348 184 557 349 185 558 347 185 559 335 185 560 280 186 561 284 186 562 281 186 563 283 187 564 293 187 565 292 187 566 295 188 567 294 188 568 289 188 569 341 189 570 342 189 571 350 189 572 338 190 573 340 190 574 351 190 575 346 191 576 353 191 577 352 191 578 347 192 579 354 192 580 353 192 581 353 193 582 346 193 583 347 193 584 288 194 585 289 194 586 294 194 587 294 195 588 296 195 589 288 195 590 223 196 591 224 196 592 227 196 593 227 197 594 226 197 595 223 197 596 238 198 597 225 198 598 228 198 599 228 199 600 239 199 601 238 199 602 240 200 603 223 200 604 226 200 605 226 201 606 241 201 607 240 201 608 226 202 609 227 202 610 230 202 611 230 203 612 229 203 613 226 203 614 239 204 615 228 204 616 231 204 617 231 205 618 242 205 619 239 205 620 241 206 621 226 206 622 229 206 623 229 207 624 243 207 625 241 207 626 245 208 627 244 208 628 233 208 629 233 209 630 232 209 631 245 209 632 244 210 633 246 210 634 234 210 635 234 211 636 233 211 637 244 211 638 246 212 639 245 212 640 232 212 641 232 213 642 234 213 643 246 213 644 237 214 645 235 214 646 236 214 647 232 215 648 233 215 649 234 215 650 224 216 651 223 216 652 247 216 653 247 217 654 248 217 655 224 217 656 223 218 657 240 218 658 249 218 659 249 219 660 247 219 661 223 219 662 225 220 663 238 220 664 235 220 665 235 221 666 237 221 667 225 221 668 272 222 669 303 222 670 257 222 671 308 223 672 273 223 673 304 223 674 361 224 675 330 224 676 362 224 677 331 225 678 366 225 679 305 225 680 287 226 681 258 226 682 274 226 683 286 227 684 287 227 685 274 227 686 285 228 687 272 228 688 267 228 689 267 229 690 297 229 691 285 229 692 268 230 693 259 230 694 275 230 695 272 231 696 269 231 697 267 231 698 260 232 699 304 232 700 273 232 701 275 233 702 259 233 703 270 233 704 272 234 705 257 234 706 271 234 707 269 235 708 272 235 709 271 235 710 319 236 711 345 236 712 332 236 713 345 237 714 344 237 715 332 237 716 330 238 717 343 238 718 325 238 719 355 239 720 325 239 721 343 239 722 320 240 723 326 240 724 333 240 725 327 241 726 330 241 727 325 241 728 305 242 729 321 242 730 331 242 731 320 243 732 333 243 733 328 243 734 362 244 735 330 244 736 329 244 737 330 245 738 327 245 739 329 245 740 357 246 741 356 246 742 367 246 743 299 247 744 298 247 745 309 247 746 272 248 747 285 248 748 303 248 749 310 249 750 286 249 751 274 249 752 361 250 753 343 250 754 330 250 755 332 251 756 344 251 757 368 251 758 311 252 759 361 252 760 362 252 761 257 253 762 303 253 763 312 253 764 143 254 765 142 254 766 210 254 767 144 255 768 99 255 769 105 255 770 173 256 771 176 256 772 177 256 773 177 257 774 174 257 775 173 257 776 177 258 777 178 258 778 175 258 779 175 259 780 174 259 781 177 259 782 177 260 783 176 260 784 179 260 785 179 261 786 180 261 787 177 261 788 180 262 789 181 262 790 178 262 791 178 263 792 177 263 793 180 263 794 182 264 795 183 264 796 186 264 797 186 265 798 185 265 799 182 265 800 186 266 801 183 266 802 184 266 803 184 267 804 187 267 805 186 267 806 186 268 807 189 268 808 188 268 809 188 269 810 185 269 811 186 269 812 189 270 813 186 270 814 187 270 815 187 271 816 190 271 817 189 271 818</p>
        </triangles>
      </mesh>
    </geometry>
  </library_geometries>
  <library_controllers>
    <controller id="dugunthiz2_Skin_head-skin" name="dugunthiz2_Skin">
      <skin source="#head_001-mesh">
        <bind_shape_matrix>1 0 0 0 0 1 0 0 0 0 1 0 0 0 0 1</bind_shape_matrix>
        <source id="dugunthiz2_Skin_head-skin-joints">
          <Name_array id="dugunthiz2_Skin_head-skin-joints-array" count="29">root pelvis femurleft butt-l knee-l-top knee-l-bopttom femurright butt-r knee-r-top knee-r-bopttom lumbar rib scapula ulna ammo_node_1 scapula01 ulna01 carpal_right smoke_node_1 ammo_node_0 neck skull nogginbottom plumes skulltop smoke_node_0 cloaktop cloak cloakbottom</Name_array>
          <technique_common>
            <accessor source="#dugunthiz2_Skin_head-skin-joints-array" count="29" stride="1">
              <param name="JOINT" type="name"/>
            </accessor>
          </technique_common>
        </source>
        <source id="dugunthiz2_Skin_head-skin-bind_poses">
          <float_array id="dugunthiz2_Skin_head-skin-bind_poses-array" count="464">1 0 0 0 0 -1.19209e-7 1 -2.154822 0 -1 -1.34359e-7 1.88312e-7 0 0 0 1 1 0 0 -2.88205e-4 0 0 1 -1.989969 0 -1 0 0.05965083 0 0 0 1 1 0 0 -0.229566 0 0 1 -1.980152 0 -1 0 0 0 0 0 1 1 0 0 -0.2300335 0 -5.28991e-7 1 -1.881625 0 -1 -5.43892e-7 0.2278664 0 0 0 1 1 0 0 -0.2579528 0 0 1 -1.492427 0 -1 0 -0.357712 0 0 0 1 1 0 0 -0.2616622 0 -1.93715e-7 1 -1.243225 0 -1 -2.10479e-7 0.03760045 0 0 0 1 1 0 0 0.2313526 0 0 1 -1.980152 0 -1 0 0 0 0 0 1 1 0 0 0.234615 0 -6.78003e-7 1 -1.884256 0 -1 -6.92904e-7 0.2262768 0 0 0 1 1 0 0 0.1784679 0 -6.78002e-7 1 -1.491813 0 -1 -7.00355e-7 -0.3589498 0 0 0 1 1 0 0 0.2454932 0 0 1 -1.243115 0 -1 0 0.03760033 0 0 0 1 1 0 0 -0.004826366 0 0 1 -2.179734 0 -1 0 0.1130515 0 0 0 1 1 0 0 0.007960081 0 0 1 -2.884792 0 -1 0 -1.76953e-7 0 0 0 1 0.2594163 0 0.9657655 -3.129065 -0.9657655 0 0.2594164 -0.4156218 0 -1 0 0 0 0 0 1 0.2594162 0 0.9657656 -3.252805 -0.9657656 0 0.2594166 0.1837339 0 -1 0 0 0 0 0 1 0.2594548 -1.73558e-7 0.9657552 -3.532818 -0.001855969 -0.9999982 4.98436e-4 0.001006782 0.9657535 -0.001921832 -0.2594547 -0.5236509 0 0 0 1 0.2440669 0 -0.9697583 3.145245 0.9697583 0 0.2440669 -0.3262867 0 -1 0 -2.40484e-7 0 0 0 1 0.2440668 0 -0.9697584 3.257246 0.9697584 -1.44452e-7 0.2440669 0.2730701 -1.3574e-7 -1 0 -2.63065e-7 0 0 0 1 0.2440688 0 -0.9697579 3.394992 0.9697579 -1.44451e-7 0.2440688 0.8041995 -1.48959e-7 -1 0 -2.90843e-7 0 0 0 1 0.2451198 -6.12562e-6 -0.9694929 3.369966 -0.006446719 -0.9999778 -0.00162363 -0.05500108 -0.9694713 0.006648123 -0.2451145 -0.982616 0 0 0 1 0.2440392 -3.61455e-7 -0.9697654 3.366249 0.9697653 3.3297e-7 0.2440394 1.041656 1.86265e-7 -1 4.17232e-7 -1.617814 0 0 0 1 1 0 0 0.02165722 0 0 1 -3.354292 0 -1 -1.19224e-7 1.59325e-7 0 0 0 1 1 0 0 0.02895486 0 0 1 -3.806294 0 -1 0 0 0 0 0 1 1 3.23693e-7 0 0.02715587 0 0.04181367 0.9991254 -3.880912 3.23988e-7 -0.9991255 0.04181367 -0.4448732 0 0 0 1 1 5.56261e-7 0 0.03132408 0 0.02110123 0.9997774 -3.983411 5.56388e-7 -0.9997773 0.02110117 -0.2703227 0 0 0 1 1 0 0 0.03312313 0 0 1 -4.176583 0 -1 0 0 0 0 0 1 0.9999997 -8.08956e-4 -1.78488e-4 0.0155608 -8.08956e-4 -0.9999997 -1.78814e-7 -0.243032 -1.78488e-4 1.41361e-7 -0.9999999 3.446476 0 0 0 1 1 0 0 -0.001975059 0 -3.42726e-7 1 -3.236084 0 -1 -3.57628e-7 0.1981276 0 0 0 1 1 0 0 -0.006513178 0 0 1 -2.377003 0 -1 0 0.4338247 0 0 0 1 1 0 0 0.02082645 0 0 1 -1.545783 0 -1 0 0.5515339 0 0 0 1</float_array>
          <technique_common>
            <accessor source="#dugunthiz2_Skin_head-skin-bind_poses-array" count="29" stride="16">
              <param name="TRANSFORM" type="float4x4"/>
            </accessor>
          </technique_common>
        </source>
        <source id="dugunthiz2_Skin_head-skin-weights">
          <float_array id="dugunthiz2_Skin_head-skin-weights-array" count="370">1 1 1 1 1 1 1 1 1 1 1 1 1 1 1 1 1 1 1 1 1 1 1 1 1 1 1 1 1 1 1 1 1 1 1 1 1 1 1 1 1 1 1 1 1 1 1 1 1 1 1 1 1 1 1 1 1 1 1 1 1 1 1 1 1 1 1 1 1 1 1 1 1 1 1 1 1 1 1 1 1 1 1 1 1 1 1 1 1 1 1 1 1 1 1 1 1 1 1 1 1 1 1 1 1 1 1 1 1 1 1 1 1 1 1 1 1 1 1 1 1 1 1 1 1 1 1 1 1 1 1 1 1 1 1 1 1 1 1 1 1 1 1 1 1 1 1 1 1 1 1 1 1 1 1 1 1 1 1 1 1 1 1 1 1 1 1 1 1 1 1 1 1 1 1 1 1 1 1 1 1 1 1 1 1 1 1 1 1 1 1 1 1 1 1 1 1 1 1 1 1 1 1 1 1 1 1 1 1 1 1 1 1 1 1 1 1 1 1 1 1 1 1 1 1 1 1 1 1 1 1 1 1 1 1 1 1 1 1 1 1 1 1 1 1 1 1 1 1 1 1 1 1 1 1 1 1 1 1 1 1 1 1 1 1 1 1 1 1 1 1 1 1 1 1 1 1 1 1 1 1 1 1 1 1 1 1 1 1 1 1 1 1 1 1 1 1 1 1 1 1 0.5 0.5 1 1 1 1 1 1 1 1 1 1 1 1 1 1 1 1 1 1 1 1 1 1 1 1 1 1 1 1 1 1 1 1 1 1 1 1 1 1 1 1 1 1 1 1 1 1 1 1 1 1 1 1 1 1 1 1 1 1 1 1 1 1 1 1 1 1 1</float_array>
          <technique_common>
            <accessor source="#dugunthiz2_Skin_head-skin-weights-array" count="370" stride="1">
              <param name="WEIGHT" type="float"/>
            </accessor>
          </technique_common>
        </source>
        <joints>
          <input semantic="JOINT" source="#dugunthiz2_Skin_head-skin-joints"/>
          <input semantic="INV_BIND_MATRIX" source="#dugunthiz2_Skin_head-skin-bind_poses"/>
        </joints>
        <vertex_weights count="369">
          <input semantic="JOINT" source="#dugunthiz2_Skin_head-skin-joints" offset="0"/>
          <input semantic="WEIGHT" source="#dugunthiz2_Skin_head-skin-weights" offset="1"/>
          <vcount>1 1 1 1 1 1 1 1 1 1 1 1 1 1 1 1 1 1 1 1 1 1 1 1 1 1 1 1 1 1 1 1 1 1 1 1 1 1 1 1 1 1 1 1 1 1 1 1 1 1 1 1 1 1 1 1 1 1 1 1 1 1 1 1 1 1 1 1 1 1 1 1 1 1 1 1 1 1 1 1 1 1 1 1 1 1 1 1 1 1 1 1 1 1 1 1 1 1 1 1 1 1 1 1 1 1 1 1 1 1 1 1 1 1 1 1 1 1 1 1 1 1 1 1 1 1 1 1 1 1 1 1 1 1 1 1 1 1 1 1 1 1 1 1 1 1 1 1 1 1 1 1 1 1 1 1 1 1 1 1 1 1 1 1 1 1 1 1 1 1 1 1 1 1 1 1 1 1 1 1 1 1 1 1 1 1 1 1 1 1 1 1 1 1 1 1 1 1 1 1 1 1 1 1 1 1 1 1 1 1 1 1 1 1 1 1 1 1 1 1 1 1 1 1 1 1 1 1 1 1 1 1 1 1 1 1 1 1 1 1 1 1 1 1 1 1 1 1 1 1 1 1 1 1 1 1 1 1 1 1 1 1 1 1 1 1 1 1 1 1 1 1 1 1 1 1 1 1 1 1 1 1 1 1 1 1 1 1 1 1 1 1 1 1 1 1 1 1 1 1 1 2 1 1 1 1 1 1 1 1 1 1 1 1 1 1 1 1 1 1 1 1 1 1 1 1 1 1 1 1 1 1 1 1 1 1 1 1 1 1 1 1 1 1 1 1 1 1 1 1 1 1 1 1 1 1 1 1 1 1 1 1 1 1 1 1 1 1 1 </vcount>
          <v>20 0 20 1 20 2 20 3 20 4 20 5 20 6 20 7 20 8 20 9 20 10 20 11 20 12 20 13 20 14 20 15 20 16 20 17 20 18 20 19 20 20 20 21 20 22 20 23 20 24 20 25 20 26 20 27 20 28 20 29 20 30 20 31 20 32 20 33 20 34 20 35 20 36 20 37 20 38 20 39 20 40 20 41 20 42 20 43 20 44 20 45 20 46 20 47 20 48 20 49 20 50 20 51 20 52 20 53 20 54 20 55 20 56 20 57 20 58 20 59 20 60 20 61 20 62 20 63 20 64 20 65 20 66 20 67 20 68 20 69 20 70 20 71 1 72 1 73 1 74 1 75 1 76 1 77 1 78 1 79 1 80 1 81 1 82 1 83 1 84 1 85 1 86 1 87 1 88 1 89 1 90 11 91 11 92 11 93 11 94 11 95 11 96 11 97 12 98 11 99 11 100 15 101 11 102 11 103 12 104 12 105 11 106 11 107 11 108 15 109 11 110 11 111 11 112 11 113 11 114 11 115 11 116 11 117 11 118 11 119 11 120 11 121 11 122 12 123 12 124 11 125 11 126 11 127 11 128 12 129 12 130 11 131 11 132 11 133 12 134 15 135 11 136 11 137 11 138 11 139 12 140 11 141 11 142 15 143 12 144 12 145 13 146 13 147 13 148 12 149 13 150 13 151 12 152 13 153 12 154 13 155 13 156 13 157 12 158 13 159 13 160 13 161 13 162 13 163 13 164 13 165 13 166 13 167 13 168 13 169 13 170 13 171 13 172 13 173 13 174 13 175 13 176 13 177 13 178 13 179 13 180 13 181 13 182 13 183 13 184 13 185 13 186 13 187 13 188 13 189 13 190 15 191 16 192 15 193 16 194 16 195 15 196 16 197 16 198 15 199 15 200 16 201 16 202 16 203 16 204 15 205 16 206 15 207 15 208 16 209 15 210 16 211 16 212 16 213 16 214 16 215 16 216 16 217 16 218 16 219 16 220 16 221 16 222 18 223 18 224 18 225 18 226 18 227 18 228 18 229 18 230 18 231 18 232 18 233 18 234 18 235 18 236 18 237 18 238 18 239 18 240 18 241 18 242 18 243 18 244 18 245 18 246 18 247 18 248 18 249 2 250 1 251 3 252 4 253 2 254 4 255 3 256 2 257 5 258 5 259 1 260 2 261 3 262 2 263 2 264 3 265 3 266 5 267 5 268 5 269 1 270 1 271 5 272 5 273 5 274 5 275 5 276 5 277 5 278 5 279 5 280 5 281 5 282 5 283 5 284 5 285 5 286 5 287 5 288 5 289 5 290 5 291 5 292 5 293 5 294 5 295 5 296 5 297 5 298 5 299 3 300 2 301 7 302 3 303 5 304 3 305 2 306 3 307 3 308 5 309 5 310 5 311 2 312 3 313 6 314 6 315 1 316 6 317 6 318 6 319 9 320 9 321 6 322 6 323 6 324 6 325 9 326 9 327 9 328 6 329 6 330 9 331 9 332 9 333 9 334 9 335 9 336 9 337 9 338 9 339 9 340 9 341 9 342 9 343 9 344 9 345 9 346 9 347 9 348 9 349 9 350 9 351 9 352 9 353 9 354 9 355 9 356 9 357 9 358 7 359 7 360 7 361 9 362 6 363 7 364 7 365 7 366 9 367 9 368 9 369</v>
        </vertex_weights>
      </skin>
    </controller>
  </library_controllers>
  <library_visual_scenes>
    <visual_scene id="Scene" name="Scene">
      <node id="LAMP_FRONT_PEACH" name="LAMP_FRONT_PEACH" type="NODE">
        <matrix sid="transform">3.595629 0.1442683 -0.009944758 0.07793808 -0.1375951 3.336951 -1.339883 -21.84175 -0.04449517 1.339181 3.339772 55.79722 0 0 0 1</matrix>
        <instance_light url="#LAMP_FRONT_PEACH-light"/>
      </node>
      <node id="Lamp_WEST" name="Lamp_WEST" type="NODE">
        <matrix sid="transform">-0.7364148 2.458481 -2.522504 -28.80603 -3.515288 -0.6763866 0.3670271 3.436447 -0.223385 2.539259 2.540025 33.30629 0 0 0 1</matrix>
        <instance_light url="#Lamp_WEST-light"/>
      </node>
      <node id="Camera" name="Camera" type="NODE">
        <matrix sid="transform">0.6859207 -0.3240135 0.6515582 7.481132 0.7276763 0.3054208 -0.6141704 -6.50764 0 0.8953956 0.4452714 5.343665 0 0 0 1</matrix>
        <instance_camera url="#Camera-camera"/>
      </node>
      <node id="Lamp" name="Lamp" type="NODE">
        <matrix sid="transform">-0.2908646 -0.7711008 0.5663932 4.076245 0.9551712 -0.1998834 0.2183912 1.005454 -0.05518906 0.6045247 0.7946723 5.903862 0 0 0 1</matrix>
        <instance_light url="#Lamp-light"/>
      </node>
      <node id="dugunthiz2_Skin" name="dugunthiz2_Skin" type="NODE">
        <matrix sid="transform">1 0 0 0 0 1 0 0 0 0 1 0 0 0 0 1</matrix>
        <node id="dugunthiz2_Skin_root" name="root" sid="root" type="JOINT">
          <matrix sid="transform">1 3.83105e-15 4.79072e-8 0 4.79072e-8 -1.34359e-7 -1 -1.01207e-7 2.60572e-15 1 -1.19209e-7 2.154822 0 0 0 1</matrix>
          <node id="dugunthiz2_Skin_pelvis" name="pelvis" sid="pelvis" type="JOINT">
            <matrix sid="transform">1 0 1.32956e-8 2.88204e-4 -4.953e-16 1 3.72529e-8 -0.1648533 -1.32956e-8 -3.72529e-8 1 -0.05965078 0 0 0 1</matrix>
            <node id="dugunthiz2_Skin_femurleft" name="femurleft" sid="femurleft" type="JOINT">
              <matrix sid="transform">1 -3.8968e-15 5.09437e-9 0.2292778 0 1 0 -0.0098176 -5.09437e-9 2.48583e-10 1 0.05965089 0 0 0 1</matrix>
              <node id="dugunthiz2_Skin_butt-l" name="butt-l" sid="butt-l" type="JOINT">
                <matrix sid="transform">1 -4.3915e-15 4.2319e-9 4.67524e-4 1.89181e-15 1 -4.47035e-7 -0.09852624 -4.2319e-9 4.47035e-7 1 -0.2278656 0 0 0 1</matrix>
                <extra>
                  <technique profile="blender">
                    <layer sid="layer" type="string">0</layer>
                    <roll sid="roll" type="float">0</roll>
                    <tip_x sid="tip_x" type="float">0</tip_x>
                    <tip_y sid="tip_y" type="float">0</tip_y>
                    <tip_z sid="tip_z" type="float">0.1</tip_z>
                  </technique>
                </extra>
              </node>
              <node id="dugunthiz2_Skin_knee-l-top" name="knee-l-top" sid="knee-l-top" type="JOINT">
                <matrix sid="transform">1 -4.3915e-15 7.79386e-9 0.02838679 0 0.9999999 0 -0.4877245 -7.79386e-9 0 1 0.357712 0 0 0 1</matrix>
                <extra>
                  <technique profile="blender">
                    <layer sid="layer" type="string">0</layer>
                    <roll sid="roll" type="float">0</roll>
                    <tip_x sid="tip_x" type="float">0</tip_x>
                    <tip_y sid="tip_y" type="float">0</tip_y>
                    <tip_z sid="tip_z" type="float">0.1</tip_z>
                  </technique>
                </extra>
              </node>
              <node id="dugunthiz2_Skin_knee-l-bopttom" name="knee-l-bopttom" sid="knee-l-bopttom" type="JOINT">
                <matrix sid="transform">1 -4.3915e-15 3.25892e-8 0.03209619 3.64213e-15 1 -1.11759e-7 -0.7369263 -3.25892e-8 1.11759e-7 1 -0.03760034 0 0 0 1</matrix>
                <node id="dugunthiz2_Skin_ankle_left" name="ankle left" sid="ankle_left" type="JOINT">
                  <matrix sid="transform">1 -3.72529e-8 1.00289e-6 0.008728176 3.35158e-7 -0.9295399 -0.3687216 -1.121673 9.4596e-7 0.3687216 -0.9295392 -0.06275672 0 0 0 1</matrix>
                  <node id="dugunthiz2_Skin_foot_left01" name="foot left01" sid="foot_left01" type="JOINT">
                    <matrix sid="transform">1 8.39549e-7 4.58741e-5 2.98023e-7 -4.25885e-5 0.3889444 0.9212613 0.2168393 -1.7069e-5 -0.9212612 0.3889444 -0.2809224 0 0 0 1</matrix>
                    <extra>
                      <technique profile="blender">
                        <layer sid="layer" type="string">0</layer>
                        <roll sid="roll" type="float">4.62354e-5</roll>
                        <tip_x sid="tip_x" type="float">0</tip_x>
                        <tip_y sid="tip_y" type="float">-0.09997612</tip_y>
                        <tip_z sid="tip_z" type="float">-0.002185046</tip_z>
                      </technique>
                    </extra>
                  </node>
                  <extra>
                    <technique profile="blender">
                      <layer sid="layer" type="string">0</layer>
                      <roll sid="roll" type="float">9.10969e-7</roll>
                      <tip_x sid="tip_x" type="float">0</tip_x>
                      <tip_y sid="tip_y" type="float">-0.03687214</tip_y>
                      <tip_z sid="tip_z" type="float">-0.09295403</tip_z>
                    </technique>
                  </extra>
                </node>
                <extra>
                  <technique profile="blender">
                    <layer sid="layer" type="string">0</layer>
                    <roll sid="roll" type="float">0</roll>
                    <tip_x sid="tip_x" type="float">0</tip_x>
                    <tip_y sid="tip_y" type="float">0</tip_y>
                    <tip_z sid="tip_z" type="float">0.1</tip_z>
                  </technique>
                </extra>
              </node>
              <extra>
                <technique profile="blender">
                  <layer sid="layer" type="string">0</layer>
                  <roll sid="roll" type="float">0</roll>
                  <tip_x sid="tip_x" type="float">0</tip_x>
                  <tip_y sid="tip_y" type="float">0</tip_y>
                  <tip_z sid="tip_z" type="float">0.1000001</tip_z>
                </technique>
              </extra>
            </node>
            <node id="dugunthiz2_Skin_femurright" name="femurright" sid="femurright" type="JOINT">
              <matrix sid="transform">1 -3.8968e-15 5.09437e-9 -0.2316408 0 1 0 -0.0098176 -5.09437e-9 2.48583e-10 1 0.05965089 0 0 0 1</matrix>
              <node id="dugunthiz2_Skin_butt-r" name="butt-r" sid="butt-r" type="JOINT">
                <matrix sid="transform">1 -4.3915e-15 5.58592e-9 -0.003262326 3.32947e-15 1 -5.96046e-7 -0.09589553 -5.58592e-9 5.96046e-7 1 -0.2262758 0 0 0 1</matrix>
                <extra>
                  <technique profile="blender">
                    <layer sid="layer" type="string">0</layer>
                    <roll sid="roll" type="float">0</roll>
                    <tip_x sid="tip_x" type="float">0</tip_x>
                    <tip_y sid="tip_y" type="float">0</tip_y>
                    <tip_z sid="tip_z" type="float">0.1</tip_z>
                  </technique>
                </extra>
              </node>
              <node id="dugunthiz2_Skin_knee-r-top" name="knee-r-top" sid="knee-r-top" type="JOINT">
                <matrix sid="transform">1 -4.3915e-15 9.03823e-9 0.0528847 5.3872e-15 0.9999999 -5.96046e-7 -0.4883389 -9.03823e-9 5.96046e-7 1 0.3589507 0 0 0 1</matrix>
                <extra>
                  <technique profile="blender">
                    <layer sid="layer" type="string">0</layer>
                    <roll sid="roll" type="float">0</roll>
                    <tip_x sid="tip_x" type="float">0</tip_x>
                    <tip_y sid="tip_y" type="float">0</tip_y>
                    <tip_z sid="tip_z" type="float">0.1</tip_z>
                  </technique>
                </extra>
              </node>
              <node id="dugunthiz2_Skin_knee-r-bopttom" name="knee-r-bopttom" sid="knee-r-bopttom" type="JOINT">
                <matrix sid="transform">1 -4.3915e-15 2.04881e-8 -0.01414061 0 1 0 -0.7370366 -2.04881e-8 0 1 -0.03760033 0 0 0 1</matrix>
                <node id="dugunthiz2_Skin_ankleright" name="ankleright" sid="ankleright" type="JOINT">
                  <matrix sid="transform">1 -3.72529e-8 8.96822e-7 -0.0131759 2.96049e-7 -0.9295402 -0.3687208 -1.118303 8.47367e-7 0.3687208 -0.9295411 -0.06275685 0 0 0 1</matrix>
                  <node id="dugunthiz2_Skin_foot_right01" name="foot right01" sid="foot_right01" type="JOINT">
                    <matrix sid="transform">1 7.53935e-7 3.89164e-5 1.19209e-7 -3.61456e-5 0.3889322 0.9212663 0.2168391 -1.44413e-5 -0.9212663 0.3889323 -0.2809219 0 0 0 1</matrix>
                    <extra>
                      <technique profile="blender">
                        <layer sid="layer" type="string">0</layer>
                        <roll sid="roll" type="float">3.92265e-5</roll>
                        <tip_x sid="tip_x" type="float">0</tip_x>
                        <tip_y sid="tip_y" type="float">-0.09997618</tip_y>
                        <tip_z sid="tip_z" type="float">-0.002183794</tip_z>
                      </technique>
                    </extra>
                  </node>
                  <extra>
                    <technique profile="blender">
                      <layer sid="layer" type="string">0</layer>
                      <roll sid="roll" type="float">8.16151e-7</roll>
                      <tip_x sid="tip_x" type="float">0</tip_x>
                      <tip_y sid="tip_y" type="float">-0.03687202</tip_y>
                      <tip_z sid="tip_z" type="float">-0.09295403</tip_z>
                    </technique>
                  </extra>
                </node>
                <extra>
                  <technique profile="blender">
                    <layer sid="layer" type="string">0</layer>
                    <roll sid="roll" type="float">0</roll>
                    <tip_x sid="tip_x" type="float">0</tip_x>
                    <tip_y sid="tip_y" type="float">0</tip_y>
                    <tip_z sid="tip_z" type="float">0.1</tip_z>
                  </technique>
                </extra>
              </node>
              <extra>
                <technique profile="blender">
                  <layer sid="layer" type="string">0</layer>
                  <roll sid="roll" type="float">0</roll>
                  <tip_x sid="tip_x" type="float">0</tip_x>
                  <tip_y sid="tip_y" type="float">0</tip_y>
                  <tip_z sid="tip_z" type="float">0.1000001</tip_z>
                </technique>
              </extra>
            </node>
            <node id="dugunthiz2_Skin_lumbar" name="lumbar" sid="lumbar" type="JOINT">
              <matrix sid="transform">1 -3.8968e-15 4.81516e-9 0.004538175 0 1 3.72529e-8 0.189765 -4.81516e-9 -3.70044e-8 1 -0.05340067 0 0 0 1</matrix>
              <node id="dugunthiz2_Skin_rib" name="rib" sid="rib" type="JOINT">
                <matrix sid="transform">1 -4.18501e-15 4.31047e-9 -0.01278648 0 1 3.55271e-15 0.7050579 -4.31047e-9 2.48548e-10 1 0.1130517 0 0 0 1</matrix>
                <node id="dugunthiz2_Skin_scapula" name="scapula" sid="scapula" type="JOINT">
                  <matrix sid="transform">0.2594164 -0.9657655 -5.81733e-8 0.4182978 0.9657655 0.2594163 -1.41636e-8 0.2449713 2.87698e-8 -5.25075e-8 1 -4.32947e-8 0 0 0 1</matrix>
                  <node id="dugunthiz2_Skin_ulna" name="ulna" sid="ulna" type="JOINT">
                    <matrix sid="transform">0.9999999 1.78814e-7 -2.87821e-8 0.123739 -1.78814e-7 0.9999999 -2.4869e-14 -0.5993563 2.87821e-8 3.19744e-14 1 -3.27455e-9 0 0 0 1</matrix>
                    <node id="dugunthiz2_Skin_carpal" name="carpal" sid="carpal" type="JOINT">
                      <matrix sid="transform">0.9999999 -1.49012e-7 -1.33196e-8 0.1033103 4.17233e-7 1 -7.45057e-8 -0.5754045 1.33197e-8 7.45057e-8 1 0.07377817 0 0 0 1</matrix>
                      <node id="dugunthiz2_Skin_ammo_node_1" name="ammo node 1" sid="ammo_node_1" type="JOINT">
                        <matrix sid="transform">1 -1.45519e-10 -4.02927e-5 0.1766815 -4.04418e-5 0.001921951 -0.9999982 0.2353452 7.79734e-8 0.9999982 0.001921894 -0.07377828 0 0 0 1</matrix>
                        <extra>
                          <technique profile="blender">
                            <layer sid="layer" type="string">0</layer>
                            <roll sid="roll" type="float">-2.357814</roll>
                            <tip_x sid="tip_x" type="float">-1.85609e-4</tip_x>
                            <tip_y sid="tip_y" type="float">-0.09999984</tip_y>
                            <tip_z sid="tip_z" type="float">4.98295e-5</tip_z>
                          </technique>
                        </extra>
                      </node>
                      <extra>
                        <technique profile="blender">
                          <layer sid="layer" type="string">0</layer>
                          <roll sid="roll" type="float">-1.308379</roll>
                          <tip_x sid="tip_x" type="float">-0.09657669</tip_x>
                          <tip_y sid="tip_y" type="float">0</tip_y>
                          <tip_z sid="tip_z" type="float">0.02594161</tip_z>
                        </technique>
                      </extra>
                    </node>
                    <extra>
                      <technique profile="blender">
                        <layer sid="layer" type="string">0</layer>
                        <roll sid="roll" type="float">-1.308379</roll>
                        <tip_x sid="tip_x" type="float">-0.09657651</tip_x>
                        <tip_y sid="tip_y" type="float">0</tip_y>
                        <tip_z sid="tip_z" type="float">0.02594161</tip_z>
                      </technique>
                    </extra>
                  </node>
                  <extra>
                    <technique profile="blender">
                      <layer sid="layer" type="string">0</layer>
                      <roll sid="roll" type="float">-1.308379</roll>
                      <tip_x sid="tip_x" type="float">-0.09657645</tip_x>
                      <tip_y sid="tip_y" type="float">0</tip_y>
                      <tip_z sid="tip_z" type="float">0.02594161</tip_z>
                    </technique>
                  </extra>
                </node>
                <node id="dugunthiz2_Skin_scapula01" name="scapula01" sid="scapula01" type="JOINT">
                  <matrix sid="transform">0.244067 0.9697584 -9.04162e-8 -0.4432709 -0.9697584 0.244067 2.10963e-8 0.2449713 4.25259e-8 8.25329e-8 1 -4.32947e-8 0 0 0 1</matrix>
                  <node id="dugunthiz2_Skin_ulna01" name="ulna01" sid="ulna01" type="JOINT">
                    <matrix sid="transform">1 1.49012e-8 -1.93999e-10 -0.1120014 -1.49012e-8 1 -1.1921e-7 -0.5993569 1.94003e-10 1.1921e-7 1 -1.06037e-8 0 0 0 1</matrix>
                    <node id="dugunthiz2_Skin_carpal_right" name="carpal right" sid="carpal_right" type="JOINT">
                      <matrix sid="transform">1 -2.02656e-6 -5.41652e-8 -0.1377442 1.93715e-6 1 7.37508e-13 -0.5311359 5.41652e-8 -8.59757e-13 1 -1.56111e-7 0 0 0 1</matrix>
                      <node id="dugunthiz2_Skin_smoke_node_1" name="smoke node 1" sid="smoke_node_1" type="JOINT">
                        <matrix sid="transform">0.9999994 1.1177e-6 0.00108397 0.02609372 0.00108394 -0.006648002 -0.9999774 -0.1824129 6.0886e-6 0.9999779 -0.006647942 0.04844672 0 0 0 1</matrix>
                        <node id="dugunthiz2_Skin_ammo_node_0" name="ammo node 0" sid="ammo_node_0" type="JOINT">
                          <matrix sid="transform">0.9999993 0.001114279 5.76453e-6 0.002567291 1.64437e-6 -0.006648412 0.9999778 1.569697 0.001114309 -0.9999774 -0.006648477 0.04450935 0 0 0 1</matrix>
                          <extra>
                            <technique profile="blender">
                              <layer sid="layer" type="string">0</layer>
                              <roll sid="roll" type="float">1.324267</roll>
                              <tip_x sid="tip_x" type="float">0.09742701</tip_x>
                              <tip_y sid="tip_y" type="float">0</tip_y>
                              <tip_z sid="tip_z" type="float">0.02451729</tip_z>
                            </technique>
                          </extra>
                        </node>
                        <extra>
                          <technique profile="blender">
                            <layer sid="layer" type="string">0</layer>
                            <roll sid="roll" type="float">1.324031</roll>
                            <tip_x sid="tip_x" type="float">-6.44684e-4</tip_x>
                            <tip_y sid="tip_y" type="float">-0.09999781</tip_y>
                            <tip_z sid="tip_z" type="float">-1.62363e-4</tip_z>
                          </technique>
                        </extra>
                      </node>
                      <extra>
                        <technique profile="blender">
                          <layer sid="layer" type="string">0</layer>
                          <roll sid="roll" type="float">1.324237</roll>
                          <tip_x sid="tip_x" type="float">0.09697592</tip_x>
                          <tip_y sid="tip_y" type="float">0</tip_y>
                          <tip_z sid="tip_z" type="float">0.0244069</tip_z>
                        </technique>
                      </extra>
                    </node>
                    <extra>
                      <technique profile="blender">
                        <layer sid="layer" type="string">0</layer>
                        <roll sid="roll" type="float">1.324239</roll>
                        <tip_x sid="tip_x" type="float">0.09697574</tip_x>
                        <tip_y sid="tip_y" type="float">0</tip_y>
                        <tip_z sid="tip_z" type="float">0.02440667</tip_z>
                      </technique>
                    </extra>
                  </node>
                  <extra>
                    <technique profile="blender">
                      <layer sid="layer" type="string">0</layer>
                      <roll sid="roll" type="float">1.324239</roll>
                      <tip_x sid="tip_x" type="float">0.09697574</tip_x>
                      <tip_y sid="tip_y" type="float">0</tip_y>
                      <tip_z sid="tip_z" type="float">0.02440667</tip_z>
                    </technique>
                  </extra>
                </node>
                <node id="dugunthiz2_Skin_neck" name="neck" sid="neck" type="JOINT">
                  <matrix sid="transform">1 2.32826e-10 3.80594e-9 -0.01369714 2.25962e-16 1 -5.9371e-8 0.4694998 -3.80594e-9 5.9371e-8 1 -1.37049e-7 0 0 0 1</matrix>
                  <node id="dugunthiz2_Skin_skull" name="skull" sid="skull" type="JOINT">
                    <matrix sid="transform">1 -4.89676e-15 1.57446e-9 -0.007297663 0 1 5.81224e-11 0.4520023 -1.57446e-9 -5.81224e-11 1 7.10192e-8 0 0 0 1</matrix>
                    <node id="dugunthiz2_Skin_nogginbottom" name="nogginbottom" sid="nogginbottom" type="JOINT">
                      <matrix sid="transform">1 3.49245e-9 2.48345e-7 0.001799157 -1.38737e-8 0.9991255 0.04181381 0.08982563 -2.47982e-7 -0.04181381 0.9991254 0.2822085 0 0 0 1</matrix>
                      <extra>
                        <technique profile="blender">
                          <layer sid="layer" type="string">0</layer>
                          <roll sid="roll" type="float">3.23988e-7</roll>
                          <tip_x sid="tip_x" type="float">0</tip_x>
                          <tip_y sid="tip_y" type="float">0.004181385</tip_y>
                          <tip_z sid="tip_z" type="float">0.09991264</tip_z>
                        </technique>
                      </extra>
                    </node>
                    <node id="dugunthiz2_Skin_plumes" name="plumes" sid="plumes" type="JOINT">
                      <matrix sid="transform">1 2.3283e-9 4.80696e-7 -0.002369057 -1.24711e-8 0.9997773 0.02110134 0.1819341 -4.8054e-7 -0.02110134 0.9997773 0.1862074 0 0 0 1</matrix>
                      <extra>
                        <technique profile="blender">
                          <layer sid="layer" type="string">0</layer>
                          <roll sid="roll" type="float">5.56389e-7</roll>
                          <tip_x sid="tip_x" type="float">0</tip_x>
                          <tip_y sid="tip_y" type="float">0.002110123</tip_y>
                          <tip_z sid="tip_z" type="float">0.09997797</tip_z>
                        </technique>
                      </extra>
                    </node>
                    <node id="dugunthiz2_Skin_skulltop" name="skulltop" sid="skulltop" type="JOINT">
                      <matrix sid="transform">1 -5.08438e-15 4.68321e-9 -0.004168242 0 1 2.84217e-13 0.3702886 -4.68321e-9 -2.84217e-13 1 7.10543e-14 0 0 0 1</matrix>
                      <extra>
                        <technique profile="blender">
                          <layer sid="layer" type="string">0</layer>
                          <roll sid="roll" type="float">0</roll>
                          <tip_x sid="tip_x" type="float">0</tip_x>
                          <tip_y sid="tip_y" type="float">0</tip_y>
                          <tip_z sid="tip_z" type="float">0.1000003</tip_z>
                        </technique>
                      </extra>
                    </node>
                    <extra>
                      <technique profile="blender">
                        <layer sid="layer" type="string">0</layer>
                        <roll sid="roll" type="float">0</roll>
                        <tip_x sid="tip_x" type="float">0</tip_x>
                        <tip_y sid="tip_y" type="float">0</tip_y>
                        <tip_z sid="tip_z" type="float">0.1000001</tip_z>
                      </technique>
                    </extra>
                  </node>
                  <node id="dugunthiz2_Skin_smoke_node_0" name="smoke node 0" sid="smoke_node_0" type="JOINT">
                    <matrix sid="transform">0.9999996 -8.0903e-4 -1.78488e-4 0.006514966 -1.78488e-4 1.07102e-7 -1 0.0921874 8.0903e-4 0.9999998 -2.02886e-7 0.2430203 0 0 0 1</matrix>
                    <extra>
                      <technique profile="blender">
                        <layer sid="layer" type="string">0</layer>
                        <roll sid="roll" type="float">3.141414</roll>
                        <tip_x sid="tip_x" type="float">-8.08956e-5</tip_x>
                        <tip_y sid="tip_y" type="float">-0.1</tip_y>
                        <tip_z sid="tip_z" type="float">0</tip_z>
                      </technique>
                    </extra>
                  </node>
                  <extra>
                    <technique profile="blender">
                      <layer sid="layer" type="string">0</layer>
                      <roll sid="roll" type="float">0</roll>
                      <tip_x sid="tip_x" type="float">0</tip_x>
                      <tip_y sid="tip_y" type="float">0</tip_y>
                      <tip_z sid="tip_z" type="float">0.0999999</tip_z>
                    </technique>
                  </extra>
                </node>
                <node id="dugunthiz2_Skin_cloaktop" name="cloaktop" sid="cloaktop" type="JOINT">
                  <matrix sid="transform">1 2.32826e-10 8.63292e-9 0.009935168 2.57281e-15 1 -2.98023e-7 0.3512921 -8.63292e-9 2.98023e-7 1 -0.1981268 0 0 0 1</matrix>
                  <node id="dugunthiz2_Skin_cloak" name="cloak" sid="cloak" type="JOINT">
                    <matrix sid="transform">1 -7.53251e-15 1.42791e-10 0.004538156 0 1 2.98024e-7 -0.8590815 -1.42791e-10 -2.97775e-7 1 -0.2356978 0 0 0 1</matrix>
                    <node id="dugunthiz2_Skin_cloakbottom" name="cloakbottom" sid="cloakbottom" type="JOINT">
                      <matrix sid="transform">1 -7.54106e-15 0 -0.02733968 0 1 0 -0.8312194 0 2.47837e-10 1 -0.1177092 0 0 0 1</matrix>
                      <extra>
                        <technique profile="blender">
                          <layer sid="layer" type="string">0</layer>
                          <roll sid="roll" type="float">0</roll>
                          <tip_x sid="tip_x" type="float">0</tip_x>
                          <tip_y sid="tip_y" type="float">0</tip_y>
                          <tip_z sid="tip_z" type="float">0.1000001</tip_z>
                        </technique>
                      </extra>
                    </node>
                    <extra>
                      <technique profile="blender">
                        <layer sid="layer" type="string">0</layer>
                        <roll sid="roll" type="float">0</roll>
                        <tip_x sid="tip_x" type="float">0</tip_x>
                        <tip_y sid="tip_y" type="float">0</tip_y>
                        <tip_z sid="tip_z" type="float">0.0999999</tip_z>
                      </technique>
                    </extra>
                  </node>
                  <extra>
                    <technique profile="blender">
                      <layer sid="layer" type="string">0</layer>
                      <roll sid="roll" type="float">0</roll>
                      <tip_x sid="tip_x" type="float">0</tip_x>
                      <tip_y sid="tip_y" type="float">0</tip_y>
                      <tip_z sid="tip_z" type="float">0.1000001</tip_z>
                    </technique>
                  </extra>
                </node>
                <extra>
                  <technique profile="blender">
                    <layer sid="layer" type="string">0</layer>
                    <roll sid="roll" type="float">0</roll>
                    <tip_x sid="tip_x" type="float">0</tip_x>
                    <tip_y sid="tip_y" type="float">0</tip_y>
                    <tip_z sid="tip_z" type="float">0.1000001</tip_z>
                  </technique>
                </extra>
              </node>
              <extra>
                <technique profile="blender">
                  <layer sid="layer" type="string">0</layer>
                  <roll sid="roll" type="float">0</roll>
                  <tip_x sid="tip_x" type="float">0</tip_x>
                  <tip_y sid="tip_y" type="float">0</tip_y>
                  <tip_z sid="tip_z" type="float">0.0999999</tip_z>
                </technique>
              </extra>
            </node>
            <extra>
              <technique profile="blender">
                <layer sid="layer" type="string">0</layer>
                <roll sid="roll" type="float">0</roll>
                <tip_x sid="tip_x" type="float">0</tip_x>
                <tip_y sid="tip_y" type="float">0</tip_y>
                <tip_z sid="tip_z" type="float">0.0999999</tip_z>
              </technique>
            </extra>
          </node>
          <extra>
            <technique profile="blender">
              <layer sid="layer" type="string">0</layer>
              <roll sid="roll" type="float">0</roll>
              <tip_x sid="tip_x" type="float">0</tip_x>
              <tip_y sid="tip_y" type="float">0</tip_y>
              <tip_z sid="tip_z" type="float">0.0999999</tip_z>
            </technique>
          </extra>
        </node>
      </node>
      <node id="head" name="head" type="NODE">
        <translate sid="location">0 0 0</translate>
        <rotate sid="rotationZ">0 0 1 0</rotate>
        <rotate sid="rotationY">0 1 0 0</rotate>
        <rotate sid="rotationX">1 0 0 0</rotate>
        <scale sid="scale">1 1 1</scale>
        <instance_controller url="#dugunthiz2_Skin_head-skin">
          <skeleton>#dugunthiz2_Skin_root</skeleton>
          <bind_material>
            <technique_common>
              <instance_material symbol="spearman-suebi2_Mat-material" target="#spearman-suebi2_Mat-material"/>
            </technique_common>
          </bind_material>
        </instance_controller>
      </node>
    </visual_scene>
  </library_visual_scenes>
  <scene>
    <instance_visual_scene url="#Scene"/>
  </scene>
</COLLADA>