<?xml version="1.0" encoding="utf-8"?>
<COLLADA xmlns="http://www.collada.org/2005/11/COLLADASchema" version="1.4.1" xmlns:xsi="http://www.w3.org/2001/XMLSchema-instance">
  <asset>
    <contributor>
      <author>Blender User</author>
      <authoring_tool>Blender 2.79.0 commit date:2017-09-11, commit time:10:43, hash:5bd8ac9</authoring_tool>
    </contributor>
    <created>2019-02-04T12:07:40</created>
    <modified>2019-02-04T12:07:40</modified>
    <unit name="meter" meter="1"/>
    <up_axis>Z_UP</up_axis>
  </asset>
  <library_cameras>
    <camera id="Camera-camera" name="Camera">
      <optics>
        <technique_common>
          <perspective>
            <xfov sid="xfov">49.13434</xfov>
            <aspect_ratio>1.777778</aspect_ratio>
            <znear sid="znear">0.1</znear>
            <zfar sid="zfar">100</zfar>
          </perspective>
        </technique_common>
      </optics>
      <extra>
        <technique profile="blender">
          <shiftx sid="shiftx" type="float">0</shiftx>
          <shifty sid="shifty" type="float">0</shifty>
          <YF_dofdist sid="YF_dofdist" type="float">0</YF_dofdist>
        </technique>
      </extra>
    </camera>
  </library_cameras>
  <library_lights>
    <light id="Lamp-light" name="Lamp">
      <technique_common>
        <point>
          <color sid="color">1 1 1</color>
          <constant_attenuation>1</constant_attenuation>
          <linear_attenuation>0</linear_attenuation>
          <quadratic_attenuation>0.00111109</quadratic_attenuation>
        </point>
      </technique_common>
      <extra>
        <technique profile="blender">
          <type sid="type" type="int">0</type>
          <flag sid="flag" type="int">0</flag>
          <mode sid="mode" type="int">8192</mode>
          <gamma sid="blender_gamma" type="float">1</gamma>
          <red sid="red" type="float">1</red>
          <green sid="green" type="float">1</green>
          <blue sid="blue" type="float">1</blue>
          <shadow_r sid="blender_shadow_r" type="float">0</shadow_r>
          <shadow_g sid="blender_shadow_g" type="float">0</shadow_g>
          <shadow_b sid="blender_shadow_b" type="float">0</shadow_b>
          <energy sid="blender_energy" type="float">1</energy>
          <dist sid="blender_dist" type="float">29.99998</dist>
          <spotsize sid="spotsize" type="float">75</spotsize>
          <spotblend sid="spotblend" type="float">0.15</spotblend>
          <halo_intensity sid="blnder_halo_intensity" type="float">1</halo_intensity>
          <att1 sid="att1" type="float">0</att1>
          <att2 sid="att2" type="float">1</att2>
          <falloff_type sid="falloff_type" type="int">2</falloff_type>
          <clipsta sid="clipsta" type="float">1.000799</clipsta>
          <clipend sid="clipend" type="float">30.002</clipend>
          <bias sid="bias" type="float">1</bias>
          <soft sid="soft" type="float">3</soft>
          <compressthresh sid="compressthresh" type="float">0.04999995</compressthresh>
          <bufsize sid="bufsize" type="int">2880</bufsize>
          <samp sid="samp" type="int">3</samp>
          <buffers sid="buffers" type="int">1</buffers>
          <filtertype sid="filtertype" type="int">0</filtertype>
          <bufflag sid="bufflag" type="int">0</bufflag>
          <buftype sid="buftype" type="int">2</buftype>
          <ray_samp sid="ray_samp" type="int">1</ray_samp>
          <ray_sampy sid="ray_sampy" type="int">1</ray_sampy>
          <ray_sampz sid="ray_sampz" type="int">1</ray_sampz>
          <ray_samp_type sid="ray_samp_type" type="int">0</ray_samp_type>
          <area_shape sid="area_shape" type="int">1</area_shape>
          <area_size sid="area_size" type="float">0.1</area_size>
          <area_sizey sid="area_sizey" type="float">0.1</area_sizey>
          <area_sizez sid="area_sizez" type="float">1</area_sizez>
          <adapt_thresh sid="adapt_thresh" type="float">0.000999987</adapt_thresh>
          <ray_samp_method sid="ray_samp_method" type="int">1</ray_samp_method>
          <shadhalostep sid="shadhalostep" type="int">0</shadhalostep>
          <sun_effect_type sid="sun_effect_type" type="int">0</sun_effect_type>
          <skyblendtype sid="skyblendtype" type="int">1</skyblendtype>
          <horizon_brightness sid="horizon_brightness" type="float">1</horizon_brightness>
          <spread sid="spread" type="float">1</spread>
          <sun_brightness sid="sun_brightness" type="float">1</sun_brightness>
          <sun_size sid="sun_size" type="float">1</sun_size>
          <backscattered_light sid="backscattered_light" type="float">1</backscattered_light>
          <sun_intensity sid="sun_intensity" type="float">1</sun_intensity>
          <atm_turbidity sid="atm_turbidity" type="float">2</atm_turbidity>
          <atm_extinction_factor sid="atm_extinction_factor" type="float">1</atm_extinction_factor>
          <atm_distance_factor sid="atm_distance_factor" type="float">1</atm_distance_factor>
          <skyblendfac sid="skyblendfac" type="float">1</skyblendfac>
          <sky_exposure sid="sky_exposure" type="float">1</sky_exposure>
          <sky_colorspace sid="sky_colorspace" type="int">0</sky_colorspace>
        </technique>
      </extra>
    </light>
  </library_lights>
  <library_images/>
  <library_effects>
    <effect id="__-_Default_-effect">
      <profile_COMMON>
        <technique sid="common">
          <phong>
            <emission>
              <color sid="emission">0 0 0 1</color>
            </emission>
            <ambient>
              <color sid="ambient">0 0 0 1</color>
            </ambient>
            <diffuse>
              <color sid="diffuse">0.8 0 0 1</color>
            </diffuse>
            <specular>
              <color sid="specular">0.4490196 0.4490196 0.4490196 1</color>
            </specular>
            <shininess>
              <float sid="shininess">50</float>
            </shininess>
            <index_of_refraction>
              <float sid="index_of_refraction">1</float>
            </index_of_refraction>
          </phong>
        </technique>
      </profile_COMMON>
    </effect>
    <effect id="__-_Default__001-effect">
      <profile_COMMON>
        <technique sid="common">
          <phong>
            <emission>
              <color sid="emission">0 0 0 1</color>
            </emission>
            <ambient>
              <color sid="ambient">0 0 0 1</color>
            </ambient>
            <diffuse>
              <color sid="diffuse">0.8 0 0 1</color>
            </diffuse>
            <specular>
              <color sid="specular">0.4490196 0.4490196 0.4490196 1</color>
            </specular>
            <shininess>
              <float sid="shininess">50</float>
            </shininess>
            <index_of_refraction>
              <float sid="index_of_refraction">1</float>
            </index_of_refraction>
          </phong>
        </technique>
      </profile_COMMON>
    </effect>
  </library_effects>
  <library_materials>
    <material id="__-_Default_-material" name="__-_Default_">
      <instance_effect url="#__-_Default_-effect"/>
    </material>
    <material id="__-_Default__001-material" name="__-_Default__001">
      <instance_effect url="#__-_Default__001-effect"/>
    </material>
  </library_materials>
  <library_geometries>
    <geometry id="spearman_nor-mesh" name="spearman_nor">
      <mesh>
        <source id="spearman_nor-mesh-positions">
          <float_array id="spearman_nor-mesh-positions-array" count="1194">1.333506 1.137493 3.363154 1.094942 0.8899639 3.386492 0.7802985 -0.2722494 3.480412 1.055933 -0.782032 3.378373 1.534043 -0.7537152 3.329807 1.75097 -0.7081335 3.308084 2.033502 -0.3431448 3.319456 1.715607 0.7020129 3.386489 1.513789 1.057343 3.3422 1.368504 -0.09618949 3.539969 1.534043 -0.7537152 3.329807 1.333506 1.137493 3.363154 -0.3726112 0.3078263 2.186185 -0.3726112 0.3078263 2.186185 0.3579004 0.3078317 2.185374 0.3579004 0.3078317 2.185374 0.3579004 0.3078317 2.185374 -0.3688605 -0.2971251 2.177803 -0.3688605 -0.2971251 2.177803 -0.3688605 -0.2971251 2.177803 0.3541554 -0.2971198 2.176993 0.3541554 -0.2971198 2.176993 -0.008786916 -0.3740374 1.537674 -0.3688605 -0.2971251 2.177803 -0.3688605 -0.2971251 2.177803 -0.3726112 0.3078263 2.186185 -0.3726112 0.3078263 2.186185 -0.3726112 0.3078263 2.186185 0.3579004 0.3078317 2.185374 0.3579004 0.3078317 2.185374 0.3541554 -0.2971198 2.176993 0.3541554 -0.2971198 2.176993 -0.3688605 -0.2971251 2.177803 -0.39705 0.3024834 2.787198 -0.39705 0.3024834 2.787198 -0.408681 -0.1895464 2.778477 -0.408681 -0.1895464 2.778477 0.363144 0.2998071 2.794879 0.363144 0.2998071 2.794879 0.363144 0.2998071 2.794879 0.3757645 -0.1960215 2.775646 -0.408681 -0.1895464 2.778477 -0.408681 -0.1895464 2.778477 -0.39705 0.3024834 2.787198 -0.39705 0.3024834 2.787198 -0.408681 -0.1895464 2.778477 -0.408681 -0.1895464 2.778477 -0.39705 0.3024834 2.787198 0.3757645 -0.1960215 2.775646 -0.408681 -0.1895464 2.778477 -0.39705 0.3024834 2.787198 0.3757645 -0.1960215 2.775646 0.3757645 -0.1960215 2.775646 0.363144 0.2998071 2.794879 0.363144 0.2998071 2.794879 0.3757645 -0.1960215 2.775646 0.363144 0.2998071 2.794879 0.3757645 -0.1960215 2.775646 0.363144 0.2998071 2.794879 0.3757645 -0.1960215 2.775646 0.3757645 -0.1960215 2.775646 -0.001131653 0.1282119 3.254424 -0.4264591 0.02788311 3.172949 -0.001229465 -0.15499 3.231662 0.3970872 0.02788311 3.172949 -0.02459567 -0.3679922 2.77709 -0.02459567 -0.3679922 2.77709 -0.5546348 0.1181954 3.172409 -0.2192623 0.1631375 3.074996 0.2047436 0.1640643 3.072711 0.5176649 0.1226118 3.18434 -0.4264591 0.02788311 3.172949 -0.4264591 0.02788311 3.172949 -0.5546348 0.1181954 3.172409 -0.5546348 0.1181954 3.172409 0.3970872 0.02788311 3.172949 0.5176649 0.1226118 3.18434 -0.001131653 0.1282119 3.254424 -0.4264591 0.02788311 3.172949 0.3970872 0.02788311 3.172949 1.201344 0.1978639 3.091158 1.17304 0.02869588 3.000452 1.17304 0.02869588 3.000452 1.222517 0.01714617 3.23656 1.222517 0.01714617 3.23656 1.20479 -0.1401689 3.08722 0.6356318 0.1230345 3.284852 0.6356318 0.1230345 3.284852 0.6306055 -0.04742133 3.259818 0.6306055 -0.04742133 3.259818 1.201344 0.1978639 3.091158 1.20479 -0.1401689 3.08722 1.20479 -0.1401689 3.08722 1.222517 0.01714617 3.23656 1.20479 -0.1401689 3.08722 1.17304 0.02869588 3.000452 1.17304 0.02869588 3.000452 1.201344 0.1978639 3.091158 1.201344 0.1978639 3.091158 1.65567 0.09794986 3.03233 1.65567 0.09794986 3.03233 1.69716 0.01647043 3.204718 1.69716 0.01647043 3.204718 1.668874 -0.1209574 3.06632 1.901537 0.1168659 3.142373 1.901581 -0.1231876 3.199375 1.871582 -0.1246854 3.007437 1.872594 0.09826624 3.006646 1.65567 0.09794986 3.03233 1.668874 -0.1209574 3.06632 1.69716 0.01647043 3.204718 1.65567 0.09794986 3.03233 1.668874 -0.1209574 3.06632 1.901537 0.1168659 3.142373 1.65567 0.09794986 3.03233 1.668874 -0.1209574 3.06632 1.871582 -0.1246854 3.007437 1.304849 1.313212 3.272962 1.109721 1.013724 3.292106 0.6966593 -0.2618654 3.325505 0.9627085 -0.8887109 3.291971 1.557355 -0.9155592 3.230975 1.812985 -0.8618454 3.205376 2.08081 -0.4095222 3.18197 1.752064 0.7560335 3.219012 1.518822 1.206105 3.247986 1.330339 1.137493 3.347381 1.091775 0.8899639 3.370718 0.7771311 -0.2722494 3.464639 1.052766 -0.782032 3.3626 1.530876 -0.7537152 3.314033 1.747803 -0.7081335 3.292311 2.030335 -0.3431448 3.303682 1.71244 0.7020129 3.370716 1.510622 1.057343 3.326426 1.30485 1.313196 3.272959 1.109723 1.013707 3.292106 0.696059 -0.2618819 3.319154 0.9621072 -0.888727 3.285619 1.55666 -0.9155757 3.223625 1.81229 -0.8618614 3.198027 2.080813 -0.4095388 3.18197 1.752066 0.7560172 3.219012 1.518824 1.206089 3.247986 1.329641 1.137476 3.340031 1.091777 0.8899482 3.370718 0.7760687 -0.2722653 3.453433 1.052165 -0.782047 3.356249 1.53018 -0.7537311 3.306684 1.747107 -0.7081496 3.284962 2.02907 -0.3431605 3.290346 1.711174 0.7019964 3.357379 1.509925 1.057327 3.319077 1.353163 0.8009114 3.334118 1.264331 0.6821053 3.410623 1.078844 -0.13438 3.423823 1.158718 -0.3515678 3.381319 1.471369 -0.4395644 3.359857 1.578001 -0.4170363 3.342959 1.720968 -0.2346822 3.362368 1.556162 0.5831503 3.373083 1.476688 0.7611126 3.395754 1.408236 -0.1258767 3.395351 1.557355 -0.9155592 3.230975 1.530876 -0.7537152 3.314033 1.330339 1.137493 3.347381 1.304849 1.313212 3.272962 -0.6738138 -0.04731887 3.239377 -0.6738138 -0.04731887 3.239377 -0.6738138 -0.04731887 3.239377 -1.214789 0.02862387 2.943124 -1.214789 0.02862387 2.943124 -1.246706 0.1973637 3.032389 -1.273691 0.01710349 3.176455 -1.273691 0.01710349 3.176455 -1.249992 -0.1398134 3.028326 -0.6798406 0.1227709 3.264135 -0.6798406 0.1227709 3.264135 -0.6798406 0.1227709 3.264135 -1.246706 0.1973637 3.032389 -1.249992 -0.1398134 3.028326 -1.249992 -0.1398134 3.028326 -1.273691 0.01710349 3.176455 -1.214789 0.02862387 2.943124 -1.249992 -0.1398134 3.028326 -1.246706 0.1973637 3.032389 -1.246706 0.1973637 3.032389 -1.676055 0.09795904 2.96909 -1.676055 0.09795904 2.96909 -1.724443 0.01647198 3.139687 -1.724443 0.01647198 3.139687 -1.690615 -0.1209691 3.002524 -1.928483 -0.1231993 3.126128 -1.676055 0.09795904 2.96909 -1.690615 -0.1209691 3.002524 -1.724443 0.01647198 3.139687 -1.676055 0.09795904 2.96909 -1.690615 -0.1209691 3.002524 -1.676055 0.09795904 2.96909 -1.690615 -0.1209691 3.002524 -1.926147 0.1168811 3.069168 -1.891771 0.09827917 2.9347 -1.890791 -0.124698 2.93553 -1.926147 0.1168811 3.069168 -1.890791 -0.124698 2.93553 0.182002 0.3937029 1.580246 -0.1541718 0.3936967 1.565252 0.4688694 -0.1051481 1.61353 0.2180588 -0.3729047 1.613496 0.4688695 0.2864364 1.61353 0.2390295 0.1611827 1.026794 0.3943448 0.1617738 1.732257 -0.0145027 0.1614313 1.709724 0.006457626 0.1707834 1.710463 0.2367851 -0.1800947 1.30788 0.2327533 -0.1703394 1.699813 0.4688694 -0.1051481 1.61353 0.182002 0.3937029 1.580246 0.4688695 0.2864364 1.61353 0.2390295 0.1611827 1.026794 -0.0145027 0.1614313 1.709724 0.2367851 -0.1800947 1.30788 0.3943448 0.1617738 1.732257 0.006457626 0.1707834 1.710463 0.2390295 0.1611827 1.026794 0.3943448 0.1617738 1.732257 0.4476835 0.035887 1.114064 0.04524976 0.03556859 1.094243 0.04524976 0.03556859 1.094243 0.4476835 0.035887 1.114064 0.04524976 0.03556859 1.094243 0.4476835 0.035887 1.114064 0.4476835 0.035887 1.114064 0.04524976 0.03556859 1.094243 0.2525087 -0.01224321 0.2236564 0.232141 -0.1187108 0.892201 0.2525087 -0.01224321 0.2236564 0.4138398 0.2330511 0.001451551 0.1230962 0.2310684 0.001459002 0.4412869 -0.3168615 -9.22465e-4 0.1406266 -0.3485808 -9.22918e-4 0.1230962 0.2310684 0.001459002 0.4138398 0.2330511 0.001451551 0.4412869 -0.3168615 -9.22465e-4 0.1406266 -0.3485808 -9.22918e-4 -0.5069267 -0.1051529 1.613451 -0.2206484 -0.3729058 1.613474 -0.5069265 0.2864309 1.613451 -0.236507 0.1705075 1.022595 -0.3943766 0.1711318 1.732087 -0.2121686 -0.1920218 1.303679 -0.2307813 -0.1816594 1.699648 -0.5069267 -0.1051529 1.613451 -0.5069265 0.2864309 1.613451 -0.5069265 0.2864309 1.613451 -0.236507 0.1705075 1.022595 -0.2121686 -0.1920218 1.303679 -0.3943766 0.1711318 1.732087 -0.236507 0.1705075 1.022595 -0.3943766 0.1711318 1.732087 -0.4256046 0.03740715 1.109863 -0.04064673 0.03707277 1.090071 -0.04064673 0.03707277 1.090071 -0.4256046 0.03740715 1.109863 -0.04064673 0.03707277 1.090071 -0.4256046 0.03740715 1.109863 -0.4256046 0.03740715 1.109863 -0.04064673 0.03707277 1.090071 -0.2295093 -0.1268166 0.8879998 -0.4049183 0.2466529 -0.003528833 -0.1104678 0.2445311 -0.003521323 -0.2538364 -0.01679164 0.215286 -0.4327065 -0.3374651 -0.005903244 -0.1282125 -0.3711566 -0.005902826 -0.4049183 0.2466529 -0.003528833 -0.1104678 0.2445311 -0.003521323 -0.2538364 -0.01679164 0.215286 -0.4327065 -0.3374651 -0.005903244 -0.1282125 -0.3711566 -0.005902826 -1.68766 -2.330142 3.140596 -1.656759 -2.329602 3.01467 -1.656759 -2.329602 3.01467 -1.712745 -2.226139 3.042973 -1.712745 -2.226139 3.042973 -1.724202 -2.22668 3.08963 -1.784516 -2.227227 3.048418 -1.784516 -2.227227 3.048418 -1.83639 -2.330687 3.025387 -1.83639 -2.330687 3.025387 -1.682418 -2.139792 3.013294 -1.682418 -2.139792 3.013294 -1.682418 -2.139792 3.013294 -1.713169 -2.140333 3.138951 -1.713169 -2.140333 3.138951 -1.817448 -2.140877 3.042103 -1.817448 -2.140877 3.042103 -1.817448 -2.140877 3.042103 -1.68744 1.876427 3.015472 -1.718191 1.875886 3.141129 -1.822469 1.875342 3.044281 -1.750386 -2.981094 3.05191 -1.750386 -2.981094 3.05191 -1.749325 -2.981085 3.051683 -1.749325 -2.981085 3.051683 -1.749569 -2.98109 3.05267 -1.749569 -2.98109 3.05267 -0.2219835 0.09252977 3.684456 -0.2219835 0.09252977 3.684456 -0.1707346 0.08604913 3.796529 -0.01303732 0.2059608 3.687876 -0.01303732 0.2059608 3.687876 0.2301123 -0.18732 3.511322 0.2301123 -0.18732 3.511322 0.2325925 0.09379047 3.68938 0.2325925 0.09379047 3.68938 0.2278357 -0.1589981 3.693819 -0.1091166 -0.3174757 3.572484 -0.1228129 -0.2045437 3.809335 -0.219134 -0.1587859 3.692841 0.2018678 0.1616992 3.423076 -0.01711457 0.2202215 3.419879 -0.03319436 -0.333931 3.5571 1.70194e-4 -0.3260091 3.600786 -0.2069479 0.1350017 3.473551 -0.2322564 -0.1871097 3.51266 -0.2322564 -0.1871097 3.51266 -0.1633668 -0.3032348 3.550323 0.163541 -0.3032348 3.550323 0.08285379 0.1385583 3.800364 0.1581281 0.08693736 3.801304 -0.02658772 0.1645449 3.799018 -0.007053673 -0.02306705 3.879998 -0.182929 -0.07973963 3.804885 0.1161535 -0.2052692 3.809474 0.1834926 -0.07985788 3.805077 0.03130644 -0.02981358 3.878752 -0.002363085 -0.2436985 3.809869 0.03165626 -0.3343886 3.557316 0.1091243 -0.3174757 3.572484 -0.02395361 -0.3332486 3.467972 0.02406477 -0.3332486 3.467972 0.1818664 0.02091974 3.280446 0.1268597 0.1618376 3.281312 0.134085 0.1107007 3.630686 0.1806803 0.01837295 3.280637 0.1806803 0.01837295 3.280637 0.2067584 -9.46331e-4 3.51535 0.2067584 -9.46331e-4 3.51535 0.2018172 -0.02025055 3.696098 0.2018172 -0.02025055 3.696098 -0.10753 0.162814 3.280975 -0.1926012 0.01837289 3.280637 -0.1926012 0.01837289 3.280637 -0.2187116 -9.34017e-4 3.515348 -0.2187116 -9.34017e-4 3.515348 -0.2137448 -0.02025055 3.696094 -0.2137448 -0.02025055 3.696094 -0.1209459 0.1107024 3.630681 -0.01109755 0.2040061 3.555916 -0.01109755 0.2040061 3.555916 -0.01871907 0.1860622 3.283026 -0.01871907 0.1860622 3.283026 -0.2122899 -0.1569281 3.682754 -0.2122899 -0.1569281 3.682754 -0.2122899 -0.1569281 3.682754 -0.1735333 -0.1988972 3.475681 -0.1735333 -0.1988972 3.475681 -0.1735333 -0.1988972 3.475681 -0.1756178 -0.2304667 3.558247 -0.1756178 -0.2304667 3.558247 -0.08763921 -0.2720103 3.249871 -0.1195942 -0.3148342 3.443071 0.1636909 -0.2304667 3.558249 0.1636909 -0.2304667 3.558249 0.1350874 -0.2366111 3.654455 0.1350874 -0.2366111 3.654455 0.1031329 -0.3148342 3.443073 0.1031329 -0.3148342 3.443073 -0.1474366 -0.1500622 3.215972 -0.1474366 -0.1500622 3.215972 0.1616063 -0.1988973 3.475684 0.1616063 -0.1988973 3.475684 0.1616063 -0.1988973 3.475684 0.135522 -0.1504717 3.212875 0.135522 -0.1504717 3.212875 0.07117831 -0.2720103 3.249871 0.07117831 -0.2720103 3.249871 0.2003623 -0.1569283 3.682756 0.2003623 -0.1569283 3.682756 0.2003623 -0.1569283 3.682756 0.03655153 -0.297061 3.443071 -0.03878903 -0.2970611 3.443071 -0.001118659 -0.3301041 3.479718 -0.008230805 -0.2802305 3.654454 -0.1515491 -0.2366111 3.643267 -0.001117169 -0.3231383 3.529549 0.2189284 -0.1554619 3.433319 -0.2205265 -0.1513795 3.433837</float_array>
          <technique_common>
            <accessor source="#spearman_nor-mesh-positions-array" count="398" stride="3">
              <param name="X" type="float"/>
              <param name="Y" type="float"/>
              <param name="Z" type="float"/>
            </accessor>
          </technique_common>
        </source>
        <source id="spearman_nor-mesh-normals">
          <float_array id="spearman_nor-mesh-normals-array" count="972">-0.04887938 0.1403447 0.9888955 -0.1343341 0.1158981 0.9841352 -0.03473323 -0.2141741 0.9761778 0.1133146 -0.2764942 0.9543117 0.1512607 -0.2661949 0.9519771 0.235746 -0.2120363 0.9484011 0.3275514 0.03908121 0.9440248 0.06642311 0.1604745 0.9848026 0.1774112 0.1445525 0.9734629 -0.2674045 0.3426288 0.9006111 -0.6611441 0.468235 0.586212 -0.9386568 0.2713205 0.2128581 -0.8220421 0.2791881 0.4962871 -0.7671093 -0.4961652 0.4066491 -0.4213457 -0.2258179 0.878336 0.1156687 -0.6143801 0.7804858 0.07136565 -0.4461551 0.8921057 0.1783338 -0.4260162 0.8869653 0.1783345 -0.4260178 0.8869643 0.3852281 -0.3251041 0.8636589 0.7407116 -0.4110862 0.5313705 0.932825 0.2682998 0.2405262 0.9124383 0.246985 0.3262742 0.783234 0.4922005 0.3798464 0.6824926 0.3111135 0.6613715 0.2918146 0.4334845 0.8526052 0.3049308 0.4085724 0.8602825 0.6611481 -0.4682323 -0.5862097 0.2156233 -0.3215138 -0.9220279 0.8163034 -0.2754874 -0.5076963 0.9394188 -0.2701984 -0.2109149 0.4213473 0.2258192 -0.8783349 0.7636224 0.4930481 -0.4168748 -0.07288444 0.4459035 -0.8921087 -0.1172787 0.6151696 -0.779623 -0.1783336 0.4260163 -0.8869652 -0.1783314 0.4260122 -0.8869677 -0.707793 0.3994981 -0.5826066 -0.3963197 0.318869 -0.8609608 -0.9005446 -0.2425321 -0.3608291 -0.9233557 -0.2629015 -0.2798164 -0.6539292 -0.294012 -0.6970894 -0.7713072 -0.4816893 -0.4160057 -0.2912137 -0.3767333 -0.8793559 -0.2794167 -0.4003506 -0.8727232 0.03746736 -0.1583285 -0.9866754 -0.6287074 -0.03028702 -0.777052 -0.07431012 -0.05069583 -0.9959458 0.1637977 -0.05313795 -0.9850618 -0.1646758 0.09791994 -0.9814753 -0.1566682 0.1338858 -0.9785345 -0.1105709 0.1456974 -0.983131 -0.0486741 0.07007318 -0.9963536 -0.1245812 0.1237617 -0.9844605 -0.1820749 0.1308582 -0.9745383 -0.1748737 0.1494498 -0.9731824 -0.06698334 0.1573819 -0.9852635 -0.1210809 0.02681392 -0.9922805 -0.2393232 -0.03551471 -0.9702903 -0.2118496 -0.2225629 -0.9516226 -0.146355 0.06042647 -0.9873849 -0.1111918 0.00968796 -0.9937518 0.3582797 -0.2714336 -0.8932858 -0.5798863 -0.08797144 -0.809934 -0.08620566 0.003476381 -0.9962714 -0.08910048 0.1596369 -0.9831466 -0.03876644 0.1046447 -0.9937539 -0.1718096 0.07655626 -0.982151 -0.0531091 0.1467698 -0.9877439 -0.1078802 -0.008715033 -0.9941258 -0.2355015 0.01861602 -0.9716957 0.4376093 -0.03336346 -0.8985461 0.005064785 0.9012625 0.4332439 -0.4063618 -0.8078252 0.4269525 -0.1695649 -0.07889723 0.9823559 0.02108693 0.47062 -0.882084 -0.06408673 0.6288707 0.7748643 -0.2602315 0.8978883 0.3550723 -0.07739406 -0.1454824 -0.9863291 0.03253966 -0.4565438 -0.8891057 -0.07133358 -0.7133313 0.6971873 -0.05789095 -0.6899077 0.721579 -0.2186364 0.2272743 0.9489702 0.2536732 0.8428779 0.4745598 0.3174105 -0.002135992 -0.9482859 -0.9689998 -0.005177795 -0.2470071 -0.00636518 0.9898018 0.1423093 1.44995e-4 0.9905657 0.1370389 0.7272486 -0.681211 -0.08402973 1.56624e-4 -0.9910821 0.1332535 0.1551991 -0.1592167 -0.9749684 0.3702314 -0.6089561 0.7014993 0.0150007 -0.9998289 0.01082849 0.02241492 0.9910796 -0.1313727 0.2932267 -0.1275259 0.9474995 0.3691713 -0.8067776 0.4613269 0.4607636 0.657505 0.596141 0.4117295 0.7449944 0.524845 -0.997858 -0.005283176 -0.06520479 -0.9988873 0.0243287 -0.04040127 0.9993672 -0.005700051 -0.03511065 0.999634 0.0257644 -0.008260786 4.02619e-4 0.8984035 0.439171 -0.00124216 0.8997486 0.4364071 0.003429114 0.9999534 0.009028732 7.35364e-6 0.9999134 0.0131644 -0.3834769 -0.8285626 0.4079578 -0.4171861 -0.8989849 0.1333485 -1.24373e-4 -0.993089 -0.1173638 -0.9804058 -0.03639465 -0.1935971 -0.1484135 -0.6906073 0.7078383 0.03721642 -0.9486445 0.3141475 -0.2835837 -0.3849939 -0.878271 -0.1943569 0.0219767 -0.9806848 -0.2994465 0.4012838 -0.865623 -0.1188015 -0.1471405 0.9819552 -0.01697134 0.9389166 0.3437262 -0.221917 0.6288069 0.7452213 -0.009823381 0.4738028 -0.8805762 0.05288755 0.6297442 0.7750002 0.2448212 0.8980261 0.3655296 0.08628159 -0.1477752 -0.9852502 -0.02093213 -0.4600413 -0.8876509 0.06096708 -0.7144728 0.6970019 0.04743659 -0.690515 0.7217609 0.1802905 0.2272787 0.9569952 -0.2725105 0.8428884 0.4639799 -0.2789871 -0.002138555 -0.9602925 0.9781422 -0.005178749 -0.2078725 -0.1158481 -0.1592176 -0.9804229 -0.3981073 -0.6089621 0.6860582 -0.01542109 -0.9998289 0.01021254 -0.01709467 0.9910797 -0.1321699 -0.3806945 -0.1233646 0.9164349 -0.4231968 -0.7794193 0.4619635 -0.5235343 0.5928003 0.6119638 -0.4375389 0.7402966 0.5104123 0.987394 -0.03639888 -0.1540397 0.1034795 -0.6908962 0.71551 -0.05656218 -0.9457184 0.3200275 0.3480936 -0.3758443 -0.8588201 0.2596065 0.04402899 -0.9647103 0.3484207 0.3969958 -0.8491157 0.05480635 -0.1466681 0.9876664 -0.006902754 0.939399 0.3427565 0.1758564 0.6295233 0.7568191 0.4285969 -0.7967522 0.426017 0.1807109 -0.07885861 0.9803698 -0.03145295 0.9050058 0.4242348 -0.6808299 -0.7279425 -0.08105766 0.04658281 -0.9883415 0.1449531 -0.02943164 -0.9942556 0.1029057 0.9798988 -1.32355e-7 0.1994953 0.9815886 -0.00871998 0.1908084 -0.9734682 -0.009203255 0.2286376 -0.971354 3.92983e-7 0.2376372 -0.2868409 0.9574602 0.03150117 0.3467751 0.9373947 0.03222137 0.3912368 -0.9096562 0.1394969 0.3663328 -0.8496642 0.3793035 -0.05526721 0.9653361 0.2550919 -0.1403801 -0.1934257 0.9710201 -0.001108288 0.9813234 0.1923623 -0.2931571 0.2626001 0.9192933 0.30666 0.8059002 0.5064431 0.5478035 0.827767 -0.1212985 -0.5830155 0.783022 -0.2167246 -0.611611 0.779246 -0.1367757 0.599056 0.7721583 -0.2119047 -0.7117922 -0.6899588 -0.1315631 -0.8035714 -0.5733513 -0.1598168 0.672932 -0.7245693 -0.148869 0.8032927 -0.5914893 -0.06972342 -0.6941816 -0.7131581 -0.09755748 0.6557881 -0.7457526 -0.117453 -0.8003858 -0.5978277 0.04454916 -0.7519159 -0.6592019 0.008672833 0.8801701 -0.4445124 0.1664615 0.726193 -0.6870517 0.024571 0.7283922 -0.6714936 -0.136166 0.802652 -0.5745215 -0.1602345 -0.7242037 -0.6751545 -0.1403406 -0.8451724 -0.5315134 -0.05636739 0.7282032 -0.6717815 -0.1357564 -0.6935428 -0.7155814 -0.0833168 0.8273717 -0.5586941 0.05759334 0.8226412 -0.56604 0.05348187 -0.8938426 -0.427054 0.1366399 -0.7252604 -0.6882868 -0.01607906 0.007184565 0.9973186 0.07282859 -0.006801307 0.9976097 0.06876498 0.4657927 0.8736449 0.1406484 -0.5115683 0.8513938 0.1158724 -0.5226315 0.8396003 0.1480802 0.5286863 0.8394883 0.1254996 -0.8770265 -0.02849483 0.4795963 0.05992394 -0.568019 0.820831 0.7889487 0.03672999 0.6133603 -0.06017202 -0.5438052 0.8370515 0.8503826 -0.02654147 0.5254951 -0.8017584 0.03571695 0.5965802 8.31787e-4 0.9999994 -6.94835e-4 -8.01234e-4 0.9999995 -6.61519e-4 4.28102e-4 0.003855586 -0.9999925 5.46204e-5 0.004062354 -0.9999918 -5.51701e-5 0.004314303 -0.9999908 -4.30644e-4 0.004096269 -0.9999916 0.8820405 0.4175882 0.2182309 0.8802934 0.4197967 0.2210299 -0.07708603 0.2240559 -0.9715229 -0.05921268 0.2451038 -0.967687 -0.5620136 0.09898608 0.8211836 -0.6038261 0.1703284 0.7787056 0.9404942 -0.2519418 0.2280267 0.9404873 -0.2510099 0.2290799 -0.1997995 -0.2550136 -0.94607 -0.0737378 -0.1006826 -0.9921823 -0.6659995 -0.201475 0.7182287 -0.521376 -0.3720296 0.7679591 0.9713351 0.001085579 0.2377123 0.971334 0.001085579 0.2377166 -0.2086557 2.69605e-4 -0.9779892 -0.2086585 2.69623e-4 -0.9779886 -0.6805121 -0.001248359 0.7327358 -0.680517 -0.00124824 0.7327313 0.008162677 -0.9999628 -0.002818763 -0.007509112 0.9999688 0.002464652 0.963543 -0.123483 0.2373538 0.9638707 -0.1235459 0.235987 -0.6804241 -0.0341525 0.7320224 -0.6115486 -0.04866105 0.7897092 -0.059192 -0.04823744 -0.9970806 -0.2081995 -0.06732583 -0.9757665 -0.4638534 0.8465726 0.2610651 0.9997104 -0.01854211 0.01534807 -0.6715387 -0.6831697 0.2869061 0.4076049 0.8949996 0.1812019 0.2572486 0.9651799 0.04744565 -0.1476483 -0.9472278 0.2845337 -0.3959932 0.9166168 0.05479967 -0.474105 0.8690703 0.1412135 -0.997218 -0.008837342 0.07401543 -0.4169751 -0.7148414 0.5613676 0.8760821 -0.4746829 0.08459526 0.5172702 0.7614025 0.3907657 -0.2159628 0.3679029 0.9044377 -0.4122583 0.07608246 0.9078847 0.3823307 -0.1734703 0.9075965 -0.03727924 -0.3825436 0.9231851 0.1002605 -0.2994612 0.948826 -0.3516139 -0.1363403 0.9261636 -0.9040071 0.08758366 0.4184501 -0.951448 -5.1832e-4 0.3078092 -0.102788 -0.3033037 0.9473339 0.08431345 0.4022715 0.9116299 0.2300423 0.3519779 0.9072993 0.09913414 0.3948843 0.9133668 0.4577053 0.08961439 0.8845763 -0.007546305 -0.9828972 0.1840008 0.4132441 -0.7281858 0.5467857 -0.8708107 -0.4719659 0.1376118 0.6252299 -0.7123835 0.3187434 0.2895749 -0.8894247 0.3536525 0.1780764 -0.8914011 0.416765 0.7371624 -0.3761315 0.5613526 -0.7836113 -0.3593829 0.506752 -0.4654051 0.8464535 0.2586784 -0.1648344 -0.9184435 0.3595712 -0.2850638 -0.8714928 0.3990478 0.9262129 -0.01081103 0.3768458 0.8207795 0.1373596 0.5544849 0.1494736 -0.9451426 0.2904533 0.2109577 0.9072726 0.3638038 0.4069885 0.8937523 0.1885928 -0.007026731 -0.9999402 -0.008386373 0 -0.9999187 -0.01275825 0.9310804 0.363235 0.03391021 0.8899096 -0.3977082 0.2233589 0.8162755 0.5760393 -0.04327911 0.8696923 0.4877291 0.07586652 -0.8603454 0.5068414 -0.0540167 -0.7596043 0.6441681 0.08971661 -0.8005913 0.596382 0.05815654 0.4940776 0.8616581 0.1159005 0.1629576 0.9841986 -0.06926751 -0.6063863 0.789548 0.09439152 -0.2516136 0.966177 -0.05650395 -0.9826219 0.007642447 -0.185461 -0.9561713 -0.2646318 -0.1253253 -0.9056383 -0.3569572 -0.2289122 -0.9110689 -0.3768696 -0.1671015 0.6865171 -0.7095621 0.1587954 -0.8637391 -0.4723508 -0.1756117 -0.9748014 -0.2230553 0.002948641 -0.9692514 -0.2118132 -0.1252474 0.971798 -0.1951323 -0.1324084 0.9748314 -0.2229256 0.002840995 0.8466767 -0.5019724 -0.1765287 0.9698464 -0.2092335 -0.1249778 0.8930677 -0.3848794 -0.2330194 0.8979012 -0.4031279 -0.176809 0.9826224 0.00764358 -0.1854587 0.9561718 -0.2646303 -0.1253245 1.33691e-6 -0.9916985 -0.1285855 0 -0.9916984 -0.1285859 2.73823e-6 -0.7426775 -0.6696494 -0.2989913 -0.9040291 0.3055091 0.2145816 -0.975591 0.0466572 -0.254194 -0.9522678 -0.1690313 0.2113822 -0.9610477 -0.1780588 0.2781075 -0.9137718 0.2961037 0.8417333 -0.4940725 0.2176635 -0.2578459 -0.965929 0.02228242 0.7082977 -0.6991189 0.09771001 -0.7083147 -0.6990964 0.09774804 -0.9716034 -0.1948314 -0.1342666 -0.7142736 -0.6829721 0.1528477 -0.7437627 -0.6480847 0.1637172 0.7302806 -0.6603668 0.174946 -0.7844011 -0.5989708 0.1610866 -0.9909014 0.06344383 -0.1186991 0.9913058 0.04938501 -0.1219584 0.993408 0.05495607 -0.1006003 -0.9958416 0.07136917 -0.05662244</float_array>
          <technique_common>
            <accessor source="#spearman_nor-mesh-normals-array" count="324" stride="3">
              <param name="X" type="float"/>
              <param name="Y" type="float"/>
              <param name="Z" type="float"/>
            </accessor>
          </technique_common>
        </source>
        <source id="spearman_nor-mesh-map-0">
          <float_array id="spearman_nor-mesh-map-0-array" count="1944">0.232113 0.1742579 0.264262 0.205145 0.238357 0.334148 0.264262 0.205145 0.294161 0.361718 0.238357 0.334148 0.294161 0.361718 0.266963 0.41408 0.238357 0.334148 0.266963 0.41408 0.2152529 0.420387 0.238357 0.334148 0.2152529 0.420387 0.196799 0.409353 0.238357 0.334148 0.196799 0.409353 0.167767 0.373739 0.238357 0.334148 0.167767 0.373739 0.186336 0.232552 0.238357 0.334148 0.186336 0.232552 0.209071 0.185552 0.238357 0.334148 0.209071 0.185552 0.232113 0.1742579 0.238357 0.334148 0.257821 0.2285889 0.235292 0.205317 0.236226 0.188756 0.236226 0.188756 0.254677 0.216934 0.257821 0.2285889 0.292062 0.345265 0.257821 0.2285889 0.254677 0.216934 0.254677 0.216934 0.296913 0.344275 0.292062 0.345265 0.264818 0.393369 0.292062 0.345265 0.296913 0.344275 0.296913 0.344275 0.271852 0.403405 0.264818 0.393369 0.219286 0.396684 0.264818 0.393369 0.271852 0.403405 0.271852 0.403405 0.215336 0.411945 0.219286 0.396684 0.198831 0.392438 0.219286 0.396684 0.215336 0.411945 0.215336 0.411945 0.191231 0.406941 0.198831 0.392438 0.173308 0.352232 0.198831 0.392438 0.191231 0.406941 0.191231 0.406941 0.166401 0.358504 0.173308 0.352232 0.200521 0.246438 0.173308 0.352232 0.166401 0.358504 0.166401 0.358504 0.194034 0.241363 0.200521 0.246438 0.218264 0.212911 0.200521 0.246438 0.194034 0.241363 0.194034 0.241363 0.216018 0.198898 0.218264 0.212911 0.235292 0.205317 0.218264 0.212911 0.216018 0.198898 0.216018 0.198898 0.236226 0.188756 0.235292 0.205317 0.333692 0.456116 0.332393 0.451692 0.32511 0.441086 0.32511 0.441086 0.324865 0.44742 0.333692 0.456116 0.346438 0.497651 0.348301 0.497232 0.332393 0.451692 0.332393 0.451692 0.333692 0.456116 0.346438 0.497651 0.336457 0.51625 0.339228 0.520023 0.348301 0.497232 0.348301 0.497232 0.346438 0.497651 0.336457 0.51625 0.319217 0.515652 0.317837 0.521513 0.339228 0.520023 0.339228 0.520023 0.336457 0.51625 0.319217 0.515652 0.31137 0.514202 0.30859 0.519804 0.317837 0.521513 0.317837 0.521513 0.319217 0.515652 0.31137 0.514202 0.301139 0.50131 0.298604 0.503762 0.30859 0.519804 0.30859 0.519804 0.31137 0.514202 0.301139 0.50131 0.311911 0.463416 0.30944 0.461531 0.298604 0.503762 0.298604 0.503762 0.301139 0.50131 0.311911 0.463416 0.318427 0.450463 0.317479 0.445129 0.30944 0.461531 0.30944 0.461531 0.311911 0.463416 0.318427 0.450463 0.324865 0.44742 0.32511 0.441086 0.317479 0.445129 0.317479 0.445129 0.318427 0.450463 0.324865 0.44742 0.32807 0.463737 0.333692 0.456116 0.324865 0.44742 0.324865 0.44742 0.324289 0.459552 0.32807 0.463737 0.335425 0.492955 0.346438 0.497651 0.333692 0.456116 0.333692 0.456116 0.32807 0.463737 0.335425 0.492955 0.332497 0.500847 0.336457 0.51625 0.346438 0.497651 0.346438 0.497651 0.335425 0.492955 0.332497 0.500847 0.321392 0.504287 0.319217 0.515652 0.336457 0.51625 0.336457 0.51625 0.332497 0.500847 0.321392 0.504287 0.317491 0.503571 0.31137 0.514202 0.319217 0.515652 0.319217 0.515652 0.321392 0.504287 0.317491 0.503571 0.312424 0.497129 0.301139 0.50131 0.31137 0.514202 0.31137 0.514202 0.317491 0.503571 0.312424 0.497129 0.317595 0.467556 0.311911 0.463416 0.301139 0.50131 0.301139 0.50131 0.312424 0.497129 0.317595 0.467556 0.320403 0.46108 0.318427 0.450463 0.311911 0.463416 0.311911 0.463416 0.317595 0.467556 0.320403 0.46108 0.324289 0.459552 0.324865 0.44742 0.318427 0.450463 0.318427 0.450463 0.320403 0.46108 0.324289 0.459552 0.324289 0.459552 0.323595 0.492938 0.32807 0.463737 0.32807 0.463737 0.323595 0.492938 0.335425 0.492955 0.335425 0.492955 0.323595 0.492938 0.332497 0.500847 0.332497 0.500847 0.323595 0.492938 0.321392 0.504287 0.321392 0.504287 0.323595 0.492938 0.317491 0.503571 0.317491 0.503571 0.323595 0.492938 0.312424 0.497129 0.312424 0.497129 0.323595 0.492938 0.317595 0.467556 0.317595 0.467556 0.323595 0.492938 0.320403 0.46108 0.320403 0.46108 0.323595 0.492938 0.324289 0.459552 0.03701496 0.617915 0.114907 0.627237 0.06840896 0.551967 0.06536698 0.549686 0.17193 0.66821 0.06071799 0.652855 0.17193 0.66821 0.171956 0.674163 0.06071799 0.652855 0.258394 0.56792 0.263476 0.651621 0.07430899 0.56627 0.263818 0.652885 0.258566 0.563515 0.07356399 0.654158 0.07356399 0.654158 0.258566 0.563515 0.07494896 0.564022 0.07184797 0.56627 0.258554 0.577798 0.07455599 0.648652 0.256334 0.651759 0.07455599 0.648652 0.258554 0.577798 0.06864196 0.580335 0.07563698 0.646454 0.256463 0.650868 0.06864196 0.580335 0.256463 0.650868 0.258896 0.579062 0.101475 0.373003 0.158259 0.415 0.156271 0.311429 0.101475 0.373003 0.09931695 0.408224 0.158259 0.415 0.103325 0.312301 0.159927 0.31015 0.158765 0.406414 0.159087 0.414441 0.158765 0.406414 0.159927 0.31015 0.09416198 0.559308 0.06320399 0.553957 0.146852 0.738671 0.004358947 0.737339 0.146852 0.738671 0.06320399 0.553957 0.238168 0.567736 0.286608 0.567745 0.279778 0.736171 0.279778 0.736171 0.06892699 0.733919 0.238168 0.567736 0.158765 0.406414 0.100199 0.406838 0.103325 0.312301 0.156271 0.311429 0.101929 0.313672 0.101475 0.373003 0.156271 0.311429 0.158532 0.31073 0.101929 0.313672 0.100199 0.406838 0.158765 0.406414 0.159087 0.414441 0.1539289 0.933099 0.197024 0.933101 0.17797 0.992287 0.212209 0.998118 0.1673049 0.941064 0.216552 0.901769 0.1539289 0.933099 0.17797 0.992287 0.155088 0.958438 0.190073 0.965488 0.219393 0.903899 0.161082 0.941061 0.393068 0.736056 0.280253 0.734965 0.283685 0.836306 0.386822 0.838134 0.393068 0.736056 0.283685 0.836306 0.280254 0.734867 0.39307 0.735875 0.282328 0.835713 0.282328 0.835713 0.39307 0.735875 0.386261 0.839745 0.114907 0.627237 0.225799 0.626639 0.267227 0.553976 0.267227 0.553976 0.06840896 0.551967 0.114907 0.627237 0.139672 0.738735 0.1372269 0.834089 0.008893966 0.83421 0.139672 0.738735 0.008893966 0.83421 0.008986949 0.738054 0.06536698 0.549686 0.165819 0.549324 0.17193 0.66821 0.08791697 0.735093 0.185194 0.833719 0.104761 0.831592 0.280816 0.738299 0.185194 0.833719 0.08791697 0.735093 0.158259 0.415 0.158532 0.31073 0.156271 0.311429 0.1779969 0.839093 0.149012 0.836886 0.169822 0.945594 0.169822 0.945594 0.149012 0.836886 0.151428 0.924789 0.151428 0.924789 0.149012 0.836886 0.1801249 0.839489 0.151428 0.924789 0.1801249 0.839489 0.215059 0.925917 0.1801249 0.839489 0.2112939 0.837653 0.215059 0.925917 0.1918179 0.945593 0.1779969 0.839093 0.169822 0.945594 0.1918179 0.945593 0.215059 0.925917 0.2112939 0.837653 0.2112939 0.837653 0.1779969 0.839093 0.1918179 0.945593 0.260568 0.563542 0.07219099 0.563994 0.265879 0.647207 0.265407 0.657401 0.06999498 0.65625 0.260399 0.568003 0.06999498 0.65625 0.07154798 0.566168 0.260399 0.568003 0.06972998 0.563994 0.07287698 0.646407 0.260957 0.573383 0.256871 0.650874 0.260957 0.573383 0.07287698 0.646407 0.06507396 0.582426 0.256742 0.651776 0.07179296 0.64853 0.06507396 0.582426 0.260485 0.583578 0.256742 0.651776 0.105782 0.371606 0.160896 0.310793 0.16232 0.414403 0.105782 0.371606 0.16232 0.414403 0.103431 0.406801 0.105162 0.313602 0.161126 0.406898 0.161764 0.310659 0.161493 0.414917 0.161764 0.310659 0.161126 0.406898 0.161126 0.406898 0.105162 0.313602 0.102549 0.408142 0.160896 0.310793 0.105782 0.371606 0.106557 0.312276 0.160896 0.310793 0.106557 0.312276 0.1631579 0.310125 0.102549 0.408142 0.161493 0.414917 0.161126 0.406898 0.203692 0.938198 0.1524839 0.99524 0.197456 0.938198 0.1524839 0.99524 0.147276 0.898199 0.197456 0.938198 0.173951 0.961615 0.1524839 0.99524 0.203692 0.938198 0.203692 0.938198 0.1441929 0.902897 0.173951 0.961615 0.16232 0.414403 0.160896 0.310793 0.1631579 0.310125 0.178005 0.841479 0.169808 0.945601 0.148946 0.839259 0.169808 0.945601 0.150591 0.924423 0.148946 0.839259 0.150591 0.924423 0.180138 0.841853 0.148946 0.839259 0.150591 0.924423 0.214713 0.92691 0.180138 0.841853 0.180138 0.841853 0.214713 0.92691 0.211387 0.840026 0.191852 0.945601 0.169808 0.945601 0.178005 0.841479 0.191852 0.945601 0.211387 0.840026 0.214713 0.92691 0.211387 0.840026 0.191852 0.945601 0.178005 0.841479 0.270527 0.548946 0.276104 0.652855 0.17193 0.66821 0.17193 0.66821 0.276104 0.652855 0.171956 0.674163 0.29909 0.616849 0.267227 0.553976 0.225799 0.626639 0.05439597 0.567724 0.126963 0.56773 0.08481597 0.72268 0.08481597 0.72268 0.126963 0.56773 0.1777369 0.564629 0.1777369 0.564629 0.238168 0.567736 0.06892699 0.733919 0.079737 0.557835 0.001693964 0.557835 0.131542 0.737727 0.131542 0.737727 0.001693964 0.557835 0.003435969 0.739501 0.003436982 0.739673 0.001694977 0.557819 0.131543 0.737898 0.131543 0.737898 0.001694977 0.557819 0.07973796 0.557819 0.004358947 0.737339 0.06320399 0.553957 0.003238976 0.563074 0.146852 0.738671 0.151741 0.567745 0.09416198 0.559308 0.280816 0.738299 0.274333 0.83491 0.185194 0.833719 0.165819 0.549324 0.270527 0.548946 0.17193 0.66821 0.171956 0.674163 0.114907 0.627237 0.03701496 0.617915 0.03701496 0.617915 0.06071799 0.652855 0.171956 0.674163 0.225799 0.626639 0.114907 0.627237 0.171956 0.674163 0.276104 0.652855 0.29909 0.616849 0.225799 0.626639 0.225799 0.626639 0.171956 0.674163 0.276104 0.652855 0.350003 0.475003 0.376606 0.454039 0.382724 0.518068 0.376606 0.454039 0.349673 0.470619 0.382353 0.513083 0.378616 0.452987 0.350285 0.474054 0.384795 0.517908 0.349952 0.469675 0.378616 0.452987 0.384434 0.513124 0.301495 0.28276 0.312865 0.427898 0.349673 0.470619 0.378661 0.226074 0.301495 0.28276 0.349673 0.470619 0.379099 0.226047 0.350003 0.475003 0.312865 0.427898 0.312865 0.427898 0.301495 0.28276 0.379099 0.226047 0.312865 0.427898 0.304713 0.520748 0.349673 0.470619 0.350003 0.475003 0.304713 0.520748 0.312865 0.427898 0.308757 0.515231 0.382353 0.513083 0.349673 0.470619 0.349673 0.470619 0.304713 0.520748 0.308757 0.515231 0.350003 0.475003 0.382724 0.518068 0.308757 0.515231 0.304713 0.520748 0.350003 0.475003 0.308757 0.515231 0.311015 0.427074 0.300378 0.280967 0.349952 0.469675 0.300378 0.280967 0.381577 0.224795 0.349952 0.469675 0.350285 0.474054 0.382046 0.224766 0.311015 0.427074 0.300378 0.280967 0.311015 0.427074 0.382046 0.224766 0.302017 0.519975 0.311015 0.427074 0.349952 0.469675 0.302017 0.519975 0.350285 0.474054 0.311015 0.427074 0.384434 0.513124 0.306248 0.515343 0.349952 0.469675 0.302017 0.519975 0.349952 0.469675 0.306248 0.515343 0.384795 0.517908 0.350285 0.474054 0.306248 0.515343 0.350285 0.474054 0.302017 0.519975 0.306248 0.515343 0.381577 0.224795 0.382046 0.224766 0.378616 0.452987 0.379099 0.226047 0.378661 0.226074 0.376606 0.454039 0.350003 0.475003 0.379099 0.226047 0.376606 0.454039 0.376606 0.454039 0.378661 0.226074 0.349673 0.470619 0.378616 0.452987 0.382046 0.224766 0.350285 0.474054 0.349952 0.469675 0.381577 0.224795 0.378616 0.452987 0.378661 0.226074 0.303675 0.2247959 0.301495 0.28276 0.3107 0.22438 0.301495 0.28276 0.303675 0.2247959 0.301495 0.28276 0.3107 0.22438 0.379099 0.226047 0.306072 0.2235479 0.298612 0.2239879 0.300378 0.280967 0.381577 0.224795 0.300378 0.280967 0.298612 0.2239879 0.382046 0.224766 0.306072 0.2235479 0.300378 0.280967 0.384434 0.513124 0.378616 0.452987 0.384795 0.517908 0.382724 0.518068 0.376606 0.454039 0.382353 0.513083 0.381577 0.224795 0.298612 0.2239879 0.306072 0.2235479 0.306072 0.2235479 0.382046 0.224766 0.381577 0.224795 0.378661 0.226074 0.379099 0.226047 0.3107 0.22438 0.3107 0.22438 0.303675 0.2247959 0.378661 0.226074 0.427542 0.532734 0.427731 0.532624 0.440174 0.531366 0.440174 0.531366 0.43999 0.531534 0.427542 0.532734 0.444538 0.539831 0.44154 0.622509 0.433943 0.61408 0.433943 0.61408 0.43162 0.537151 0.444538 0.539831 0.43999 0.531534 0.43854 0.614238 0.43074 0.60965 0.43074 0.60965 0.427542 0.532734 0.43999 0.531534 0.43999 0.531534 0.440174 0.531366 0.480297 0.528462 0.480297 0.528462 0.480108 0.528572 0.43999 0.531534 0.48416 0.532144 0.486483 0.609069 0.44154 0.622509 0.44154 0.622509 0.444538 0.539831 0.48416 0.532144 0.480108 0.528572 0.483306 0.605488 0.43854 0.614238 0.43854 0.614238 0.43999 0.531534 0.480108 0.528572 0.308864 0.23967 0.371064 0.23631 0.373265 0.356389 0.373265 0.356389 0.311066 0.359745 0.308864 0.23967 0.308888 0.240258 0.308864 0.23967 0.311066 0.359745 0.311066 0.359745 0.311089 0.360336 0.308888 0.240258 0.371064 0.23631 0.308888 0.240258 0.311089 0.360336 0.311089 0.360336 0.373265 0.356389 0.371064 0.23631 0.31841 0.566454 0.318428 0.567056 0.318428 0.567052 0.371064 0.23631 0.308864 0.23967 0.308888 0.240258 0.315238 0.572859 0.315238 0.572855 0.427731 0.532624 0.427731 0.532624 0.427542 0.532734 0.315238 0.572859 0.315265 0.573462 0.315238 0.572859 0.427542 0.532734 0.427542 0.532734 0.43074 0.60965 0.315265 0.573462 0.43162 0.537151 0.433943 0.61408 0.318428 0.567056 0.318428 0.567056 0.31841 0.566454 0.43162 0.537151 0.452676 0.60858 0.451196 0.630876 0.474903 0.60859 0.406738 0.586391 0.452951 0.609537 0.403486 0.611877 0.371753 0.589044 0.396618 0.641014 0.403522 0.611684 0.4676 0.625162 0.478683 0.550321 0.489552 0.624215 0.489552 0.624215 0.478683 0.550321 0.490288 0.554972 0.368442 0.586128 0.370247 0.594634 0.371753 0.589044 0.489552 0.624215 0.490288 0.554972 0.473484 0.551417 0.489552 0.624215 0.473484 0.551417 0.467324 0.624205 0.406787 0.586652 0.403522 0.611684 0.452676 0.60858 0.403522 0.611684 0.374413 0.584622 0.371753 0.589044 0.406738 0.586391 0.403486 0.611877 0.374413 0.584622 0.461179 0.633129 0.451458 0.634043 0.452951 0.609537 0.466056 0.632089 0.451196 0.630876 0.431574 0.6616 0.451196 0.630876 0.420079 0.637357 0.431574 0.6616 0.396484 0.641111 0.42006 0.637486 0.430173 0.658487 0.430173 0.658487 0.431574 0.6616 0.396484 0.641111 0.396484 0.641111 0.431574 0.6616 0.38924 0.641588 0.420079 0.637357 0.396618 0.641014 0.431574 0.6616 0.420079 0.637357 0.451196 0.630876 0.452676 0.60858 0.420079 0.637357 0.452676 0.60858 0.403522 0.611684 0.396618 0.641014 0.38924 0.641588 0.431574 0.6616 0.466056 0.632089 0.431574 0.6616 0.461179 0.633129 0.430173 0.658487 0.451458 0.634043 0.461179 0.633129 0.461179 0.633129 0.431574 0.6616 0.430173 0.658487 0.42006 0.637486 0.451458 0.634043 0.430173 0.658487 0.368442 0.586128 0.368354 0.586173 0.370247 0.594634 0.374413 0.584622 0.403486 0.611877 0.371753 0.589044 0.374413 0.584622 0.403522 0.611684 0.406787 0.586652 0.371753 0.589044 0.403486 0.611877 0.396484 0.641111 0.396484 0.641111 0.38924 0.641588 0.370247 0.594634 0.396484 0.641111 0.370247 0.594634 0.371753 0.589044 0.396484 0.641111 0.403486 0.611877 0.42006 0.637486 0.403522 0.611684 0.396618 0.641014 0.420079 0.637357 0.474903 0.60859 0.451196 0.630876 0.466056 0.632089 0.371753 0.589044 0.370247 0.594634 0.38924 0.641588 0.371753 0.589044 0.38924 0.641588 0.396618 0.641014 0.42006 0.637486 0.403486 0.611877 0.452951 0.609537 0.42006 0.637486 0.452951 0.609537 0.451458 0.634043 0.371753 0.589044 0.370247 0.594634 0.368354 0.586173 0.474903 0.60859 0.466056 0.632089 0.461179 0.633129 0.474903 0.60859 0.461179 0.633129 0.452951 0.609537 0.368354 0.586173 0.368442 0.586128 0.368057 0.568674 0.368354 0.586173 0.368057 0.568674 0.368057 0.568674 0.09185796 0.579996 0.032637 0.55826 0.04359197 0.658336 0.09274196 0.580129 0.09185796 0.579996 0.04359197 0.658336 0.094549 0.610292 0.09274196 0.580129 0.04359197 0.658336 0.09346097 0.664156 0.094549 0.610292 0.04359197 0.658336 0.03408396 0.557341 0.09459799 0.579971 0.09547698 0.610104 0.03408396 0.557341 0.09547698 0.610104 0.09347099 0.663939 0.043926 0.657692 0.03408396 0.557341 0.09347099 0.663939 0.006627976 0.637417 0.04359197 0.658336 0.032637 0.55826 0.032637 0.55826 0.02721798 0.558146 0.006627976 0.637417 0.03408396 0.557341 0.043926 0.657692 0.007313966 0.636415 0.007313966 0.636415 0.02908396 0.55725 0.03408396 0.557341 0.138606 0.665098 0.09444999 0.664278 0.158646 0.606724 0.124162 0.47702 0.132201 0.496751 0.103146 0.556878 0.131417 0.484231 0.163946 0.417954 0.15064 0.475196 0.15064 0.475196 0.129777 0.508843 0.131417 0.484231 0.128778 0.508348 0.136149 0.575016 0.1512269 0.47476 0.134907 0.426441 0.163946 0.417954 0.131417 0.484231 0.158646 0.606724 0.09444999 0.664278 0.094177 0.610178 0.094177 0.610178 0.09101796 0.579781 0.155304 0.568145 0.09403496 0.610567 0.158402 0.606173 0.153991 0.567024 0.09403496 0.610567 0.09543496 0.664668 0.158402 0.606173 0.130418 0.483736 0.164534 0.417519 0.133939 0.425023 0.153991 0.567024 0.08973997 0.58017 0.09403496 0.610567 0.1512269 0.47476 0.164534 0.417519 0.130418 0.483736 0.130418 0.483736 0.128778 0.508348 0.1512269 0.47476 0.158402 0.606173 0.09543496 0.664668 0.13959 0.664845 0.10413 0.556625 0.132366 0.496085 0.123919 0.476469 0.219487 0.420008 0.205246 0.477215 0.178898 0.476241 0.219487 0.420008 0.178898 0.476241 0.163946 0.417954 0.191667 0.487664 0.178898 0.476241 0.205246 0.477215 0.185681 0.577305 0.135561 0.575452 0.15064 0.475196 0.185681 0.577305 0.15064 0.475196 0.178898 0.476241 0.22853 0.478076 0.205246 0.477215 0.219487 0.420008 0.15064 0.475196 0.163946 0.417954 0.178898 0.476241 0.22853 0.478076 0.235801 0.579159 0.185681 0.577305 0.185681 0.577305 0.191119 0.502534 0.205246 0.477215 0.22853 0.478076 0.185681 0.577305 0.205246 0.477215 0.191119 0.502534 0.191667 0.487664 0.205246 0.477215 0.178898 0.476241 0.191667 0.487664 0.191119 0.502534 0.094177 0.610178 0.155304 0.568145 0.158646 0.606724 0.15064 0.475196 0.135561 0.575452 0.129777 0.508843 0.129777 0.508843 0.135561 0.575452 0.114007 0.583112 0.128778 0.508348 0.113009 0.582618 0.136149 0.575016 0.178898 0.476241 0.191119 0.502534 0.185681 0.577305 0.473484 0.551417 0.416934 0.536881 0.421435 0.602277 0.416132 0.536804 0.478683 0.550321 0.421386 0.602016 0.421386 0.602016 0.478683 0.550321 0.4676 0.625162 0.421435 0.602277 0.467324 0.624205 0.473484 0.551417</float_array>
          <technique_common>
            <accessor source="#spearman_nor-mesh-map-0-array" count="972" stride="2">
              <param name="S" type="float"/>
              <param name="T" type="float"/>
            </accessor>
          </technique_common>
        </source>
        <vertices id="spearman_nor-mesh-vertices">
          <input semantic="POSITION" source="#spearman_nor-mesh-positions"/>
        </vertices>
        <triangles material="__-_Default__001-material" count="324">
          <input semantic="VERTEX" source="#spearman_nor-mesh-vertices" offset="0"/>
          <input semantic="NORMAL" source="#spearman_nor-mesh-normals" offset="1"/>
          <input semantic="TEXCOORD" source="#spearman_nor-mesh-map-0" offset="2" set="0"/>
          <p>0 0 0 1 0 1 9 0 2 1 1 3 2 1 4 9 1 5 2 2 6 3 2 7 9 2 8 3 3 9 4 3 10 9 3 11 10 4 12 5 4 13 9 4 14 5 5 15 6 5 16 9 5 17 6 6 18 7 6 19 9 6 20 7 7 21 8 7 22 9 7 23 8 8 24 11 8 25 9 8 26 127 9 27 126 9 28 117 9 29 117 10 30 118 10 31 127 10 32 128 11 33 127 11 34 118 11 35 118 12 36 119 12 37 128 12 38 129 13 39 128 13 40 119 13 41 119 14 42 120 14 43 129 14 44 130 15 45 129 15 46 120 15 47 120 16 48 121 16 49 130 16 50 131 17 51 164 17 52 163 17 53 163 18 54 122 18 55 131 18 56 132 19 57 131 19 58 122 19 59 122 20 60 123 20 61 132 20 62 133 21 63 132 21 64 123 21 65 123 22 66 124 22 67 133 22 68 134 23 69 133 23 70 124 23 71 124 24 72 125 24 73 134 24 74 165 25 75 134 25 76 125 25 77 125 26 78 166 26 79 165 26 80 145 27 81 136 27 82 135 27 83 135 28 84 144 28 85 145 28 86 146 29 87 137 29 88 136 29 89 136 30 90 145 30 91 146 30 92 147 31 93 138 31 94 137 31 95 137 32 96 146 32 97 147 32 98 148 33 99 139 33 100 138 33 101 138 34 102 147 34 103 148 34 104 149 35 105 140 35 106 139 35 107 139 36 108 148 36 109 149 36 110 150 37 111 141 37 112 140 37 113 140 38 114 149 38 115 150 38 116 151 39 117 142 39 118 141 39 119 141 40 120 150 40 121 151 40 122 152 41 123 143 41 124 142 41 125 142 42 126 151 42 127 152 42 128 144 43 129 135 43 130 143 43 131 143 44 132 152 44 133 144 44 134 154 45 135 145 45 136 144 45 137 144 46 138 153 46 139 154 46 140 155 47 141 146 47 142 145 47 143 145 48 144 154 48 145 155 48 146 156 49 147 147 49 148 146 49 149 146 50 150 155 50 151 156 50 152 157 51 153 148 51 154 147 51 155 147 52 156 156 52 157 157 52 158 158 53 159 149 53 160 148 53 161 148 54 162 157 54 163 158 54 164 159 55 165 150 55 166 149 55 167 149 56 168 158 56 169 159 56 170 160 57 171 151 57 172 150 57 173 150 58 174 159 58 175 160 58 176 161 59 177 152 59 178 151 59 179 151 60 180 160 60 181 161 60 182 153 61 183 144 61 184 152 61 185 152 62 186 161 62 187 153 62 188 153 63 189 162 63 190 154 63 191 154 64 192 162 64 193 155 64 194 155 65 195 162 65 196 156 65 197 156 66 198 162 66 199 157 66 200 157 67 201 162 67 202 158 67 203 158 68 204 162 68 205 159 68 206 159 69 207 162 69 208 160 69 209 160 70 210 162 70 211 161 70 212 161 71 213 162 71 214 153 71 215 67 72 216 68 72 217 33 72 218 35 73 219 63 73 220 62 73 221 63 74 222 61 74 223 62 74 224 172 75 225 170 75 226 187 75 227 173 76 228 179 76 229 189 76 230 189 77 231 179 77 232 193 77 233 188 78 234 171 78 235 191 78 236 175 79 237 191 79 238 171 79 239 190 80 240 194 80 241 180 80 242 190 81 243 180 81 244 174 81 245 195 82 246 200 82 247 192 82 248 195 83 249 196 83 250 200 83 251 197 84 252 202 84 253 201 84 254 203 85 255 201 85 256 202 85 257 205 86 258 206 86 259 14 86 260 12 87 261 14 87 262 206 87 263 208 88 264 207 88 265 20 88 266 20 89 267 17 89 268 208 89 269 201 90 270 198 90 271 197 90 272 192 91 273 199 91 274 195 91 275 192 92 276 204 92 277 199 92 278 198 93 279 201 93 280 203 93 281 176 94 282 167 94 283 71 94 284 72 95 285 168 95 286 41 95 287 176 96 288 71 96 289 73 96 290 74 97 291 43 97 292 177 97 293 25 98 294 23 98 295 45 98 296 47 99 297 27 99 298 46 99 299 30 100 300 28 100 301 40 100 302 48 101 303 15 101 304 37 101 305 68 102 306 69 102 307 38 102 308 38 103 309 33 103 310 68 103 311 13 104 312 34 104 313 39 104 314 13 105 315 39 105 316 16 105 317 35 106 318 65 106 319 63 106 320 18 107 321 66 107 322 36 107 323 21 108 324 66 108 325 18 108 326 200 109 327 204 109 328 192 109 329 182 110 330 181 110 331 169 110 332 169 111 333 181 111 334 42 111 335 49 112 336 184 112 337 183 112 338 49 113 339 183 113 340 50 113 341 183 114 342 185 114 343 50 114 344 178 115 345 182 115 346 169 115 347 178 116 348 44 116 349 186 116 350 186 117 351 182 117 352 178 117 353 80 118 354 99 118 355 81 118 356 83 119 357 101 119 358 90 119 359 101 120 360 108 120 361 90 120 362 100 121 363 103 121 364 82 121 365 85 122 366 82 122 367 103 122 368 102 123 369 91 123 370 109 123 371 102 124 372 84 124 373 91 124 374 110 125 375 105 125 376 104 125 377 110 126 378 104 126 379 111 126 380 112 127 381 107 127 382 106 127 383 113 128 384 106 128 385 107 128 386 107 129 387 112 129 388 114 129 389 105 130 390 110 130 391 115 130 392 105 131 393 115 131 394 116 131 395 114 132 396 113 132 397 107 132 398 86 133 399 64 133 400 88 133 401 64 134 402 51 134 403 88 134 404 70 135 405 64 135 406 86 135 407 86 136 408 53 136 409 70 136 410 104 137 411 105 137 412 116 137 413 93 138 414 89 138 415 92 138 416 89 139 417 52 139 418 92 139 419 55 140 420 95 140 421 94 140 422 57 141 423 56 141 424 96 141 425 95 142 426 58 142 427 97 142 428 87 143 429 89 143 430 93 143 431 87 144 432 98 144 433 54 144 434 98 145 435 87 145 436 93 145 437 59 146 438 75 146 439 63 146 440 63 147 441 75 147 442 61 147 443 76 148 444 38 148 445 69 148 446 245 149 447 246 149 448 19 149 449 19 150 450 246 150 451 22 150 452 22 151 453 208 151 454 17 151 455 216 152 456 209 152 457 31 152 458 31 153 459 209 153 460 29 153 461 26 154 462 247 154 463 24 154 464 32 155 465 253 155 466 252 155 467 12 156 468 206 156 469 254 156 470 14 157 471 218 157 472 217 157 473 21 158 474 60 158 475 66 158 476 65 159 477 59 159 478 63 159 479 77 160 480 68 160 481 67 160 482 67 161 483 78 161 484 77 161 485 69 162 486 68 162 487 77 162 488 79 163 489 76 163 490 69 163 491 69 164 492 77 164 493 79 164 494 226 165 495 210 165 496 211 165 497 219 166 498 227 166 499 212 166 500 248 167 501 260 167 502 249 167 503 261 168 504 255 168 505 213 168 506 234 169 507 235 169 508 228 169 509 238 170 510 234 170 511 228 170 512 237 171 513 229 171 514 235 171 515 235 172 516 234 172 517 237 172 518 235 173 519 214 173 520 228 173 521 229 174 522 214 174 523 235 174 524 215 175 525 220 175 526 230 175 527 230 176 528 221 176 529 215 176 530 231 177 531 222 177 532 215 177 533 221 178 534 231 178 535 215 178 536 268 179 537 271 179 538 262 179 539 271 180 540 270 180 541 262 180 542 263 181 543 269 181 544 268 181 545 271 182 546 268 182 547 269 182 548 250 183 549 268 183 550 262 183 551 250 184 552 263 184 553 268 184 554 223 185 555 251 185 556 264 185 557 256 186 558 264 186 559 251 186 560 257 187 561 265 187 562 251 187 563 265 188 564 256 188 565 251 188 566 275 189 567 274 189 568 258 189 569 242 190 570 241 190 571 224 190 572 232 191 573 242 191 574 224 191 575 224 192 576 241 192 577 233 192 578 258 193 579 274 193 580 266 193 581 267 194 582 275 194 583 258 194 584 238 195 585 240 195 586 234 195 587 239 196 588 234 196 589 240 196 590 236 197 591 243 197 592 242 197 593 272 198 594 273 198 595 271 198 596 270 199 597 271 199 598 273 199 599 274 200 600 277 200 601 276 200 602 213 201 603 255 201 604 259 201 605 225 202 606 219 202 607 212 202 608 275 203 609 278 203 610 277 203 611 277 204 612 274 204 613 275 204 614 241 205 615 242 205 616 243 205 617 243 206 618 244 206 619 241 206 620 279 207 621 280 207 622 282 207 623 282 208 624 284 208 625 279 208 626 285 209 627 283 209 628 281 209 629 281 210 630 287 210 631 285 210 632 284 211 633 286 211 634 288 211 635 288 212 636 279 212 637 284 212 638 284 213 639 282 213 640 289 213 641 289 214 642 292 214 643 284 214 644 294 215 645 290 215 646 283 215 647 283 216 648 285 216 649 294 216 650 292 217 651 295 217 652 286 217 653 286 218 654 284 218 655 292 218 656 297 219 657 298 219 658 293 219 659 293 220 660 291 220 661 297 220 662 299 221 663 297 221 664 291 221 665 291 222 666 296 222 667 299 222 668 298 223 669 299 223 670 296 223 671 296 224 672 293 224 673 298 224 674 300 225 675 302 225 676 304 225 677 298 226 678 297 226 679 299 226 680 305 227 681 303 227 682 280 227 683 280 228 684 279 228 685 305 228 686 301 229 687 305 229 688 279 229 689 279 230 690 288 230 691 301 230 692 287 231 693 281 231 694 302 231 695 302 232 696 300 232 697 287 232 698 306 233 699 308 233 700 309 233 701 311 234 702 313 234 703 315 234 704 316 235 705 317 235 706 318 235 707 314 236 708 319 236 709 310 236 710 310 237 711 319 237 712 320 237 713 321 238 714 322 238 715 316 238 716 310 239 717 320 239 718 323 239 719 310 240 720 323 240 721 307 240 722 324 241 723 318 241 724 306 241 725 318 242 726 326 242 727 316 242 728 311 243 729 315 243 730 327 243 731 328 244 732 329 244 733 313 244 734 330 245 735 308 245 736 331 245 737 308 246 738 332 246 739 331 246 740 333 247 741 334 247 742 335 247 743 335 248 744 331 248 745 333 248 746 333 249 747 331 249 748 336 249 749 332 250 750 317 250 751 331 250 752 332 251 753 308 251 754 306 251 755 332 252 756 306 252 757 318 252 758 317 253 759 336 253 760 331 253 761 330 254 762 331 254 763 328 254 764 335 255 765 329 255 766 328 255 767 328 256 768 331 256 769 335 256 770 334 257 771 329 257 772 335 257 773 321 258 774 337 258 775 322 258 776 327 259 777 315 259 778 338 259 779 326 260 780 318 260 781 324 260 782 338 261 783 315 261 784 333 261 785 333 262 786 336 262 787 322 262 788 333 263 789 322 263 790 338 263 791 333 264 792 315 264 793 334 264 794 318 265 795 317 265 796 332 265 797 309 266 798 308 266 799 330 266 800 316 267 801 322 267 802 336 267 803 316 268 804 336 268 805 317 268 806 334 269 807 315 269 808 313 269 809 334 270 810 313 270 811 329 270 812 338 271 813 322 271 814 337 271 815 309 272 816 330 272 817 328 272 818 309 273 819 328 273 820 313 273 821 337 274 822 321 274 823 339 274 824 337 275 825 339 275 826 340 275 827 341 276 828 342 276 829 343 276 830 344 277 831 341 277 832 343 277 833 346 278 834 344 278 835 343 278 836 348 279 837 346 279 838 343 279 839 350 280 840 351 280 841 353 280 842 350 281 843 353 281 844 355 281 845 357 282 846 350 282 847 355 282 848 358 283 849 343 283 850 342 283 851 342 284 852 360 284 853 358 284 854 350 285 855 357 285 856 359 285 857 359 286 858 361 286 859 350 286 860 362 287 861 356 287 862 365 287 863 366 288 864 368 288 865 363 288 866 367 289 867 370 289 868 371 289 869 371 290 870 369 290 871 367 290 872 372 291 873 374 291 874 376 291 875 378 292 876 370 292 877 367 292 878 365 293 879 356 293 880 354 293 881 354 294 882 352 294 883 379 294 884 347 295 885 380 295 886 383 295 887 347 296 888 349 296 889 380 296 890 381 297 891 385 297 892 384 297 893 383 298 894 345 298 895 347 298 896 376 299 897 385 299 898 381 299 899 381 300 900 372 300 901 376 300 902 380 301 903 349 301 904 387 301 905 388 302 906 373 302 907 382 302 908 386 303 909 390 303 910 391 303 911 386 304 912 391 304 913 370 304 914 392 305 915 391 305 916 390 305 917 393 306 918 394 306 919 371 306 920 393 307 921 371 307 922 391 307 923 377 308 924 390 308 925 386 308 926 371 309 927 370 309 928 391 309 929 377 310 930 375 310 931 393 310 932 393 311 933 395 311 934 390 311 935 377 312 936 393 312 937 390 312 938 395 313 939 392 313 940 390 313 941 391 314 942 392 314 943 395 314 944 354 315 945 379 315 946 365 315 947 371 316 948 394 316 949 369 316 950 369 317 951 394 317 952 364 317 953 372 318 954 389 318 955 374 318 956 391 319 957 395 319 958 393 319 959 323 320 960 397 320 961 325 320 962 396 321 963 319 321 964 312 321 965 312 322 966 319 322 967 314 322 968 325 323 969 307 323 970 323 323 971</p>
        </triangles>
      </mesh>
    </geometry>
  </library_geometries>
  <library_controllers>
    <controller id="arab_qadub_Skin_spearman_nor_001-skin" name="arab_qadub_Skin">
      <skin source="#spearman_nor-mesh">
        <bind_shape_matrix>1 0 0 0 0 1 0 0 0 0 1 0 0 0 0 1</bind_shape_matrix>
        <source id="arab_qadub_Skin_spearman_nor_001-skin-joints">
          <Name_array id="arab_qadub_Skin_spearman_nor_001-skin-joints-array" count="23">root pelvis femurleft butt-l knee-l-top knee-l-bopttom femurright butt-r knee-r-top knee-r-bopttom lumbar rib scapula ulna scapula01 ulna01 smoke_node_1 ammo_node_0 neck cloaktop cloak cloakbottom smoke_node_0</Name_array>
          <technique_common>
            <accessor source="#arab_qadub_Skin_spearman_nor_001-skin-joints-array" count="23" stride="1">
              <param name="JOINT" type="name"/>
            </accessor>
          </technique_common>
        </source>
        <source id="arab_qadub_Skin_spearman_nor_001-skin-bind_poses">
          <float_array id="arab_qadub_Skin_spearman_nor_001-skin-bind_poses-array" count="368">1 0 0 0 0 -1.19209e-7 1 -2.154822 0 -1 -1.34359e-7 1.88312e-7 0 0 0 1 1 0 0 -2.88205e-4 0 0 1 -1.989969 0 -1 0 0.05965083 0 0 0 1 1 0 0 -0.229566 0 0 1 -1.980152 0 -1 0 0 0 0 0 1 1 0 0 -0.2300335 0 -5.28991e-7 1 -1.881625 0 -1 -5.43892e-7 0.2278664 0 0 0 1 1 0 0 -0.2579528 0 0 1 -1.492427 0 -1 0 -0.357712 0 0 0 1 1 0 0 -0.2616622 0 -1.93715e-7 1 -1.243225 0 -1 -2.10479e-7 0.03760045 0 0 0 1 1 0 0 0.2313526 0 0 1 -1.980152 0 -1 0 0 0 0 0 1 1 0 0 0.234615 0 -6.78003e-7 1 -1.884256 0 -1 -6.92904e-7 0.2262769 0 0 0 1 1 0 0 0.1784679 0 -6.78002e-7 1 -1.491813 0 -1 -7.00355e-7 -0.3589498 0 0 0 1 1 0 0 0.2454932 0 0 1 -1.243115 0 -1 0 0.03760033 0 0 0 1 1 0 0 -0.004826366 0 0 1 -2.179734 0 -1 0 0.1130515 0 0 0 1 1 0 0 0.007960081 0 0 1 -2.884792 0 -1 0 -1.76977e-7 0 0 0 1 0.19686 0 0.9804316 -3.149298 -0.9804316 0 0.1968599 -0.213817 0 -1 0 0 0 0 0 1 0.1968601 0 0.9804315 -3.273035 -0.9804314 0 0.19686 0.3855395 0 -1 0 -1.63977e-7 0 0 0 1 0.2361252 0 -0.9717227 3.147809 0.9717226 0 0.2361251 -0.3005443 0 -1 0 -3.91354e-7 0 0 0 1 0.236125 0 -0.9717227 3.259811 0.9717226 -1.31898e-7 0.2361251 0.2988125 -1.35645e-7 -1 0 -4.3181e-7 0 0 0 1 0.2351393 8.07576e-6 -0.9719618 3.370434 -0.006480276 -0.9999778 -0.001576006 -0.05519288 -0.9719401 0.006669282 -0.235134 -1.015435 0 0 0 1 0.236078 5.52806e-7 -0.9717343 3.368794 0.9717342 -9.78184e-7 0.2360777 1.067579 -7.6741e-7 -1 -7.45058e-7 -1.617811 0 0 0 1 1 0 0 0.02165722 0 0 1 -3.354292 0 -1 -1.1924e-7 1.5935e-7 0 0 0 1 1 0 0 -0.001975059 0 -2.53102e-7 1 -3.236084 0 -1 -2.64496e-7 0.1981273 0 0 0 1 1 0 0 -0.006513178 0 0 1 -2.377003 0 -1 0 0.4338245 0 0 0 1 1 0 0 0.02082639 0 0 1 -1.545783 0 -1 0 0.5515339 0 0 0 1 0.9999997 -8.08955e-4 -2.00661e-4 0.01563721 -8.08955e-4 -0.9999997 -1.78814e-7 -0.243032 -2.00661e-4 1.59314e-7 -1 3.446476 0 0 0 1</float_array>
          <technique_common>
            <accessor source="#arab_qadub_Skin_spearman_nor_001-skin-bind_poses-array" count="23" stride="16">
              <param name="TRANSFORM" type="float4x4"/>
            </accessor>
          </technique_common>
        </source>
        <source id="arab_qadub_Skin_spearman_nor_001-skin-weights">
          <float_array id="arab_qadub_Skin_spearman_nor_001-skin-weights-array" count="398">1 1 1 1 1 1 1 1 1 1 1 1 1 1 1 1 1 1 1 1 1 1 1 1 1 1 1 1 1 1 1 1 1 1 1 1 1 1 1 1 1 1 1 1 1 1 1 1 1 1 1 1 1 1 1 1 1 1 1 1 1 1 1 1 1 1 1 1 1 1 1 1 1 1 1 1 1 1 1 1 1 1 1 1 1 1 1 1 1 1 1 1 1 1 1 1 1 1 1 1 1 1 1 1 1 1 1 1 1 1 1 1 1 1 1 1 1 1 1 1 1 1 1 1 1 1 1 1 1 1 1 1 1 1 1 1 1 1 1 1 1 1 1 1 1 1 1 1 1 1 1 1 1 1 1 1 1 1 1 1 1 1 1 1 1 1 1 1 1 1 1 1 1 1 1 1 1 1 1 1 1 1 1 1 1 1 1 1 1 1 1 1 1 1 1 1 1 1 1 1 1 1 1 1 1 1 1 1 1 1 1 1 1 1 1 1 1 1 1 1 1 1 1 1 1 1 1 1 1 1 1 1 1 1 1 1 1 1 1 1 1 1 1 1 1 1 1 1 1 1 1 1 1 1 1 1 1 1 1 1 1 1 1 1 1 1 1 1 1 1 1 1 1 1 1 1 1 1 1 1 1 1 1 1 1 1 1 1 1 1 1 1 1 1 1 1 1 1 1 1 1 1 1 1 1 1 1 1 1 1 1 1 1 1 1 1 1 1 1 1 1 1 1 1 1 1 1 1 1 1 1 1 1 1 1 1 1 1 1 1 1 1 1 1 1 1 1 1 1 1 1 1 1 1 1 1 1 1 1 1 1 1 1 1 1 1 1 1 1 1 1 1 1 1 1 1 1 1 1 1 1 1 1 1 1 1 1 1 1 1 1 1 1 1 1 1 1 1</float_array>
          <technique_common>
            <accessor source="#arab_qadub_Skin_spearman_nor_001-skin-weights-array" count="398" stride="1">
              <param name="WEIGHT" type="float"/>
            </accessor>
          </technique_common>
        </source>
        <joints>
          <input semantic="JOINT" source="#arab_qadub_Skin_spearman_nor_001-skin-joints"/>
          <input semantic="INV_BIND_MATRIX" source="#arab_qadub_Skin_spearman_nor_001-skin-bind_poses"/>
        </joints>
        <vertex_weights count="398">
          <input semantic="JOINT" source="#arab_qadub_Skin_spearman_nor_001-skin-joints" offset="0"/>
          <input semantic="WEIGHT" source="#arab_qadub_Skin_spearman_nor_001-skin-weights" offset="1"/>
          <vcount>1 1 1 1 1 1 1 1 1 1 1 1 1 1 1 1 1 1 1 1 1 1 1 1 1 1 1 1 1 1 1 1 1 1 1 1 1 1 1 1 1 1 1 1 1 1 1 1 1 1 1 1 1 1 1 1 1 1 1 1 1 1 1 1 1 1 1 1 1 1 1 1 1 1 1 1 1 1 1 1 1 1 1 1 1 1 1 1 1 1 1 1 1 1 1 1 1 1 1 1 1 1 1 1 1 1 1 1 1 1 1 1 1 1 1 1 1 1 1 1 1 1 1 1 1 1 1 1 1 1 1 1 1 1 1 1 1 1 1 1 1 1 1 1 1 1 1 1 1 1 1 1 1 1 1 1 1 1 1 1 1 1 1 1 1 1 1 1 1 1 1 1 1 1 1 1 1 1 1 1 1 1 1 1 1 1 1 1 1 1 1 1 1 1 1 1 1 1 1 1 1 1 1 1 1 1 1 1 1 1 1 1 1 1 1 1 1 1 1 1 1 1 1 1 1 1 1 1 1 1 1 1 1 1 1 1 1 1 1 1 1 1 1 1 1 1 1 1 1 1 1 1 1 1 1 1 1 1 1 1 1 1 1 1 1 1 1 1 1 1 1 1 1 1 1 1 1 1 1 1 1 1 1 1 1 1 1 1 1 1 1 1 1 1 1 1 1 1 1 1 1 1 1 1 1 1 1 1 1 1 1 1 1 1 1 1 1 1 1 1 1 1 1 1 1 1 1 1 1 1 1 1 1 1 1 1 1 1 1 1 1 1 1 1 1 1 1 1 1 1 1 1 1 1 1 1 1 1 1 1 1 1 1 1 1 1 1 1 1 1 1 1 1 1 1 1 1 1 1 1 1 1 1 1 1 1 1 1 1 1 1 1 1 1 1 1 1 1 </vcount>
          <v>13 0 13 1 13 2 13 3 13 4 13 5 13 6 13 7 13 8 13 9 13 10 13 11 1 12 1 13 1 14 1 15 1 16 1 17 1 18 1 19 1 20 1 21 6 22 1 23 1 24 1 25 1 26 1 27 1 28 1 29 1 30 1 31 1 32 11 33 11 34 11 35 11 36 11 37 11 38 11 39 11 40 11 41 11 42 11 43 11 44 11 45 11 46 11 47 11 48 11 49 11 50 11 51 11 52 11 53 11 54 11 55 11 56 11 57 11 58 11 59 11 60 11 61 11 62 11 63 11 64 11 65 11 66 14 67 11 68 11 69 12 70 11 71 11 72 14 73 14 74 11 75 12 76 11 77 11 78 11 79 12 80 13 81 13 82 13 83 13 84 13 85 12 86 12 87 12 88 12 89 12 90 13 91 13 92 13 93 13 94 13 95 13 96 12 97 12 98 13 99 13 100 13 101 13 102 13 103 13 104 13 105 13 106 13 107 13 108 13 109 13 110 13 111 13 112 13 113 13 114 13 115 13 116 13 117 13 118 13 119 13 120 13 121 13 122 13 123 13 124 13 125 13 126 13 127 13 128 13 129 13 130 13 131 13 132 13 133 13 134 13 135 13 136 13 137 13 138 13 139 13 140 13 141 13 142 13 143 13 144 13 145 13 146 13 147 13 148 13 149 13 150 13 151 13 152 13 153 13 154 13 155 13 156 13 157 13 158 13 159 13 160 13 161 13 162 13 163 13 164 13 165 13 166 14 167 14 168 14 169 15 170 15 171 14 172 15 173 15 174 15 175 14 176 14 177 14 178 14 179 15 180 15 181 15 182 15 183 15 184 14 185 14 186 15 187 15 188 15 189 15 190 15 191 15 192 15 193 15 194 15 195 15 196 15 197 15 198 15 199 15 200 15 201 15 202 15 203 15 204 3 205 7 206 2 207 2 208 3 209 5 210 2 211 2 212 6 213 2 214 2 215 2 216 3 217 3 218 5 219 2 220 2 221 2 222 6 223 5 224 2 225 5 226 5 227 5 228 5 229 5 230 5 231 5 232 5 233 5 234 5 235 5 236 5 237 5 238 5 239 5 240 5 241 5 242 5 243 5 244 6 245 6 246 7 247 9 248 6 249 9 250 6 251 6 252 7 253 7 254 9 255 9 256 6 257 9 258 6 259 9 260 9 261 9 262 9 263 9 264 9 265 9 266 9 267 9 268 9 269 9 270 9 271 9 272 9 273 9 274 9 275 9 276 9 277 9 278 16 279 16 280 16 281 16 282 16 283 16 284 16 285 16 286 16 287 16 288 16 289 16 290 16 291 16 292 16 293 16 294 16 295 16 296 16 297 16 298 16 299 16 300 16 301 16 302 16 303 16 304 16 305 18 306 18 307 18 308 18 309 18 310 18 311 18 312 18 313 18 314 18 315 18 316 18 317 18 318 18 319 18 320 18 321 18 322 18 323 18 324 18 325 18 326 18 327 18 328 18 329 18 330 18 331 18 332 18 333 18 334 18 335 18 336 18 337 18 338 18 339 18 340 18 341 18 342 18 343 18 344 18 345 18 346 18 347 18 348 18 349 18 350 18 351 18 352 18 353 18 354 18 355 18 356 18 357 18 358 18 359 18 360 18 361 18 362 18 363 18 364 18 365 18 366 18 367 18 368 18 369 18 370 18 371 18 372 18 373 18 374 18 375 18 376 18 377 18 378 18 379 18 380 18 381 18 382 18 383 18 384 18 385 18 386 18 387 18 388 18 389 18 390 18 391 18 392 18 393 18 394 18 395 18 396 18 397</v>
        </vertex_weights>
      </skin>
    </controller>
  </library_controllers>
  <library_visual_scenes>
    <visual_scene id="Scene" name="Scene">
      <node id="Camera" name="Camera" type="NODE">
        <matrix sid="transform">0.6859207 -0.3240135 0.6515582 7.481132 0.7276763 0.3054208 -0.6141704 -6.50764 0 0.8953956 0.4452714 5.343665 0 0 0 1</matrix>
        <instance_camera url="#Camera-camera"/>
      </node>
      <node id="Lamp" name="Lamp" type="NODE">
        <matrix sid="transform">-0.2908646 -0.7711008 0.5663932 4.076245 0.9551712 -0.1998834 0.2183912 1.005454 -0.05518906 0.6045247 0.7946723 5.903862 0 0 0 1</matrix>
        <instance_light url="#Lamp-light"/>
      </node>
      <node id="arab_qadub_Skin" name="arab_qadub_Skin" type="NODE">
        <matrix sid="transform">1 0 0 0 0 1 0 0 0 0 1 0 0 0 0 1</matrix>
        <node id="arab_qadub_Skin_root" name="root" sid="root" type="JOINT">
          <matrix sid="transform">1 3.61195e-15 4.54487e-8 0 4.54487e-8 -1.34359e-7 -1 -1.01207e-7 2.49451e-15 1 -1.19209e-7 2.154822 0 0 0 1</matrix>
          <node id="arab_qadub_Skin_pelvis" name="pelvis" sid="pelvis" type="JOINT">
            <matrix sid="transform">1 0 1.28251e-8 2.88204e-4 -4.77771e-16 1 3.72529e-8 -0.1648533 -1.28251e-8 -3.72529e-8 1 -0.05965078 0 0 0 1</matrix>
            <node id="arab_qadub_Skin_femurleft" name="femurleft" sid="femurleft" type="JOINT">
              <matrix sid="transform">1 -3.7399e-15 5.09437e-9 0.2292778 0 1 0 -0.0098176 -5.09437e-9 2.48583e-10 1 0.05965089 0 0 0 1</matrix>
              <node id="arab_qadub_Skin_butt-l" name="butt-l" sid="butt-l" type="JOINT">
                <matrix sid="transform">1 -4.2346e-15 4.2319e-9 4.67524e-4 1.89181e-15 1 -4.47035e-7 -0.09852624 -4.2319e-9 4.47035e-7 1 -0.2278656 0 0 0 1</matrix>
                <extra>
                  <technique profile="blender">
                    <layer sid="layer" type="string">0</layer>
                    <roll sid="roll" type="float">0</roll>
                    <tip_x sid="tip_x" type="float">0</tip_x>
                    <tip_y sid="tip_y" type="float">0</tip_y>
                    <tip_z sid="tip_z" type="float">0.1</tip_z>
                  </technique>
                </extra>
              </node>
              <node id="arab_qadub_Skin_knee-l-top" name="knee-l-top" sid="knee-l-top" type="JOINT">
                <matrix sid="transform">1 -4.23459e-15 7.79386e-9 0.02838679 0 0.9999999 0 -0.4877245 -7.79386e-9 0 1 0.357712 0 0 0 1</matrix>
                <extra>
                  <technique profile="blender">
                    <layer sid="layer" type="string">0</layer>
                    <roll sid="roll" type="float">0</roll>
                    <tip_x sid="tip_x" type="float">0</tip_x>
                    <tip_y sid="tip_y" type="float">0</tip_y>
                    <tip_z sid="tip_z" type="float">0.1</tip_z>
                  </technique>
                </extra>
              </node>
              <node id="arab_qadub_Skin_knee-l-bopttom" name="knee-l-bopttom" sid="knee-l-bopttom" type="JOINT">
                <matrix sid="transform">1 -4.23459e-15 3.25892e-8 0.03209619 3.64213e-15 1 -1.11759e-7 -0.7369263 -3.25892e-8 1.11759e-7 1 -0.03760034 0 0 0 1</matrix>
                <extra>
                  <technique profile="blender">
                    <layer sid="layer" type="string">0</layer>
                    <roll sid="roll" type="float">0</roll>
                    <tip_x sid="tip_x" type="float">0</tip_x>
                    <tip_y sid="tip_y" type="float">0</tip_y>
                    <tip_z sid="tip_z" type="float">0.1</tip_z>
                  </technique>
                </extra>
              </node>
              <extra>
                <technique profile="blender">
                  <layer sid="layer" type="string">0</layer>
                  <roll sid="roll" type="float">0</roll>
                  <tip_x sid="tip_x" type="float">0</tip_x>
                  <tip_y sid="tip_y" type="float">0</tip_y>
                  <tip_z sid="tip_z" type="float">0.1000001</tip_z>
                </technique>
              </extra>
            </node>
            <node id="arab_qadub_Skin_femurright" name="femurright" sid="femurright" type="JOINT">
              <matrix sid="transform">1 -3.7399e-15 5.09437e-9 -0.2316408 0 1 0 -0.0098176 -5.09437e-9 2.48583e-10 1 0.05965088 0 0 0 1</matrix>
              <node id="arab_qadub_Skin_butt-r" name="butt-r" sid="butt-r" type="JOINT">
                <matrix sid="transform">1 -4.23459e-15 5.58592e-9 -0.003262326 3.32947e-15 1 -5.96046e-7 -0.09589553 -5.58592e-9 5.96046e-7 1 -0.2262758 0 0 0 1</matrix>
                <extra>
                  <technique profile="blender">
                    <layer sid="layer" type="string">0</layer>
                    <roll sid="roll" type="float">0</roll>
                    <tip_x sid="tip_x" type="float">0</tip_x>
                    <tip_y sid="tip_y" type="float">0</tip_y>
                    <tip_z sid="tip_z" type="float">0.1</tip_z>
                  </technique>
                </extra>
              </node>
              <node id="arab_qadub_Skin_knee-r-top" name="knee-r-top" sid="knee-r-top" type="JOINT">
                <matrix sid="transform">1 -4.23459e-15 9.03823e-9 0.0528847 5.3872e-15 0.9999999 -5.96046e-7 -0.4883389 -9.03823e-9 5.96046e-7 1 0.3589507 0 0 0 1</matrix>
                <extra>
                  <technique profile="blender">
                    <layer sid="layer" type="string">0</layer>
                    <roll sid="roll" type="float">0</roll>
                    <tip_x sid="tip_x" type="float">0</tip_x>
                    <tip_y sid="tip_y" type="float">0</tip_y>
                    <tip_z sid="tip_z" type="float">0.1</tip_z>
                  </technique>
                </extra>
              </node>
              <node id="arab_qadub_Skin_knee-r-bopttom" name="knee-r-bopttom" sid="knee-r-bopttom" type="JOINT">
                <matrix sid="transform">1 -4.23459e-15 2.04881e-8 -0.01414061 0 1 0 -0.7370366 -2.04881e-8 0 1 -0.03760033 0 0 0 1</matrix>
                <extra>
                  <technique profile="blender">
                    <layer sid="layer" type="string">0</layer>
                    <roll sid="roll" type="float">0</roll>
                    <tip_x sid="tip_x" type="float">0</tip_x>
                    <tip_y sid="tip_y" type="float">0</tip_y>
                    <tip_z sid="tip_z" type="float">0.1</tip_z>
                  </technique>
                </extra>
              </node>
              <extra>
                <technique profile="blender">
                  <layer sid="layer" type="string">0</layer>
                  <roll sid="roll" type="float">0</roll>
                  <tip_x sid="tip_x" type="float">0</tip_x>
                  <tip_y sid="tip_y" type="float">0</tip_y>
                  <tip_z sid="tip_z" type="float">0.1000001</tip_z>
                </technique>
              </extra>
            </node>
            <node id="arab_qadub_Skin_lumbar" name="lumbar" sid="lumbar" type="JOINT">
              <matrix sid="transform">1 -3.7399e-15 4.81516e-9 0.004538175 0 1 3.72529e-8 0.189765 -4.81516e-9 -3.70044e-8 1 -0.05340067 0 0 0 1</matrix>
              <node id="arab_qadub_Skin_rib" name="rib" sid="rib" type="JOINT">
                <matrix sid="transform">1 -4.0281e-15 4.31047e-9 -0.01278648 0 1 3.55271e-15 0.7050579 -4.31047e-9 2.48548e-10 1 0.1130517 0 0 0 1</matrix>
                <node id="arab_qadub_Skin_scapula" name="scapula" sid="scapula" type="JOINT">
                  <matrix sid="transform">0.19686 -0.9804317 -7.87689e-8 0.4182978 0.9804317 0.1968601 -5.43299e-8 0.2449713 6.87732e-8 -6.65321e-8 1 -4.32924e-8 0 0 0 1</matrix>
                  <node id="arab_qadub_Skin_ulna" name="ulna" sid="ulna" type="JOINT">
                    <matrix sid="transform">1 7.45058e-8 7.30479e-8 0.1237378 -7.45058e-8 1 -4.92939e-14 -0.5993567 -7.30479e-8 4.61853e-14 1 -6.43397e-9 0 0 0 1</matrix>
                    <extra>
                      <technique profile="blender">
                        <layer sid="layer" type="string">0</layer>
                        <roll sid="roll" type="float">-1.372642</roll>
                        <tip_x sid="tip_x" type="float">-0.09804308</tip_x>
                        <tip_y sid="tip_y" type="float">0</tip_y>
                        <tip_z sid="tip_z" type="float">0.01968598</tip_z>
                      </technique>
                    </extra>
                  </node>
                  <extra>
                    <technique profile="blender">
                      <layer sid="layer" type="string">0</layer>
                      <roll sid="roll" type="float">-1.372642</roll>
                      <tip_x sid="tip_x" type="float">-0.09804302</tip_x>
                      <tip_y sid="tip_y" type="float">0</tip_y>
                      <tip_z sid="tip_z" type="float">0.01968598</tip_z>
                    </technique>
                  </extra>
                </node>
                <node id="arab_qadub_Skin_scapula01" name="scapula01" sid="scapula01" type="JOINT">
                  <matrix sid="transform">0.2361251 0.9717227 -8.65664e-8 -0.4432709 -0.9717227 0.2361252 6.98482e-8 0.2449713 8.83136e-8 6.76256e-8 1 -4.32924e-8 0 0 0 1</matrix>
                  <node id="arab_qadub_Skin_ulna01" name="ulna01" sid="ulna01" type="JOINT">
                    <matrix sid="transform">1 1.49012e-8 -2.70726e-9 -0.1120021 -1.49012e-8 0.9999999 -1.1921e-7 -0.5993567 2.70725e-9 1.1921e-7 1 -3.99029e-9 0 0 0 1</matrix>
                    <node id="arab_qadub_Skin_smoke_node_1" name="smoke node 1" sid="smoke_node_1" type="JOINT">
                      <matrix sid="transform">0.9999994 1.34192e-6 -0.001014292 -0.1116507 -0.001014337 -0.00666916 -0.9999772 -0.7135486 -8.10617e-6 0.9999777 -0.006669039 0.04844658 0 0 0 1</matrix>
                      <node id="arab_qadub_Skin_ammo_node_0" name="ammo node 0" sid="ammo_node_0" type="JOINT">
                        <matrix sid="transform">0.9999995 -9.65759e-4 -7.52201e-6 0.002659559 1.08127e-6 -0.006668327 0.9999777 1.569697 -9.65729e-4 -0.9999772 -0.00666831 0.04458463 0 0 0 1</matrix>
                        <extra>
                          <technique profile="blender">
                            <layer sid="layer" type="string">0</layer>
                            <roll sid="roll" type="float">1.332469</roll>
                            <tip_x sid="tip_x" type="float">0.09780228</tip_x>
                            <tip_y sid="tip_y" type="float">0</tip_y>
                            <tip_z sid="tip_z" type="float">0.02376055</tip_z>
                          </technique>
                        </extra>
                      </node>
                      <extra>
                        <technique profile="blender">
                          <layer sid="layer" type="string">0</layer>
                          <roll sid="roll" type="float">1.33214</roll>
                          <tip_x sid="tip_x" type="float">-6.48022e-4</tip_x>
                          <tip_y sid="tip_y" type="float">-0.09999781</tip_y>
                          <tip_z sid="tip_z" type="float">-1.57595e-4</tip_z>
                        </technique>
                      </extra>
                    </node>
                    <extra>
                      <technique profile="blender">
                        <layer sid="layer" type="string">0</layer>
                        <roll sid="roll" type="float">1.33242</roll>
                        <tip_x sid="tip_x" type="float">0.0971722</tip_x>
                        <tip_y sid="tip_y" type="float">0</tip_y>
                        <tip_z sid="tip_z" type="float">0.02361249</tip_z>
                      </technique>
                    </extra>
                  </node>
                  <extra>
                    <technique profile="blender">
                      <layer sid="layer" type="string">0</layer>
                      <roll sid="roll" type="float">1.33242</roll>
                      <tip_x sid="tip_x" type="float">0.0971722</tip_x>
                      <tip_y sid="tip_y" type="float">0</tip_y>
                      <tip_z sid="tip_z" type="float">0.02361249</tip_z>
                    </technique>
                  </extra>
                </node>
                <node id="arab_qadub_Skin_neck" name="neck" sid="neck" type="JOINT">
                  <matrix sid="transform">1 2.32826e-10 3.80594e-9 -0.01369714 2.26023e-16 1 -5.93869e-8 0.4694998 -3.80594e-9 5.93869e-8 1 -1.37043e-7 0 0 0 1</matrix>
                  <node id="arab_qadub_Skin_cloaktop" name="cloaktop" sid="cloaktop" type="JOINT">
                    <matrix sid="transform">1 -4.73992e-15 4.82704e-9 0.02363231 7.19283e-16 1 -1.49011e-7 -0.1182077 -4.82704e-9 1.49011e-7 1 -0.1981267 0 0 0 1</matrix>
                    <node id="arab_qadub_Skin_cloak" name="cloak" sid="cloak" type="JOINT">
                      <matrix sid="transform">1 5.82016e-11 1.42791e-10 0.004538157 0 1 2.98024e-7 -0.8590813 -1.42791e-10 -2.94268e-7 1 -0.2356978 0 0 0 1</matrix>
                      <node id="arab_qadub_Skin_cloakbottom" name="cloakbottom" sid="cloakbottom" type="JOINT">
                        <matrix sid="transform">1 -6.03052e-15 0 -0.02733968 0 1 -7.45057e-8 -0.8312194 0 7.45361e-8 1 -0.1177093 0 0 0 1</matrix>
                        <extra>
                          <technique profile="blender">
                            <layer sid="layer" type="string">0</layer>
                            <roll sid="roll" type="float">0</roll>
                            <tip_x sid="tip_x" type="float">0</tip_x>
                            <tip_y sid="tip_y" type="float">0</tip_y>
                            <tip_z sid="tip_z" type="float">0.1000001</tip_z>
                          </technique>
                        </extra>
                      </node>
                      <extra>
                        <technique profile="blender">
                          <layer sid="layer" type="string">0</layer>
                          <roll sid="roll" type="float">0</roll>
                          <tip_x sid="tip_x" type="float">0</tip_x>
                          <tip_y sid="tip_y" type="float">0</tip_y>
                          <tip_z sid="tip_z" type="float">0.0999999</tip_z>
                        </technique>
                      </extra>
                    </node>
                    <extra>
                      <technique profile="blender">
                        <layer sid="layer" type="string">0</layer>
                        <roll sid="roll" type="float">0</roll>
                        <tip_x sid="tip_x" type="float">0</tip_x>
                        <tip_y sid="tip_y" type="float">0</tip_y>
                        <tip_z sid="tip_z" type="float">0.1000001</tip_z>
                      </technique>
                    </extra>
                  </node>
                  <node id="arab_qadub_Skin_smoke_node_0" name="smoke node 0" sid="smoke_node_0" type="JOINT">
                    <matrix sid="transform">0.9999996 -8.09026e-4 -2.00661e-4 0.006514964 -2.00661e-4 1.07102e-7 -1 0.0921874 8.09026e-4 0.9999998 -2.20816e-7 0.2430203 0 0 0 1</matrix>
                    <extra>
                      <technique profile="blender">
                        <layer sid="layer" type="string">0</layer>
                        <roll sid="roll" type="float">3.141392</roll>
                        <tip_x sid="tip_x" type="float">-8.08956e-5</tip_x>
                        <tip_y sid="tip_y" type="float">-0.1</tip_y>
                        <tip_z sid="tip_z" type="float">0</tip_z>
                      </technique>
                    </extra>
                  </node>
                  <extra>
                    <technique profile="blender">
                      <layer sid="layer" type="string">0</layer>
                      <roll sid="roll" type="float">0</roll>
                      <tip_x sid="tip_x" type="float">0</tip_x>
                      <tip_y sid="tip_y" type="float">0</tip_y>
                      <tip_z sid="tip_z" type="float">0.0999999</tip_z>
                    </technique>
                  </extra>
                </node>
                <extra>
                  <technique profile="blender">
                    <layer sid="layer" type="string">0</layer>
                    <roll sid="roll" type="float">0</roll>
                    <tip_x sid="tip_x" type="float">0</tip_x>
                    <tip_y sid="tip_y" type="float">0</tip_y>
                    <tip_z sid="tip_z" type="float">0.1000001</tip_z>
                  </technique>
                </extra>
              </node>
              <extra>
                <technique profile="blender">
                  <layer sid="layer" type="string">0</layer>
                  <roll sid="roll" type="float">0</roll>
                  <tip_x sid="tip_x" type="float">0</tip_x>
                  <tip_y sid="tip_y" type="float">0</tip_y>
                  <tip_z sid="tip_z" type="float">0.0999999</tip_z>
                </technique>
              </extra>
            </node>
            <extra>
              <technique profile="blender">
                <layer sid="layer" type="string">0</layer>
                <roll sid="roll" type="float">0</roll>
                <tip_x sid="tip_x" type="float">0</tip_x>
                <tip_y sid="tip_y" type="float">0</tip_y>
                <tip_z sid="tip_z" type="float">0.0999999</tip_z>
              </technique>
            </extra>
          </node>
          <extra>
            <technique profile="blender">
              <layer sid="layer" type="string">0</layer>
              <roll sid="roll" type="float">0</roll>
              <tip_x sid="tip_x" type="float">0</tip_x>
              <tip_y sid="tip_y" type="float">0</tip_y>
              <tip_z sid="tip_z" type="float">0.0999999</tip_z>
            </technique>
          </extra>
        </node>
      </node>
      <node id="spearman_nor_001" name="spearman_nor_001" type="NODE">
        <translate sid="location">0 0 0</translate>
        <rotate sid="rotationZ">0 0 1 0</rotate>
        <rotate sid="rotationY">0 1 0 0</rotate>
        <rotate sid="rotationX">1 0 0 0</rotate>
        <scale sid="scale">1 1 1</scale>
        <instance_controller url="#arab_qadub_Skin_spearman_nor_001-skin">
          <skeleton>#arab_qadub_Skin_root</skeleton>
          <bind_material>
            <technique_common>
              <instance_material symbol="__-_Default_-material" target="#__-_Default_-material"/>
              <instance_material symbol="__-_Default__001-material" target="#__-_Default__001-material"/>
            </technique_common>
          </bind_material>
        </instance_controller>
      </node>
    </visual_scene>
  </library_visual_scenes>
  <scene>
    <instance_visual_scene url="#Scene"/>
  </scene>
</COLLADA>