<?xml version="1.0" encoding="utf-8"?>
<COLLADA xmlns="http://www.collada.org/2005/11/COLLADASchema" version="1.4.1" xmlns:xsi="http://www.w3.org/2001/XMLSchema-instance">
  <asset>
    <contributor>
      <author>Blender User</author>
      <authoring_tool>Blender 2.79.0 commit date:2017-09-11, commit time:10:43, hash:5bd8ac9</authoring_tool>
    </contributor>
    <created>2019-02-04T06:45:06</created>
    <modified>2019-02-04T06:45:06</modified>
    <unit name="meter" meter="1"/>
    <up_axis>Z_UP</up_axis>
  </asset>
  <library_cameras>
    <camera id="Camera-camera" name="Camera">
      <optics>
        <technique_common>
          <perspective>
            <xfov sid="xfov">49.13434</xfov>
            <aspect_ratio>1.777778</aspect_ratio>
            <znear sid="znear">0.1</znear>
            <zfar sid="zfar">100</zfar>
          </perspective>
        </technique_common>
      </optics>
      <extra>
        <technique profile="blender">
          <shiftx sid="shiftx" type="float">0</shiftx>
          <shifty sid="shifty" type="float">0</shifty>
          <YF_dofdist sid="YF_dofdist" type="float">0</YF_dofdist>
        </technique>
      </extra>
    </camera>
  </library_cameras>
  <library_lights>
    <light id="Lamp-light" name="Lamp">
      <technique_common>
        <point>
          <color sid="color">1 1 1</color>
          <constant_attenuation>1</constant_attenuation>
          <linear_attenuation>0</linear_attenuation>
          <quadratic_attenuation>0.00111109</quadratic_attenuation>
        </point>
      </technique_common>
      <extra>
        <technique profile="blender">
          <type sid="type" type="int">0</type>
          <flag sid="flag" type="int">0</flag>
          <mode sid="mode" type="int">8192</mode>
          <gamma sid="blender_gamma" type="float">1</gamma>
          <red sid="red" type="float">1</red>
          <green sid="green" type="float">1</green>
          <blue sid="blue" type="float">1</blue>
          <shadow_r sid="blender_shadow_r" type="float">0</shadow_r>
          <shadow_g sid="blender_shadow_g" type="float">0</shadow_g>
          <shadow_b sid="blender_shadow_b" type="float">0</shadow_b>
          <energy sid="blender_energy" type="float">1</energy>
          <dist sid="blender_dist" type="float">29.99998</dist>
          <spotsize sid="spotsize" type="float">75</spotsize>
          <spotblend sid="spotblend" type="float">0.15</spotblend>
          <halo_intensity sid="blnder_halo_intensity" type="float">1</halo_intensity>
          <att1 sid="att1" type="float">0</att1>
          <att2 sid="att2" type="float">1</att2>
          <falloff_type sid="falloff_type" type="int">2</falloff_type>
          <clipsta sid="clipsta" type="float">1.000799</clipsta>
          <clipend sid="clipend" type="float">30.002</clipend>
          <bias sid="bias" type="float">1</bias>
          <soft sid="soft" type="float">3</soft>
          <compressthresh sid="compressthresh" type="float">0.04999995</compressthresh>
          <bufsize sid="bufsize" type="int">2880</bufsize>
          <samp sid="samp" type="int">3</samp>
          <buffers sid="buffers" type="int">1</buffers>
          <filtertype sid="filtertype" type="int">0</filtertype>
          <bufflag sid="bufflag" type="int">0</bufflag>
          <buftype sid="buftype" type="int">2</buftype>
          <ray_samp sid="ray_samp" type="int">1</ray_samp>
          <ray_sampy sid="ray_sampy" type="int">1</ray_sampy>
          <ray_sampz sid="ray_sampz" type="int">1</ray_sampz>
          <ray_samp_type sid="ray_samp_type" type="int">0</ray_samp_type>
          <area_shape sid="area_shape" type="int">1</area_shape>
          <area_size sid="area_size" type="float">0.1</area_size>
          <area_sizey sid="area_sizey" type="float">0.1</area_sizey>
          <area_sizez sid="area_sizez" type="float">1</area_sizez>
          <adapt_thresh sid="adapt_thresh" type="float">0.000999987</adapt_thresh>
          <ray_samp_method sid="ray_samp_method" type="int">1</ray_samp_method>
          <shadhalostep sid="shadhalostep" type="int">0</shadhalostep>
          <sun_effect_type sid="sun_effect_type" type="int">0</sun_effect_type>
          <skyblendtype sid="skyblendtype" type="int">1</skyblendtype>
          <horizon_brightness sid="horizon_brightness" type="float">1</horizon_brightness>
          <spread sid="spread" type="float">1</spread>
          <sun_brightness sid="sun_brightness" type="float">1</sun_brightness>
          <sun_size sid="sun_size" type="float">1</sun_size>
          <backscattered_light sid="backscattered_light" type="float">1</backscattered_light>
          <sun_intensity sid="sun_intensity" type="float">1</sun_intensity>
          <atm_turbidity sid="atm_turbidity" type="float">2</atm_turbidity>
          <atm_extinction_factor sid="atm_extinction_factor" type="float">1</atm_extinction_factor>
          <atm_distance_factor sid="atm_distance_factor" type="float">1</atm_distance_factor>
          <skyblendfac sid="skyblendfac" type="float">1</skyblendfac>
          <sky_exposure sid="sky_exposure" type="float">1</sky_exposure>
          <sky_colorspace sid="sky_colorspace" type="int">0</sky_colorspace>
        </technique>
      </extra>
    </light>
  </library_lights>
  <library_images/>
  <library_effects>
    <effect id="shaolin-effect">
      <profile_COMMON>
        <technique sid="common">
          <phong>
            <emission>
              <color sid="emission">0 0 0 1</color>
            </emission>
            <ambient>
              <color sid="ambient">0 0 0 1</color>
            </ambient>
            <diffuse>
              <color sid="diffuse">0.16 0.32 0.7184314 1</color>
            </diffuse>
            <specular>
              <color sid="specular">0 0 0 1</color>
            </specular>
            <shininess>
              <float sid="shininess">50</float>
            </shininess>
            <index_of_refraction>
              <float sid="index_of_refraction">1</float>
            </index_of_refraction>
          </phong>
        </technique>
      </profile_COMMON>
    </effect>
  </library_effects>
  <library_materials>
    <material id="shaolin-material" name="shaolin">
      <instance_effect url="#shaolin-effect"/>
    </material>
  </library_materials>
  <library_geometries>
    <geometry id="shins_003-mesh" name="shins.003">
      <mesh>
        <source id="shins_003-mesh-positions">
          <float_array id="shins_003-mesh-positions-array" count="1053">0.3136613 0.04804354 0.2551723 0.2037767 -0.02374172 0.2339366 0.2076916 0.02296638 0.2494972 0.1908564 0.04777973 0.2551723 0.2979232 -0.01685273 0.2342857 0.2914328 0.02574449 0.2499909 0.2397299 -0.2334837 1.078211 0.2479525 -0.1555671 0.249807 0.3155487 0.003293335 0.2497763 0.3734185 0.05776721 1.085123 0.3734185 0.05776721 1.085123 0.3734185 0.05776721 1.085123 0.364007 0.1045272 0.2497546 0.364007 0.1045272 0.2497546 0.3216082 0.140284 0.261093 0.2033662 -0.1189539 0.249814 0.1151024 0.05744844 1.065302 0.1151024 0.05744844 1.065302 0.1151024 0.05744844 1.065302 0.1553792 0.1015793 0.2498493 0.1553792 0.1015793 0.2498493 -0.1641489 0.1015793 0.2498493 -0.123872 0.05744844 1.065302 -0.123872 0.05744844 1.065302 -0.123872 0.05744844 1.065302 -0.2121359 -0.1189539 0.249814 -0.3303779 0.140284 0.261093 -0.3727766 0.1045272 0.2497546 -0.3727766 0.1045272 0.2497546 -0.3821881 0.05776721 1.085123 -0.3821881 0.05776721 1.085123 -0.3821881 0.05776721 1.085123 -0.3243183 0.003293335 0.2497763 -0.2567221 -0.1555671 0.249807 -0.2484995 -0.2334837 1.078211 -0.3002024 0.02574449 0.2499909 -0.3066928 -0.01685273 0.2342857 -0.1996261 0.04777973 0.2551723 -0.2164613 0.02296638 0.2494972 -0.2125464 -0.02374172 0.2339366 -0.322431 0.04804354 0.2551723 -0.1641489 0.1015793 0.2498493 0.2408975 0.0281251 3.659571 0.173536 -0.2411387 3.614988 0.173536 -0.2411387 3.614988 0.173536 -0.2411387 3.614988 0.1369311 -0.2269619 3.460162 0.1369311 -0.2269619 3.460162 0.108567 -0.153061 3.272339 0.108567 -0.153061 3.272339 0.108567 -0.153061 3.272339 0.108567 -0.153061 3.272339 0.1793861 0.02777504 3.339564 0.1793861 0.02777504 3.339564 0.1793861 0.02777504 3.339564 -0.2529481 0.02812075 3.659513 -0.2529481 0.02812075 3.659513 -0.1626076 0.02777516 3.339556 -0.1626076 0.02777516 3.339556 -0.1626076 0.02777516 3.339556 -0.1205559 -0.153018 3.272315 -0.1205559 -0.153018 3.272315 -0.1205559 -0.153018 3.272315 -0.1205559 -0.153018 3.272315 -0.1454547 -0.2247211 3.457521 -0.1454547 -0.2247211 3.457521 -0.1454547 -0.2247211 3.457521 -0.1857367 -0.2577555 3.609993 -0.1857367 -0.2577555 3.609993 -0.1857367 -0.2577555 3.609993 -0.0491988 0.03987747 3.847319 -0.0491988 0.03987747 3.847319 -0.003632187 -0.2214608 3.272329 -0.003632187 -0.2214608 3.272329 0.02189242 -0.2783263 3.466196 0.02189242 -0.2783263 3.466196 -0.003844022 -0.2780569 3.464583 -0.003844022 -0.2780569 3.464583 -0.003844022 -0.2780569 3.464583 -0.09960389 -0.02828329 3.848413 -0.09960389 -0.02828329 3.848413 0.07948368 0.2224192 3.356749 0.07948368 0.2224192 3.356749 -0.103472 0.2224192 3.356725 -0.004843652 -0.2622267 3.63668 -0.004843652 -0.2622267 3.63668 -0.07789224 -0.1227176 3.842522 -0.07789224 -0.1227176 3.842522 -0.07789224 -0.1227176 3.842522 0.02621293 -0.2692213 3.586475 -0.03141373 -0.2778142 3.463135 -0.03141373 -0.2778142 3.463135 -0.008917689 -0.1718125 3.841671 -0.008917689 -0.1718125 3.841671 -0.04379528 -0.2695864 3.586314 -0.003910422 -0.3043795 3.466259 -0.003910422 -0.3043795 3.466259 -0.003910422 -0.3043795 3.466259 0.05919826 -0.1622007 3.845798 0.05919826 -0.1622007 3.845798 0.08943015 0.2589562 3.655832 0.08943015 0.2589562 3.655832 -0.115047 0.2589562 3.655807 -0.115047 0.2589562 3.655807 0.02554082 0.1358934 3.847326 0.02554082 0.1358934 3.847326 0.08090466 -0.02828198 3.872792 0.08090466 -0.02828198 3.872792 0.08090466 -0.02828198 3.872792 -0.00693798 -0.252232 3.753293 0.06683081 0.2407976 3.7654 -0.09317165 0.1447816 3.765384 -0.2010786 -0.00113672 3.767726 0.1388844 -0.231655 3.76213 0.1388844 -0.231655 3.76213 -0.1545984 -0.2033013 3.755115 -0.1545984 -0.2033013 3.755115 0.1853533 -0.001133918 3.767764 0.290083 0.1203916 0.2551723 0.2955149 0.1485051 0.005462825 0.1622728 0.1465211 0.005467772 0.1980972 0.1201271 0.2551723 0.3446934 0.04804354 0.2551724 0.1719268 -0.09070795 0.2339367 0.1516129 0.04777973 0.2551724 0.3738389 -0.2415959 0.002115607 0.3199489 -0.08381891 0.2342857 0.3660299 -0.278044 0.1156347 0.3646749 -0.303898 0.002100646 0.1434498 -0.279384 0.002098619 0.1501278 -0.284402 0.1156317 0.3646749 -0.3739219 0.01254367 0.3660299 -0.363802 0.05174368 0.1690348 -0.466828 0.05445069 0.2184748 -0.478198 0.00983262 0.1547198 -0.4403361 0.001168608 -0.3104513 0.1486571 0.2557169 -0.3003378 0.1485051 0.005463123 -0.1670958 0.1465211 0.00546807 -0.1861882 0.1482998 0.2557168 -0.3842244 0.05092239 0.2557169 -0.1767498 -0.09070795 0.233937 -0.1233927 0.05056601 0.2557169 -0.3786619 -0.2415959 0.002115964 -0.3247718 -0.08381897 0.234286 -0.3708529 -0.278044 0.115635 -0.3694978 -0.303898 0.002100944 -0.1482728 -0.279384 0.002098858 -0.1549508 -0.284402 0.1156319 -0.3694978 -0.373922 0.01254391 -0.3708529 -0.363802 0.05174392 -0.1738578 -0.466828 0.05445092 -0.2232978 -0.478198 0.009832859 -0.1595427 -0.4403361 0.001168906 -0.3276122 0.2302891 2.222979 -0.3276122 0.2302891 2.222979 -0.3276122 0.2302891 2.222979 0.3285672 0.230293 2.222115 0.3285672 0.230293 2.222115 0.3285672 0.230293 2.222115 -0.3242433 -0.2827132 2.213993 0.3252034 -0.2827089 2.213129 -0.01857966 -0.3128152 2.917428 0.004215002 0.1282492 3.399444 0.004215002 0.1282492 3.399444 0.004119217 -0.07379734 3.298352 0.004119217 -0.07379734 3.298352 0.3654912 0.3006043 2.926009 0.3654912 0.3006043 2.926009 0.3681024 -0.1945531 2.915881 0.3231564 0.05421835 3.213321 0.3231564 0.05421835 3.213321 0.3231564 0.05421835 3.213321 0.3231564 0.05421835 3.213321 0.3231564 0.05421835 3.213321 -0.3923715 0.3018102 2.925697 -0.3923715 0.3018102 2.925697 -0.3512825 0.05336213 3.20171 -0.3512825 0.05336213 3.20171 -0.3512825 0.05336213 3.20171 -0.3512825 0.05336213 3.20171 -0.3512825 0.05336213 3.20171 -0.3933984 -0.1910742 2.918738 0.1560583 0.3982392 1.580303 0.1560583 0.3982392 1.580303 0.4672071 -0.1013495 1.531228 0.1862483 -0.3653214 1.504468 0.4328169 0.227682 1.56458 0.4328169 0.227682 1.56458 -0.1482999 0.3963294 1.580322 -0.1482999 0.3963294 1.580322 -0.4579682 -0.1008917 1.531227 -0.179045 -0.3636224 1.504458 -0.4237399 0.2265807 1.564589 -0.4237399 0.2265807 1.564589 -1.767967 -2.101414 3.075825 -1.754172 -2.101079 3.015827 -1.669248 -2.098081 3.06755 -1.787268 -2.10204 3.039657 -1.669539 -2.576436 3.06799 -1.751899 -3.217071 3.027771 -1.809262 -2.600885 3.036303 -1.809401 -2.107277 3.016259 -1.809401 -2.107277 3.016259 -1.764206 -2.101414 3.060451 -1.750536 -1.976073 3.001716 -1.6681 -1.978555 3.051923 -1.643945 -2.102813 3.08002 -1.643945 -2.102813 3.08002 -1.805892 -2.107142 3.057451 -1.805892 -2.107142 3.057451 -1.783506 -2.10204 3.024283 -1.661935 1.776397 3.069467 -1.746716 -1.978015 3.005796 -1.746716 -1.978015 3.005796 -1.75825 -1.978014 3.080714 -1.75825 -1.978014 3.080714 -1.681634 -1.977982 3.066584 -1.681634 -1.977982 3.066584 -1.758588 1.775593 2.97919 -1.775718 1.775617 3.090451 -1.672949 -2.068847 3.099075 -1.658847 -2.069592 3.039152 -1.664753 -1.977204 3.06865 -1.677914 -2.046719 3.066414 -1.498111 -2.169431 3.109935 -1.50277 -2.810066 3.088729 -1.57503 -2.19388 3.093615 -1.775503 -2.068847 3.073981 -1.760344 -2.069592 3.014317 -1.768726 -1.977204 3.04321 -1.756019 -2.046719 3.047303 -1.935604 -2.169431 3.002888 -1.92168 -2.810066 2.986229 -1.859839 -2.19388 3.023927 0.04134482 0.0288341 1.577886 0.3684831 0.02905791 1.579553 0.2283816 0.1058989 1.581144 0.3975403 0.1621136 1.558674 0.512393 0.147107 1.082362 0.1191783 0.1537454 1.559702 0.06192457 0.1910904 1.040907 0.39754 -0.1473957 1.558673 0.3404186 -0.3392657 1.03464 0.5118452 -0.1645386 0.8939935 0.291135 -0.1976618 1.558656 0.04328709 -0.2566553 0.8927484 0.06159555 -0.1281561 1.56207 0.2397299 -0.2334837 1.078211 0.3734185 0.05776721 1.085123 0.1151024 0.05744844 1.065303 -0.1104993 0.05895251 1.06113 -0.3513393 0.05928725 1.080923 -0.3538557 0.02552741 1.579099 -0.07653874 0.02528631 1.577391 -0.2172816 0.1114874 1.580652 -0.496726 0.1470953 1.082263 -0.3878222 0.1609324 1.557998 -0.03177928 0.1910818 1.040808 -0.01339972 0.1523472 1.56075 -0.2182052 -0.2463165 1.55801 -0.4972742 -0.1645459 0.8938935 -0.2495692 -0.3400287 1.034518 -0.3878219 -0.1572179 1.557997 -0.004939496 -0.1368554 1.559553 -0.008075714 -0.2636923 0.8915157 -0.2274532 -0.2434061 1.073095 -0.2274532 -0.2434061 1.073095 -0.393706 0.3017924 2.925364 -0.393706 0.3017924 2.925364 -0.3947636 -0.1910693 2.918091 -0.3947636 -0.1910693 2.918091 0.3697556 -0.1945456 2.917702 0.3697556 -0.1945456 2.917702 0.3670663 0.300588 2.925406 0.3670663 0.300588 2.925406 0.9782133 0.2126501 3.169202 0.9782133 0.2126501 3.169202 0.5416615 0.1230348 3.29905 1.088857 0.01761823 3.288565 1.088857 0.01761823 3.288565 0.9230566 0.2555823 3.109982 0.9230566 0.2555823 3.109982 0.9230566 0.2555823 3.109982 1.14586 0.3025513 3.077958 0.9913173 0.02869617 2.992563 0.9913173 0.02869617 2.992563 0.5347364 -0.04742085 3.274474 1.047134 -0.1719213 3.107406 1.047134 -0.1719213 3.107406 1.047134 -0.1719213 3.107406 1.708109 0.01647067 3.103605 1.824943 -0.1231875 3.042958 1.828955 0.05287313 3.015983 1.662466 0.09794998 2.977634 1.678972 -0.1209572 3.013147 1.81061 0.0342732 2.956987 1.818538 -0.124685 2.988242 1.575515 0.0901069 2.977296 1.575515 0.0901069 2.977296 1.619681 0.008627593 3.098023 1.619681 0.008627593 3.098023 1.588584 -0.1288002 3.000614 1.588584 -0.1288002 3.000614 1.149763 -0.06076478 2.975656 1.181763 -0.07015007 3.089649 1.179183 0.1735405 3.075785 1.216929 0.003060162 3.219535 1.169385 0.09010696 2.939857 1.182454 -0.2121743 2.963175 1.268265 0.008627593 3.254752 -0.9769087 0.254898 3.09491 -0.9769087 0.254898 3.09491 -0.9769087 0.254898 3.09491 -1.042236 0.02859693 2.981954 -1.042236 0.02859693 2.981954 -1.165968 0.3025615 3.091886 -1.113113 0.01758474 3.266273 -1.113113 0.01758474 3.266273 -1.113113 0.01759475 3.266273 -1.007677 0.2126501 3.149158 -1.007677 0.2126501 3.149158 -0.5728073 0.1226564 3.287623 -0.5667436 -0.04727494 3.262898 -1.077181 -0.1719272 3.108855 -1.077181 -0.1719272 3.108855 -1.077181 -0.1719272 3.108855 -1.733524 0.01647287 3.135443 -1.857336 0.05288523 3.052053 -1.852388 -0.1231992 3.078874 -1.692278 0.09796041 3.007947 -1.707542 -0.120969 3.044015 -1.847304 -0.1246978 3.024113 -1.841051 0.03428375 2.992458 -1.605515 0.09011733 3.005097 -1.605515 0.09011733 3.005097 -1.617705 -0.1288121 3.028603 -1.617705 -0.1288121 3.028603 -1.645159 0.008629798 3.126046 -1.645159 0.008629798 3.126046 -1.215062 0.1778918 3.086516 -1.186237 -0.05564445 2.972519 -1.186237 -0.05564445 2.972519 -1.215898 -0.06936937 3.09558 -1.248794 0.002426266 3.222492 -1.238881 -0.05466055 3.182676 -1.240578 -0.2121862 3.089322 -1.197789 0.09011733 2.940766 -1.279205 0.008629798 3.232432 -0.01448863 -0.2657194 0.8953132 -0.008033633 -0.2619903 0.9004799</float_array>
          <technique_common>
            <accessor source="#shins_003-mesh-positions-array" count="351" stride="3">
              <param name="X" type="float"/>
              <param name="Y" type="float"/>
              <param name="Z" type="float"/>
            </accessor>
          </technique_common>
        </source>
        <source id="shins_003-mesh-normals">
          <float_array id="shins_003-mesh-normals-array" count="1077">-0.1293295 -0.30364 0.9439686 0.1112593 -0.3288145 0.9378179 0.021613 -0.3429481 0.9391057 0.004904866 -0.3164343 0.9486019 0.1293295 -0.3036404 0.9439685 -0.004904866 -0.3164342 0.9486019 -0.1112592 -0.3288145 0.937818 -0.021613 -0.3429482 0.9391056 0.9198085 -0.3913901 -0.02768284 0.2292297 0.9724955 0.0413075 -0.6497724 0.7593142 0.03518241 0.9188911 -0.3942569 -0.01417183 0.6497721 0.7593145 0.03518241 -0.6326605 -0.7704157 -0.07874214 -0.9188911 -0.3942569 -0.01417177 -0.9085694 -0.4161972 -0.0358017 -0.9753964 -0.2122321 -0.05966234 0.9014541 -0.4315129 -0.03431004 0.9085695 -0.4161971 -0.0358017 -0.2292296 0.9724955 0.0413075 0.9753964 -0.2122319 -0.0596624 -0.9198085 -0.3913901 -0.02768284 -0.9014543 -0.4315125 -0.03431004 0.6326602 -0.7704161 -0.07874208 0 0 1 -0.008915245 0.9949283 0.1001906 0.008915185 0.9949284 0.1001906 0.949813 -0.1974391 -0.2426381 0.9509879 -0.2105637 -0.2264621 0.9368318 -0.3000617 -0.1797482 -0.9552292 -0.1219188 -0.2695792 -0.948706 -0.2302337 -0.216678 -0.9425755 -0.1720138 -0.2862915 0.8709276 0.4618336 -0.1679135 -0.91747 0.3016178 -0.2593755 0.1410228 -0.9648717 0.221665 -8.65753e-5 0.6924248 0.7214902 -0.5142233 0.8569027 0.0359503 -0.4227238 -0.9060792 0.01803153 -0.1203979 -0.9631567 -0.240486 0.1685448 -0.9566428 0.2375443 0.710271 -0.703382 0.02773207 -0.1251924 -0.9632679 0.2375746 -0.6933035 -0.7203227 -0.02157318 0.3936637 -0.9023087 -0.1756926 0.1740756 -0.982374 0.06811136 -0.05128198 -0.9817527 0.1831169 0.05179542 -0.06360864 -0.99663 0.06178712 -0.06359773 -0.9960611 0.0633077 -0.7374318 0.6724482 0.06331527 -0.7374345 0.6724444 1.04558e-4 -1.7315e-5 -1 0.8330489 0.5451036 -0.09429591 1.64539e-4 0.3486261 -0.9372619 1.31658e-4 0.08782404 -0.9961361 1.98743e-5 0.348439 -0.9373315 -0.8552399 0.509389 -0.09532827 1.45118e-5 0.9926206 -0.1212623 1.56781e-5 0.9926206 -0.1212619 2.15288e-5 0.08795839 -0.9961242 0.4808727 -0.7887369 -0.3829563 0.3747087 -0.8751751 -0.3060425 0.007660269 -0.9592711 -0.2823831 -0.489538 -0.8363436 -0.2467432 0.02180862 -0.832015 -0.5543243 -0.3753745 -0.8462505 -0.3780928 -0.03822475 -0.07096421 0.9967462 -0.03225487 -0.1924614 0.9807744 -0.1369916 0.1065621 0.9848238 0.04590106 -0.01791286 0.9987854 -0.2263785 -0.06899619 0.9715927 -0.7487708 0.455056 0.4819404 -0.6269625 0.4735634 0.6185917 0.882188 -0.2830125 0.3763622 0.9512744 -0.197546 0.2367546 0.8065871 0.5333975 0.2547639 0.7748443 0.3845012 0.501772 -0.9168269 -0.2669813 0.2968998 -0.9003587 -0.2300463 0.369368 0.1281265 -0.9873113 0.09380888 0.134023 -0.9871507 0.08701384 -0.03710353 -0.9957177 0.08467382 -0.2853391 -0.8755903 0.3897734 -0.6418178 -0.1938467 0.7419524 -0.6418147 -0.193845 0.7419556 0.7203092 -0.1616882 0.6745455 0.5887638 -0.2503464 0.7685597 -0.3028514 0.5045452 0.8085266 -0.7354894 0.5724865 0.3623736 -0.2312587 -0.7221482 0.6519367 -0.3544788 -0.5115721 0.7827125 0.6245628 0.3129672 0.7155228 0.6284573 0.3217759 0.7081679 -0.5078389 0.3878911 0.7691815 -0.5078347 0.3878921 0.7691839 -0.0147913 0.993649 0.1115481 -0.002859473 0.994413 0.1055206 0.795266 0.6002891 0.08488279 -0.9870219 -0.1304118 -0.09370511 0.9762527 0.1952044 0.09394586 0.9799549 0.1599473 0.1187656 0.9590456 -0.1410617 -0.245628 8.81253e-4 0.007871329 -0.9999687 -1.4753e-4 0.007409036 -0.9999726 -0.02396696 0.003765761 -0.9997057 -0.9939077 0.05275142 0.09677171 -0.9972109 0.04359269 0.06058257 0.9891289 -0.1454962 0.02132725 0.01537352 -0.5224441 0.852535 0.02206164 -0.5173718 0.8554763 0.4555667 -0.8656265 0.2077253 0.4364043 -0.6285963 0.6437532 0.1685886 -0.2976672 0.939666 0.01758003 -0.5973462 0.8017909 -0.01633375 -0.1474838 -0.9889297 0.08197063 -0.08911949 -0.9926422 0.05114698 0.009352028 -0.9986474 0.9985789 0.03183954 -0.0427367 0.9999319 -0.001720786 -0.0115419 -0.9715306 -0.06933623 0.2265412 -0.9912975 -0.1205088 0.05298167 -0.8283128 0.5322044 0.1750903 -0.4582036 -0.838829 -0.2939653 -0.01488852 -0.9998892 5.47376e-6 -0.002875328 -0.9999722 0.006888031 0.7977216 -0.602144 0.03260397 -0.9126194 0.3022446 0.2752709 0.9762527 -0.1952047 -0.09394598 0.9799551 -0.1599463 -0.1187659 0.8570031 0.3130342 0.4093353 8.81705e-4 -0.007871389 0.9999687 -1.47531e-4 -0.007408916 0.9999727 -0.02396684 -0.003765642 0.9997057 -0.9939078 -0.05275118 -0.09677159 -0.9972109 -0.04359281 -0.06058281 0.9891289 0.1454962 -0.02132719 0.01537311 0.5224443 -0.8525349 0.0220614 0.5173717 -0.8554764 0.4555667 0.8656266 -0.2077252 0.4364044 0.6285966 -0.6437527 0.1685886 0.297667 -0.9396661 0.01757961 0.5973467 -0.8017904 -0.01633316 0.1474823 0.9889299 0.08196991 0.08911848 0.9926424 0.05114674 -0.009351313 0.9986475 0.9985789 -0.03184032 0.04273772 0.9999319 0.001721262 0.01154214 -0.9715304 0.06933593 -0.2265421 -0.9912975 0.1205085 -0.05298197 -0.8397815 -0.5395728 -0.06023484 -0.458204 0.8388289 0.2939648 -0.4779556 0.6162916 0.6258939 -0.4077306 -0.6601009 0.6308903 -0.3739826 -0.4148453 0.8294821 -0.006051659 0.9670094 0.254669 3.23626e-4 0.9681849 0.2502359 0.6864008 -0.7255016 -0.05001461 1.60562e-4 -0.9932773 0.1157603 -0.9952693 -0.004836261 -0.09703475 -0.9957435 0.003374874 -0.09210681 0.9981687 -0.005489766 -0.06024384 0.9985735 0.006350517 -0.0530163 0.001353383 0.9393345 0.3429999 0.001624703 0.9948744 -0.1011066 -1.36938e-4 0.9950489 -0.09938704 -0.2614223 -0.8105104 0.5241481 -0.307281 -0.9470641 0.09299522 -5.0254e-5 -0.9990866 -0.04273188 0.4291585 -0.6598771 0.6167539 0.3856167 -0.4129959 0.8250662 0.4976 0.6208615 0.6057436 -0.6874526 -0.723899 -0.05813223 -0.004624485 -0.9936567 0.1123615 0.9715486 0.07891011 0.2233088 0.9876161 -0.00921899 0.1566196 -0.9894613 -0.00902909 0.1445167 -0.9739502 0.08019018 0.2121102 -0.5262672 0.84726 0.07206517 0.5262505 0.8465511 0.08007347 0.2913254 -0.9512198 0.1015408 0.2546048 -0.8259007 0.5030552 0.006016075 0.101469 -0.9948205 0.001853168 0.09890389 -0.9950953 4.87881e-4 0.09931403 -0.995056 -6.81982e-4 0.09880471 -0.9951066 -0.006026983 0.1019768 -0.9947686 -0.001857578 0.09940779 -0.9950451 0.4903488 -0.008328557 -0.8714866 -0.3478141 -0.04534494 0.9364663 -0.1364187 -0.044591 0.9896472 0.5201953 -0.001100838 -0.8540467 0.08349913 8.65655e-4 0.9965075 -0.5846265 0.03122735 -0.8107014 -0.8819349 0.03572309 0.4700158 -0.2602716 -0.01086312 -0.9654744 0.1399684 -0.9884802 -0.05758446 0.3323442 -0.2499117 -0.9094457 -0.3534483 0.2582368 0.899104 -0.5159238 0.09227985 0.8516497 0.1317647 -0.515556 -0.8466641 0.1555727 -0.1889948 -0.9695763 0.2023831 -0.979206 -0.01402235 -0.1394252 0.06425964 0.9881455 0.1762788 -0.2371464 0.9553468 -0.9397879 0.3325098 0.0789681 -0.8955236 0.4231166 -0.137876 0.354382 -0.2449066 -0.9024601 0.6770811 0.126392 -0.7249733 -0.007094204 0.999974 -0.001308321 0.6825838 -0.003020942 -0.7308011 0.682598 -0.003020405 -0.7307878 -0.9883464 -0.00420463 -0.152164 -0.9883463 -0.00420463 -0.152164 0.1813653 -0.001706659 0.9834144 0.1813737 -0.001706898 0.9834128 0.4168938 0.02704256 -0.9085529 -0.05359548 0.001633107 -0.9985614 -0.08051592 -0.03239125 0.9962269 0.5302538 0.2884479 -0.7972634 0.1159125 0.3036001 0.9457227 -0.8100689 -0.5809743 -0.0791043 -0.7616909 -0.5842825 -0.2800731 -0.6231052 -0.07924121 0.7781136 -0.04970252 -0.02704244 0.9983979 -0.5085861 -0.001632928 0.8610097 0.3885557 0.03239089 -0.9208558 0.1022415 -0.2884491 0.952021 0.5394774 -0.3036028 -0.7853596 -0.7550846 0.5809653 -0.303853 -0.8049522 0.5842868 -0.1032524 -0.1934418 0.07924139 -0.9779065 -0.5320098 0.112873 0.8391813 -0.09545767 0.8524798 0.5139709 0.1433622 -0.1986787 -0.9695226 -0.9656235 -0.01370787 -0.2595832 0.1745142 -0.1718935 -0.9695347 0.2081614 -0.5141463 0.8320592 0.02246963 -0.9993143 0.02943277 -0.3344848 0.8697379 -0.362872 -0.9949496 -0.04184842 -0.09123528 0.5607403 0.1129028 0.8202581 0.1132531 0.8524743 0.5103542 -0.1773189 -0.1983793 -0.9639521 0.9557522 -0.01014012 -0.2939983 -0.2080887 -0.1718979 -0.9628864 -0.179156 -0.5141264 0.8387951 -0.0213648 -0.999326 0.02985197 0.321688 0.8697475 -0.3742409 0.9925385 -0.04025077 -0.1150968 -0.0765348 0.8243284 0.5609146 -0.1082206 0.8052111 0.5830295 0.1483923 -0.1474518 -0.9778741 0.01334244 -0.105125 -0.9943695 -0.04679048 -0.1592002 -0.9861369 -0.1763917 -0.09536486 -0.9796896 -0.004043579 -0.5492031 0.8356791 -0.06461024 -0.5672917 0.8209785 0.09658229 -0.5385504 0.8370397 0.0361815 -0.573168 0.8186388 0.1323159 0.8152145 0.5638421 0.09230607 0.8115116 0.5769997 -0.18586 0.4123989 -0.8918427 0.2277702 -0.1164775 -0.9667232 -0.1509299 -0.9877767 -0.03895574 0.1576761 -0.9848744 -0.07183849 0.04048508 -0.1034449 -0.9938109 -0.1396417 0.4038888 -0.9040874 0.2908932 0.8390081 0.4598334 0.2094121 0.6570197 0.7242042 0.1492758 -0.8781273 0.4545428 0.09069031 -0.5894659 0.8026863 -0.1154855 0.8409149 0.5287016 -0.2913065 0.6203393 0.7282305 0.1118236 -0.9745882 0.1940964 -0.205298 -0.5836076 0.7856559 -0.1991321 -0.5929423 0.7802345 0.7627426 -0.6296779 0.1474093 0.4108 -0.869689 0.2736502 -0.632866 -0.7546829 0.1730154 -0.4633165 -0.8820012 0.08609247 -0.3546965 -0.9104721 0.2126762 -0.2820577 -0.9407331 0.1883213 0.9608899 -0.1444862 0.2362506 0.9855332 -1.20769e-6 0.1694825 -0.98189 -0.09673357 0.1628947 -0.9747852 -1.30419e-6 0.2231454 -0.09482282 0.9954679 -0.007247209 0.02232116 0.9970462 0.07348901 0.09138941 0.9939168 0.06146067 -0.03016918 0.9987938 -0.03874248 0.119207 0.4156528 -0.9016776 0.9709404 0 -0.2393216 -0.01356959 0.5200941 0.8540012 0.3245714 -0.1248357 0.937587 0.477733 -0.7003578 0.5303492 0.4376481 0.7010388 0.5630355 -0.07190984 -0.6453443 0.7604997 0.09275716 -0.9016984 0.4222987 -0.2477964 -0.4868806 -0.8375824 -0.09314239 0.01489013 -0.9955415 -0.2792662 0.4921573 -0.8244948 -0.01102542 -0.1443587 0.9894641 0.1251162 0.5685844 0.8130547 -0.2121897 0.3980438 -0.8924891 0.1341148 0.5715386 0.8095413 -0.3290913 -0.1216437 0.9364303 -0.4874971 -0.7044023 0.5159109 -0.4387866 0.7147106 0.5446606 0.06362271 -0.6968276 0.7144114 -0.0854882 -0.9065414 0.4133696 0.2572291 -0.4251914 -0.8677821 0.1138675 0.01607471 -0.993366 0.3080628 0.5087313 -0.8039215 -0.008460581 -0.1423619 0.9897786 -0.3955478 0.4693843 -0.7894431 -0.2556139 -0.08533763 -0.9630053 -0.6993222 -0.4916154 -0.5189053 0.2312391 -0.5487213 -0.8033887 0.05952996 -0.4470309 -0.8925355 0.3102239 -0.7995943 0.5142082 0.09850275 -0.6988304 0.7084726 -0.9586469 0 0.2845983 -0.9433833 0.2741439 -0.1867431 -0.1996759 0.4842404 0.8518455 0.1803779 0.5610585 0.8078844 0.93976 0.2532888 -0.2295559 0.06290316 -0.6306158 0.7735418 -0.1371488 -0.5555084 0.8201224 0.3992136 0.4909998 -0.7743048 -0.02766752 0.7962108 0.6043865 0.06520134 0.8813005 0.4680366 0.1727148 0.7272265 0.6643126 -0.07277572 0.7740431 0.6289365 -0.1419565 0.5648015 0.8129255 0.006589353 0.8125128 0.5829063 -0.0804708 0.8851811 0.4582343 0.3872299 -0.9061328 0.1702248 0.3872328 -0.9061316 0.1702244 0.4519497 -0.8823896 0.1308821 -0.005074381 -0.02994483 0.9995387 0.006134986 -0.02780455 0.9995946 0.9995187 0.02928179 -0.01025193 0.998246 0.05712932 -0.01553326 0.9976186 0.06178247 -0.03066241 0.9088622 -0.416822 -0.01513081 0.4806275 0.8751596 0.05561405 0.005675256 -0.9983057 -0.05791038 0.9281769 -0.362375 -0.08468812 0.006945729 0.9976854 0.06764501 -0.9899659 -0.1202174 -0.07426607 -0.9991824 0.03475499 0.02065896 0.139552 -0.700379 -0.6999961 -0.5491555 0.2346864 -0.8020914 0.110216 0.5139965 -0.8506822 -0.1126862 0.2976784 -0.9479923 -0.05957341 0.3158242 -0.9469457 0.1281896 0.5128484 -0.8488546 -0.1532823 -0.7406209 -0.6542059 0.3872271 -0.9061334 0.1702275</float_array>
          <technique_common>
            <accessor source="#shins_003-mesh-normals-array" count="359" stride="3">
              <param name="X" type="float"/>
              <param name="Y" type="float"/>
              <param name="Z" type="float"/>
            </accessor>
          </technique_common>
        </source>
        <source id="shins_003-mesh-map-0">
          <float_array id="shins_003-mesh-map-0-array" count="2172">0.926605 0.675447 0.92501 0.69889 0.922115 0.741237 0.926429 0.678229 0.922114 0.741276 0.924797 0.70001 0.926605 0.675447 0.926429 0.678229 0.924797 0.70001 0.926605 0.675447 0.924797 0.70001 0.92501 0.69889 0.926605 0.675447 0.922115 0.741237 0.92501 0.69889 0.926605 0.675447 0.92501 0.69889 0.924797 0.70001 0.926429 0.678229 0.924797 0.70001 0.922114 0.741276 0.926605 0.675447 0.924797 0.70001 0.926429 0.678229 0.867739 0.712338 0.601412 0.7113 0.601286 0.683319 0.90702 0.68591 0.601739 0.762685 0.909792 0.748216 0.596391 0.662855 0.90702 0.68591 0.911629 0.67014 0.601494 0.729756 0.903067 0.756421 0.867739 0.712338 0.596391 0.662855 0.911629 0.67014 0.90702 0.68591 0.601494 0.729756 0.601412 0.7113 0.867739 0.712338 0.601494 0.729756 0.867739 0.712338 0.903067 0.756421 0.601286 0.683319 0.867739 0.712338 0.907187 0.664874 0.601586 0.749621 0.601494 0.729756 0.903067 0.756421 0.601286 0.683319 0.601196 0.66326 0.907187 0.664874 0.601286 0.683319 0.907187 0.664874 0.867739 0.712338 0.90702 0.68591 0.909792 0.748216 0.601739 0.762685 0.601586 0.749621 0.903067 0.756421 0.601494 0.729756 0.867739 0.712338 0.601286 0.683319 0.601412 0.7113 0.601286 0.683319 0.907187 0.664874 0.601196 0.66326 0.601494 0.729756 0.867739 0.712338 0.601412 0.7113 0.601739 0.762685 0.596391 0.662855 0.601739 0.762685 0.601739 0.762685 0.596391 0.662855 0.90702 0.68591 0.90702 0.68591 0.601739 0.762685 0.601739 0.762685 0.601739 0.762685 0.601739 0.762685 0.596391 0.662855 0.601739 0.762685 0.90702 0.68591 0.596391 0.662855 0.90702 0.68591 0.601739 0.762685 0.601739 0.762685 0.824779 0.08075398 0.839447 0.111432 0.896703 0.144452 0.824779 0.08075398 0.896703 0.144452 0.992349 0.105126 0.824779 0.08075398 0.992349 0.105126 0.988724 0.07843595 0.824809 0.080756 0.988728 0.07843595 0.992361 0.105103 0.824809 0.080756 0.992361 0.105103 0.898038 0.143283 0.845295 0.03944694 0.908647 0.113963 0.839634 0.117013 0.824779 0.08075398 0.988724 0.07843595 0.967328 0.01576298 0.824809 0.080756 0.96734 0.01576298 0.988728 0.07843595 0.786611 0.318611 0.772302 0.211517 0.801518 0.22971 0.81382 -6.21e-4 0.813832 -6.21e-4 0.758586 0.05872696 0.81382 -6.21e-4 0.758586 0.05872696 0.757828 0.009536981 0.873996 0.12518 0.87193 0.193836 0.800896 0.187592 0.873996 0.12518 0.800896 0.187592 0.785814 0.102439 0.801518 0.22971 0.772302 0.211517 0.870413 0.210412 0.870413 0.210412 0.870711 0.225934 0.801518 0.22971 0.870413 0.210412 0.772302 0.211517 0.800896 0.187592 0.800896 0.187592 0.87193 0.193836 0.870413 0.210412 0.870711 0.225934 0.875361 0.295076 0.786611 0.318611 0.786611 0.318611 0.801518 0.22971 0.870711 0.225934 0.785814 0.102439 0.800896 0.187592 0.772302 0.211517 0.991412 0.119016 0.99115 0.137913 0.99179 0.119032 0.855838 0.218979 0.856736 0.219017 0.855854 0.233418 0.780078 0.115318 0.776593 0.106898 0.738647 0.101767 0.780078 0.115318 0.738647 0.101767 0.739569 0.103995 0.404739 0.74627 0.40477 0.722607 0.404803 0.698212 0.824779 0.08075398 0.967328 0.01576298 0.81382 -6.21e-4 0.984377 0.117931 0.984387 0.117914 0.962116 0.03954899 0.988728 0.07843595 0.96734 0.01576298 0.967328 0.01576298 0.962116 0.03954899 0.962113 0.03954899 0.984377 0.117931 0.96734 0.01576298 0.824809 0.080756 0.813832 -6.21e-4 0.781842 0.014144 0.781829 0.014144 0.967328 0.01576298 0.967328 0.01576298 0.96734 0.01576298 0.813832 -6.21e-4 0.991242 0.001367986 0.972334 0.04042595 0.972337 0.04042595 0.875361 0.295076 0.982049 0.208682 0.983189 0.276178 0.982049 0.208682 0.875361 0.295076 0.870711 0.225934 0.982049 0.208682 0.870711 0.225934 0.871377 0.210436 0.980861 0.138346 0.982049 0.208682 0.871377 0.210436 0.980861 0.138346 0.871377 0.210436 0.87193 0.193836 0.980861 0.138346 0.87193 0.193836 0.873996 0.12518 0.740438 0.05785095 0.738705 0.09313696 0.73871 0.104437 0.73871 0.104437 0.737788 0.102209 0.734769 0.05775296 0.734769 0.05775296 0.721803 0.005428969 0.74096 0.042171 0.74096 0.042171 0.740438 0.05785095 0.73871 0.104437 0.73871 0.104437 0.734769 0.05775296 0.74096 0.042171 0.813832 -6.21e-4 0.824809 0.080756 0.769598 0.09658896 0.813832 -6.21e-4 0.769598 0.09658896 0.758586 0.05872696 0.839447 0.111432 0.824779 0.08075398 0.769579 0.09658795 0.839447 0.111432 0.769579 0.09658795 0.767428 0.1316339 0.824779 0.08075398 0.81382 -6.21e-4 0.757828 0.009536981 0.824779 0.08075398 0.757828 0.009536981 0.769579 0.09658795 0.824809 0.080756 0.841198 0.11695 0.770801 0.117054 0.824809 0.080756 0.770801 0.117054 0.769598 0.09658896 0.828649 0.118642 0.837698 0.110229 0.776593 0.106898 0.828649 0.118642 0.776593 0.106898 0.780078 0.115318 0.839634 0.117013 0.828649 0.118642 0.780078 0.115318 0.839634 0.117013 0.780078 0.115318 0.779669 0.09543097 0.769598 0.09658896 0.770801 0.117054 0.72051 0.1330929 0.769598 0.09658896 0.72051 0.1330929 0.728473 0.111126 0.767428 0.1316339 0.769579 0.09658795 0.715984 0.111316 0.776593 0.106898 0.735628 0.05731099 0.738647 0.101767 0.757828 0.009536981 0.758586 0.05872696 0.717429 0.11311 0.757828 0.009536981 0.717429 0.11311 0.716675 0.06391996 0.779669 0.09543097 0.780078 0.115318 0.739569 0.103995 0.779669 0.09543097 0.739569 0.103995 0.739564 0.09269499 0.769579 0.09658795 0.757828 0.009536981 0.716675 0.06391996 0.769579 0.09658795 0.716675 0.06391996 0.715984 0.111316 0.758586 0.05872696 0.769598 0.09658896 0.728473 0.111126 0.758586 0.05872696 0.728473 0.111126 0.717429 0.11311 0.927013 0.988315 0.992691 0.991099 0.992702 0.990026 0.927013 0.988315 0.992702 0.990026 0.927013 0.988264 0.992691 0.991099 0.927013 0.988315 0.927193 0.97394 0.933193 0.885996 0.927194 0.973888 0.992702 0.990026 0.989821 0.806423 0.992691 0.991099 0.932958 0.889713 0.989821 0.806423 0.932958 0.889713 0.928765 0.785971 0.932958 0.889713 0.992691 0.991099 0.927193 0.97394 0.992702 0.990026 0.990251 0.772777 0.990087 0.786014 0.990251 0.772777 0.992702 0.990026 0.992691 0.991099 0.990251 0.772777 0.992691 0.991099 0.989821 0.806423 0.928808 0.782537 0.933193 0.885996 0.992702 0.990026 0.928808 0.782537 0.992702 0.990026 0.990087 0.786014 0.990251 0.772777 0.989821 0.806423 0.928765 0.785971 0.933193 0.885996 0.928808 0.782537 0.928765 0.785971 0.933193 0.885996 0.928765 0.785971 0.932958 0.889713 0.985087 0.73489 0.963847 0.74009 0.963084 0.684434 0.985087 0.73489 0.963084 0.684434 0.987255 0.678597 0.928808 0.782537 0.963084 0.684434 0.963847 0.74009 0.928808 0.782537 0.963847 0.74009 0.928765 0.785971 0.990087 0.786014 0.990251 0.772777 0.985087 0.73489 0.985087 0.73489 0.987255 0.678597 0.991679 0.699102 0.985087 0.73489 0.991679 0.699102 0.990087 0.786014 0.928765 0.785971 0.963847 0.74009 0.985087 0.73489 0.928765 0.785971 0.985087 0.73489 0.990251 0.772777 0.990087 0.786014 0.991679 0.699102 0.963084 0.684434 0.990087 0.786014 0.963084 0.684434 0.928808 0.782537 0.927194 0.973888 0.927013 0.988264 0.992702 0.990026 0.963084 0.684434 0.991679 0.699102 0.987255 0.678597 0.926835 0.993932 0.992691 0.991099 0.992702 0.990026 0.926835 0.993932 0.992702 0.990026 0.926836 0.993859 0.992691 0.991099 0.926835 0.993932 0.927078 0.974511 0.933193 0.885996 0.927079 0.97444 0.992702 0.990026 0.989821 0.806423 0.992691 0.991099 0.932958 0.889713 0.989821 0.806423 0.932958 0.889713 0.928765 0.785971 0.932958 0.889713 0.992691 0.991099 0.927078 0.974511 0.992702 0.990026 0.990251 0.772777 0.990087 0.786014 0.990251 0.772777 0.992702 0.990026 0.992691 0.991099 0.990251 0.772777 0.992691 0.991099 0.989821 0.806423 0.928808 0.782537 0.933193 0.885996 0.992702 0.990026 0.928808 0.782537 0.992702 0.990026 0.990087 0.786014 0.990251 0.772777 0.989821 0.806423 0.928765 0.785971 0.933193 0.885996 0.928808 0.782537 0.928765 0.785971 0.933193 0.885996 0.928765 0.785971 0.932958 0.889713 0.985085 0.73489 0.963847 0.74009 0.963084 0.684434 0.985085 0.73489 0.963084 0.684434 0.987255 0.678597 0.928808 0.782537 0.963084 0.684434 0.963847 0.74009 0.928808 0.782537 0.963847 0.74009 0.928765 0.785971 0.990087 0.786014 0.990251 0.772777 0.985085 0.73489 0.985085 0.73489 0.987255 0.678597 0.991679 0.699102 0.985085 0.73489 0.991679 0.699102 0.990087 0.786014 0.928765 0.785971 0.963847 0.74009 0.985085 0.73489 0.928765 0.785971 0.985085 0.73489 0.990251 0.772777 0.990087 0.786014 0.991679 0.699102 0.963084 0.684434 0.990087 0.786014 0.963084 0.684434 0.928808 0.782537 0.927079 0.97444 0.926836 0.993859 0.992702 0.990026 0.963084 0.684434 0.991679 0.699102 0.987255 0.678597 0.624017 0.622896 0.490955 0.589671 0.617659 0.464582 0.009793996 0.467999 0.139066 0.570357 0.006568968 0.628756 0.139977 0.593688 0.140547 0.657083 0.005110979 0.628207 0.60048 0.017829 0.47886 0.01628398 0.648326 0.195837 0.421377 0.191426 0.648326 0.195837 0.47886 0.01628398 0.2221339 0.004607975 0.300059 0.01202994 0.260674 0.201158 0.260674 0.201158 0.03559195 0.196747 0.2221339 0.004607975 0.03465795 0.199239 0.03559195 0.196747 0.009793996 0.467999 0.01292699 0.470441 0.03465795 0.199239 0.009793996 0.467999 0.260674 0.201158 0.261607 0.2036499 0.277807 0.465827 0.277807 0.465827 0.261607 0.2036499 0.274408 0.471213 0.356178 0.465353 0.617659 0.464582 0.490955 0.589671 0.595928 0.1933799 0.617659 0.464582 0.356178 0.465353 0.595928 0.1933799 0.356178 0.465353 0.368979 0.197791 0.009793996 0.467999 0.132771 0.464706 0.139066 0.570357 0.03559195 0.196747 0.132771 0.464706 0.009793996 0.467999 0.260674 0.201158 0.132771 0.464706 0.03559195 0.196747 0.277807 0.465827 0.270361 0.625049 0.139066 0.570357 0.139977 0.593688 0.267348 0.628208 0.140547 0.657083 0.360225 0.61919 0.356178 0.465353 0.490955 0.589671 0.006253957 0.01047897 0.08361399 0.003054976 0.03559195 0.196747 0.08361399 0.003054976 0.2221339 0.004607975 0.03559195 0.196747 0.300059 0.01202994 0.290521 0.02127999 0.260674 0.201158 0.260674 0.201158 0.290521 0.02127999 0.261607 0.2036499 0.03465795 0.199239 0.01574695 0.01973295 0.03559195 0.196747 0.03559195 0.196747 0.01574695 0.01973295 0.006253957 0.01047897 0.47886 0.01628398 0.402466 0.01191997 0.421377 0.191426 0.648326 0.195837 0.67724 0.01346796 0.60048 0.017829 0.260674 0.201158 0.277807 0.465827 0.132771 0.464706 0.132771 0.464706 0.277807 0.465827 0.139066 0.570357 0.300059 0.01202994 0.213761 0.02564096 0.290521 0.02127999 0.2221339 0.004607975 0.213761 0.02564096 0.300059 0.01202994 0.2221339 0.004607975 0.08361399 0.003054976 0.09214198 0.02409595 0.2221339 0.004607975 0.09214198 0.02409595 0.213761 0.02564096 0.09214198 0.02409595 0.006253957 0.01047897 0.01574695 0.01973295 0.08361399 0.003054976 0.006253957 0.01047897 0.09214198 0.02409595 0.434069 0.838981 0.464266 0.955436 0.458829 0.744366 0.45874 0.739527 0.48301 0.883308 0.464266 0.955436 0.45874 0.739527 0.464266 0.955436 0.434069 0.838981 0.434526 0.685364 0.434069 0.838981 0.458829 0.744366 0.434526 0.685364 0.45874 0.739527 0.434069 0.838981 0.458829 0.744366 0.48301 0.883308 0.481153 0.73101 0.45874 0.739527 0.481153 0.73101 0.48301 0.883308 0.464266 0.955436 0.48301 0.883308 0.458829 0.744366 0.476889 0.876925 0.46162 0.88117 0.477203 0.793178 0.477831 0.793175 0.461625 0.883548 0.476889 0.876925 0.477831 0.793175 0.447549 0.792992 0.461625 0.883548 0.448188 0.849567 0.461625 0.883548 0.447549 0.792992 0.477203 0.793178 0.46162 0.88117 0.447549 0.792992 0.46162 0.88117 0.448188 0.849567 0.447549 0.792992 0.477831 0.793175 0.476889 0.876925 0.477203 0.793178 0.481614 0.802402 0.431809 0.79676 0.435751 0.866928 0.481614 0.802402 0.435751 0.866928 0.470413 0.865875 0.481626 0.801815 0.481614 0.802402 0.470413 0.865875 0.481626 0.801815 0.470413 0.865875 0.470535 0.864847 0.431809 0.79676 0.481626 0.801815 0.470535 0.864847 0.431809 0.79676 0.470535 0.864847 0.435751 0.866928 0.409336 0.660398 0.368004 0.658511 0.414719 0.660503 0.366998 0.995786 0.398399 0.995822 0.414719 0.660503 0.366998 0.995786 0.414719 0.660503 0.368004 0.658511 0.398399 0.995822 0.394773 0.995753 0.409336 0.660398 0.398399 0.995822 0.409336 0.660398 0.414719 0.660503 0.394773 0.995753 0.366998 0.995786 0.368004 0.658511 0.394773 0.995753 0.368004 0.658511 0.409336 0.660398 0.434069 0.838981 0.464266 0.955436 0.458829 0.744366 0.45874 0.739527 0.48301 0.883308 0.464266 0.955436 0.45874 0.739527 0.464266 0.955436 0.434069 0.838981 0.434526 0.685364 0.434069 0.838981 0.458829 0.744366 0.434526 0.685364 0.45874 0.739527 0.434069 0.838981 0.458829 0.744366 0.48301 0.883308 0.481153 0.73101 0.45874 0.739527 0.481153 0.73101 0.48301 0.883308 0.464266 0.955436 0.48301 0.883308 0.458829 0.744366 0.434069 0.838981 0.464266 0.955436 0.458829 0.744366 0.45874 0.739527 0.48301 0.883308 0.464266 0.955436 0.45874 0.739527 0.464266 0.955436 0.434069 0.838981 0.434526 0.685364 0.434069 0.838981 0.458829 0.744366 0.434526 0.685364 0.45874 0.739527 0.434069 0.838981 0.458829 0.744366 0.48301 0.883308 0.481153 0.73101 0.45874 0.739527 0.481153 0.73101 0.48301 0.883308 0.464266 0.955436 0.48301 0.883308 0.458829 0.744366 0.05678898 0.950237 0.130885 0.967528 0.122691 0.875139 0.05678898 0.950237 0.05273199 0.993189 0.130885 0.967528 0.05313497 0.878055 0.126915 0.874245 0.1297709 0.957774 0.130885 0.967528 0.1297709 0.957774 0.126915 0.874245 0.1297709 0.957774 0.05273199 0.993189 0.05313497 0.878055 0.122691 0.875139 0.05313497 0.878055 0.05678898 0.950237 0.122691 0.875139 0.126915 0.874245 0.05313497 0.878055 0.05273199 0.993189 0.1297709 0.957774 0.130885 0.967528 0.130885 0.967528 0.126915 0.874245 0.122691 0.875139 0.063106 0.950078 0.1290079 0.874987 0.137201 0.967363 0.063106 0.950078 0.137201 0.967363 0.05904698 0.993026 0.05945098 0.877903 0.136085 0.95761 0.133547 0.874085 0.137201 0.967363 0.133547 0.874085 0.136085 0.95761 0.136085 0.95761 0.05945098 0.877903 0.05904698 0.993026 0.1290079 0.874987 0.063106 0.950078 0.05945098 0.877903 0.1290079 0.874987 0.05945098 0.877903 0.133547 0.874085 0.05904698 0.993026 0.137201 0.967363 0.136085 0.95761 0.137201 0.967363 0.1290079 0.874987 0.133547 0.874085 0.063106 0.950078 0.05904698 0.993026 0.01500999 0.990005 0.063106 0.950078 0.01500999 0.990005 0.01906895 0.947057 0.05904698 0.993026 0.05945098 0.877903 0.01541399 0.874882 0.05904698 0.993026 0.01541399 0.874882 0.01500999 0.990005 0.05313497 0.878055 0.05273199 0.993189 0.008694946 0.990169 0.05313497 0.878055 0.008694946 0.990169 0.009098947 0.875034 0.05945098 0.877903 0.063106 0.950078 0.01906895 0.947057 0.05945098 0.877903 0.01906895 0.947057 0.01541399 0.874882 0.05678898 0.950237 0.05313497 0.878055 0.009098947 0.875034 0.05678898 0.950237 0.009098947 0.875034 0.01275199 0.947217 0.05273199 0.993189 0.05678898 0.950237 0.01275199 0.947217 0.05273199 0.993189 0.01275199 0.947217 0.008694946 0.990169 0.03348296 0.872812 0.006215989 0.873022 0.01380699 0.669179 0.03348296 0.872812 0.01380699 0.669179 9.02e-4 0.672316 0.128615 0.873544 0.128037 0.665381 0.101158 0.873572 0.006215989 0.873022 0.03556996 0.873123 0.01380699 0.669179 0.141071 0.668518 0.128037 0.665381 0.128615 0.873544 0.141071 0.668518 0.128615 0.873544 0.104416 0.873275 0.07678198 0.66362 0.141071 0.668518 0.104416 0.873275 0.07678198 0.66362 0.104416 0.873275 0.069956 0.873892 0.07678198 0.66362 0.069956 0.873892 0.101158 0.873572 0.07678198 0.66362 0.101158 0.873572 0.128037 0.665381 9.02e-4 0.672316 0.064552 0.66742 0.06597095 0.872707 9.02e-4 0.672316 0.06597095 0.872707 0.03348296 0.872812 0.01380699 0.669179 0.03556996 0.873123 0.05645596 0.872746 0.01380699 0.669179 0.05645596 0.872746 0.06597095 0.872707 0.01380699 0.669179 0.06597095 0.872707 0.064552 0.66742 0.676921 0.978817 0.609968 0.79613 0.709272 0.797126 0.609968 0.79613 0.676921 0.978817 0.637251 0.978804 0.598853 0.978294 0.709268 0.797069 0.609535 0.796061 0.709268 0.797069 0.598853 0.978294 0.669169 0.978284 0.637251 0.978804 0.656919 0.796419 0.609968 0.79613 0.656919 0.796419 0.637251 0.978804 0.692104 0.981498 0.921184 0.978818 0.709272 0.797126 0.88639 0.798098 0.709272 0.797126 0.921184 0.978818 0.676921 0.978817 0.669169 0.978284 0.886384 0.798042 0.709268 0.797069 0.886384 0.798042 0.669169 0.978284 0.920252 0.978284 0.920252 0.978284 0.911382 0.774482 0.886384 0.798042 0.911382 0.774482 0.920252 0.978284 0.913476 0.980456 0.91458 0.979629 0.88639 0.798098 0.911387 0.774538 0.88639 0.798098 0.91458 0.979629 0.921184 0.978818 0.85768 0.856745 0.829334 0.92137 0.797188 0.857436 0.829111 0.92289 0.216032 0.463593 0.829111 0.922889 0.829111 0.922889 0.843532 0.880781 0.797188 0.857436 0.536696 0.50731 0.532739 0.440856 0.444833 0.475105 0.444833 0.475105 0.532739 0.440856 0.451712 0.33264 0.446937 0.510476 0.451932 0.646377 0.536696 0.50731 0.701401 0.413052 0.697976 0.338882 0.532739 0.440856 0.532739 0.440856 0.697976 0.338882 0.451712 0.33264 0.546529 0.540843 0.458751 0.538825 0.460217 0.468586 0.546529 0.540843 0.460217 0.468586 0.544554 0.413809 0.460217 0.468586 0.488563 0.403961 0.544554 0.413809 0.536696 0.50731 0.701401 0.413052 0.532739 0.440856 0.698256 0.554547 0.536671 0.50746 0.701223 0.413076 0.866392 0.856717 0.789046 0.857189 0.831105 0.921411 0.829174 0.922887 0.789046 0.857189 0.854317 0.87501 0.536671 0.50746 0.445632 0.475057 0.532707 0.4408 0.445632 0.475057 0.452668 0.330042 0.532707 0.4408 0.536671 0.50746 0.448866 0.645509 0.447835 0.512102 0.701223 0.413076 0.532707 0.4408 0.700326 0.338744 0.532707 0.4408 0.452668 0.330042 0.700326 0.338744 0.546109 0.541727 0.461988 0.468627 0.457919 0.538799 0.546109 0.541727 0.545605 0.414213 0.461988 0.468627 0.461988 0.468627 0.545605 0.414213 0.497275 0.403933 0.536671 0.50746 0.532707 0.4408 0.701223 0.413076 0.789046 0.857189 0.669905 0.856076 0.831105 0.921411 0.831105 0.921411 0.669905 0.856076 0.674491 0.988242 0.831105 0.921411 0.674491 0.988242 0.827036 0.991583 0.829334 0.92137 0.827868 0.991609 0.674962 0.988258 0.829334 0.92137 0.674962 0.988258 0.670256 0.856086 0.827036 0.991583 0.674491 0.988242 0.679668 0.923935 0.827036 0.991583 0.679668 0.923935 0.829174 0.922887 0.829111 0.92289 0.829111 0.922889 0.797188 0.857436 0.797188 0.857436 0.670256 0.856086 0.679801 0.92394 0.797188 0.857436 0.679801 0.92394 0.829111 0.92289 0.789046 0.857189 0.829174 0.922887 0.679668 0.923935 0.789046 0.857189 0.679668 0.923935 0.669905 0.856076 0.674962 0.988258 0.827868 0.991609 0.829111 0.92289 0.674962 0.988258 0.829111 0.92289 0.679801 0.92394 0.797188 0.857436 0.829334 0.92137 0.670256 0.856086 0.700405 0.644707 0.698255 0.554547 0.536696 0.50731 0.700405 0.644707 0.536696 0.50731 0.451932 0.646377 0.797188 0.857436 0.843532 0.880781 0.85768 0.856745 0.854317 0.87501 0.789046 0.857189 0.866392 0.856717 0.536696 0.50731 0.698255 0.554547 0.701401 0.413052 0.536671 0.50746 0.698256 0.554547 0.692586 0.64544 0.536671 0.50746 0.692586 0.64544 0.448866 0.645509 0.685239 0.979512 0.609535 0.796061 0.651767 0.795727 0.685239 0.979512 0.651767 0.795727 0.653353 0.798184 0.609535 0.796061 0.685239 0.979512 0.598853 0.978294 0.876819 0.996551 0.816 0.99398 0.816177 0.995296 0.8132 0.993589 0.88123 0.996163 0.81339 0.994937 0.913476 0.980456 0.685239 0.979512 0.653353 0.798184 0.653353 0.798184 0.652919 0.795718 0.911382 0.774482 0.653353 0.798184 0.911382 0.774482 0.913476 0.980456 0.670088 0.841672 0.835615 0.845601 0.816177 0.995296 0.835615 0.845601 0.876819 0.996551 0.816177 0.995296 0.835434 0.834336 0.835615 0.845601 0.816177 0.995296 0.664449 0.838764 0.836289 0.831965 0.8132 0.993589 0.836289 0.831965 0.836479 0.843214 0.81339 0.994937 0.692104 0.981498 0.816 0.99398 0.911387 0.774538 0.692104 0.981498 0.911387 0.774538 0.656919 0.796419 0.609968 0.79613 0.656919 0.796419 0.709272 0.797126 0.911382 0.774482 0.652919 0.795718 0.651767 0.795727 0.651767 0.795727 0.709268 0.797069 0.886384 0.798042 0.651767 0.795727 0.886384 0.798042 0.911382 0.774482 0.709272 0.797126 0.656919 0.796419 0.911387 0.774538 0.709272 0.797126 0.911387 0.774538 0.88639 0.798098 0.709268 0.797069 0.651767 0.795727 0.609535 0.796061 0.653353 0.798184 0.651767 0.795727 0.652919 0.795718</float_array>
          <technique_common>
            <accessor source="#shins_003-mesh-map-0-array" count="1086" stride="2">
              <param name="S" type="float"/>
              <param name="T" type="float"/>
            </accessor>
          </technique_common>
        </source>
        <vertices id="shins_003-mesh-vertices">
          <input semantic="POSITION" source="#shins_003-mesh-positions"/>
        </vertices>
        <triangles material="shaolin-material" count="362">
          <input semantic="VERTEX" source="#shins_003-mesh-vertices" offset="0"/>
          <input semantic="NORMAL" source="#shins_003-mesh-normals" offset="1"/>
          <input semantic="TEXCOORD" source="#shins_003-mesh-map-0" offset="2" set="0"/>
          <p>1 0 0 2 0 1 3 0 2 4 1 3 0 1 4 5 1 5 1 2 6 4 2 7 5 2 8 1 3 9 5 3 10 2 3 11 39 4 12 37 4 13 38 4 14 39 5 15 38 5 16 35 5 17 36 6 18 35 6 19 40 6 20 39 7 21 35 7 22 36 7 23 6 8 24 7 8 25 8 8 26 26 9 27 23 9 28 41 9 29 31 10 30 26 10 31 28 10 32 25 11 33 24 11 34 34 11 35 9 12 36 12 12 37 14 12 38 15 13 39 7 13 40 6 13 41 15 14 42 6 14 43 16 14 44 32 15 45 34 15 46 30 15 47 19 16 48 15 16 49 16 16 50 8 17 51 13 17 52 10 17 53 8 18 54 10 18 55 6 18 56 14 19 57 20 19 58 17 19 59 21 20 60 24 20 61 25 20 62 34 21 63 32 21 64 33 21 65 32 22 66 30 22 67 27 22 68 25 23 69 34 23 70 33 23 71 17 24 72 11 24 73 18 24 74 18 25 75 9 25 76 14 25 77 14 24 78 17 24 79 18 24 80 23 24 81 22 24 82 29 24 83 22 26 84 26 26 85 31 26 86 26 24 87 22 24 88 23 24 89 42 27 90 43 27 91 46 27 92 42 28 93 46 28 94 48 28 95 42 29 96 48 29 97 52 29 98 55 30 99 57 30 100 60 30 101 55 31 102 60 31 103 64 31 104 56 32 105 65 32 106 67 32 107 42 33 108 52 33 109 81 33 110 55 34 111 83 34 112 57 34 113 44 35 114 84 35 115 89 35 116 100 36 117 102 36 118 111 36 119 100 37 120 111 37 121 110 37 122 66 38 123 90 38 124 94 38 125 66 39 126 94 39 127 68 39 128 89 40 129 84 40 130 95 40 131 95 41 132 74 41 133 89 41 134 95 42 135 84 42 136 94 42 137 94 43 138 90 43 139 95 43 140 74 44 141 47 44 142 44 44 143 44 45 144 89 45 145 74 45 146 68 46 147 94 46 148 84 46 149 96 47 150 91 47 151 76 47 152 97 48 153 77 48 154 75 48 155 109 49 156 113 49 157 98 49 158 109 50 159 98 50 160 92 50 161 49 51 162 72 51 163 61 51 164 42 52 165 81 52 166 100 52 167 50 53 168 62 53 169 58 53 170 57 54 171 83 54 172 81 54 173 58 55 174 53 55 175 50 55 176 83 56 177 55 56 178 102 56 179 103 57 180 101 57 181 81 57 182 81 58 183 83 58 184 102 58 185 82 59 186 54 59 187 59 59 188 47 60 189 73 60 190 51 60 191 73 61 192 47 61 193 74 61 194 73 62 195 74 62 196 78 62 197 63 63 198 73 63 199 78 63 200 63 64 201 78 64 202 90 64 203 63 65 204 90 65 205 66 65 206 79 66 207 86 66 208 93 66 209 93 67 210 99 67 211 106 67 212 106 68 213 104 68 214 70 68 215 70 69 216 79 69 217 93 69 218 93 70 219 106 70 220 70 70 221 102 71 222 55 71 223 112 71 224 102 72 225 112 72 226 111 72 227 43 73 228 42 73 229 117 73 230 43 74 231 117 74 232 114 74 233 42 75 234 100 75 235 110 75 236 42 76 237 110 76 238 117 76 239 55 77 240 69 77 241 115 77 242 55 78 243 115 78 244 112 78 245 85 79 246 45 79 247 113 79 248 85 80 249 113 80 250 109 80 251 67 81 252 85 81 253 109 81 254 67 82 255 109 82 256 116 82 257 112 83 258 115 83 259 87 83 260 112 84 261 87 84 262 80 84 263 114 85 264 117 85 265 107 85 266 113 86 267 108 86 268 98 86 269 110 87 270 111 87 271 71 87 272 110 88 273 71 88 274 105 88 275 116 89 276 109 89 277 92 89 278 116 90 279 92 90 280 88 90 281 117 91 282 110 91 283 105 91 284 117 92 285 105 92 286 107 92 287 111 93 288 112 93 289 80 93 290 111 94 291 80 94 292 71 94 293 118 95 294 119 95 295 120 95 296 118 96 297 120 96 298 121 96 299 119 97 300 118 97 301 122 97 302 123 98 303 124 98 304 120 98 305 125 99 306 119 99 307 126 99 308 125 100 309 126 100 310 127 100 311 126 101 312 119 101 313 122 101 314 120 102 315 128 102 316 129 102 317 128 103 318 120 103 319 119 103 320 128 104 321 119 104 322 125 104 323 130 105 324 123 105 325 120 105 326 130 106 327 120 106 328 129 106 329 128 107 330 125 107 331 127 107 332 123 108 333 130 108 334 127 108 335 123 109 336 127 109 337 126 109 338 131 110 339 132 110 340 133 110 341 131 111 342 133 111 343 134 111 344 130 112 345 133 112 346 132 112 347 130 113 348 132 113 349 127 113 350 129 114 351 128 114 352 131 114 353 131 115 354 134 115 355 135 115 356 131 116 357 135 116 358 129 116 359 127 117 360 132 117 361 131 117 362 127 118 363 131 118 364 128 118 365 129 119 366 135 119 367 133 119 368 129 120 369 133 120 370 130 120 371 124 121 372 121 121 373 120 121 374 133 122 375 135 122 376 134 122 377 136 123 378 137 123 379 138 123 380 136 124 381 138 124 382 139 124 383 137 125 384 136 125 385 140 125 386 141 126 387 142 126 388 138 126 389 143 127 390 137 127 391 144 127 392 143 128 393 144 128 394 145 128 395 144 129 396 137 129 397 140 129 398 138 130 399 146 130 400 147 130 401 146 131 402 138 131 403 137 131 404 146 132 405 137 132 406 143 132 407 148 133 408 141 133 409 138 133 410 148 134 411 138 134 412 147 134 413 146 135 414 143 135 415 145 135 416 141 136 417 148 136 418 145 136 419 141 137 420 145 137 421 144 137 422 149 138 423 150 138 424 151 138 425 149 139 426 151 139 427 152 139 428 148 140 429 151 140 430 150 140 431 148 141 432 150 141 433 145 141 434 147 142 435 146 142 436 149 142 437 149 143 438 152 143 439 153 143 440 149 144 441 153 144 442 147 144 443 145 145 444 150 145 445 149 145 446 145 146 447 149 146 448 146 146 449 147 147 450 153 147 451 151 147 452 147 148 453 151 148 454 148 148 455 142 149 456 139 149 457 138 149 458 151 150 459 153 150 460 152 150 461 177 151 462 163 151 463 175 151 464 182 152 465 165 152 466 178 152 467 166 153 468 164 153 469 179 153 470 183 154 471 189 154 472 157 154 473 154 155 474 157 155 475 189 155 476 186 156 477 185 156 478 161 156 479 161 157 480 160 157 481 186 157 482 155 158 483 160 158 484 182 158 485 176 159 486 155 159 487 182 159 488 161 160 489 158 160 490 169 160 491 169 161 492 158 161 493 167 161 494 168 162 495 175 162 496 163 162 497 156 163 498 175 163 499 168 163 500 156 164 501 168 164 502 159 164 503 182 165 504 162 165 505 165 165 506 160 166 507 162 166 508 182 166 509 161 167 510 162 167 511 160 167 512 169 168 513 170 168 514 165 168 515 166 169 516 171 169 517 164 169 518 172 170 519 168 170 520 163 170 521 191 171 522 192 171 523 160 171 524 192 172 525 186 172 526 160 172 527 185 173 528 187 173 529 161 173 530 161 174 531 187 174 532 158 174 533 155 175 534 193 175 535 160 175 536 160 176 537 193 176 538 191 176 539 189 177 540 194 177 541 154 177 542 157 178 543 188 178 544 183 178 545 161 179 546 169 179 547 162 179 548 162 180 549 169 180 550 165 180 551 185 181 552 184 181 553 187 181 554 186 182 555 184 182 556 185 182 557 186 183 558 192 183 559 190 183 560 186 184 561 190 184 562 184 184 563 190 185 564 191 185 565 193 185 566 192 186 567 191 186 568 190 186 569 199 187 570 200 187 571 196 187 572 195 188 573 201 188 574 200 188 575 195 189 576 200 189 577 199 189 578 197 190 579 199 190 580 196 190 581 197 191 582 195 191 583 199 191 584 196 192 585 201 192 586 198 192 587 195 193 588 198 193 589 201 193 590 200 194 591 201 194 592 196 194 593 211 195 594 204 195 595 209 195 596 202 196 597 205 196 598 211 196 599 202 197 600 207 197 601 205 197 602 206 198 603 205 198 604 207 198 605 209 199 606 204 199 607 207 199 608 204 200 609 206 200 610 207 200 611 202 201 612 211 201 613 209 201 614 210 202 615 208 202 616 217 202 617 210 203 618 217 203 619 215 203 620 203 204 621 210 204 622 215 204 623 203 205 624 215 205 625 213 205 626 208 206 627 203 206 628 213 206 629 208 207 630 213 207 631 217 207 632 220 208 633 212 208 634 219 208 635 218 209 636 214 209 637 219 209 638 218 210 639 219 210 640 212 210 641 214 211 642 216 211 643 220 211 644 214 212 645 220 212 646 219 212 647 216 213 648 218 213 649 212 213 650 216 214 651 212 214 652 220 214 653 225 215 654 226 215 655 222 215 656 221 216 657 227 216 658 226 216 659 221 217 660 226 217 661 225 217 662 223 218 663 225 218 664 222 218 665 223 219 666 221 219 667 225 219 668 222 220 669 227 220 670 224 220 671 221 221 672 224 221 673 227 221 674 226 222 675 227 222 676 222 222 677 232 223 678 233 223 679 229 223 680 228 224 681 234 224 682 233 224 683 228 225 684 233 225 685 232 225 686 230 226 687 232 226 688 229 226 689 230 227 690 228 227 691 232 227 692 229 228 693 234 228 694 231 228 695 228 229 696 231 229 697 234 229 698 233 230 699 234 230 700 229 230 701 327 231 702 328 231 703 329 231 704 327 232 705 330 232 706 328 232 707 331 233 708 332 233 709 333 233 710 328 234 711 333 234 712 332 234 713 333 235 714 330 235 715 331 235 716 329 236 717 331 236 718 327 236 719 329 237 720 332 237 721 331 237 722 330 238 723 333 238 724 328 238 725 328 239 726 332 239 727 329 239 728 291 240 729 292 240 730 293 240 731 291 241 732 293 241 733 294 241 734 295 242 735 296 242 736 297 242 737 293 243 738 297 243 739 296 243 740 296 244 741 295 244 742 294 244 743 292 245 744 291 245 745 295 245 746 292 246 747 295 246 748 297 246 749 294 247 750 293 247 751 296 247 752 293 248 753 292 248 754 297 248 755 291 249 756 294 249 757 298 249 758 291 250 759 298 250 760 300 250 761 294 251 762 295 251 763 302 251 764 294 252 765 302 252 766 298 252 767 331 253 768 330 253 769 334 253 770 331 254 771 334 254 772 336 254 773 295 255 774 291 255 775 300 255 776 295 256 777 300 256 778 302 256 779 327 257 780 331 257 781 336 257 782 327 258 783 336 258 784 338 258 785 330 259 786 327 259 787 338 259 788 330 260 789 338 260 790 334 260 791 340 261 792 341 261 793 337 261 794 340 262 795 337 262 796 335 262 797 304 263 798 303 263 799 305 263 800 341 264 801 343 264 802 337 264 803 299 265 804 303 265 805 304 265 806 299 266 807 304 266 808 306 266 809 301 267 810 299 267 811 306 267 812 301 268 813 306 268 814 307 268 815 301 269 816 307 269 817 305 269 818 301 270 819 305 270 820 303 270 821 335 271 822 339 271 823 344 271 824 335 272 825 344 272 826 340 272 827 337 273 828 343 273 829 345 273 830 337 274 831 345 274 832 344 274 833 337 275 834 344 275 835 339 275 836 242 276 837 243 276 838 244 276 839 243 277 840 242 277 841 245 277 842 260 278 843 261 278 844 262 278 845 261 279 846 260 279 847 263 279 848 245 280 849 246 280 850 243 280 851 246 281 852 245 281 853 247 281 854 238 282 855 244 282 856 239 282 857 244 283 858 238 283 859 242 283 860 263 284 861 256 284 862 261 284 863 256 285 864 263 285 865 257 285 866 257 286 867 258 286 868 256 286 869 258 287 870 257 287 871 259 287 872 240 288 873 239 288 874 241 288 875 239 289 876 240 289 877 238 289 878 311 290 879 314 290 880 316 290 881 317 291 882 342 291 883 319 291 884 319 292 885 320 292 886 316 292 887 322 293 888 323 293 889 180 293 890 180 294 891 323 294 892 270 294 893 181 295 894 268 295 895 322 295 896 318 296 897 324 296 898 323 296 899 323 297 900 324 297 901 270 297 902 271 298 903 325 298 904 315 298 905 271 299 906 315 299 907 269 299 908 315 300 909 312 300 910 269 300 911 322 301 912 318 301 913 323 301 914 276 302 915 278 302 916 279 302 917 281 303 918 284 303 919 285 303 920 280 304 921 284 304 922 277 304 923 278 305 924 173 305 925 287 305 926 173 306 927 272 306 928 287 306 929 278 307 930 274 307 931 174 307 932 279 308 933 287 308 934 288 308 935 287 309 936 272 309 937 288 309 938 273 310 939 286 310 940 289 310 941 273 311 942 275 311 943 286 311 944 286 312 945 275 312 946 282 312 947 278 313 948 287 313 949 279 313 950 284 314 951 308 314 952 285 314 953 285 315 954 308 315 955 309 315 956 285 316 957 309 316 958 290 316 959 314 317 960 326 317 961 346 317 962 314 318 963 346 318 964 347 318 965 290 319 966 309 319 967 310 319 968 290 320 969 310 320 970 280 320 971 317 321 972 319 321 973 316 321 974 316 322 975 347 322 976 348 322 977 316 323 978 348 323 979 317 323 980 284 324 981 280 324 982 310 324 983 284 325 984 310 325 985 308 325 986 346 326 987 326 326 988 317 326 989 346 327 990 317 327 991 348 327 992 316 328 993 314 328 994 347 328 995 313 329 996 321 329 997 322 329 998 313 330 999 322 330 1000 268 330 1001 316 331 1002 320 331 1003 311 331 1004 277 332 1005 284 332 1006 281 332 1007 322 333 1008 321 333 1009 318 333 1010 278 334 1011 276 334 1012 283 334 1013 278 335 1014 283 335 1015 274 335 1016 264 336 1017 262 336 1018 349 336 1019 264 337 1020 349 337 1021 350 337 1022 262 338 1023 264 338 1024 260 338 1025 237 339 1026 235 339 1027 236 339 1028 254 340 1029 255 340 1030 253 340 1031 259 341 1032 264 341 1033 350 341 1034 350 342 1035 265 342 1036 258 342 1037 350 343 1038 258 343 1039 259 343 1040 248 344 1041 249 344 1042 236 344 1043 249 345 1044 237 345 1045 236 345 1046 250 346 1047 249 346 1048 236 346 1049 267 347 1050 251 347 1051 254 347 1052 251 348 1053 252 348 1054 253 348 1055 247 349 1056 235 349 1057 241 349 1058 247 350 1059 241 350 1060 246 350 1061 243 351 1062 246 351 1063 244 351 1064 258 352 1065 265 352 1066 349 352 1067 349 353 1068 261 353 1069 256 353 1070 349 354 1071 256 354 1072 258 354 1073 244 355 1074 246 355 1075 241 355 1076 244 356 1077 241 356 1078 239 356 1079 261 357 1080 349 357 1081 262 357 1082 350 358 1083 349 358 1084 265 358 1085</p>
        </triangles>
      </mesh>
    </geometry>
  </library_geometries>
  <library_controllers>
    <controller id="shaolin2_Skin_shins-skin" name="shaolin2_Skin">
      <skin source="#shins_003-mesh">
        <bind_shape_matrix>1 0 0 0 0 1 0 0 0 0 1 0 0 0 0 1</bind_shape_matrix>
        <source id="shaolin2_Skin_shins-skin-joints">
          <Name_array id="shaolin2_Skin_shins-skin-joints-array" count="24">root pelvis femurleft butt-l knee-l-top knee-l-bopttom ankle_left foot_left01 femurright butt-r knee-r-top knee-r-bopttom ankleright foot_right01 lumbar rib scapula ulna scapula01 ulna01 carpal_right smoke_node_1 ammo_node_0 neck</Name_array>
          <technique_common>
            <accessor source="#shaolin2_Skin_shins-skin-joints-array" count="24" stride="1">
              <param name="JOINT" type="name"/>
            </accessor>
          </technique_common>
        </source>
        <source id="shaolin2_Skin_shins-skin-bind_poses">
          <float_array id="shaolin2_Skin_shins-skin-bind_poses-array" count="384">1 0 0 0 0 -1.19209e-7 1 -2.154822 0 -1 -1.34359e-7 1.88312e-7 0 0 0 1 1 0 0 -2.88205e-4 0 0 1 -1.989969 0 -1 0 0.05965083 0 0 0 1 1 0 0 -0.2295659 0 0 1 -1.980151 0 -1 0 0 0 0 0 1 1 0 0 -0.2300334 0 -5.28991e-7 1 -1.881625 0 -1 -5.43892e-7 0.2278663 0 0 0 1 1 0 0 -0.2579528 0 0 1 -1.492427 0 -1 0 -0.3577119 0 0 0 1 1 0 0 -0.2616621 0 -2.30968e-7 1 -1.243225 0 -1 -2.45869e-7 0.03760051 0 0 0 1 1 -8.01553e-7 3.09469e-7 -0.2703902 0 -0.368721 -0.92954 0.1499912 8.59182e-7 0.9295386 -0.368721 -0.04846733 0 0 0 1 1 -7.1605e-7 3.27421e-5 -0.2703912 0 -0.9997594 -0.02186477 -0.2401512 3.27499e-5 0.02186417 -0.9997609 0.02882218 0 0 0 1 1 0 0 0.2313526 0 0 1 -1.980151 0 -1 0 0 0 0 0 1 1 0 0 0.2346149 0 -6.78003e-7 1 -1.884255 0 -1 -6.92904e-7 0.2262768 0 0 0 1 1 0 0 0.1784679 0 -6.78003e-7 1 -1.491813 0 -1 -6.85453e-7 -0.3589497 0 0 0 1 1 0 0 0.2454932 0 0 1 -1.243115 0 -1 0 0.03760027 0 0 0 1 1 -7.42666e-7 2.91746e-7 0.2586691 0 -0.3687213 -0.92954 0.1530215 7.97911e-7 0.9295406 -0.3687213 -0.04726493 0 0 0 1 1 -5.42555e-7 2.48078e-5 0.2586683 0 -0.9997615 -0.02186495 -0.2400804 2.48137e-5 0.02186506 -0.9997611 0.03209668 0 0 0 1 1 0 0 -0.004826366 0 0 1 -2.179733 0 -1 0 0.1130514 0 0 0 1 1 0 0 0.007960081 0 0 1 -2.884791 0 -1 0 -1.77087e-7 0 0 0 1 0.271227 -1.59592e-7 0.9625153 -3.123739 -0.9625154 0 0.2712269 -0.4539194 0 -1 -1.64765e-7 2.40085e-7 0 0 0 1 0.2712268 0 0.9625154 -3.247478 -0.9625154 0 0.2712267 0.1454375 0 -1 0 0 0 0 0 1 0.2376697 0 -0.9713461 3.147326 0.9713461 0 0.2376698 -0.3055487 0 -1 0 -4.54612e-7 0 0 0 1 0.23767 0 -0.971346 3.259328 0.9713461 0 0.2376698 0.293808 0 -1 0 -4.77438e-7 0 0 0 1 0.2376699 0 -0.9713461 3.397072 0.9713461 0 0.2376698 0.8249437 0 -1 0 -4.0762e-7 0 0 0 1 0.2376959 4.21477e-7 -0.9713396 3.371005 -0.006545603 -0.9999774 -0.001602172 -0.0552321 -0.9713175 0.00673896 -0.237691 -1.006915 0 0 0 1 0.2376331 0 -0.971355 3.368322 0.9713549 1.69919e-6 0.2376333 1.062578 1.75834e-6 -1 2.98023e-7 -1.617806 0 0 0 1 1 0 0 0.02165722 0 0 1 -3.354291 0 -1 -1.19697e-7 1.60604e-7 0 0 0 1</float_array>
          <technique_common>
            <accessor source="#shaolin2_Skin_shins-skin-bind_poses-array" count="24" stride="16">
              <param name="TRANSFORM" type="float4x4"/>
            </accessor>
          </technique_common>
        </source>
        <source id="shaolin2_Skin_shins-skin-weights">
          <float_array id="shaolin2_Skin_shins-skin-weights-array" count="361">1 1 1 1 1 1 1 1 1 1 1 1 1 1 1 1 1 1 1 1 1 1 1 1 1 1 1 1 1 1 1 1 1 1 1 1 1 1 1 1 1 1 1 1 1 1 1 1 1 1 1 1 1 1 1 1 1 1 1 1 1 1 1 1 1 1 1 1 1 1 1 1 1 1 1 1 1 1 1 1 1 1 1 1 1 1 1 1 1 1 1 1 1 1 1 1 1 1 1 1 1 1 1 1 1 1 1 1 1 1 1 1 1 1 1 1 1 1 1 1 1 1 1 1 1 1 1 1 1 1 1 1 1 1 1 1 1 1 1 1 1 1 1 1 1 1 1 1 1 1 1 1 1 1 1 1 1 1 1 1 1 1 1 1 1 1 1 1 1 1 0.5 0.5 0.5 0.5 0.5 0.5 0.5 0.5 0.5 0.5 1 1 0.5 0.5 0.5 0.5 0.5 0.5 0.5 0.5 0.5 0.5 1 1 1 1 1 1 1 1 1 1 1 1 1 1 1 1 1 1 1 1 1 1 1 1 1 1 1 1 1 1 1 1 1 1 1 1 1 1 1 1 1 1 1 1 1 1 1 1 1 1 1 1 1 1 1 1 1 1 1 1 1 1 1 1 1 1 1 1 1 1 1 1 1 1 1 1 1 1 1 1 1 1 1 1 1 1 1 1 1 1 1 1 1 1 1 1 1 1 1 1 1 1 1 1 1 1 1 1 1 1 1 1 1 1 1 1 1 1 1 1 1 1 1 1 1 1 1 1 1 1 1 1 1 1 1 1 1 1 1 1 1 1 1 1 1 1 1 1 1 1 1 1 1 1 1 1 1 1 1 1 1 1 1 1 1 1 1 1 1</float_array>
          <technique_common>
            <accessor source="#shaolin2_Skin_shins-skin-weights-array" count="361" stride="1">
              <param name="WEIGHT" type="float"/>
            </accessor>
          </technique_common>
        </source>
        <joints>
          <input semantic="JOINT" source="#shaolin2_Skin_shins-skin-joints"/>
          <input semantic="INV_BIND_MATRIX" source="#shaolin2_Skin_shins-skin-bind_poses"/>
        </joints>
        <vertex_weights count="351">
          <input semantic="JOINT" source="#shaolin2_Skin_shins-skin-joints" offset="0"/>
          <input semantic="WEIGHT" source="#shaolin2_Skin_shins-skin-weights" offset="1"/>
          <vcount>1 1 1 1 1 1 1 1 1 1 1 1 1 1 1 1 1 1 1 1 1 1 1 1 1 1 1 1 1 1 1 1 1 1 1 1 1 1 1 1 1 1 1 1 1 1 1 1 1 1 1 1 1 1 1 1 1 1 1 1 1 1 1 1 1 1 1 1 1 1 1 1 1 1 1 1 1 1 1 1 1 1 1 1 1 1 1 1 1 1 1 1 1 1 1 1 1 1 1 1 1 1 1 1 1 1 1 1 1 1 1 1 1 1 1 1 1 1 1 1 1 1 1 1 1 1 1 1 1 1 1 1 1 1 1 1 1 1 1 1 1 1 1 1 1 1 1 1 1 1 1 1 1 1 1 1 1 1 1 1 1 1 1 1 1 1 1 1 1 1 2 2 2 2 2 1 1 2 2 2 2 2 1 1 1 1 1 1 1 1 1 1 1 1 1 1 1 1 1 1 1 1 1 1 1 1 1 1 1 1 1 1 1 1 1 1 1 1 1 1 1 1 1 1 1 1 1 1 1 1 1 1 1 1 1 1 1 1 1 1 1 1 1 1 1 1 1 1 1 1 1 1 1 1 1 1 1 1 1 1 1 1 1 1 1 1 1 1 1 1 1 1 1 1 1 1 1 1 1 1 1 1 1 1 1 1 1 1 1 1 1 1 1 1 1 1 1 1 1 1 1 1 1 1 1 1 1 1 1 1 1 1 1 1 1 1 1 1 1 1 1 1 1 1 1 1 1 1 1 1 1 1 1 1 1 1 1 1 1 1 1 1 1 1 1 1 1 1 1 1 1 </vcount>
          <v>5 0 5 1 5 2 5 3 5 4 5 5 5 6 5 7 5 8 5 9 5 10 5 11 5 12 5 13 5 14 5 15 5 16 5 17 5 18 5 19 5 20 11 21 11 22 11 23 11 24 11 25 11 26 11 27 11 28 11 29 11 30 11 31 11 32 11 33 11 34 11 35 11 36 11 37 11 38 11 39 11 40 11 41 23 42 23 43 23 44 23 45 23 46 23 47 23 48 23 49 23 50 23 51 23 52 23 53 23 54 23 55 23 56 23 57 23 58 23 59 23 60 23 61 23 62 23 63 23 64 23 65 23 66 23 67 23 68 23 69 23 70 23 71 23 72 23 73 23 74 23 75 23 76 23 77 23 78 23 79 23 80 23 81 23 82 23 83 23 84 23 85 23 86 23 87 23 88 23 89 23 90 23 91 23 92 23 93 23 94 23 95 23 96 23 97 23 98 23 99 23 100 23 101 23 102 23 103 23 104 23 105 23 106 23 107 23 108 23 109 23 110 23 111 23 112 23 113 23 114 23 115 23 116 23 117 5 118 5 119 5 120 5 121 5 122 5 123 5 124 5 125 5 126 5 127 5 128 5 129 5 130 5 131 5 132 5 133 5 134 5 135 11 136 11 137 11 138 11 139 11 140 11 141 11 142 11 143 11 144 11 145 11 146 11 147 11 148 11 149 11 150 11 151 11 152 11 153 1 154 1 155 1 156 1 157 1 158 1 159 1 160 1 161 15 162 15 163 15 164 15 165 15 166 15 167 15 168 15 169 15 170 16 171 15 172 16 173 15 174 16 175 15 176 16 177 15 178 16 179 15 180 15 181 15 182 18 183 15 184 18 185 15 186 18 187 15 188 18 189 15 190 18 191 15 192 3 193 3 194 4 195 4 196 3 197 3 198 9 199 9 200 10 201 10 202 9 203 9 204 21 205 21 206 21 207 21 208 21 209 21 210 21 211 21 212 21 213 21 214 21 215 21 216 21 217 21 218 21 219 21 220 21 221 21 222 21 223 21 224 21 225 21 226 21 227 21 228 21 229 21 230 21 231 21 232 21 233 21 234 21 235 21 236 21 237 21 238 21 239 21 240 21 241 21 242 21 243 21 244 2 245 2 246 2 247 2 248 5 249 2 250 5 251 2 252 4 253 5 254 2 255 5 256 2 257 2 258 2 259 2 260 11 261 11 262 8 263 8 264 8 265 11 266 8 267 11 268 8 269 8 270 11 271 10 272 8 273 8 274 11 275 11 276 11 277 15 278 15 279 15 280 15 281 15 282 15 283 15 284 15 285 16 286 16 287 16 288 16 289 16 290 16 291 16 292 16 293 17 294 16 295 16 296 16 297 16 298 16 299 16 300 17 301 17 302 17 303 17 304 17 305 17 306 17 307 17 308 17 309 17 310 17 311 17 312 17 313 17 314 17 315 17 316 17 317 17 318 17 319 17 320 18 321 18 322 18 323 18 324 18 325 18 326 18 327 18 328 18 329 18 330 18 331 18 332 18 333 18 334 18 335 18 336 19 337 19 338 19 339 19 340 19 341 19 342 19 343 19 344 19 345 19 346 19 347 19 348 19 349 19 350 19 351 19 352 19 353 19 354 19 355 19 356 19 357 19 358 11 359 11 360</v>
        </vertex_weights>
      </skin>
    </controller>
  </library_controllers>
  <library_visual_scenes>
    <visual_scene id="Scene" name="Scene">
      <node id="Camera" name="Camera" type="NODE">
        <matrix sid="transform">0.6859207 -0.3240135 0.6515582 7.481132 0.7276763 0.3054208 -0.6141704 -6.50764 0 0.8953956 0.4452714 5.343665 0 0 0 1</matrix>
        <instance_camera url="#Camera-camera"/>
      </node>
      <node id="Lamp" name="Lamp" type="NODE">
        <matrix sid="transform">-0.2908646 -0.7711008 0.5663932 4.076245 0.9551712 -0.1998834 0.2183912 1.005454 -0.05518906 0.6045247 0.7946723 5.903862 0 0 0 1</matrix>
        <instance_light url="#Lamp-light"/>
      </node>
      <node id="shaolin2_Skin" name="shaolin2_Skin" type="NODE">
        <matrix sid="transform">1 0 0 0 0 1 0 0 0 0 1 0 0 0 0 1</matrix>
        <node id="shaolin2_Skin_root" name="root" sid="root" type="JOINT">
          <matrix sid="transform">1 0 3.38755e-8 0 3.38755e-8 -1.34359e-7 -1 -1.01207e-7 4.50959e-15 1 -1.19209e-7 2.154822 0 0 0 1</matrix>
          <node id="shaolin2_Skin_pelvis" name="pelvis" sid="pelvis" type="JOINT">
            <matrix sid="transform">1 0 1.06555e-8 2.88204e-4 -3.96948e-16 1 3.72528e-8 -0.1648533 -1.06555e-8 -3.72528e-8 1 -0.05965076 0 0 0 1</matrix>
            <node id="shaolin2_Skin_femurleft" name="femurleft" sid="femurleft" type="JOINT">
              <matrix sid="transform">1 -5.5443e-15 5.09364e-9 0.2292777 0 1 0 -0.0098176 -5.09364e-9 2.48278e-10 1 0.05965088 0 0 0 1</matrix>
              <node id="shaolin2_Skin_butt-l" name="butt-l" sid="butt-l" type="JOINT">
                <matrix sid="transform">1 -6.03892e-15 4.2319e-9 4.67554e-4 1.89181e-15 1 -4.47035e-7 -0.098526 -4.2319e-9 4.47035e-7 1 -0.2278655 0 0 0 1</matrix>
                <extra>
                  <technique profile="blender">
                    <layer sid="layer" type="string">0</layer>
                    <roll sid="roll" type="float">0</roll>
                    <tip_x sid="tip_x" type="float">0</tip_x>
                    <tip_y sid="tip_y" type="float">0</tip_y>
                    <tip_z sid="tip_z" type="float">0.1</tip_z>
                  </technique>
                </extra>
              </node>
              <node id="shaolin2_Skin_knee-l-top" name="knee-l-top" sid="knee-l-top" type="JOINT">
                <matrix sid="transform">1 -6.03892e-15 7.79386e-9 0.0283868 0 0.9999999 0 -0.4877242 -7.79386e-9 0 1 0.3577119 0 0 0 1</matrix>
                <extra>
                  <technique profile="blender">
                    <layer sid="layer" type="string">0</layer>
                    <roll sid="roll" type="float">0</roll>
                    <tip_x sid="tip_x" type="float">0</tip_x>
                    <tip_y sid="tip_y" type="float">0</tip_y>
                    <tip_z sid="tip_z" type="float">0.1</tip_z>
                  </technique>
                </extra>
              </node>
              <node id="shaolin2_Skin_knee-l-bopttom" name="knee-l-bopttom" sid="knee-l-bopttom" type="JOINT">
                <matrix sid="transform">1 -6.03892e-15 3.00215e-8 0.03209621 4.47355e-15 1 -1.49012e-7 -0.736926 -3.00215e-8 1.49012e-7 1 -0.03760034 0 0 0 1</matrix>
                <node id="shaolin2_Skin_ankle_left" name="ankle left" sid="ankle_left" type="JOINT">
                  <matrix sid="transform">1 -5.11041e-8 9.27725e-7 0.008728117 3.0947e-7 -0.9295399 -0.3687218 -1.121673 8.81199e-7 0.3687218 -0.9295413 -0.0627567 0 0 0 1</matrix>
                  <node id="shaolin2_Skin_foot_left01" name="foot left01" sid="foot_left01" type="JOINT">
                    <matrix sid="transform">1 7.94596e-7 3.2423e-5 2.38419e-7 -3.01789e-5 0.3889571 0.9212559 0.216839 -1.18791e-5 -0.9212559 0.388957 -0.2809219 0 0 0 1</matrix>
                    <extra>
                      <technique profile="blender">
                        <layer sid="layer" type="string">0</layer>
                        <roll sid="roll" type="float">3.27248e-5</roll>
                        <tip_x sid="tip_x" type="float">0</tip_x>
                        <tip_y sid="tip_y" type="float">-0.09997612</tip_y>
                        <tip_z sid="tip_z" type="float">-0.002186357</tip_z>
                      </technique>
                    </extra>
                  </node>
                  <extra>
                    <technique profile="blender">
                      <layer sid="layer" type="string">0</layer>
                      <roll sid="roll" type="float">8.59183e-7</roll>
                      <tip_x sid="tip_x" type="float">0</tip_x>
                      <tip_y sid="tip_y" type="float">-0.03687214</tip_y>
                      <tip_z sid="tip_z" type="float">-0.09295403</tip_z>
                    </technique>
                  </extra>
                </node>
                <extra>
                  <technique profile="blender">
                    <layer sid="layer" type="string">0</layer>
                    <roll sid="roll" type="float">0</roll>
                    <tip_x sid="tip_x" type="float">0</tip_x>
                    <tip_y sid="tip_y" type="float">0</tip_y>
                    <tip_z sid="tip_z" type="float">0.1</tip_z>
                  </technique>
                </extra>
              </node>
              <extra>
                <technique profile="blender">
                  <layer sid="layer" type="string">0</layer>
                  <roll sid="roll" type="float">0</roll>
                  <tip_x sid="tip_x" type="float">0</tip_x>
                  <tip_y sid="tip_y" type="float">0</tip_y>
                  <tip_z sid="tip_z" type="float">0.0999999</tip_z>
                </technique>
              </extra>
            </node>
            <node id="shaolin2_Skin_femurright" name="femurright" sid="femurright" type="JOINT">
              <matrix sid="transform">1 -5.5443e-15 5.09365e-9 -0.2316408 0 1 0 -0.0098176 -5.09365e-9 2.48278e-10 1 0.05965088 0 0 0 1</matrix>
              <node id="shaolin2_Skin_butt-r" name="butt-r" sid="butt-r" type="JOINT">
                <matrix sid="transform">1 -6.03892e-15 5.58592e-9 -0.003262356 3.32947e-15 1 -5.96046e-7 -0.09589529 -5.58592e-9 5.96046e-7 1 -0.2262757 0 0 0 1</matrix>
                <extra>
                  <technique profile="blender">
                    <layer sid="layer" type="string">0</layer>
                    <roll sid="roll" type="float">0</roll>
                    <tip_x sid="tip_x" type="float">0</tip_x>
                    <tip_y sid="tip_y" type="float">0</tip_y>
                    <tip_z sid="tip_z" type="float">0.1</tip_z>
                  </technique>
                </extra>
              </node>
              <node id="shaolin2_Skin_knee-r-top" name="knee-r-top" sid="knee-r-top" type="JOINT">
                <matrix sid="transform">1 -6.03892e-15 9.03824e-9 0.05288468 5.38721e-15 0.9999999 -5.96046e-7 -0.4883386 -9.03824e-9 5.96046e-7 1 0.3589506 0 0 0 1</matrix>
                <extra>
                  <technique profile="blender">
                    <layer sid="layer" type="string">0</layer>
                    <roll sid="roll" type="float">0</roll>
                    <tip_x sid="tip_x" type="float">0</tip_x>
                    <tip_y sid="tip_y" type="float">0</tip_y>
                    <tip_z sid="tip_z" type="float">0.1</tip_z>
                  </technique>
                </extra>
              </node>
              <node id="shaolin2_Skin_knee-r-bopttom" name="knee-r-bopttom" sid="knee-r-bopttom" type="JOINT">
                <matrix sid="transform">1 -6.03892e-15 1.89711e-8 -0.01414061 0 1 0 -0.7370361 -1.89711e-8 0 1 -0.03760032 0 0 0 1</matrix>
                <node id="shaolin2_Skin_ankleright" name="ankleright" sid="ankleright" type="JOINT">
                  <matrix sid="transform">1 -2.79397e-8 8.61673e-7 -0.01317592 2.91746e-7 -0.92954 -0.3687211 -1.118303 8.11262e-7 0.3687211 -0.9295394 -0.06275678 0 0 0 1</matrix>
                  <node id="shaolin2_Skin_foot_right01" name="foot right01" sid="foot_right01" type="JOINT">
                    <matrix sid="transform">1 7.3611e-7 2.45058e-5 2.68221e-7 -2.28624e-5 0.3889574 0.9212557 0.2168392 -8.85358e-6 -0.9212557 0.3889574 -0.2809224 0 0 0 1</matrix>
                    <extra>
                      <technique profile="blender">
                        <layer sid="layer" type="string">0</layer>
                        <roll sid="roll" type="float">2.48148e-5</roll>
                        <tip_x sid="tip_x" type="float">0</tip_x>
                        <tip_y sid="tip_y" type="float">-0.09997606</tip_y>
                        <tip_z sid="tip_z" type="float">-0.002186477</tip_z>
                      </technique>
                    </extra>
                  </node>
                  <extra>
                    <technique profile="blender">
                      <layer sid="layer" type="string">0</layer>
                      <roll sid="roll" type="float">7.97911e-7</roll>
                      <tip_x sid="tip_x" type="float">0</tip_x>
                      <tip_y sid="tip_y" type="float">-0.03687208</tip_y>
                      <tip_z sid="tip_z" type="float">-0.09295403</tip_z>
                    </technique>
                  </extra>
                </node>
                <extra>
                  <technique profile="blender">
                    <layer sid="layer" type="string">0</layer>
                    <roll sid="roll" type="float">0</roll>
                    <tip_x sid="tip_x" type="float">0</tip_x>
                    <tip_y sid="tip_y" type="float">0</tip_y>
                    <tip_z sid="tip_z" type="float">0.1</tip_z>
                  </technique>
                </extra>
              </node>
              <extra>
                <technique profile="blender">
                  <layer sid="layer" type="string">0</layer>
                  <roll sid="roll" type="float">0</roll>
                  <tip_x sid="tip_x" type="float">0</tip_x>
                  <tip_y sid="tip_y" type="float">0</tip_y>
                  <tip_z sid="tip_z" type="float">0.0999999</tip_z>
                </technique>
              </extra>
            </node>
            <node id="shaolin2_Skin_lumbar" name="lumbar" sid="lumbar" type="JOINT">
              <matrix sid="transform">1 -5.5443e-15 4.81516e-9 0.004538174 0 1 3.72529e-8 0.189765 -4.81516e-9 -3.70047e-8 1 -0.05340066 0 0 0 1</matrix>
              <node id="shaolin2_Skin_rib" name="rib" sid="rib" type="JOINT">
                <matrix sid="transform">1 -5.8325e-15 4.3098e-9 -0.01278648 0 1 0 0.7050576 -4.3098e-9 2.48249e-10 1 0.1130516 0 0 0 1</matrix>
                <node id="shaolin2_Skin_scapula" name="scapula" sid="scapula" type="JOINT">
                  <matrix sid="transform">0.2712269 -0.9625155 -1.11116e-7 0.4182977 0.9625154 0.271227 -1.04912e-7 0.2449708 1.31118e-7 -7.84962e-8 1 -4.3226e-8 0 0 0 1</matrix>
                  <node id="shaolin2_Skin_ulna" name="ulna" sid="ulna" type="JOINT">
                    <matrix sid="transform">0.9999999 -2.08616e-7 9.00972e-8 0.1237388 1.78814e-7 1 -1.42109e-14 -0.5993565 -9.00972e-8 2.84217e-14 1 -7.27573e-9 0 0 0 1</matrix>
                    <extra>
                      <technique profile="blender">
                        <layer sid="layer" type="string">0</layer>
                        <roll sid="roll" type="float">-1.296129</roll>
                        <tip_x sid="tip_x" type="float">-0.09625172</tip_x>
                        <tip_y sid="tip_y" type="float">0</tip_y>
                        <tip_z sid="tip_z" type="float">0.02712273</tip_z>
                      </technique>
                    </extra>
                  </node>
                  <extra>
                    <technique profile="blender">
                      <layer sid="layer" type="string">0</layer>
                      <roll sid="roll" type="float">-1.296129</roll>
                      <tip_x sid="tip_x" type="float">-0.09625166</tip_x>
                      <tip_y sid="tip_y" type="float">0</tip_y>
                      <tip_z sid="tip_z" type="float">0.02712273</tip_z>
                    </technique>
                  </extra>
                </node>
                <node id="shaolin2_Skin_scapula01" name="scapula01" sid="scapula01" type="JOINT">
                  <matrix sid="transform">0.2376698 0.971346 -3.99445e-8 -0.4432708 -0.9713459 0.2376697 9.6725e-8 0.2449708 1.03447e-7 1.58113e-8 1 -4.3226e-8 0 0 0 1</matrix>
                  <node id="shaolin2_Skin_ulna01" name="ulna01" sid="ulna01" type="JOINT">
                    <matrix sid="transform">1 5.96046e-8 4.1575e-9 -0.1120017 -5.96046e-8 1 -1.19209e-7 -0.5993566 -4.15752e-9 1.19209e-7 1 1.35282e-9 0 0 0 1</matrix>
                    <node id="shaolin2_Skin_carpal_right" name="carpal right" sid="carpal_right" type="JOINT">
                      <matrix sid="transform">1 4.32134e-7 -2.12494e-8 -0.1377449 0 1 -1.44773e-13 -0.5311357 2.12494e-8 1.3245e-13 1 -1.42004e-7 0 0 0 1</matrix>
                      <node id="shaolin2_Skin_smoke_node_1" name="smoke node 1" sid="smoke_node_1" type="JOINT">
                        <matrix sid="transform">1 6.68806e-7 2.71648e-5 0.02609396 2.74181e-5 -0.0067389 -0.9999773 -0.1824127 -4.85701e-7 0.9999772 -0.006738782 0.04844672 0 0 0 1</matrix>
                        <node id="shaolin2_Skin_ammo_node_0" name="ammo node 0" sid="ammo_node_0" type="JOINT">
                          <matrix sid="transform">1 6.45965e-5 -3.22316e-7 0.00261426 7.59726e-7 -0.006740567 0.9999774 1.569697 6.48797e-5 -0.9999773 -0.006740693 0.04451513 0 0 0 1</matrix>
                          <extra>
                            <technique profile="blender">
                              <layer sid="layer" type="string">0</layer>
                              <roll sid="roll" type="float">1.330868</roll>
                              <tip_x sid="tip_x" type="float">0.09760963</tip_x>
                              <tip_y sid="tip_y" type="float">1.19209e-7</tip_y>
                              <tip_z sid="tip_z" type="float">0.02387928</tip_z>
                            </technique>
                          </extra>
                        </node>
                        <extra>
                          <technique profile="blender">
                            <layer sid="layer" type="string">0</layer>
                            <roll sid="roll" type="float">1.330741</roll>
                            <tip_x sid="tip_x" type="float">-6.54578e-4</tip_x>
                            <tip_y sid="tip_y" type="float">-0.09999769</tip_y>
                            <tip_z sid="tip_z" type="float">-1.60217e-4</tip_z>
                          </technique>
                        </extra>
                      </node>
                      <extra>
                        <technique profile="blender">
                          <layer sid="layer" type="string">0</layer>
                          <roll sid="roll" type="float">1.33083</roll>
                          <tip_x sid="tip_x" type="float">0.09713459</tip_x>
                          <tip_y sid="tip_y" type="float">0</tip_y>
                          <tip_z sid="tip_z" type="float">0.02376699</tip_z>
                        </technique>
                      </extra>
                    </node>
                    <extra>
                      <technique profile="blender">
                        <layer sid="layer" type="string">0</layer>
                        <roll sid="roll" type="float">1.33083</roll>
                        <tip_x sid="tip_x" type="float">0.0971347</tip_x>
                        <tip_y sid="tip_y" type="float">0</tip_y>
                        <tip_z sid="tip_z" type="float">0.02376699</tip_z>
                      </technique>
                    </extra>
                  </node>
                  <extra>
                    <technique profile="blender">
                      <layer sid="layer" type="string">0</layer>
                      <roll sid="roll" type="float">1.33083</roll>
                      <tip_x sid="tip_x" type="float">0.0971347</tip_x>
                      <tip_y sid="tip_y" type="float">0</tip_y>
                      <tip_z sid="tip_z" type="float">0.02376699</tip_z>
                    </technique>
                  </extra>
                </node>
                <node id="shaolin2_Skin_neck" name="neck" sid="neck" type="JOINT">
                  <matrix sid="transform">1 -6.09045e-15 3.8053e-9 -0.01369714 2.27727e-16 0.9999999 -5.98444e-8 0.4694993 -3.8053e-9 5.98444e-8 1 -1.36874e-7 0 0 0 1</matrix>
                  <node id="shaolin2_Skin_skull" name="skull" sid="skull" type="JOINT">
                    <matrix sid="transform">1 -6.54594e-15 1.56953e-9 -0.007297663 0 1 1.86269e-9 0.4520025 -1.56953e-9 -1.86269e-9 1 7.10191e-8 0 0 0 1</matrix>
                    <node id="shaolin2_Skin_nogginbottom" name="nogginbottom" sid="nogginbottom" type="JOINT">
                      <matrix sid="transform">1 2.3283e-9 2.3955e-7 0.001799161 -1.23428e-8 0.9991254 0.0418141 0.08982587 -2.39243e-7 -0.0418141 0.9991254 0.2822085 0 0 0 1</matrix>
                      <extra>
                        <technique profile="blender">
                          <layer sid="layer" type="string">0</layer>
                          <roll sid="roll" type="float">2.98529e-7</roll>
                          <tip_x sid="tip_x" type="float">0</tip_x>
                          <tip_y sid="tip_y" type="float">0.004181385</tip_y>
                          <tip_z sid="tip_z" type="float">0.09991264</tip_z>
                        </technique>
                      </extra>
                    </node>
                    <node id="shaolin2_Skin_plumes" name="plumes" sid="plumes" type="JOINT">
                      <matrix sid="transform">1 -5.77316e-15 4.80032e-7 -0.002369052 -1.01293e-8 0.9997773 0.02110134 0.1819341 -4.79925e-7 -0.02110134 0.9997773 0.1862074 0 0 0 1</matrix>
                      <extra>
                        <technique profile="blender">
                          <layer sid="layer" type="string">0</layer>
                          <roll sid="roll" type="float">5.3905e-7</roll>
                          <tip_x sid="tip_x" type="float">0</tip_x>
                          <tip_y sid="tip_y" type="float">0.002110123</tip_y>
                          <tip_z sid="tip_z" type="float">0.09997797</tip_z>
                        </technique>
                      </extra>
                    </node>
                    <node id="shaolin2_Skin_skulltop" name="skulltop" sid="skulltop" type="JOINT">
                      <matrix sid="transform">1 -6.73088e-15 4.67863e-9 -0.00416824 0 1 7.10543e-14 0.3702886 -4.67863e-9 -7.10543e-14 1 -4.26326e-14 0 0 0 1</matrix>
                      <extra>
                        <technique profile="blender">
                          <layer sid="layer" type="string">0</layer>
                          <roll sid="roll" type="float">0</roll>
                          <tip_x sid="tip_x" type="float">0</tip_x>
                          <tip_y sid="tip_y" type="float">0</tip_y>
                          <tip_z sid="tip_z" type="float">0.0999999</tip_z>
                        </technique>
                      </extra>
                    </node>
                    <extra>
                      <technique profile="blender">
                        <layer sid="layer" type="string">0</layer>
                        <roll sid="roll" type="float">0</roll>
                        <tip_x sid="tip_x" type="float">0</tip_x>
                        <tip_y sid="tip_y" type="float">0</tip_y>
                        <tip_z sid="tip_z" type="float">0.1000001</tip_z>
                      </technique>
                    </extra>
                  </node>
                  <node id="shaolin2_Skin_smoke_node_0" name="smoke node 0" sid="smoke_node_0" type="JOINT">
                    <matrix sid="transform">1 -5.06081e-5 -1.10468e-6 0.006514961 -1.10467e-6 1.02446e-7 -0.9999999 0.09218764 5.06081e-5 0.9999999 2.35801e-7 0.2430202 0 0 0 1</matrix>
                    <extra>
                      <technique profile="blender">
                        <layer sid="layer" type="string">0</layer>
                        <roll sid="roll" type="float">3.141592</roll>
                        <tip_x sid="tip_x" type="float">-5.05522e-6</tip_x>
                        <tip_y sid="tip_y" type="float">-0.09999996</tip_y>
                        <tip_z sid="tip_z" type="float">0</tip_z>
                      </technique>
                    </extra>
                  </node>
                  <extra>
                    <technique profile="blender">
                      <layer sid="layer" type="string">0</layer>
                      <roll sid="roll" type="float">0</roll>
                      <tip_x sid="tip_x" type="float">0</tip_x>
                      <tip_y sid="tip_y" type="float">0</tip_y>
                      <tip_z sid="tip_z" type="float">0.1000001</tip_z>
                    </technique>
                  </extra>
                </node>
                <node id="shaolin2_Skin_cloaktop" name="cloaktop" sid="cloaktop" type="JOINT">
                  <matrix sid="transform">1 -6.09045e-15 6.60961e-9 0.009935169 9.84911e-16 0.9999999 -1.49012e-7 0.3512919 -6.60961e-9 1.49012e-7 1 -0.1981267 0 0 0 1</matrix>
                  <node id="shaolin2_Skin_cloak" name="cloak" sid="cloak" type="JOINT">
                    <matrix sid="transform">1 -7.47097e-15 1.47715e-10 0.004538157 0 1 1.49011e-7 -0.859081 -1.47715e-10 -1.48763e-7 1 -0.2356979 0 0 0 1</matrix>
                    <node id="shaolin2_Skin_cloakbottom" name="cloakbottom" sid="cloakbottom" type="JOINT">
                      <matrix sid="transform">1 -7.47981e-15 0 -0.02733967 0 1 0 -0.8312191 0 2.48605e-10 1 -0.1177092 0 0 0 1</matrix>
                      <extra>
                        <technique profile="blender">
                          <layer sid="layer" type="string">0</layer>
                          <roll sid="roll" type="float">0</roll>
                          <tip_x sid="tip_x" type="float">0</tip_x>
                          <tip_y sid="tip_y" type="float">0</tip_y>
                          <tip_z sid="tip_z" type="float">0.1</tip_z>
                        </technique>
                      </extra>
                    </node>
                    <extra>
                      <technique profile="blender">
                        <layer sid="layer" type="string">0</layer>
                        <roll sid="roll" type="float">0</roll>
                        <tip_x sid="tip_x" type="float">0</tip_x>
                        <tip_y sid="tip_y" type="float">0</tip_y>
                        <tip_z sid="tip_z" type="float">0.1000001</tip_z>
                      </technique>
                    </extra>
                  </node>
                  <extra>
                    <technique profile="blender">
                      <layer sid="layer" type="string">0</layer>
                      <roll sid="roll" type="float">0</roll>
                      <tip_x sid="tip_x" type="float">0</tip_x>
                      <tip_y sid="tip_y" type="float">0</tip_y>
                      <tip_z sid="tip_z" type="float">0.0999999</tip_z>
                    </technique>
                  </extra>
                </node>
                <extra>
                  <technique profile="blender">
                    <layer sid="layer" type="string">0</layer>
                    <roll sid="roll" type="float">0</roll>
                    <tip_x sid="tip_x" type="float">0</tip_x>
                    <tip_y sid="tip_y" type="float">0</tip_y>
                    <tip_z sid="tip_z" type="float">0.0999999</tip_z>
                  </technique>
                </extra>
              </node>
              <extra>
                <technique profile="blender">
                  <layer sid="layer" type="string">0</layer>
                  <roll sid="roll" type="float">0</roll>
                  <tip_x sid="tip_x" type="float">0</tip_x>
                  <tip_y sid="tip_y" type="float">0</tip_y>
                  <tip_z sid="tip_z" type="float">0.0999999</tip_z>
                </technique>
              </extra>
            </node>
            <extra>
              <technique profile="blender">
                <layer sid="layer" type="string">0</layer>
                <roll sid="roll" type="float">0</roll>
                <tip_x sid="tip_x" type="float">0</tip_x>
                <tip_y sid="tip_y" type="float">0</tip_y>
                <tip_z sid="tip_z" type="float">0.1000001</tip_z>
              </technique>
            </extra>
          </node>
          <extra>
            <technique profile="blender">
              <layer sid="layer" type="string">0</layer>
              <roll sid="roll" type="float">0</roll>
              <tip_x sid="tip_x" type="float">0</tip_x>
              <tip_y sid="tip_y" type="float">0</tip_y>
              <tip_z sid="tip_z" type="float">0.1000001</tip_z>
            </technique>
          </extra>
        </node>
      </node>
      <node id="shins" name="shins" type="NODE">
        <translate sid="location">0 0 0</translate>
        <rotate sid="rotationZ">0 0 1 0</rotate>
        <rotate sid="rotationY">0 1 0 0</rotate>
        <rotate sid="rotationX">1 0 0 0</rotate>
        <scale sid="scale">1 1 1</scale>
        <instance_controller url="#shaolin2_Skin_shins-skin">
          <skeleton>#shaolin2_Skin_root</skeleton>
          <bind_material>
            <technique_common>
              <instance_material symbol="shaolin-material" target="#shaolin-material"/>
            </technique_common>
          </bind_material>
        </instance_controller>
      </node>
    </visual_scene>
  </library_visual_scenes>
  <scene>
    <instance_visual_scene url="#Scene"/>
  </scene>
</COLLADA>